<?xml version="1.0" encoding="utf-8"?>
<!DOCTYPE svg PUBLIC "-//W3C//DTD SVG 1.1//EN" "http://www.w3.org/Graphics/SVG/1.1/DTD/svg11.dtd">
<svg xmlns="http://www.w3.org/2000/svg" xmlns:xlink="http://www.w3.org/1999/xlink" version="1.1" class="marks" width="168" height="165" viewBox="0 0 168 165"><rect width="168" height="165" fill="white"/><g fill="none" stroke-miterlimit="10" transform="translate(43,10)"><g class="mark-group role-frame root" role="graphics-object" aria-roledescription="group mark container"><g transform="translate(0,0)"><path class="background" aria-hidden="true" d="M0.5,0.5h120v120h-120Z"/><g><g class="mark-group role-axis" role="graphics-symbol" aria-roledescription="axis" aria-label="X-axis titled 'VO2 (mmol/L mito/s)' for a linear scale with values from 0.0 to 2.2"><g transform="translate(0.5,120.5)"><path class="background" aria-hidden="true" d="M0,0h0v0h0Z" pointer-events="none"/><g><g class="mark-rule role-axis-tick" pointer-events="none"><line transform="translate(0,0)" x2="0" y2="3" stroke="black" stroke-width="1" opacity="1"/><line transform="translate(55,0)" x2="0" y2="3" stroke="black" stroke-width="1" opacity="1"/><line transform="translate(109,0)" x2="0" y2="3" stroke="black" stroke-width="1" opacity="1"/></g><g class="mark-text role-axis-label" pointer-events="none"><text text-anchor="start" transform="translate(0,13)" font-family="Arial" font-size="10px" fill="#000" opacity="1">0</text><text text-anchor="middle" transform="translate(54.54545454545455,13)" font-family="Arial" font-size="10px" fill="#000" opacity="1">1</text><text text-anchor="middle" transform="translate(109.0909090909091,13)" font-family="Arial" font-size="10px" fill="#000" opacity="1">2</text></g><g class="mark-rule role-axis-domain" pointer-events="none"><line transform="translate(0,0)" x2="120" y2="0" stroke="black" stroke-width="1" opacity="1"/></g><g class="mark-text role-axis-title" pointer-events="none"><text text-anchor="middle" transform="translate(60,28)" font-family="Arial" font-size="11px" font-weight="normal" fill="#000" opacity="1">VO2 (mmol/L mito/s)</text></g></g><path class="foreground" aria-hidden="true" d="" pointer-events="none" display="none"/></g></g><g class="mark-group role-axis" role="graphics-symbol" aria-roledescription="axis" aria-label="Y-axis titled 'ADP (μM)' for a linear scale with values from 0 to 100"><g transform="translate(0.5,0.5)"><path class="background" aria-hidden="true" d="M0,0h0v0h0Z" pointer-events="none"/><g><g class="mark-rule role-axis-tick" pointer-events="none"><line transform="translate(0,120)" x2="-3" y2="0" stroke="black" stroke-width="1" opacity="1"/><line transform="translate(0,60)" x2="-3" y2="0" stroke="black" stroke-width="1" opacity="1"/><line transform="translate(0,0)" x2="-3" y2="0" stroke="black" stroke-width="1" opacity="1"/></g><g class="mark-text role-axis-label" pointer-events="none"><text text-anchor="end" transform="translate(-5,123)" font-family="Arial" font-size="10px" fill="#000" opacity="1">0</text><text text-anchor="end" transform="translate(-5,63)" font-family="Arial" font-size="10px" fill="#000" opacity="1">50</text><text text-anchor="end" transform="translate(-5,3)" font-family="Arial" font-size="10px" fill="#000" opacity="1">100</text></g><g class="mark-rule role-axis-domain" pointer-events="none"><line transform="translate(0,120)" x2="0" y2="-120" stroke="black" stroke-width="1" opacity="1"/></g><g class="mark-text role-axis-title" pointer-events="none"><text text-anchor="middle" transform="translate(-27,60) rotate(-90) translate(0,-2)" font-family="Arial" font-size="11px" font-weight="normal" fill="#000" opacity="1">ADP (μM)</text></g></g><path class="foreground" aria-hidden="true" d="" pointer-events="none" display="none"/></g></g><g class="mark-group role-scope layer_0_pathgroup" role="graphics-object" aria-roledescription="group mark container"><g transform="translate(0,0)"><path class="background" aria-hidden="true" d="M0,0h120v120h-120Z"/><g><g class="mark-line role-mark layer_0_marks" clip-path="url(#clip1)" role="graphics-object" aria-roledescription="line mark container"><path aria-label="VO2_m: 0.23106662489; ADP_μ: 2.97230677792; group: Young" role="graphics-symbol" aria-roledescription="line mark" d="M12.603634084900651,116.43323186649783L13.854323564136616,115.49434000814173L15.094417771975314,114.58508511466505L16.326567915505986,113.69761786699073L17.552798630699968,112.82671769981364L18.77457219924672,111.96849754637199L19.99292998499774,111.11994251602043L21.20860919153052,110.27865750817809L22.42213417255674,109.44270144489373L23.63388245721302,108.61047387150114L24.844125443260854,107.78062464440632L26.05305610542149,106.95199754316054L27.260814967945816,106.12358128250183L28.46749990360469,105.29447447570314L29.67317701620227,104.46385843995554L30.877889868017704,103.63097884365324L32.08166012671424,102.79512306624414L33.284495479750596,101.95561126558682L34.4863894653962,101.11178119764958L35.687325909928134,100.26298156183948L36.88727687568896,99.40855716348997L38.08620603744713,98.54784427232407L39.28406960654887,97.6801634800485L40.4808133605421,96.80480430072716L41.67637721254238,95.92102662030416L42.87069169089671,95.02804310093707L44.06367771952939,94.12501495542185L45.25524967844822,93.21103865973396L46.445310984124255,92.28513661066398L47.63375375139095,91.3462376474842L48.82046001527084,90.39317317128331L50.00529955383679,89.42464881035586L51.18812689671585,88.43922582862919L52.36878318994722,87.4353037802237L53.54708980349776,86.41107990535006L54.72285126226119,85.36452694867057L55.895849098685694,84.2933410901303L57.06583953760296,83.19489532876604L58.23255255384821,82.06617890497157L59.39568392165145,80.90370910913529L60.55489223307869,79.70344021856404L61.70979485713035,78.46064259617162L62.85995645628938,77.16972105591137L64.0048873455304,75.82403944897877L65.14402499063854,74.41559208102373L66.27672891739809,72.93466835628666L67.40225556416323,71.36930191759136L68.51975156314676,69.70454412423808L69.6282195553469,67.92140822129461L70.72647553405768,65.99525595401626L71.81312726863756,63.89337079166055L72.88648965859927,61.57104556854598L73.94449510296327,58.96514680554877L74.98459788736209,55.98294793479231L76.00352330958015,52.48201746603975L76.99704154134993,48.232660238279784L77.95951440637354,42.84457696059664L78.88322445841169,35.62031365945663L79.75728526742793,25.263961121103392L80.56565541339104,9.331153032806846L81.28350606913733,-16.65723220969855L81.87307561833217,-60.035057070382756L82.2941176693265,-129.1632179671477L82.55494267535664,-224.43602390924607L82.72866400024111,-334.07589219474886L82.86174693974837,-448.53030454661405L82.96397314498036,-564.2452058235152L83.04267691921399,-679.0908501480211L83.10483129329474,-791.6272239479972L83.15530113045106,-901.0497742202319L83.1972773634458,-1006.9692562034094L83.23289015484438,-1109.2389108983198L83.26360753617293,-1207.8501908607025L83.29047063463138,-1302.8725964356736L83.31423985158003,-1394.4181772247648L83.33548195698266,-1482.620992325715L83.35462912415909,-1567.6245869495544L83.37201790764624,-1649.5745516800973L83.38791004424229,-1728.6146603873967L83.40251963847108,-1804.8835226564586L83.41601795592243,-1878.5139862369304L83.42854360948292,-1949.6323877066004L83.44021531515608,-2018.357827962565L83.45113000774631,-2084.8028487066317L83.46137005957189,-2149.0733367959588L83.47100524057677,-2211.2689159142806L83.48009570622855,-2271.4832349010762L83.48869380333832,-2329.804332577226L83.49684327681186,-2386.3151637221863L83.50458437401902,-2441.09365591179L83.51195155124718,-2494.2132838505654L83.51897492817238,-2545.743331635974L83.52568159543794,-2595.7491374274505L83.53209555703815,-2644.292408667151L83.53823824994387,-2691.4314680912175L83.54412914518375,-2737.22147242819L83.54978459288313,-2781.714719340294L83.5552213769652,-2824.9606383307823L83.56045328333873,-2867.006203594072L83.56549321123214,-2907.89598066782" stroke="#009DA3" stroke-width="2"/></g></g><path class="foreground" aria-hidden="true" d="" display="none"/></g><g transform="translate(0,0)"><path class="background" aria-hidden="true" d="M0,0h120v120h-120Z"/><g><g class="mark-line role-mark layer_0_marks" clip-path="url(#clip2)" role="graphics-object" aria-roledescription="line mark container"><path aria-label="VO2_m: 0.232158006883; ADP_μ: 2.89309747298; group: Old" role="graphics-symbol" aria-roledescription="line mark" d="M12.663164011815491,116.52828303241976L13.917578839445301,115.58904826796362L15.162692582010438,114.68205244855284L16.400490198939433,113.79893073267056L17.63272750585508,112.93421136254145L18.86076482035703,112.08384087746015L20.08560390562708,111.24469437313746L21.307973315696074,110.41431608949367L22.52840139486239,109.59074380849769L23.747276268836377,108.77238680154845L24.96488374529879,107.95793380685839L26.181437134162714,107.14628828464177L27.397096787653336,106.33651973896028L28.611983845041742,105.52782713154072L29.82619006689047,104.71951144292895L31.039785031202914,103.91095462410787L32.25282152015135,103.10160382517792L33.46533885802639,102.29095805066548L34.67736597245032,101.47855795768827L35.88892384530983,100.6639782968415L37.10002612751828,99.84682052863687L38.31068153618198,99.02670752745652L39.52089422019008,98.20327934731503L40.73066440305609,97.37618875640025L41.93998934384983,96.54509859384761L43.14886342215539,95.70967796890203L44.35727817302194,94.86959945113958L45.56522370177738,94.0245383791975L46.772688250845114,93.17416909108968L47.97965644523578,92.31816220487289L49.18611327876174,91.45618583907206L50.392042061016966,90.58790110189481L51.597422130210624,89.71295747650508L52.80223516009787,88.8309993945815L54.00645757721905,87.94165677330342L55.21006591625224,87.04454470948765L56.41303491850199,86.13926269070332L57.61533759110354,85.22539399092409L58.81694519373629,84.30249828966329L60.01782696697277,83.37011348483063L61.2179503874536,82.42775227164078L62.417280807366915,81.47489845430992L63.61578126438677,80.51100362217056L64.81341261925778,79.53548510634491L66.01013306847537,78.54772039273736L67.2058982005158,77.547044446572L68.40066022188296,76.53274185912325L69.59436893630385,75.50404809715123L70.78697015111194,74.46013490439515L71.97840567279074,73.40010883526162L73.16861371713489,72.32300360061238L74.35752793266768,71.22777022755311L75.54507684652987,70.1132655324177L76.73118400963928,68.97824459743961L77.91576612966122,67.82134184141667L79.09873436851387,66.64106053556151L80.2799932653168,65.43576057415274L81.45943739921336,64.20361749507002L82.63695406736922,62.942621666995635L83.81242055125038,61.650537812583764L84.98570202456503,60.324869427483996L86.15665325534606,58.96282836164995L87.32511363143362,57.56127367470456L88.49090689002615,56.116657007795396L89.6538401100724,54.624960934604225L90.81369772935555,53.08158586431722L91.97024676376671,51.481267776177646L93.12321905143502,49.817918401441375L94.27232087159386,48.084452370382124L95.41722193161314,46.27257536971729L96.55754933078734,44.37248836391711L97.69288069786626,42.37247145265185L98.82273996302095,40.25841712281349L99.94655269070508,38.013100748495326L101.06369589973471,35.61524071328955L102.17341521294375,33.03811734565849L103.27482932894952,30.247708782401432L104.36688286296193,27.19984308521838L105.44830144248004,23.83602071060663L106.51750591480952,20.077084427462747L107.57257942985859,15.813429254049476L108.61098258703299,10.889383352063646L109.6294659106104,5.07842197868726L110.62367592627695,-1.9568677817332158L111.58764463238164,-10.728780862097507L112.5130968524648,-22.021633606556748L113.38852733625568,-37.02272552933553L114.19845571137981,-57.44760445435639L114.9240443930797,-85.51011777860388L115.54711608358201,-123.4566180930966L116.05833263992197,-172.54410580842844L116.46320261453363,-232.16845782621849L116.77858746045116,-300.1984832982546L117.02396375438072,-374.06547315304033L117.21657682402821,-451.4814375675543L117.37013084287425,-530.6672590856452L117.49476325594512,-610.35328299665L117.59775990186922,-689.6778019495629L117.68430220187678,-768.0737271933962L117.75811042444721,-845.1771255658632" stroke="#F98F00" stroke-width="2"/></g></g><path class="foreground" aria-hidden="true" d="" display="none"/></g></g><g class="mark-group role-legend" role="graphics-symbol" aria-roledescription="legend" aria-label="Symbol legend for stroke color with 2 values: Young, Old"><g transform="translate(5,5)"><path class="background" aria-hidden="true" d="M0,0h46v24h-46Z" pointer-events="none"/><g><g class="mark-group role-legend-entry"><g transform="translate(0,0)"><path class="background" aria-hidden="true" d="M0,0h0v0h0Z" pointer-events="none"/><g><g class="mark-group role-scope" role="graphics-object" aria-roledescription="group mark container"><g transform="translate(0,0)"><path class="background" aria-hidden="true" d="M0,0h46v11h-46Z" pointer-events="none" opacity="1"/><g><g class="mark-symbol role-legend-symbol" pointer-events="none"><path transform="translate(6,6)" d="M-5,0L5,0" stroke="#009DA3" stroke-width="1.5" opacity="1"/></g><g class="mark-text role-legend-label" pointer-events="none"><text text-anchor="start" transform="translate(16,9)" font-family="Arial" font-size="10px" fill="#000" opacity="1">Young</text></g></g><path class="foreground" aria-hidden="true" d="" pointer-events="none" display="none"/></g><g transform="translate(0,13)"><path class="background" aria-hidden="true" d="M0,0h46v11h-46Z" pointer-events="none" opacity="1"/><g><g class="mark-symbol role-legend-symbol" pointer-events="none"><path transform="translate(6,6)" d="M-5,0L5,0" stroke="#F98F00" stroke-width="1.5" opacity="1"/></g><g class="mark-text role-legend-label" pointer-events="none"><text text-anchor="start" transform="translate(16,9)" font-family="Arial" font-size="10px" fill="#000" opacity="1">Old</text></g></g><path class="foreground" aria-hidden="true" d="" pointer-events="none" display="none"/></g></g></g><path class="foreground" aria-hidden="true" d="" pointer-events="none" display="none"/></g></g></g><path class="foreground" aria-hidden="true" d="" pointer-events="none" display="none"/></g></g></g><path class="foreground" aria-hidden="true" d="" display="none"/></g></g></g><defs><clipPath id="clip1"><rect x="0" y="0" width="120" height="120"/></clipPath><clipPath id="clip2"><rect x="0" y="0" width="120" height="120"/></clipPath></defs></svg>
