<?xml version="1.0" encoding="utf-8"?>
<!DOCTYPE svg PUBLIC "-//W3C//DTD SVG 1.1//EN" "http://www.w3.org/Graphics/SVG/1.1/DTD/svg11.dtd">
<svg xmlns="http://www.w3.org/2000/svg" xmlns:xlink="http://www.w3.org/1999/xlink" version="1.1" class="marks" width="168" height="165" viewBox="0 0 168 165"><rect width="168" height="165" fill="white"/><g fill="none" stroke-miterlimit="10" transform="translate(43,10)"><g class="mark-group role-frame root" role="graphics-object" aria-roledescription="group mark container"><g transform="translate(0,0)"><path class="background" aria-hidden="true" d="M0.5,0.5h120v120h-120Z"/><g><g class="mark-group role-axis" role="graphics-symbol" aria-roledescription="axis" aria-label="X-axis titled 'VO2 (mmol/L mito/s)' for a linear scale with values from 0.0 to 2.2"><g transform="translate(0.5,120.5)"><path class="background" aria-hidden="true" d="M0,0h0v0h0Z" pointer-events="none"/><g><g class="mark-rule role-axis-tick" pointer-events="none"><line transform="translate(0,0)" x2="0" y2="3" stroke="black" stroke-width="1" opacity="1"/><line transform="translate(55,0)" x2="0" y2="3" stroke="black" stroke-width="1" opacity="1"/><line transform="translate(109,0)" x2="0" y2="3" stroke="black" stroke-width="1" opacity="1"/></g><g class="mark-text role-axis-label" pointer-events="none"><text text-anchor="start" transform="translate(0,13)" font-family="Arial" font-size="10px" fill="#000" opacity="1">0</text><text text-anchor="middle" transform="translate(54.54545454545455,13)" font-family="Arial" font-size="10px" fill="#000" opacity="1">1</text><text text-anchor="middle" transform="translate(109.0909090909091,13)" font-family="Arial" font-size="10px" fill="#000" opacity="1">2</text></g><g class="mark-rule role-axis-domain" pointer-events="none"><line transform="translate(0,0)" x2="120" y2="0" stroke="black" stroke-width="1" opacity="1"/></g><g class="mark-text role-axis-title" pointer-events="none"><text text-anchor="middle" transform="translate(60,28)" font-family="Arial" font-size="11px" font-weight="normal" fill="#000" opacity="1">VO2 (mmol/L mito/s)</text></g></g><path class="foreground" aria-hidden="true" d="" pointer-events="none" display="none"/></g></g><g class="mark-group role-axis" role="graphics-symbol" aria-roledescription="axis" aria-label="Y-axis titled 'ADP (μM)' for a linear scale with values from 0 to 100"><g transform="translate(0.5,0.5)"><path class="background" aria-hidden="true" d="M0,0h0v0h0Z" pointer-events="none"/><g><g class="mark-rule role-axis-tick" pointer-events="none"><line transform="translate(0,120)" x2="-3" y2="0" stroke="black" stroke-width="1" opacity="1"/><line transform="translate(0,60)" x2="-3" y2="0" stroke="black" stroke-width="1" opacity="1"/><line transform="translate(0,0)" x2="-3" y2="0" stroke="black" stroke-width="1" opacity="1"/></g><g class="mark-text role-axis-label" pointer-events="none"><text text-anchor="end" transform="translate(-5,123)" font-family="Arial" font-size="10px" fill="#000" opacity="1">0</text><text text-anchor="end" transform="translate(-5,63)" font-family="Arial" font-size="10px" fill="#000" opacity="1">50</text><text text-anchor="end" transform="translate(-5,3)" font-family="Arial" font-size="10px" fill="#000" opacity="1">100</text></g><g class="mark-rule role-axis-domain" pointer-events="none"><line transform="translate(0,120)" x2="0" y2="-120" stroke="black" stroke-width="1" opacity="1"/></g><g class="mark-text role-axis-title" pointer-events="none"><text text-anchor="middle" transform="translate(-27,60) rotate(-90) translate(0,-2)" font-family="Arial" font-size="11px" font-weight="normal" fill="#000" opacity="1">ADP (μM)</text></g></g><path class="foreground" aria-hidden="true" d="" pointer-events="none" display="none"/></g></g><g class="mark-group role-scope layer_0_pathgroup" role="graphics-object" aria-roledescription="group mark container"><g transform="translate(0,0)"><path class="background" aria-hidden="true" d="M0,0h120v120h-120Z"/><g><g class="mark-line role-mark layer_0_marks" clip-path="url(#clip1)" role="graphics-object" aria-roledescription="line mark container"><path aria-label="VO2_m: 0.23106662489; ADP_μ: 2.97230677792; group: Young" role="graphics-symbol" aria-roledescription="line mark" d="M12.603634084900651,116.43323186649783L13.854323564136616,115.49434000814173L15.094417771975314,114.58508511466505L16.326567915505986,113.69761786699073L17.552798630699968,112.82671769981364L18.77457219924672,111.96849754637199L19.99292998499774,111.11994251602043L21.20860919153052,110.27865750817809L22.42213417255674,109.44270144489373L23.63388245721302,108.61047387150114L24.844125443260854,107.78062464440632L26.05305610542149,106.95199754316054L27.260814967945816,106.12358128250183L28.46749990360469,105.29447447570314L29.67317701620227,104.46385843995554L30.877889868017704,103.63097884365324L32.08166012671424,102.79512306624414L33.284495479750596,101.95561126558682L34.4863894653962,101.11178119764958L35.687325909928134,100.26298156183948L36.88727687568896,99.40855716348997L38.08620603744713,98.54784427232407L39.28406960654887,97.6801634800485L40.4808133605421,96.80480430072716L41.67637721254238,95.92102662030416L42.87069169089671,95.02804310093707L44.06367771952939,94.12501495542185L45.25524967844822,93.21103865973396L46.445310984124255,92.28513661066398L47.63375375139095,91.3462376474842L48.82046001527084,90.39317317128331L50.00529955383679,89.42464881035586L51.18812689671585,88.43922582862919L52.36878318994722,87.4353037802237L53.54708980349776,86.41107990535006L54.72285126226119,85.36452694867057L55.895849098685694,84.2933410901303L57.06583953760296,83.19489532876604L58.23255255384821,82.06617890497157L59.39568392165145,80.90370910913529L60.55489223307869,79.70344021856404L61.70979485713035,78.46064259617162L62.85995645628938,77.16972105591137L64.0048873455304,75.82403944897877L65.14402499063854,74.41559208102373L66.27672891739809,72.93466835628666L67.40225556416323,71.36930191759136L68.51975156314676,69.70454412423808L69.6282195553469,67.92140822129461L70.72647553405768,65.99525595401626L71.81312726863756,63.89337079166055L72.88648965859927,61.57104556854598L73.94449510296327,58.96514680554877L74.98459788736209,55.98294793479231L76.00352330958015,52.48201746603975L76.99704154134993,48.232660238279784L77.95951440637354,42.84457696059664L78.88322445841169,35.62031365945663L79.75728526742793,25.263961121103392L80.56565541339104,9.331153032806846L81.28350606913733,-16.65723220969855L81.87307561833217,-60.035057070382756L82.2941176693265,-129.1632179671477L82.55494267535664,-224.43602390924607L82.72866400024111,-334.07589219474886L82.86174693974837,-448.53030454661405L82.96397314498036,-564.2452058235152L83.04267691921399,-679.0908501480211L83.10483129329474,-791.6272239479972L83.15530113045106,-901.0497742202319L83.1972773634458,-1006.9692562034094L83.23289015484438,-1109.2389108983198L83.26360753617293,-1207.8501908607025L83.29047063463138,-1302.8725964356736L83.31423985158003,-1394.4181772247648L83.33548195698266,-1482.620992325715L83.35462912415909,-1567.6245869495544L83.37201790764624,-1649.5745516800973L83.38791004424229,-1728.6146603873967L83.40251963847108,-1804.8835226564586L83.41601795592243,-1878.5139862369304L83.42854360948292,-1949.6323877066004L83.44021531515608,-2018.357827962565L83.45113000774631,-2084.8028487066317L83.46137005957189,-2149.0733367959588L83.47100524057677,-2211.2689159142806L83.48009570622855,-2271.4832349010762L83.48869380333832,-2329.804332577226L83.49684327681186,-2386.3151637221863L83.50458437401902,-2441.09365591179L83.51195155124718,-2494.2132838505654L83.51897492817238,-2545.743331635974L83.52568159543794,-2595.7491374274505L83.53209555703815,-2644.292408667151L83.53823824994387,-2691.4314680912175L83.54412914518375,-2737.22147242819L83.54978459288313,-2781.714719340294L83.5552213769652,-2824.9606383307823L83.56045328333873,-2867.006203594072L83.56549321123214,-2907.89598066782" stroke="#009DA3" stroke-width="2"/></g></g><path class="foreground" aria-hidden="true" d="" display="none"/></g><g transform="translate(0,0)"><path class="background" aria-hidden="true" d="M0,0h120v120h-120Z"/><g><g class="mark-line role-mark layer_0_marks" clip-path="url(#clip2)" role="graphics-object" aria-roledescription="line mark container"><path aria-label="VO2_m: 0.23618645947; ADP_μ: 2.44920444059; group: Old" role="graphics-symbol" aria-roledescription="line mark" d="M12.882897789265748,117.06095467128851L14.115032156557055,115.98616264066607L15.338363697064144,115.00376542134067L16.557081035372835,114.07335455998418L17.773053426795677,113.17647373397499L18.987267125528817,112.30284277813413L20.20029489489578,111.44603213142302L21.412487856221265,110.60169445038781L22.624071194901482,109.76672116616652L23.835191145433225,108.93878979300082L25.045944547038328,108.11610448630847L26.25639525260228,107.29723582302364L27.466584465592405,106.48101742084134L28.676538161894182,105.66647750318772L29.886271036722814,104.8527903074785L31.095789184320594,104.0392413202616L32.305093392361904,103.22520340301139L33.51418059566577,102.41011827753591L34.72304208691386,101.59347857133189L35.93166909618993,100.77482372440689L37.140049353002134,99.95372403098288L38.3481693634066,99.12977781958031L39.55601394395744,98.30260388744448L40.763567295885416,97.4718384503741L41.97081168574626,96.6371281348771L43.17772923495542,95.79812999461763L44.38430088658751,94.95450625285862L45.59050658703619,94.10592186756705L46.79632568491441,93.25204293798257L48.00173650152773,92.39253361897669L49.206716746880346,91.5270548151094L50.41124275078543,90.65526057325724L51.61529037127787,89.77679855221815L52.818833970078785,88.89130502841131L54.02184743396319,87.99840682854969L55.22430279748673,87.09771475675635L56.42617149929836,86.1888256169823L57.627422736859266,85.27131619027756L58.828025584719725,84.34474565837559L60.02794605194759,83.40864662516705L61.22714946468945,82.46253000070985L62.425598997761384,81.50587626957095L63.62325553533505,80.53813331804089L64.82007798635375,79.55871332656021L66.01602294435939,78.56699644421343L67.21104463467545,77.56230724683012L68.4050946558992,76.54393049846027L69.59811826565098,75.51109611253653L70.79006311257204,74.46297187797067L71.98086930898769,73.39866155863052L73.1704734755107,72.31719095878574L74.35880819754776,71.21750465310747L75.54580150011103,70.09845644410254L76.73137549686265,68.95879025966556L77.91544679177686,67.79713372985513L79.09792387290983,66.61197797295769L80.27871400179099,65.40167396687015L81.45770773251509,64.16438071797467L82.63479259840393,62.8980717196671L83.80984402950908,61.6004923864772L84.98272821597561,60.269125693569556L86.15329765103584,58.90115139953586L87.32139034509224,57.493391874994174L88.48683037486578,56.0422669475003L89.64942216274406,54.54369684789104L90.808950169184,52.99302541219737L91.96517617354925,51.38491287620927L93.11783471210337,49.7131712650694L94.26662739168333,47.97059508757593L95.41122236054238,46.14873836969005L96.55124007150775,44.23759191880145L97.68625919111577,42.22519242078326L98.81579088807985,40.09708694806312L99.93926864615324,37.83561022429991L101.0560441256441,35.41884902738383L102.16536355606074,32.81929601017653L103.26632639837236,30.001760222298387L104.35786287709635,26.920453520263376L105.43866841889948,23.514505071278915L106.50714512202043,19.701367030018986L107.56128211956715,15.366213266832926L108.59850835028541,10.34555635335131L109.61545525109251,4.4007064581211575L110.607596174412,-2.8249865661982376L111.56873263822162,-11.873513958577915L112.49022653024846,-23.574304007987827L113.36010640388015,-39.17668603792258L114.16244577168645,-60.46225576421574L114.87836642954572,-89.6661654890685L115.49069071081311,-128.92869183373256L115.99193464366947,-179.2655979360152L116.38896490468343,-239.8718032704771L116.69859328916131,-308.579614014751L116.93993100274476,-382.86031951528633L117.12995800606335,-460.475474397461L117.28200101075511,-539.7063230208059L117.40589093604359,-619.3330952395697L117.50863648864252,-698.5334044517729L117.59524255291844,-776.7664113422899L117.66932229702041,-853.6844781901704" stroke="#F98F00" stroke-width="2"/></g></g><path class="foreground" aria-hidden="true" d="" display="none"/></g></g><g class="mark-group role-legend" role="graphics-symbol" aria-roledescription="legend" aria-label="Symbol legend for stroke color with 2 values: Young, Old"><g transform="translate(5,5)"><path class="background" aria-hidden="true" d="M0,0h46v24h-46Z" pointer-events="none"/><g><g class="mark-group role-legend-entry"><g transform="translate(0,0)"><path class="background" aria-hidden="true" d="M0,0h0v0h0Z" pointer-events="none"/><g><g class="mark-group role-scope" role="graphics-object" aria-roledescription="group mark container"><g transform="translate(0,0)"><path class="background" aria-hidden="true" d="M0,0h46v11h-46Z" pointer-events="none" opacity="1"/><g><g class="mark-symbol role-legend-symbol" pointer-events="none"><path transform="translate(6,6)" d="M-5,0L5,0" stroke="#009DA3" stroke-width="1.5" opacity="1"/></g><g class="mark-text role-legend-label" pointer-events="none"><text text-anchor="start" transform="translate(16,9)" font-family="Arial" font-size="10px" fill="#000" opacity="1">Young</text></g></g><path class="foreground" aria-hidden="true" d="" pointer-events="none" display="none"/></g><g transform="translate(0,13)"><path class="background" aria-hidden="true" d="M0,0h46v11h-46Z" pointer-events="none" opacity="1"/><g><g class="mark-symbol role-legend-symbol" pointer-events="none"><path transform="translate(6,6)" d="M-5,0L5,0" stroke="#F98F00" stroke-width="1.5" opacity="1"/></g><g class="mark-text role-legend-label" pointer-events="none"><text text-anchor="start" transform="translate(16,9)" font-family="Arial" font-size="10px" fill="#000" opacity="1">Old</text></g></g><path class="foreground" aria-hidden="true" d="" pointer-events="none" display="none"/></g></g></g><path class="foreground" aria-hidden="true" d="" pointer-events="none" display="none"/></g></g></g><path class="foreground" aria-hidden="true" d="" pointer-events="none" display="none"/></g></g></g><path class="foreground" aria-hidden="true" d="" display="none"/></g></g></g><defs><clipPath id="clip1"><rect x="0" y="0" width="120" height="120"/></clipPath><clipPath id="clip2"><rect x="0" y="0" width="120" height="120"/></clipPath></defs></svg>
