<?xml version="1.0" encoding="utf-8"?>
<!DOCTYPE svg PUBLIC "-//W3C//DTD SVG 1.1//EN" "http://www.w3.org/Graphics/SVG/1.1/DTD/svg11.dtd">
<svg xmlns="http://www.w3.org/2000/svg" xmlns:xlink="http://www.w3.org/1999/xlink" version="1.1" class="marks" width="168" height="165" viewBox="0 0 168 165"><rect width="168" height="165" fill="white"/><g fill="none" stroke-miterlimit="10" transform="translate(43,10)"><g class="mark-group role-frame root" role="graphics-object" aria-roledescription="group mark container"><g transform="translate(0,0)"><path class="background" aria-hidden="true" d="M0.5,0.5h120v120h-120Z"/><g><g class="mark-group role-axis" role="graphics-symbol" aria-roledescription="axis" aria-label="X-axis titled 'VO2 (mmol/L mito/s)' for a linear scale with values from 0.0 to 2.2"><g transform="translate(0.5,120.5)"><path class="background" aria-hidden="true" d="M0,0h0v0h0Z" pointer-events="none"/><g><g class="mark-rule role-axis-tick" pointer-events="none"><line transform="translate(0,0)" x2="0" y2="3" stroke="black" stroke-width="1" opacity="1"/><line transform="translate(55,0)" x2="0" y2="3" stroke="black" stroke-width="1" opacity="1"/><line transform="translate(109,0)" x2="0" y2="3" stroke="black" stroke-width="1" opacity="1"/></g><g class="mark-text role-axis-label" pointer-events="none"><text text-anchor="start" transform="translate(0,13)" font-family="Arial" font-size="10px" fill="#000" opacity="1">0</text><text text-anchor="middle" transform="translate(54.54545454545455,13)" font-family="Arial" font-size="10px" fill="#000" opacity="1">1</text><text text-anchor="middle" transform="translate(109.0909090909091,13)" font-family="Arial" font-size="10px" fill="#000" opacity="1">2</text></g><g class="mark-rule role-axis-domain" pointer-events="none"><line transform="translate(0,0)" x2="120" y2="0" stroke="black" stroke-width="1" opacity="1"/></g><g class="mark-text role-axis-title" pointer-events="none"><text text-anchor="middle" transform="translate(60,28)" font-family="Arial" font-size="11px" font-weight="normal" fill="#000" opacity="1">VO2 (mmol/L mito/s)</text></g></g><path class="foreground" aria-hidden="true" d="" pointer-events="none" display="none"/></g></g><g class="mark-group role-axis" role="graphics-symbol" aria-roledescription="axis" aria-label="Y-axis titled 'ADP (μM)' for a linear scale with values from 0 to 100"><g transform="translate(0.5,0.5)"><path class="background" aria-hidden="true" d="M0,0h0v0h0Z" pointer-events="none"/><g><g class="mark-rule role-axis-tick" pointer-events="none"><line transform="translate(0,120)" x2="-3" y2="0" stroke="black" stroke-width="1" opacity="1"/><line transform="translate(0,60)" x2="-3" y2="0" stroke="black" stroke-width="1" opacity="1"/><line transform="translate(0,0)" x2="-3" y2="0" stroke="black" stroke-width="1" opacity="1"/></g><g class="mark-text role-axis-label" pointer-events="none"><text text-anchor="end" transform="translate(-5,123)" font-family="Arial" font-size="10px" fill="#000" opacity="1">0</text><text text-anchor="end" transform="translate(-5,63)" font-family="Arial" font-size="10px" fill="#000" opacity="1">50</text><text text-anchor="end" transform="translate(-5,3)" font-family="Arial" font-size="10px" fill="#000" opacity="1">100</text></g><g class="mark-rule role-axis-domain" pointer-events="none"><line transform="translate(0,120)" x2="0" y2="-120" stroke="black" stroke-width="1" opacity="1"/></g><g class="mark-text role-axis-title" pointer-events="none"><text text-anchor="middle" transform="translate(-27,60) rotate(-90) translate(0,-2)" font-family="Arial" font-size="11px" font-weight="normal" fill="#000" opacity="1">ADP (μM)</text></g></g><path class="foreground" aria-hidden="true" d="" pointer-events="none" display="none"/></g></g><g class="mark-group role-scope layer_0_pathgroup" role="graphics-object" aria-roledescription="group mark container"><g transform="translate(0,0)"><path class="background" aria-hidden="true" d="M0,0h120v120h-120Z"/><g><g class="mark-line role-mark layer_0_marks" clip-path="url(#clip1)" role="graphics-object" aria-roledescription="line mark container"><path aria-label="VO2_m: 0.23106662489; ADP_μ: 2.97230677792; group: Young" role="graphics-symbol" aria-roledescription="line mark" d="M12.603634084900651,116.43323186649783L13.854323564136616,115.49434000814173L15.094417771975314,114.58508511466505L16.326567915505986,113.69761786699073L17.552798630699968,112.82671769981364L18.77457219924672,111.96849754637199L19.99292998499774,111.11994251602043L21.20860919153052,110.27865750817809L22.42213417255674,109.44270144489373L23.63388245721302,108.61047387150114L24.844125443260854,107.78062464440632L26.05305610542149,106.95199754316054L27.260814967945816,106.12358128250183L28.46749990360469,105.29447447570314L29.67317701620227,104.46385843995554L30.877889868017704,103.63097884365324L32.08166012671424,102.79512306624414L33.284495479750596,101.95561126558682L34.4863894653962,101.11178119764958L35.687325909928134,100.26298156183948L36.88727687568896,99.40855716348997L38.08620603744713,98.54784427232407L39.28406960654887,97.6801634800485L40.4808133605421,96.80480430072716L41.67637721254238,95.92102662030416L42.87069169089671,95.02804310093707L44.06367771952939,94.12501495542185L45.25524967844822,93.21103865973396L46.445310984124255,92.28513661066398L47.63375375139095,91.3462376474842L48.82046001527084,90.39317317128331L50.00529955383679,89.42464881035586L51.18812689671585,88.43922582862919L52.36878318994722,87.4353037802237L53.54708980349776,86.41107990535006L54.72285126226119,85.36452694867057L55.895849098685694,84.2933410901303L57.06583953760296,83.19489532876604L58.23255255384821,82.06617890497157L59.39568392165145,80.90370910913529L60.55489223307869,79.70344021856404L61.70979485713035,78.46064259617162L62.85995645628938,77.16972105591137L64.0048873455304,75.82403944897877L65.14402499063854,74.41559208102373L66.27672891739809,72.93466835628666L67.40225556416323,71.36930191759136L68.51975156314676,69.70454412423808L69.6282195553469,67.92140822129461L70.72647553405768,65.99525595401626L71.81312726863756,63.89337079166055L72.88648965859927,61.57104556854598L73.94449510296327,58.96514680554877L74.98459788736209,55.98294793479231L76.00352330958015,52.48201746603975L76.99704154134993,48.232660238279784L77.95951440637354,42.84457696059664L78.88322445841169,35.62031365945663L79.75728526742793,25.263961121103392L80.56565541339104,9.331153032806846L81.28350606913733,-16.65723220969855L81.87307561833217,-60.035057070382756L82.2941176693265,-129.1632179671477L82.55494267535664,-224.43602390924607L82.72866400024111,-334.07589219474886L82.86174693974837,-448.53030454661405L82.96397314498036,-564.2452058235152L83.04267691921399,-679.0908501480211L83.10483129329474,-791.6272239479972L83.15530113045106,-901.0497742202319L83.1972773634458,-1006.9692562034094L83.23289015484438,-1109.2389108983198L83.26360753617293,-1207.8501908607025L83.29047063463138,-1302.8725964356736L83.31423985158003,-1394.4181772247648L83.33548195698266,-1482.620992325715L83.35462912415909,-1567.6245869495544L83.37201790764624,-1649.5745516800973L83.38791004424229,-1728.6146603873967L83.40251963847108,-1804.8835226564586L83.41601795592243,-1878.5139862369304L83.42854360948292,-1949.6323877066004L83.44021531515608,-2018.357827962565L83.45113000774631,-2084.8028487066317L83.46137005957189,-2149.0733367959588L83.47100524057677,-2211.2689159142806L83.48009570622855,-2271.4832349010762L83.48869380333832,-2329.804332577226L83.49684327681186,-2386.3151637221863L83.50458437401902,-2441.09365591179L83.51195155124718,-2494.2132838505654L83.51897492817238,-2545.743331635974L83.52568159543794,-2595.7491374274505L83.53209555703815,-2644.292408667151L83.53823824994387,-2691.4314680912175L83.54412914518375,-2737.22147242819L83.54978459288313,-2781.714719340294L83.5552213769652,-2824.9606383307823L83.56045328333873,-2867.006203594072L83.56549321123214,-2907.89598066782" stroke="#009DA3" stroke-width="2"/></g></g><path class="foreground" aria-hidden="true" d="" display="none"/></g><g transform="translate(0,0)"><path class="background" aria-hidden="true" d="M0,0h120v120h-120Z"/><g><g class="mark-line role-mark layer_0_marks" clip-path="url(#clip2)" role="graphics-object" aria-roledescription="line mark container"><path aria-label="VO2_m: 0.236186123948; ADP_μ: 2.44922638075; group: Old" role="graphics-symbol" aria-roledescription="line mark" d="M12.88287948807921,117.06092834309503L14.115009914051885,115.98613234503242L15.338338875431628,115.00373144410833L16.557054451680784,114.07331719314396L17.77302514386293,113.17643272474412L18.9872373633695,112.30279815498506L20.200264055061844,111.44598390769927L21.41245586042241,110.6016423871439L22.62403877743396,109.76666572202998L23.835157973896315,108.93873057579303L25.045910711998005,108.11604145071381L26.2563609482897,107.29716903907048L27.46654975899478,106.48094688042099L28.676503210152852,105.66640335045405L29.886235282268025,104.85271158989914L31.09575341037967,104.03915890140652L32.30505711120853,103.22511647136177L33.51414395859502,102.41002732077797L34.72300542413408,101.59338403586085L35.931631936222196,100.77472447719768L37.14001228852714,99.95362116995574L38.348132058251394,99.12967043528178L39.5559767303975,98.30249266169352L40.76352989388889,97.47172273199388L41.970774041077156,96.63700787545804L43.17769109506331,95.79800374190819L44.3842634000511,94.95437758402487L45.59046879441545,94.1057881747306L46.79628783676748,93.2519044381863L48.001698691244016,92.39239053957859L49.2066788804178,91.52690689253025L50.411205375646205,90.65510743076135L51.61525230643377,89.77664032700368L52.81879537112318,88.89114260952836L54.02180937000777,87.99823847922592L55.2242650996685,87.09754227015233L56.426133954203436,86.18864772191567L57.627385362539876,85.27113364014747L58.82798804224795,84.3445570615376L60.0279086083544,83.40845335984545L61.22711248938581,82.46233244397092L62.42556187668027,81.50567210937406L63.62321848445098,80.5379233266845L64.82004082902529,79.5584993727173L66.01598626180412,78.56677424628865L67.21100796819957,77.56207948771254L68.40505724890241,76.54369749409443L69.59808222337563,75.51085764980652L70.79002728558277,74.4627272539915L71.98083326189865,73.39840843265853L73.17043776680953,72.31693204680919L74.35877288306928,71.21724081968038L75.54576635683277,70.09818417897044L76.73134084568554,68.95851133651861L77.91541229434223,67.79684776850523L79.09789110703329,66.61168679563258L80.27867994577694,65.4013716759576L81.45767352417903,64.16406702293581L82.63475958708274,62.89775393946172L83.80981149504206,61.600165962846994L84.98269350433779,60.26878890384057L86.15326438150242,58.90080210913205L87.3213579455906,57.49303234357334L88.48679864428685,56.041897319145434L89.64939027847856,54.54331203381525L90.8089188450413,52.99262948333167L91.9651451612344,51.38449961708559L93.1178035525458,49.7127399008125L94.2665966465242,47.97014617813407L95.4111915149719,46.14827021344397L96.5512156905306,44.23709920178965L97.68623000921777,42.224681110408845L98.81575761787988,40.096535186823864L99.93923853588846,37.83501814493105L101.0560142374305,35.41821598272745L102.1653334416172,32.81861604672888L103.26629656349024,30.001005829433236L104.35783152258655,26.919610583199372L105.43863678486717,23.5135634929804L106.50711168938604,19.700278787335314L107.56124836516926,15.364969819610899L108.59847281581811,10.34408298468084L109.61541422401531,4.398879695794298L110.60755750240024,-2.8272048986116793L111.5686862153318,-11.876371583363303L112.49017165601498,-23.57800364231472L113.36004141904822,-39.18161909251283L114.1623681344891,-60.46884546348227L114.87827245113867,-89.67477740618318L115.49057857781287,-128.939570905516L115.99181161202114,-179.2783874866816L116.38882630155567,-239.88612381181653L116.69844687210487,-308.5948489256387L116.93977995943735,-382.87602557283805L117.12979952951522,-460.4917415771951L117.2818489839172,-539.7218340578409L117.40573726771608,-619.3485065354556L117.50848262951105,-698.5485652964225L117.5950918544903,-776.7810301231717L117.66917286636907,-853.6987380307592" stroke="#F98F00" stroke-width="2"/></g></g><path class="foreground" aria-hidden="true" d="" display="none"/></g></g><g class="mark-group role-legend" role="graphics-symbol" aria-roledescription="legend" aria-label="Symbol legend for stroke color with 2 values: Young, Old"><g transform="translate(5,5)"><path class="background" aria-hidden="true" d="M0,0h46v24h-46Z" pointer-events="none"/><g><g class="mark-group role-legend-entry"><g transform="translate(0,0)"><path class="background" aria-hidden="true" d="M0,0h0v0h0Z" pointer-events="none"/><g><g class="mark-group role-scope" role="graphics-object" aria-roledescription="group mark container"><g transform="translate(0,0)"><path class="background" aria-hidden="true" d="M0,0h46v11h-46Z" pointer-events="none" opacity="1"/><g><g class="mark-symbol role-legend-symbol" pointer-events="none"><path transform="translate(6,6)" d="M-5,0L5,0" stroke="#009DA3" stroke-width="1.5" opacity="1"/></g><g class="mark-text role-legend-label" pointer-events="none"><text text-anchor="start" transform="translate(16,9)" font-family="Arial" font-size="10px" fill="#000" opacity="1">Young</text></g></g><path class="foreground" aria-hidden="true" d="" pointer-events="none" display="none"/></g><g transform="translate(0,13)"><path class="background" aria-hidden="true" d="M0,0h46v11h-46Z" pointer-events="none" opacity="1"/><g><g class="mark-symbol role-legend-symbol" pointer-events="none"><path transform="translate(6,6)" d="M-5,0L5,0" stroke="#F98F00" stroke-width="1.5" opacity="1"/></g><g class="mark-text role-legend-label" pointer-events="none"><text text-anchor="start" transform="translate(16,9)" font-family="Arial" font-size="10px" fill="#000" opacity="1">Old</text></g></g><path class="foreground" aria-hidden="true" d="" pointer-events="none" display="none"/></g></g></g><path class="foreground" aria-hidden="true" d="" pointer-events="none" display="none"/></g></g></g><path class="foreground" aria-hidden="true" d="" pointer-events="none" display="none"/></g></g></g><path class="foreground" aria-hidden="true" d="" display="none"/></g></g></g><defs><clipPath id="clip1"><rect x="0" y="0" width="120" height="120"/></clipPath><clipPath id="clip2"><rect x="0" y="0" width="120" height="120"/></clipPath></defs></svg>
