<?xml version="1.0" encoding="utf-8"?>
<!DOCTYPE svg PUBLIC "-//W3C//DTD SVG 1.1//EN" "http://www.w3.org/Graphics/SVG/1.1/DTD/svg11.dtd">
<svg xmlns="http://www.w3.org/2000/svg" xmlns:xlink="http://www.w3.org/1999/xlink" version="1.1" class="marks" width="177" height="165" viewBox="0 0 177 165"><rect width="177" height="165" fill="white"/><g fill="none" stroke-miterlimit="10" transform="translate(52,10)"><g class="mark-group role-frame root" role="graphics-object" aria-roledescription="group mark container"><g transform="translate(0,0)"><path class="background" aria-hidden="true" d="M0.5,0.5h120v120h-120Z"/><g><g class="mark-group role-axis" role="graphics-symbol" aria-roledescription="axis" aria-label="X-axis titled 'VO2 (mmol/L mito/s)' for a linear scale with values from 0.0 to 2.2"><g transform="translate(0.5,120.5)"><path class="background" aria-hidden="true" d="M0,0h0v0h0Z" pointer-events="none"/><g><g class="mark-rule role-axis-tick" pointer-events="none"><line transform="translate(0,0)" x2="0" y2="3" stroke="black" stroke-width="1" opacity="1"/><line transform="translate(55,0)" x2="0" y2="3" stroke="black" stroke-width="1" opacity="1"/><line transform="translate(109,0)" x2="0" y2="3" stroke="black" stroke-width="1" opacity="1"/></g><g class="mark-text role-axis-label" pointer-events="none"><text text-anchor="start" transform="translate(0,13)" font-family="Arial" font-size="10px" fill="#000" opacity="1">0</text><text text-anchor="middle" transform="translate(54.54545454545455,13)" font-family="Arial" font-size="10px" fill="#000" opacity="1">1</text><text text-anchor="middle" transform="translate(109.0909090909091,13)" font-family="Arial" font-size="10px" fill="#000" opacity="1">2</text></g><g class="mark-rule role-axis-domain" pointer-events="none"><line transform="translate(0,0)" x2="120" y2="0" stroke="black" stroke-width="1" opacity="1"/></g><g class="mark-text role-axis-title" pointer-events="none"><text text-anchor="middle" transform="translate(60,28)" font-family="Arial" font-size="11px" font-weight="normal" fill="#000" opacity="1">VO2 (mmol/L mito/s)</text></g></g><path class="foreground" aria-hidden="true" d="" pointer-events="none" display="none"/></g></g><g class="mark-group role-axis" role="graphics-symbol" aria-roledescription="axis" aria-label="Y-axis titled 'ADP:ATP ratio' for a linear scale with values from 0.000 to 0.020"><g transform="translate(0.5,0.5)"><path class="background" aria-hidden="true" d="M0,0h0v0h0Z" pointer-events="none"/><g><g class="mark-rule role-axis-tick" pointer-events="none"><line transform="translate(0,120)" x2="-3" y2="0" stroke="black" stroke-width="1" opacity="1"/><line transform="translate(0,90)" x2="-3" y2="0" stroke="black" stroke-width="1" opacity="1"/><line transform="translate(0,60)" x2="-3" y2="0" stroke="black" stroke-width="1" opacity="1"/><line transform="translate(0,30)" x2="-3" y2="0" stroke="black" stroke-width="1" opacity="1"/><line transform="translate(0,0)" x2="-3" y2="0" stroke="black" stroke-width="1" opacity="1"/></g><g class="mark-text role-axis-label" pointer-events="none"><text text-anchor="end" transform="translate(-5,123)" font-family="Arial" font-size="10px" fill="#000" opacity="1">0.000</text><text text-anchor="end" transform="translate(-5,93)" font-family="Arial" font-size="10px" fill="#000" opacity="1">0.005</text><text text-anchor="end" transform="translate(-5,63)" font-family="Arial" font-size="10px" fill="#000" opacity="1">0.010</text><text text-anchor="end" transform="translate(-5,33)" font-family="Arial" font-size="10px" fill="#000" opacity="1">0.015</text><text text-anchor="end" transform="translate(-5,3)" font-family="Arial" font-size="10px" fill="#000" opacity="1">0.020</text></g><g class="mark-rule role-axis-domain" pointer-events="none"><line transform="translate(0,120)" x2="0" y2="-120" stroke="black" stroke-width="1" opacity="1"/></g><g class="mark-text role-axis-title" pointer-events="none"><text text-anchor="middle" transform="translate(-36,60) rotate(-90) translate(0,-2)" font-family="Arial" font-size="11px" font-weight="normal" fill="#000" opacity="1">ADP:ATP ratio</text></g></g><path class="foreground" aria-hidden="true" d="" pointer-events="none" display="none"/></g></g><g class="mark-group role-scope layer_0_pathgroup" role="graphics-object" aria-roledescription="group mark container"><g transform="translate(0,0)"><path class="background" aria-hidden="true" d="M0,0h120v120h-120Z"/><g><g class="mark-line role-mark layer_0_marks" clip-path="url(#clip1)" role="graphics-object" aria-roledescription="line mark container"><path aria-label="VO2_m: 0.23106662489; ADPATP: 0.000329770396654; group: Young" role="graphics-symbol" aria-roledescription="line mark" d="M12.603634084900651,118.02137762007311L13.854323564136616,117.50032135065076L15.094417771975314,116.99562636307141L16.326567915505986,116.50294297117271L17.552798630699968,116.0193781681699L18.77457219924672,115.54277757447048L19.99292998499774,115.07146984477146L21.20860919153052,114.60412687384094L22.42213417255674,114.13967198086824L23.63388245721302,113.67721709949306L24.844125443260854,113.21601273507419L26.05305610542149,112.75541673009589L27.260814967945816,112.29486711253502L28.46749990360469,111.83386267549511L29.67317701620227,111.3719478992974L30.877889868017704,110.90870277716779L32.08166012671424,110.44373024580037L33.284495479750596,109.97665123088571L34.4863894653962,109.50709621083728L35.687325909928134,109.03470151752938L36.88727687568896,108.55910107797416L38.08620603744713,108.07992382448587L39.28406960654887,107.59678970921796L40.4808133605421,107.10930111540671L41.67637721254238,106.6170436450956L42.87069169089671,106.11957629602L44.06367771952939,105.6164290777341L45.25524967844822,105.1070955735366L46.445310984124255,104.59102769213457L47.63375375139095,104.0676247607772L48.82046001527084,103.53623130174128L50.00529955383679,102.99612116480559L51.18812689671585,102.44648707326243L52.36878318994722,101.88643084837852L53.54708980349776,101.31494063728525L54.72285126226119,100.73087838865662L55.895849098685694,100.13295061821182L57.06583953760296,99.51968217003841L58.23255255384821,98.88938213015624L59.39568392165145,98.24009424813589L60.55489223307869,97.56954565777694L61.70979485713035,96.87507881049616L62.85995645628938,96.15354930622215L64.0048873455304,95.40122697367235L65.14402499063854,94.61361102304085L66.27672891739809,93.78524095479872L67.40225556416323,92.90938631847662L68.51975156314676,91.97763723825338L69.6282195553469,90.97930922096394L70.72647553405768,89.90053357404662L71.81312726863756,88.72288859658039L72.88648965859927,87.42119217819229L73.94449510296327,85.95986876182147L74.98459788736209,84.286641734185L76.00352330958015,82.32116309914501L76.99704154134993,79.93375176927472L77.95951440637354,76.9037985402907L78.88322445841169,72.83639970491602L79.75728526742793,66.99577461485259L80.56565541339104,57.98752541398172L81.28350606913733,43.234303845677225L81.87307561833217,18.44177975011489L82.2941176693265,-21.513588513075746L82.55494267535664,-77.51502432567575L82.72866400024111,-143.37745857573987L82.86174693974837,-213.85483704333922L82.96397314498036,-287.0228107428832L83.04267691921399,-361.6804340523145L83.10483129329474,-436.94827912255823L83.15530113045106,-512.2787324833386L83.1972773634458,-587.3513690796526L83.23289015484438,-661.983350786868L83.26360753617293,-736.0739543201213L83.29047063463138,-809.5720568966173L83.31423985158003,-882.4564835920821L83.33548195698266,-954.7244196462683L83.35462912415909,-1026.3840331560928L83.37201790764624,-1097.4498682038975L83.38791004424229,-1167.9404027087417L83.40251963847108,-1237.87548393676L83.41601795592243,-1307.2758368132475L83.42854360948292,-1376.1622724944152L83.44021531515608,-1444.5547447674849L83.45113000774631,-1512.4726812405395L83.46137005957189,-1579.9345443829086L83.47100524057677,-1646.9578548748757L83.48009570622855,-1713.5591135436207L83.48869380333832,-1779.753813179558L83.49684327681186,-1845.5566599023293L83.50458437401902,-1910.9812798328285L83.51195155124718,-1976.0405402814788L83.51897492817238,-2040.7465456103819L83.52568159543794,-2105.110625902608L83.53209555703815,-2169.1434381798845L83.53823824994387,-2232.855005790907L83.54412914518375,-2296.2547426658293L83.54978459288313,-2359.351624529265L83.5552213769652,-2422.1539358148507L83.56045328333873,-2484.6696298401303L83.56549321123214,-2546.9061917692484" stroke="#009DA3" stroke-width="2"/></g></g><path class="foreground" aria-hidden="true" d="" display="none"/></g><g transform="translate(0,0)"><path class="background" aria-hidden="true" d="M0,0h120v120h-120Z"/><g><g class="mark-line role-mark layer_0_marks" clip-path="url(#clip2)" role="graphics-object" aria-roledescription="line mark container"><path aria-label="VO2_m: 0.236186123948; ADPATP: 0.000271720086069; group: Old" role="graphics-symbol" aria-roledescription="line mark" d="M12.88287948807921,118.3696794835869L14.115009914051885,117.7732623668191L15.338338875431628,117.22801259504263L16.557054451680784,116.71152488027595L17.77302514386293,116.21356583123807L18.9872373633695,115.72843580519485L20.200264055061844,115.25256983554972L21.41245586042241,114.78355716197939L22.62403877743396,114.31967425366533L23.835157973896315,113.85963243852721L25.045910711998005,113.40243559464498L26.2563609482897,112.94729053227218L27.46654975899478,112.49354970262573L28.676503210152852,112.04067349629915L29.886235282268025,111.58820248201181L31.09575341037967,111.13574044693536L32.30505711120853,110.68293760160888L33.51414395859502,110.22948391116915L34.72300542413408,109.7750967331088L35.931631936222196,109.3195184493268L37.14001228852714,108.86251057861045L38.348132058251394,108.40384773956754L39.5559767303975,107.94331781060313L40.76352989388889,107.48071660781184L41.970774041077156,107.01584669350588L43.17769109506331,106.54851519307353L44.3842634000511,106.07853557000092L45.59046879441545,105.60571643866112L46.79628783676748,105.12987194211141L48.001698691244016,104.65081344361387L49.2066788804178,104.16835008409629L50.411205375646205,103.68228725697236L51.61525230643377,103.19242700376977L52.81879537112318,102.69856500622174L54.02180937000777,102.2004896395494L55.2242650996685,101.69798361537121L56.426133954203436,101.19081798727987L57.627385362539876,100.67875529692728L58.82798804224795,100.1615457474154L60.0279086083544,99.63892724770456L61.22711248938581,99.11062327417429L62.42556187668027,98.57633913933542L63.62321848445098,98.03576492442888L64.82004082902529,97.48856938641835L66.01598626180412,96.93439904617118L67.21100796819957,96.37287638223295L68.40505724890241,95.8035960622516L69.59808222337563,95.22612274276474L70.79002728558277,94.63998595482659L71.98083326189865,94.04467832926895L73.17043776680953,93.43965213678948L74.35877288306928,92.8243097878371L75.54576635683277,92.19800087483436L76.73134084568554,91.56001821988542L77.91541229434223,90.90958461743959L79.09789110703329,90.24584801165331L80.27867994577694,89.56787134539948L81.45767352417903,88.87461640558664L82.63475958708274,88.16494092873276L83.80981149504206,87.43756250715899L84.98269350433779,86.69105825733256L86.15326438150242,85.92383161235124L87.3213579455906,85.13408612081372L88.48679864428685,84.31979336421509L89.64939027847856,83.47863990703026L90.8089188450413,82.60799341084268L91.9651451612344,81.7048227037073L93.1178035525458,80.76562414502543L94.2665966465242,79.78631418640771L95.4111915149719,78.76210284131689L96.5512156905306,77.6873115543587L97.68623000921777,76.5551599208952L98.81575761787988,75.35743059755669L99.93923853588846,74.08410788117338L101.0560142374305,72.72274726487976L102.1653334416172,71.25771814203088L103.26629656349024,69.669006205605L104.35783152258655,67.93057934294468L105.43863678486717,66.00780105233368L106.50711168938604,63.85363990818554L107.56124836516926,61.40266636759246L108.59847281581811,58.561545833775504L109.61541422401531,55.19383513927125L110.60755750240024,51.09534794378043L111.5686862153318,45.95474754514123L112.49017165601498,39.29392328103778L113.36004141904822,30.388277017380698L114.1623681344891,18.194595615484943L114.87827245113867,1.3809338270608462L115.49057857781287,-21.379455106961245L115.99181161202114,-50.82685174707403L116.38882630155567,-86.69267570157596L116.69844687210487,-127.91555015216971L116.93977995943735,-173.18260062634454L117.12979952951522,-221.2945246920172L117.2818489839172,-271.3041905010074L117.40573726771608,-322.5213237056605L117.50848262951105,-374.46228381090623L117.5950918544903,-426.79366392104066L117.66917286636907,-479.2867470614455" stroke="#F98F00" stroke-width="2"/></g></g><path class="foreground" aria-hidden="true" d="" display="none"/></g></g><g class="mark-group role-legend" role="graphics-symbol" aria-roledescription="legend" aria-label="Symbol legend for stroke color with 2 values: Young, Old"><g transform="translate(5,5)"><path class="background" aria-hidden="true" d="M0,0h46v24h-46Z" pointer-events="none"/><g><g class="mark-group role-legend-entry"><g transform="translate(0,0)"><path class="background" aria-hidden="true" d="M0,0h0v0h0Z" pointer-events="none"/><g><g class="mark-group role-scope" role="graphics-object" aria-roledescription="group mark container"><g transform="translate(0,0)"><path class="background" aria-hidden="true" d="M0,0h46v11h-46Z" pointer-events="none" opacity="1"/><g><g class="mark-symbol role-legend-symbol" pointer-events="none"><path transform="translate(6,6)" d="M-5,0L5,0" stroke="#009DA3" stroke-width="1.5" opacity="1"/></g><g class="mark-text role-legend-label" pointer-events="none"><text text-anchor="start" transform="translate(16,9)" font-family="Arial" font-size="10px" fill="#000" opacity="1">Young</text></g></g><path class="foreground" aria-hidden="true" d="" pointer-events="none" display="none"/></g><g transform="translate(0,13)"><path class="background" aria-hidden="true" d="M0,0h46v11h-46Z" pointer-events="none" opacity="1"/><g><g class="mark-symbol role-legend-symbol" pointer-events="none"><path transform="translate(6,6)" d="M-5,0L5,0" stroke="#F98F00" stroke-width="1.5" opacity="1"/></g><g class="mark-text role-legend-label" pointer-events="none"><text text-anchor="start" transform="translate(16,9)" font-family="Arial" font-size="10px" fill="#000" opacity="1">Old</text></g></g><path class="foreground" aria-hidden="true" d="" pointer-events="none" display="none"/></g></g></g><path class="foreground" aria-hidden="true" d="" pointer-events="none" display="none"/></g></g></g><path class="foreground" aria-hidden="true" d="" pointer-events="none" display="none"/></g></g></g><path class="foreground" aria-hidden="true" d="" display="none"/></g></g></g><defs><clipPath id="clip1"><rect x="0" y="0" width="120" height="120"/></clipPath><clipPath id="clip2"><rect x="0" y="0" width="120" height="120"/></clipPath></defs></svg>
