<?xml version="1.0" encoding="utf-8"?>
<!DOCTYPE svg PUBLIC "-//W3C//DTD SVG 1.1//EN" "http://www.w3.org/Graphics/SVG/1.1/DTD/svg11.dtd">
<svg xmlns="http://www.w3.org/2000/svg" xmlns:xlink="http://www.w3.org/1999/xlink" version="1.1" class="marks" width="177" height="165" viewBox="0 0 177 165"><rect width="177" height="165" fill="white"/><g fill="none" stroke-miterlimit="10" transform="translate(52,10)"><g class="mark-group role-frame root" role="graphics-object" aria-roledescription="group mark container"><g transform="translate(0,0)"><path class="background" aria-hidden="true" d="M0.5,0.5h120v120h-120Z"/><g><g class="mark-group role-axis" role="graphics-symbol" aria-roledescription="axis" aria-label="X-axis titled 'VO2 (mmol/L mito/s)' for a linear scale with values from 0.0 to 2.2"><g transform="translate(0.5,120.5)"><path class="background" aria-hidden="true" d="M0,0h0v0h0Z" pointer-events="none"/><g><g class="mark-rule role-axis-tick" pointer-events="none"><line transform="translate(0,0)" x2="0" y2="3" stroke="black" stroke-width="1" opacity="1"/><line transform="translate(55,0)" x2="0" y2="3" stroke="black" stroke-width="1" opacity="1"/><line transform="translate(109,0)" x2="0" y2="3" stroke="black" stroke-width="1" opacity="1"/></g><g class="mark-text role-axis-label" pointer-events="none"><text text-anchor="start" transform="translate(0,13)" font-family="Arial" font-size="10px" fill="#000" opacity="1">0</text><text text-anchor="middle" transform="translate(54.54545454545455,13)" font-family="Arial" font-size="10px" fill="#000" opacity="1">1</text><text text-anchor="middle" transform="translate(109.0909090909091,13)" font-family="Arial" font-size="10px" fill="#000" opacity="1">2</text></g><g class="mark-rule role-axis-domain" pointer-events="none"><line transform="translate(0,0)" x2="120" y2="0" stroke="black" stroke-width="1" opacity="1"/></g><g class="mark-text role-axis-title" pointer-events="none"><text text-anchor="middle" transform="translate(60,28)" font-family="Arial" font-size="11px" font-weight="normal" fill="#000" opacity="1">VO2 (mmol/L mito/s)</text></g></g><path class="foreground" aria-hidden="true" d="" pointer-events="none" display="none"/></g></g><g class="mark-group role-axis" role="graphics-symbol" aria-roledescription="axis" aria-label="Y-axis titled 'ADP:ATP ratio' for a linear scale with values from 0.000 to 0.020"><g transform="translate(0.5,0.5)"><path class="background" aria-hidden="true" d="M0,0h0v0h0Z" pointer-events="none"/><g><g class="mark-rule role-axis-tick" pointer-events="none"><line transform="translate(0,120)" x2="-3" y2="0" stroke="black" stroke-width="1" opacity="1"/><line transform="translate(0,90)" x2="-3" y2="0" stroke="black" stroke-width="1" opacity="1"/><line transform="translate(0,60)" x2="-3" y2="0" stroke="black" stroke-width="1" opacity="1"/><line transform="translate(0,30)" x2="-3" y2="0" stroke="black" stroke-width="1" opacity="1"/><line transform="translate(0,0)" x2="-3" y2="0" stroke="black" stroke-width="1" opacity="1"/></g><g class="mark-text role-axis-label" pointer-events="none"><text text-anchor="end" transform="translate(-5,123)" font-family="Arial" font-size="10px" fill="#000" opacity="1">0.000</text><text text-anchor="end" transform="translate(-5,93)" font-family="Arial" font-size="10px" fill="#000" opacity="1">0.005</text><text text-anchor="end" transform="translate(-5,63)" font-family="Arial" font-size="10px" fill="#000" opacity="1">0.010</text><text text-anchor="end" transform="translate(-5,33)" font-family="Arial" font-size="10px" fill="#000" opacity="1">0.015</text><text text-anchor="end" transform="translate(-5,3)" font-family="Arial" font-size="10px" fill="#000" opacity="1">0.020</text></g><g class="mark-rule role-axis-domain" pointer-events="none"><line transform="translate(0,120)" x2="0" y2="-120" stroke="black" stroke-width="1" opacity="1"/></g><g class="mark-text role-axis-title" pointer-events="none"><text text-anchor="middle" transform="translate(-36,60) rotate(-90) translate(0,-2)" font-family="Arial" font-size="11px" font-weight="normal" fill="#000" opacity="1">ADP:ATP ratio</text></g></g><path class="foreground" aria-hidden="true" d="" pointer-events="none" display="none"/></g></g><g class="mark-group role-scope layer_0_pathgroup" role="graphics-object" aria-roledescription="group mark container"><g transform="translate(0,0)"><path class="background" aria-hidden="true" d="M0,0h120v120h-120Z"/><g><g class="mark-line role-mark layer_0_marks" clip-path="url(#clip1)" role="graphics-object" aria-roledescription="line mark container"><path aria-label="VO2_m: 0.23106662489; ADPATP: 0.000329770396654; group: Young" role="graphics-symbol" aria-roledescription="line mark" d="M12.603634084900651,118.02137762007311L13.854323564136616,117.50032135065076L15.094417771975314,116.99562636307141L16.326567915505986,116.50294297117271L17.552798630699968,116.0193781681699L18.77457219924672,115.54277757447048L19.99292998499774,115.07146984477146L21.20860919153052,114.60412687384094L22.42213417255674,114.13967198086824L23.63388245721302,113.67721709949306L24.844125443260854,113.21601273507419L26.05305610542149,112.75541673009589L27.260814967945816,112.29486711253502L28.46749990360469,111.83386267549511L29.67317701620227,111.3719478992974L30.877889868017704,110.90870277716779L32.08166012671424,110.44373024580037L33.284495479750596,109.97665123088571L34.4863894653962,109.50709621083728L35.687325909928134,109.03470151752938L36.88727687568896,108.55910107797416L38.08620603744713,108.07992382448587L39.28406960654887,107.59678970921796L40.4808133605421,107.10930111540671L41.67637721254238,106.6170436450956L42.87069169089671,106.11957629602L44.06367771952939,105.6164290777341L45.25524967844822,105.1070955735366L46.445310984124255,104.59102769213457L47.63375375139095,104.0676247607772L48.82046001527084,103.53623130174128L50.00529955383679,102.99612116480559L51.18812689671585,102.44648707326243L52.36878318994722,101.88643084837852L53.54708980349776,101.31494063728525L54.72285126226119,100.73087838865662L55.895849098685694,100.13295061821182L57.06583953760296,99.51968217003841L58.23255255384821,98.88938213015624L59.39568392165145,98.24009424813589L60.55489223307869,97.56954565777694L61.70979485713035,96.87507881049616L62.85995645628938,96.15354930622215L64.0048873455304,95.40122697367235L65.14402499063854,94.61361102304085L66.27672891739809,93.78524095479872L67.40225556416323,92.90938631847662L68.51975156314676,91.97763723825338L69.6282195553469,90.97930922096394L70.72647553405768,89.90053357404662L71.81312726863756,88.72288859658039L72.88648965859927,87.42119217819229L73.94449510296327,85.95986876182147L74.98459788736209,84.286641734185L76.00352330958015,82.32116309914501L76.99704154134993,79.93375176927472L77.95951440637354,76.9037985402907L78.88322445841169,72.83639970491602L79.75728526742793,66.99577461485259L80.56565541339104,57.98752541398172L81.28350606913733,43.234303845677225L81.87307561833217,18.44177975011489L82.2941176693265,-21.513588513075746L82.55494267535664,-77.51502432567575L82.72866400024111,-143.37745857573987L82.86174693974837,-213.85483704333922L82.96397314498036,-287.0228107428832L83.04267691921399,-361.6804340523145L83.10483129329474,-436.94827912255823L83.15530113045106,-512.2787324833386L83.1972773634458,-587.3513690796526L83.23289015484438,-661.983350786868L83.26360753617293,-736.0739543201213L83.29047063463138,-809.5720568966173L83.31423985158003,-882.4564835920821L83.33548195698266,-954.7244196462683L83.35462912415909,-1026.3840331560928L83.37201790764624,-1097.4498682038975L83.38791004424229,-1167.9404027087417L83.40251963847108,-1237.87548393676L83.41601795592243,-1307.2758368132475L83.42854360948292,-1376.1622724944152L83.44021531515608,-1444.5547447674849L83.45113000774631,-1512.4726812405395L83.46137005957189,-1579.9345443829086L83.47100524057677,-1646.9578548748757L83.48009570622855,-1713.5591135436207L83.48869380333832,-1779.753813179558L83.49684327681186,-1845.5566599023293L83.50458437401902,-1910.9812798328285L83.51195155124718,-1976.0405402814788L83.51897492817238,-2040.7465456103819L83.52568159543794,-2105.110625902608L83.53209555703815,-2169.1434381798845L83.53823824994387,-2232.855005790907L83.54412914518375,-2296.2547426658293L83.54978459288313,-2359.351624529265L83.5552213769652,-2422.1539358148507L83.56045328333873,-2484.6696298401303L83.56549321123214,-2546.9061917692484" stroke="#009DA3" stroke-width="2"/></g></g><path class="foreground" aria-hidden="true" d="" display="none"/></g><g transform="translate(0,0)"><path class="background" aria-hidden="true" d="M0,0h120v120h-120Z"/><g><g class="mark-line role-mark layer_0_marks" clip-path="url(#clip2)" role="graphics-object" aria-roledescription="line mark container"><path aria-label="VO2_m: 0.232158006883; ADPATP: 0.000320979489077; group: Old" role="graphics-symbol" aria-roledescription="line mark" d="M12.663164011815491,118.07412306554056L13.917578839445301,117.5528856488004L15.162692582010438,117.04945352723566L16.400490198939433,116.55919158987865L17.63272750585508,116.07906794486192L18.86076482035703,115.60683630753527L20.08560390562708,115.14076467190704L21.307973315696074,114.67949164431339L22.52840139486239,114.22192918862903L23.747276268836377,113.76719502700789L24.96488374529879,113.31456166150198L26.181437134162714,112.8634205076506L27.397096787653336,112.41325492503424L28.611983845041742,111.96361994525924L29.82619006689047,111.5141270675476L31.039785031202914,111.0644325943006L32.25282152015135,110.61422889125194L33.46533885802639,110.16323698953563L34.67736597245032,109.71120092973148L35.88892384530983,109.25788357144866L37.10002612751828,108.80306249671702L38.31068153618198,108.34652707173275L39.52089422019008,107.88807609706328L40.73066440305609,107.42751532688754L41.93998934384983,106.96465600081997L43.14886342215539,106.49931272946421L44.35727817302194,106.03130193008164L45.56522370177738,105.56044144122923L46.772688250845114,105.08654842126612L47.97965644523578,104.60943783022927L49.18611327876174,104.12892310656318L50.392042061016966,103.64481364865274L51.597422130210624,103.15691223579569L52.80223516009787,102.66501868697732L54.00645757721905,102.16892457672935L55.21006591625224,101.66841305483202L56.41303491850199,101.16325839593958L57.61533759110354,100.65322565140993L58.81694519373629,100.13806651739493L60.01782696697277,99.61752033147539L61.2179503874536,99.09131214690989L62.417280807366915,98.55915065500707L63.61578126438677,98.02072630815232L64.81341261925778,97.47571015548547L66.01013306847537,96.92375069601151L67.2058982005158,96.36447235450632L68.40066022188296,95.79747105980748L69.59436893630385,95.22231490650613L70.78697015111194,94.63853595229222L71.97840567279074,94.04562934974658L73.16861371713489,93.44304901256018L74.35752793266768,92.83020205041231L75.54507684652987,92.20644224965714L76.73118400963928,91.5710657833998L77.91576612966122,90.92330052442321L79.09873436851387,90.2623000688318L80.2799932653168,89.58713676738982L81.45943739921336,88.8967786291495L82.63695406736922,88.19008869628514L83.81242055125038,87.46580216920731L84.98570202456503,86.72250622935286L86.15665325534606,85.95862270908233L87.32511363143362,85.17237347316393L88.49090689002615,84.36174937414809L89.6538401100724,83.5244751792369L90.81369772935555,82.65794550188605L91.97024676376671,81.75917787965332L93.12321905143502,80.82472211256912L94.27232087159386,79.85056200041873L95.41722193161314,78.83199482396014L96.55754933078734,77.76346317701407L97.69288069786626,76.63831844706428L98.82273996302095,75.44855489976177L99.94655269070508,74.1843946223707L101.06369589973471,72.8337520973722L102.17341521294375,71.3814474466813L103.27482932894952,69.8081430982755L104.36688286296193,68.08871903010387L105.44830144248004,66.18988677296147L106.51750591480952,64.06656970936477L107.57257942985859,61.656296506315556L108.61098258703299,58.870240462003245L109.6294659106104,55.57896051707045L110.62367592627695,51.589285456753665L111.58764463238164,46.60715998943169L112.5130968524648,40.180712850965975L113.38852733625568,31.62206378728886L114.19845571137981,19.92832058444542L114.9240443930797,3.784466893116738L115.54711608358201,-18.190365773102908L116.05833263992197,-46.869795183728264L116.46320261453363,-82.10032472737026L116.77858746045116,-122.84551769905484L117.02396375438072,-167.7749448762471L117.21657682402821,-215.66631477624702L117.37013084287425,-265.542957478932L117.49476325594512,-316.68747370518577L117.59775990186922,-368.59554727184076L117.68430220187678,-420.91948795178877L117.75811042444721,-473.42127325627894" stroke="#F98F00" stroke-width="2"/></g></g><path class="foreground" aria-hidden="true" d="" display="none"/></g></g><g class="mark-group role-legend" role="graphics-symbol" aria-roledescription="legend" aria-label="Symbol legend for stroke color with 2 values: Young, Old"><g transform="translate(5,5)"><path class="background" aria-hidden="true" d="M0,0h46v24h-46Z" pointer-events="none"/><g><g class="mark-group role-legend-entry"><g transform="translate(0,0)"><path class="background" aria-hidden="true" d="M0,0h0v0h0Z" pointer-events="none"/><g><g class="mark-group role-scope" role="graphics-object" aria-roledescription="group mark container"><g transform="translate(0,0)"><path class="background" aria-hidden="true" d="M0,0h46v11h-46Z" pointer-events="none" opacity="1"/><g><g class="mark-symbol role-legend-symbol" pointer-events="none"><path transform="translate(6,6)" d="M-5,0L5,0" stroke="#009DA3" stroke-width="1.5" opacity="1"/></g><g class="mark-text role-legend-label" pointer-events="none"><text text-anchor="start" transform="translate(16,9)" font-family="Arial" font-size="10px" fill="#000" opacity="1">Young</text></g></g><path class="foreground" aria-hidden="true" d="" pointer-events="none" display="none"/></g><g transform="translate(0,13)"><path class="background" aria-hidden="true" d="M0,0h46v11h-46Z" pointer-events="none" opacity="1"/><g><g class="mark-symbol role-legend-symbol" pointer-events="none"><path transform="translate(6,6)" d="M-5,0L5,0" stroke="#F98F00" stroke-width="1.5" opacity="1"/></g><g class="mark-text role-legend-label" pointer-events="none"><text text-anchor="start" transform="translate(16,9)" font-family="Arial" font-size="10px" fill="#000" opacity="1">Old</text></g></g><path class="foreground" aria-hidden="true" d="" pointer-events="none" display="none"/></g></g></g><path class="foreground" aria-hidden="true" d="" pointer-events="none" display="none"/></g></g></g><path class="foreground" aria-hidden="true" d="" pointer-events="none" display="none"/></g></g></g><path class="foreground" aria-hidden="true" d="" display="none"/></g></g></g><defs><clipPath id="clip1"><rect x="0" y="0" width="120" height="120"/></clipPath><clipPath id="clip2"><rect x="0" y="0" width="120" height="120"/></clipPath></defs></svg>
