<?xml version="1.0" encoding="utf-8"?>
<!DOCTYPE svg PUBLIC "-//W3C//DTD SVG 1.1//EN" "http://www.w3.org/Graphics/SVG/1.1/DTD/svg11.dtd">
<svg xmlns="http://www.w3.org/2000/svg" xmlns:xlink="http://www.w3.org/1999/xlink" version="1.1" class="marks" width="177" height="165" viewBox="0 0 177 165"><rect width="177" height="165" fill="white"/><g fill="none" stroke-miterlimit="10" transform="translate(52,10)"><g class="mark-group role-frame root" role="graphics-object" aria-roledescription="group mark container"><g transform="translate(0,0)"><path class="background" aria-hidden="true" d="M0.5,0.5h120v120h-120Z"/><g><g class="mark-group role-axis" role="graphics-symbol" aria-roledescription="axis" aria-label="X-axis titled 'VO2 (mmol/L mito/s)' for a linear scale with values from 0.0 to 2.2"><g transform="translate(0.5,120.5)"><path class="background" aria-hidden="true" d="M0,0h0v0h0Z" pointer-events="none"/><g><g class="mark-rule role-axis-tick" pointer-events="none"><line transform="translate(0,0)" x2="0" y2="3" stroke="black" stroke-width="1" opacity="1"/><line transform="translate(55,0)" x2="0" y2="3" stroke="black" stroke-width="1" opacity="1"/><line transform="translate(109,0)" x2="0" y2="3" stroke="black" stroke-width="1" opacity="1"/></g><g class="mark-text role-axis-label" pointer-events="none"><text text-anchor="start" transform="translate(0,13)" font-family="Arial" font-size="10px" fill="#000" opacity="1">0</text><text text-anchor="middle" transform="translate(54.54545454545455,13)" font-family="Arial" font-size="10px" fill="#000" opacity="1">1</text><text text-anchor="middle" transform="translate(109.0909090909091,13)" font-family="Arial" font-size="10px" fill="#000" opacity="1">2</text></g><g class="mark-rule role-axis-domain" pointer-events="none"><line transform="translate(0,0)" x2="120" y2="0" stroke="black" stroke-width="1" opacity="1"/></g><g class="mark-text role-axis-title" pointer-events="none"><text text-anchor="middle" transform="translate(60,28)" font-family="Arial" font-size="11px" font-weight="normal" fill="#000" opacity="1">VO2 (mmol/L mito/s)</text></g></g><path class="foreground" aria-hidden="true" d="" pointer-events="none" display="none"/></g></g><g class="mark-group role-axis" role="graphics-symbol" aria-roledescription="axis" aria-label="Y-axis titled 'ADP:ATP ratio' for a linear scale with values from 0.000 to 0.020"><g transform="translate(0.5,0.5)"><path class="background" aria-hidden="true" d="M0,0h0v0h0Z" pointer-events="none"/><g><g class="mark-rule role-axis-tick" pointer-events="none"><line transform="translate(0,120)" x2="-3" y2="0" stroke="black" stroke-width="1" opacity="1"/><line transform="translate(0,90)" x2="-3" y2="0" stroke="black" stroke-width="1" opacity="1"/><line transform="translate(0,60)" x2="-3" y2="0" stroke="black" stroke-width="1" opacity="1"/><line transform="translate(0,30)" x2="-3" y2="0" stroke="black" stroke-width="1" opacity="1"/><line transform="translate(0,0)" x2="-3" y2="0" stroke="black" stroke-width="1" opacity="1"/></g><g class="mark-text role-axis-label" pointer-events="none"><text text-anchor="end" transform="translate(-5,123)" font-family="Arial" font-size="10px" fill="#000" opacity="1">0.000</text><text text-anchor="end" transform="translate(-5,93)" font-family="Arial" font-size="10px" fill="#000" opacity="1">0.005</text><text text-anchor="end" transform="translate(-5,63)" font-family="Arial" font-size="10px" fill="#000" opacity="1">0.010</text><text text-anchor="end" transform="translate(-5,33)" font-family="Arial" font-size="10px" fill="#000" opacity="1">0.015</text><text text-anchor="end" transform="translate(-5,3)" font-family="Arial" font-size="10px" fill="#000" opacity="1">0.020</text></g><g class="mark-rule role-axis-domain" pointer-events="none"><line transform="translate(0,120)" x2="0" y2="-120" stroke="black" stroke-width="1" opacity="1"/></g><g class="mark-text role-axis-title" pointer-events="none"><text text-anchor="middle" transform="translate(-36,60) rotate(-90) translate(0,-2)" font-family="Arial" font-size="11px" font-weight="normal" fill="#000" opacity="1">ADP:ATP ratio</text></g></g><path class="foreground" aria-hidden="true" d="" pointer-events="none" display="none"/></g></g><g class="mark-group role-scope layer_0_pathgroup" role="graphics-object" aria-roledescription="group mark container"><g transform="translate(0,0)"><path class="background" aria-hidden="true" d="M0,0h120v120h-120Z"/><g><g class="mark-line role-mark layer_0_marks" clip-path="url(#clip1)" role="graphics-object" aria-roledescription="line mark container"><path aria-label="VO2_m: 0.23106662489; ADPATP: 0.000329770396654; group: Young" role="graphics-symbol" aria-roledescription="line mark" d="M12.603634084900651,118.02137762007311L13.854323564136616,117.50032135065076L15.094417771975314,116.99562636307141L16.326567915505986,116.50294297117271L17.552798630699968,116.0193781681699L18.77457219924672,115.54277757447048L19.99292998499774,115.07146984477146L21.20860919153052,114.60412687384094L22.42213417255674,114.13967198086824L23.63388245721302,113.67721709949306L24.844125443260854,113.21601273507419L26.05305610542149,112.75541673009589L27.260814967945816,112.29486711253502L28.46749990360469,111.83386267549511L29.67317701620227,111.3719478992974L30.877889868017704,110.90870277716779L32.08166012671424,110.44373024580037L33.284495479750596,109.97665123088571L34.4863894653962,109.50709621083728L35.687325909928134,109.03470151752938L36.88727687568896,108.55910107797416L38.08620603744713,108.07992382448587L39.28406960654887,107.59678970921796L40.4808133605421,107.10930111540671L41.67637721254238,106.6170436450956L42.87069169089671,106.11957629602L44.06367771952939,105.6164290777341L45.25524967844822,105.1070955735366L46.445310984124255,104.59102769213457L47.63375375139095,104.0676247607772L48.82046001527084,103.53623130174128L50.00529955383679,102.99612116480559L51.18812689671585,102.44648707326243L52.36878318994722,101.88643084837852L53.54708980349776,101.31494063728525L54.72285126226119,100.73087838865662L55.895849098685694,100.13295061821182L57.06583953760296,99.51968217003841L58.23255255384821,98.88938213015624L59.39568392165145,98.24009424813589L60.55489223307869,97.56954565777694L61.70979485713035,96.87507881049616L62.85995645628938,96.15354930622215L64.0048873455304,95.40122697367235L65.14402499063854,94.61361102304085L66.27672891739809,93.78524095479872L67.40225556416323,92.90938631847662L68.51975156314676,91.97763723825338L69.6282195553469,90.97930922096394L70.72647553405768,89.90053357404662L71.81312726863756,88.72288859658039L72.88648965859927,87.42119217819229L73.94449510296327,85.95986876182147L74.98459788736209,84.286641734185L76.00352330958015,82.32116309914501L76.99704154134993,79.93375176927472L77.95951440637354,76.9037985402907L78.88322445841169,72.83639970491602L79.75728526742793,66.99577461485259L80.56565541339104,57.98752541398172L81.28350606913733,43.234303845677225L81.87307561833217,18.44177975011489L82.2941176693265,-21.513588513075746L82.55494267535664,-77.51502432567575L82.72866400024111,-143.37745857573987L82.86174693974837,-213.85483704333922L82.96397314498036,-287.0228107428832L83.04267691921399,-361.6804340523145L83.10483129329474,-436.94827912255823L83.15530113045106,-512.2787324833386L83.1972773634458,-587.3513690796526L83.23289015484438,-661.983350786868L83.26360753617293,-736.0739543201213L83.29047063463138,-809.5720568966173L83.31423985158003,-882.4564835920821L83.33548195698266,-954.7244196462683L83.35462912415909,-1026.3840331560928L83.37201790764624,-1097.4498682038975L83.38791004424229,-1167.9404027087417L83.40251963847108,-1237.87548393676L83.41601795592243,-1307.2758368132475L83.42854360948292,-1376.1622724944152L83.44021531515608,-1444.5547447674849L83.45113000774631,-1512.4726812405395L83.46137005957189,-1579.9345443829086L83.47100524057677,-1646.9578548748757L83.48009570622855,-1713.5591135436207L83.48869380333832,-1779.753813179558L83.49684327681186,-1845.5566599023293L83.50458437401902,-1910.9812798328285L83.51195155124718,-1976.0405402814788L83.51897492817238,-2040.7465456103819L83.52568159543794,-2105.110625902608L83.53209555703815,-2169.1434381798845L83.53823824994387,-2232.855005790907L83.54412914518375,-2296.2547426658293L83.54978459288313,-2359.351624529265L83.5552213769652,-2422.1539358148507L83.56045328333873,-2484.6696298401303L83.56549321123214,-2546.9061917692484" stroke="#009DA3" stroke-width="2"/></g></g><path class="foreground" aria-hidden="true" d="" display="none"/></g><g transform="translate(0,0)"><path class="background" aria-hidden="true" d="M0,0h120v120h-120Z"/><g><g class="mark-line role-mark layer_0_marks" clip-path="url(#clip2)" role="graphics-object" aria-roledescription="line mark container"><path aria-label="VO2_m: 0.23618645947; ADPATP: 0.00027171765134; group: Old" role="graphics-symbol" aria-roledescription="line mark" d="M12.882897789265748,118.36969409196293L14.115032156557055,117.77327917990019L15.338363697064144,117.22803145472022L16.557081035372835,116.71154562499112L17.773053426795677,116.21358860185981L18.987267125528817,115.72846058647801L20.20029489489578,115.25259662065106L21.412487856221265,114.78358608420892L22.624071194901482,114.31970505882207L23.835191145433225,113.85966534508312L25.045944547038328,113.40247062839772L26.25639525260228,112.94732765491955L27.466584465592405,112.49358891929207L28.676538161894182,112.04071472745366L29.886271036722814,111.58824625797413L31.095789184320594,111.13578628815914L32.305093392361904,110.68298596015657L33.51418059566577,110.2295345164817L34.72304208691386,109.77514933748651L35.93166909618993,109.3195736839667L37.140049353002134,108.8625678332162L38.3481693634066,108.4039075210873L39.55601394395744,107.94337974021923L40.763567295885416,107.48078104885568L41.97081168574626,107.01591367376858L43.17772923495542,106.54858552237994L44.38430088658751,106.07860725648347L45.59050658703619,105.60579093599772L46.79632568491441,105.12994913030685L48.00173650152773,104.65089319688063L49.206716746880346,104.16843255029423L50.41124275078543,103.68237264714213L51.61529037127787,103.19251524246393L52.818833970078785,102.69865559861029L54.02184743396319,102.20058355542265L55.22430279748673,101.69807985547538L56.42617149929836,101.19091726193591L57.627422736859266,100.67885718682548L58.828025584719725,100.16165103051077L60.02794605194759,99.63903515585012L61.22714946468945,99.11073359792807L62.425598997761384,98.5764531711488L63.62325553533505,98.03588223444201L64.82007798635375,97.48868893197226L66.01602294435939,96.93452322113521L67.21104463467545,96.37300368903487L68.4050946558992,95.80372632577603L69.59811826565098,95.22625608367592L70.79006311257204,94.6401227678214L71.98086930898769,94.04481992553671L73.1704734755107,93.43979699910768L74.35880819754776,92.82445743422592L75.54580150011103,92.19815327182269L76.73137549686265,91.56017437707831L77.91544679177686,90.90974474999534L79.09792387290983,90.24601110140999L80.27871400179099,89.56804069851633L81.45770773251509,88.87479218861434L82.63479259840393,88.1651190434385L83.80984402950908,87.43774551122675L84.98272821597561,86.69124712040708L86.15329765103584,85.92402753606783L87.32139034509224,85.1342878425198L88.48683037486578,84.32000080784765L89.64942216274406,83.47885593439958L90.808950169184,82.60821574305035L91.96517617354925,81.7050548382861L93.11783471210337,80.76586652628032L94.26662739168333,79.78656650950826L95.41122236054238,78.76236607359412L96.55124007150775,77.68758869702222L97.68625919111577,76.55544763186742L98.81579088807985,75.35774119561083L99.93926864615324,74.08444131860118L101.0560441256441,72.7231039366038L102.16536355606074,71.25810143879227L103.26632639837236,69.66943168715488L104.35786287709635,67.93105504398685L105.43866841889948,66.00833276679982L106.50714512202043,63.854254894208474L107.56128211956715,61.40336964770624L108.59850835028541,58.56237996026713L109.61545525109251,55.19487052080577L110.607596174412,51.096607019005845L111.56873263822162,45.956372317901845L112.49022653024846,39.296031598963445L113.36010640388015,30.39109683178903L114.16244577168645,18.198378248508668L114.87836642954572,1.3859061122930916L115.49069071081311,-21.37312381955919L115.99193464366947,-50.81933122301458L116.38896490468343,-86.6841470996787L116.69859328916131,-127.90634188859988L116.93993100274476,-173.17295048237273L117.12995800606335,-221.28435188544006L117.28200101075511,-271.29430915936575L117.40589093604359,-322.5113159185548L117.50863648864252,-374.452243652304L117.59524255291844,-426.7837879879464L117.66932229702041,-479.276918146855" stroke="#F98F00" stroke-width="2"/></g></g><path class="foreground" aria-hidden="true" d="" display="none"/></g></g><g class="mark-group role-legend" role="graphics-symbol" aria-roledescription="legend" aria-label="Symbol legend for stroke color with 2 values: Young, Old"><g transform="translate(5,5)"><path class="background" aria-hidden="true" d="M0,0h46v24h-46Z" pointer-events="none"/><g><g class="mark-group role-legend-entry"><g transform="translate(0,0)"><path class="background" aria-hidden="true" d="M0,0h0v0h0Z" pointer-events="none"/><g><g class="mark-group role-scope" role="graphics-object" aria-roledescription="group mark container"><g transform="translate(0,0)"><path class="background" aria-hidden="true" d="M0,0h46v11h-46Z" pointer-events="none" opacity="1"/><g><g class="mark-symbol role-legend-symbol" pointer-events="none"><path transform="translate(6,6)" d="M-5,0L5,0" stroke="#009DA3" stroke-width="1.5" opacity="1"/></g><g class="mark-text role-legend-label" pointer-events="none"><text text-anchor="start" transform="translate(16,9)" font-family="Arial" font-size="10px" fill="#000" opacity="1">Young</text></g></g><path class="foreground" aria-hidden="true" d="" pointer-events="none" display="none"/></g><g transform="translate(0,13)"><path class="background" aria-hidden="true" d="M0,0h46v11h-46Z" pointer-events="none" opacity="1"/><g><g class="mark-symbol role-legend-symbol" pointer-events="none"><path transform="translate(6,6)" d="M-5,0L5,0" stroke="#F98F00" stroke-width="1.5" opacity="1"/></g><g class="mark-text role-legend-label" pointer-events="none"><text text-anchor="start" transform="translate(16,9)" font-family="Arial" font-size="10px" fill="#000" opacity="1">Old</text></g></g><path class="foreground" aria-hidden="true" d="" pointer-events="none" display="none"/></g></g></g><path class="foreground" aria-hidden="true" d="" pointer-events="none" display="none"/></g></g></g><path class="foreground" aria-hidden="true" d="" pointer-events="none" display="none"/></g></g></g><path class="foreground" aria-hidden="true" d="" display="none"/></g></g></g><defs><clipPath id="clip1"><rect x="0" y="0" width="120" height="120"/></clipPath><clipPath id="clip2"><rect x="0" y="0" width="120" height="120"/></clipPath></defs></svg>
