<?xml version="1.0" encoding="utf-8"?>
<!DOCTYPE svg PUBLIC "-//W3C//DTD SVG 1.1//EN" "http://www.w3.org/Graphics/SVG/1.1/DTD/svg11.dtd">
<svg xmlns="http://www.w3.org/2000/svg" xmlns:xlink="http://www.w3.org/1999/xlink" version="1.1" class="marks" width="168" height="160" viewBox="0 0 168 160"><rect width="168" height="160" fill="white"/><g fill="none" stroke-miterlimit="10" transform="translate(43,5)"><g class="mark-group role-frame root" role="graphics-object" aria-roledescription="group mark container"><g transform="translate(0,0)"><path class="background" aria-hidden="true" d="M0.5,0.5h120v120h-120Z"/><g><g class="mark-group role-axis" role="graphics-symbol" aria-roledescription="axis" aria-label="X-axis titled 'VO2 (mmol/L mito/s)' for a linear scale with values from 0.0 to 2.2"><g transform="translate(0.5,120.5)"><path class="background" aria-hidden="true" d="M0,0h0v0h0Z" pointer-events="none"/><g><g class="mark-rule role-axis-tick" pointer-events="none"><line transform="translate(0,0)" x2="0" y2="3" stroke="black" stroke-width="1" opacity="1"/><line transform="translate(55,0)" x2="0" y2="3" stroke="black" stroke-width="1" opacity="1"/><line transform="translate(109,0)" x2="0" y2="3" stroke="black" stroke-width="1" opacity="1"/></g><g class="mark-text role-axis-label" pointer-events="none"><text text-anchor="start" transform="translate(0,13)" font-family="Arial" font-size="10px" fill="#000" opacity="1">0</text><text text-anchor="middle" transform="translate(54.54545454545455,13)" font-family="Arial" font-size="10px" fill="#000" opacity="1">1</text><text text-anchor="middle" transform="translate(109.0909090909091,13)" font-family="Arial" font-size="10px" fill="#000" opacity="1">2</text></g><g class="mark-rule role-axis-domain" pointer-events="none"><line transform="translate(0,0)" x2="120" y2="0" stroke="black" stroke-width="1" opacity="1"/></g><g class="mark-text role-axis-title" pointer-events="none"><text text-anchor="middle" transform="translate(60,28)" font-family="Arial" font-size="11px" font-weight="normal" fill="#000" opacity="1">VO2 (mmol/L mito/s)</text></g></g><path class="foreground" aria-hidden="true" d="" pointer-events="none" display="none"/></g></g><g class="mark-group role-axis" role="graphics-symbol" aria-roledescription="axis" aria-label="Y-axis titled 'ΔG_ATP (kJ/mol)' for a linear scale with values from −68 to −48"><g transform="translate(0.5,0.5)"><path class="background" aria-hidden="true" d="M0,0h0v0h0Z" pointer-events="none"/><g><g class="mark-rule role-axis-tick" pointer-events="none"><line transform="translate(0,102)" x2="-3" y2="0" stroke="black" stroke-width="1" opacity="1"/><line transform="translate(0,72)" x2="-3" y2="0" stroke="black" stroke-width="1" opacity="1"/><line transform="translate(0,42)" x2="-3" y2="0" stroke="black" stroke-width="1" opacity="1"/><line transform="translate(0,12)" x2="-3" y2="0" stroke="black" stroke-width="1" opacity="1"/></g><g class="mark-text role-axis-label" pointer-events="none"><text text-anchor="end" transform="translate(-5,105)" font-family="Arial" font-size="10px" fill="#000" opacity="1">−65</text><text text-anchor="end" transform="translate(-5,75)" font-family="Arial" font-size="10px" fill="#000" opacity="1">−60</text><text text-anchor="end" transform="translate(-5,45)" font-family="Arial" font-size="10px" fill="#000" opacity="1">−55</text><text text-anchor="end" transform="translate(-5,14.999999999999996)" font-family="Arial" font-size="10px" fill="#000" opacity="1">−50</text></g><g class="mark-rule role-axis-domain" pointer-events="none"><line transform="translate(0,120)" x2="0" y2="-120" stroke="black" stroke-width="1" opacity="1"/></g><g class="mark-text role-axis-title" pointer-events="none"><text text-anchor="middle" transform="translate(-27,60) rotate(-90) translate(0,-2)" font-family="Arial" font-size="11px" font-weight="normal" fill="#000" opacity="1">ΔG_ATP (kJ/mol)</text></g></g><path class="foreground" aria-hidden="true" d="" pointer-events="none" display="none"/></g></g><g class="mark-group role-scope layer_0_pathgroup" role="graphics-object" aria-roledescription="group mark container"><g transform="translate(0,0)"><path class="background" aria-hidden="true" d="M0,0h120v120h-120Z"/><g><g class="mark-line role-mark layer_0_marks" role="graphics-object" aria-roledescription="line mark container"><path aria-label="VO2_m: 0.23106662489; ΔG_ATP: −66.3100045232; group: Young" role="graphics-symbol" aria-roledescription="line mark" d="M12.603634084900651,109.8600271394821L13.854323564136616,102.49808937843727L15.094417771975314,96.70619430977376L16.326567915505986,91.971429208254L17.552798630699968,87.98976986295338L18.77457219924672,84.56709154885948L19.99292998499774,81.5731217726202L21.20860919153052,78.9169564336994L22.42213417255674,76.53305487468015L23.63388245721302,74.37282381560863L24.844125443260854,72.39936427893417L26.05305610542149,70.58406516087916L27.260814967945816,68.90433947419251L28.46749990360469,67.34207247642235L29.67317701620227,65.88253433684758L30.877889868017704,64.51360076744322L32.08166012671424,63.225187222678414L33.284495479750596,62.00882507642973L34.4863894653962,60.85734593325424L35.687325909928134,59.76463784915313L36.88727687568896,58.72545958377351L38.08620603744713,57.735293453252325L39.28406960654887,56.79023001577707L40.4808133605421,55.886878892583354L41.67637721254238,55.02229370090163L42.87069169089671,54.193916805791105L44.06367771952939,53.39953199058027L45.25524967844822,52.63722953122532L46.445310984124255,51.90537760482539L47.63375375139095,51.20260380273202L48.82046001527084,50.52777731514152L50.00529955383679,49.880004103233205L51.18812689671585,49.25862391342207L52.36878318994722,48.663210841366435L53.54708980349776,48.09358733505042L54.72285126226119,47.54983484871491L55.895849098685694,47.03232135270582L57.06583953760296,46.54173112015223L58.23255255384821,46.079105153518405L59.39568392165145,45.645898532450246L60.55489223307869,45.24404474260382L61.70979485713035,44.876035432466324L62.85995645628938,44.54503380651704L64.0048873455304,44.2549790361013L65.14402499063854,44.01076160219282L66.27672891739809,43.818372635489595L67.40225556416323,43.68511894709763L68.51975156314676,43.619828909464104L69.6282195553469,43.63305722539326L70.72647553405768,43.737270463544064L71.81312726863756,43.94687802323233L72.88648965859927,44.27803180613182L73.94449510296327,44.74785924971684L74.98459788736209,45.372694973033056L76.00352330958015,46.16433774084953L76.99704154134993,47.122472605915846L77.95951440637354,48.22032124018233L78.88322445841169,49.37905958424426L79.75728526742793,50.42854723992559L80.56565541339104,51.068651269703416L81.28350606913733,50.88616736524773L81.87307561833217,49.512072704514594L82.2941176693265,46.932678112175836L82.55494267535664,43.7176234513322L82.72866400024111,40.59277841198173L82.86174693974837,37.82439450053652L82.96397314498036,35.39732231799781L83.04267691921399,33.261847782030145L83.10483129329474,31.37064887836505L83.15530113045106,29.682038323654073L83.1972773634458,28.16154423041962L83.23289015484438,26.78150148735177L83.26360753617293,25.51987862598207L83.29047063463138,24.359077656232778L83.31423985158003,23.284937798712694L83.33548195698266,22.285955228005605L83.35462912415909,21.352693188543064L83.37201790764624,20.477335706093527L83.38791004424229,19.65334583919094L83.40251963847108,18.87521389502262L83.41601795592243,18.13825384329312L83.42854360948292,17.438450590695993L83.44021531515608,16.77234276630088L83.45113000774631,16.13692380211933L83.46137005957189,15.529568099181684L83.47100524057677,14.947969588549768L83.48009570622855,14.390092698659377L83.48869380333832,13.854132032990947L83.49684327681186,13.338478463432244L83.50458437401902,12.84169313496796L83.51195155124718,12.362483463799885L83.51897492817238,11.899684254747172L83.52568159543794,11.45224179453316L83.53209555703815,11.019199979970375L83.53823824994387,10.599688704424356L83.54412914518375,10.192913943722033L83.54978459288313,9.798148841132846L83.5552213769652,9.414727086674697L83.56045328333873,9.042035633643986L83.56549321123214,8.679509574096755" stroke="#009DA3" stroke-width="2"/></g></g><path class="foreground" aria-hidden="true" d="" display="none"/></g><g transform="translate(0,0)"><path class="background" aria-hidden="true" d="M0,0h120v120h-120Z"/><g><g class="mark-line role-mark layer_0_marks" role="graphics-object" aria-roledescription="line mark container"><path aria-label="VO2_m: 0.236186123948; ΔG_ATP: −65.3255153591; group: Old" role="graphics-symbol" aria-roledescription="line mark" d="M12.88287948807921,103.95309215479983L14.115009914051885,96.63091524733181L15.338338875431628,91.33789497271346L16.557054451680784,87.1516229607455L17.77302514386293,83.67465012273487L18.9872373633695,80.69521810226297L20.200264055061844,78.08581637777525L21.41245586042241,75.76320749925299L22.62403877743396,73.66982790425709L23.835157973896315,71.76410263789103L25.045910711998005,70.01496621189153L26.2563609482897,68.39856281955554L27.46654975899478,66.89615622715655L28.676503210152852,65.49275091488698L29.886235282268025,64.17615143832836L31.09575341037967,62.936301454153636L32.30505711120853,61.764808799207L33.51414395859502,60.65459543114184L34.72300542413408,59.59963646895676L35.931631936222196,58.59476035313082L37.14001228852714,57.63549508656479L38.348132058251394,56.71794826034648L39.5559767303975,55.83871099206817L40.76352989388889,54.99478217584738L41.970774041077156,54.18350660293208L43.17769109506331,53.40252478023149L44.3842634000511,52.64973064979176L45.59046879441545,51.92324012531981L46.79628783676748,51.22135938081875L48.001698691244016,50.54256299200325L49.2066788804178,49.88547335537123L50.411205375646205,49.24884392267313L51.61525230643377,48.63154394905405L52.81879537112318,48.032547406374306L54.02180937000777,47.450922259816714L55.2242650996685,46.88581984074108L56.426133954203436,46.33646990295756L57.627385362539876,45.80217179411057L58.82798804224795,45.282290099326474L60.0279086083544,44.77624917914045L61.22711248938581,44.283529321771766L62.42556187668027,43.80366461152289L63.62321848445098,43.33623790361025L64.82004082902529,42.880880564985546L66.01598626180412,42.437270288836324L67.21100796819957,42.005129705138195L68.40505724890241,41.58422625653338L69.59808222337563,41.17437167121488L70.79002728558277,40.77542319084251L71.98083326189865,40.387283446833415L73.17043776680953,40.00990143208447L74.35877288306928,39.6432766563662L75.54576635683277,39.287460696325525L76.73134084568554,38.942558821599505L77.91541229434223,38.60873732994105L79.09789110703329,38.28622615032373L80.27867994577694,37.97532479994288L81.45767352417903,37.676411625168384L82.63475958708274,37.38994539504211L83.80981149504206,37.11648619533526L84.98269350433779,36.856694707060804L86.15326438150242,36.61135048217102L87.3213579455906,36.38136542115035L88.48679864428685,36.167797622778835L89.64939027847856,35.971877431894875L90.8089188450413,35.79501616826337L91.9651451612344,35.638838737245806L93.1178035525458,35.505203208106195L94.2665966465242,35.396229624601354L95.4111915149719,35.31432209278001L96.5512156905306,35.2621998901136L97.68623000921777,35.242908972943496L98.81575761787988,35.25985160356732L99.93923853588846,35.31674557047654L101.0560142374305,35.41762741049979L102.1653334416172,35.5667338243461L103.26629656349024,35.768367174395735L104.35783152258655,36.02656704471109L105.43863678486717,36.344662597768085L106.50711168938604,36.724433296426014L107.56124836516926,37.16483366604689L108.59847281581811,37.65997484317587L109.61541422401531,38.19598795197316L110.60755750240024,38.74643761329435L111.5686862153318,39.2660939010134L112.49017165601498,39.68374595143314L113.36004141904822,39.89769114250112L114.1623681344891,39.78255583099462L114.87827245113867,39.22054475411323L115.49057857781287,38.1597316487555L115.99181161202114,36.66324710481376L116.38882630155567,34.8890872763036L116.69844687210487,33.00859886672288L116.93977995943735,31.145775550261984L117.12979952951522,29.36904355167417L117.2818489839172,27.707162977278585L117.40573726771608,26.1662733382368L117.50848262951105,24.741507235546578L117.5950918544903,23.423507585727286L117.66917286636907,22.201696115102546" stroke="#F98F00" stroke-width="2"/></g></g><path class="foreground" aria-hidden="true" d="" display="none"/></g></g><g class="mark-group role-legend" role="graphics-symbol" aria-roledescription="legend" aria-label="Symbol legend for stroke color with 2 values: Young, Old"><g transform="translate(5,5)"><path class="background" aria-hidden="true" d="M0,0h46v24h-46Z" pointer-events="none"/><g><g class="mark-group role-legend-entry"><g transform="translate(0,0)"><path class="background" aria-hidden="true" d="M0,0h0v0h0Z" pointer-events="none"/><g><g class="mark-group role-scope" role="graphics-object" aria-roledescription="group mark container"><g transform="translate(0,0)"><path class="background" aria-hidden="true" d="M0,0h46v11h-46Z" pointer-events="none" opacity="1"/><g><g class="mark-symbol role-legend-symbol" pointer-events="none"><path transform="translate(6,6)" d="M-5,0L5,0" stroke="#009DA3" stroke-width="1.5" opacity="1"/></g><g class="mark-text role-legend-label" pointer-events="none"><text text-anchor="start" transform="translate(16,9)" font-family="Arial" font-size="10px" fill="#000" opacity="1">Young</text></g></g><path class="foreground" aria-hidden="true" d="" pointer-events="none" display="none"/></g><g transform="translate(0,13)"><path class="background" aria-hidden="true" d="M0,0h46v11h-46Z" pointer-events="none" opacity="1"/><g><g class="mark-symbol role-legend-symbol" pointer-events="none"><path transform="translate(6,6)" d="M-5,0L5,0" stroke="#F98F00" stroke-width="1.5" opacity="1"/></g><g class="mark-text role-legend-label" pointer-events="none"><text text-anchor="start" transform="translate(16,9)" font-family="Arial" font-size="10px" fill="#000" opacity="1">Old</text></g></g><path class="foreground" aria-hidden="true" d="" pointer-events="none" display="none"/></g></g></g><path class="foreground" aria-hidden="true" d="" pointer-events="none" display="none"/></g></g></g><path class="foreground" aria-hidden="true" d="" pointer-events="none" display="none"/></g></g></g><path class="foreground" aria-hidden="true" d="" display="none"/></g></g></g></svg>
