<?xml version="1.0" encoding="utf-8"?>
<!DOCTYPE svg PUBLIC "-//W3C//DTD SVG 1.1//EN" "http://www.w3.org/Graphics/SVG/1.1/DTD/svg11.dtd">
<svg xmlns="http://www.w3.org/2000/svg" xmlns:xlink="http://www.w3.org/1999/xlink" version="1.1" class="marks" width="168" height="160" viewBox="0 0 168 160"><rect width="168" height="160" fill="white"/><g fill="none" stroke-miterlimit="10" transform="translate(43,5)"><g class="mark-group role-frame root" role="graphics-object" aria-roledescription="group mark container"><g transform="translate(0,0)"><path class="background" aria-hidden="true" d="M0.5,0.5h120v120h-120Z"/><g><g class="mark-group role-axis" role="graphics-symbol" aria-roledescription="axis" aria-label="X-axis titled 'VO2 (mmol/L mito/s)' for a linear scale with values from 0.0 to 2.2"><g transform="translate(0.5,120.5)"><path class="background" aria-hidden="true" d="M0,0h0v0h0Z" pointer-events="none"/><g><g class="mark-rule role-axis-tick" pointer-events="none"><line transform="translate(0,0)" x2="0" y2="3" stroke="black" stroke-width="1" opacity="1"/><line transform="translate(55,0)" x2="0" y2="3" stroke="black" stroke-width="1" opacity="1"/><line transform="translate(109,0)" x2="0" y2="3" stroke="black" stroke-width="1" opacity="1"/></g><g class="mark-text role-axis-label" pointer-events="none"><text text-anchor="start" transform="translate(0,13)" font-family="Arial" font-size="10px" fill="#000" opacity="1">0</text><text text-anchor="middle" transform="translate(54.54545454545455,13)" font-family="Arial" font-size="10px" fill="#000" opacity="1">1</text><text text-anchor="middle" transform="translate(109.0909090909091,13)" font-family="Arial" font-size="10px" fill="#000" opacity="1">2</text></g><g class="mark-rule role-axis-domain" pointer-events="none"><line transform="translate(0,0)" x2="120" y2="0" stroke="black" stroke-width="1" opacity="1"/></g><g class="mark-text role-axis-title" pointer-events="none"><text text-anchor="middle" transform="translate(60,28)" font-family="Arial" font-size="11px" font-weight="normal" fill="#000" opacity="1">VO2 (mmol/L mito/s)</text></g></g><path class="foreground" aria-hidden="true" d="" pointer-events="none" display="none"/></g></g><g class="mark-group role-axis" role="graphics-symbol" aria-roledescription="axis" aria-label="Y-axis titled 'ΔG_ATP (kJ/mol)' for a linear scale with values from −68 to −48"><g transform="translate(0.5,0.5)"><path class="background" aria-hidden="true" d="M0,0h0v0h0Z" pointer-events="none"/><g><g class="mark-rule role-axis-tick" pointer-events="none"><line transform="translate(0,102)" x2="-3" y2="0" stroke="black" stroke-width="1" opacity="1"/><line transform="translate(0,72)" x2="-3" y2="0" stroke="black" stroke-width="1" opacity="1"/><line transform="translate(0,42)" x2="-3" y2="0" stroke="black" stroke-width="1" opacity="1"/><line transform="translate(0,12)" x2="-3" y2="0" stroke="black" stroke-width="1" opacity="1"/></g><g class="mark-text role-axis-label" pointer-events="none"><text text-anchor="end" transform="translate(-5,105)" font-family="Arial" font-size="10px" fill="#000" opacity="1">−65</text><text text-anchor="end" transform="translate(-5,75)" font-family="Arial" font-size="10px" fill="#000" opacity="1">−60</text><text text-anchor="end" transform="translate(-5,45)" font-family="Arial" font-size="10px" fill="#000" opacity="1">−55</text><text text-anchor="end" transform="translate(-5,14.999999999999996)" font-family="Arial" font-size="10px" fill="#000" opacity="1">−50</text></g><g class="mark-rule role-axis-domain" pointer-events="none"><line transform="translate(0,120)" x2="0" y2="-120" stroke="black" stroke-width="1" opacity="1"/></g><g class="mark-text role-axis-title" pointer-events="none"><text text-anchor="middle" transform="translate(-27,60) rotate(-90) translate(0,-2)" font-family="Arial" font-size="11px" font-weight="normal" fill="#000" opacity="1">ΔG_ATP (kJ/mol)</text></g></g><path class="foreground" aria-hidden="true" d="" pointer-events="none" display="none"/></g></g><g class="mark-group role-scope layer_0_pathgroup" role="graphics-object" aria-roledescription="group mark container"><g transform="translate(0,0)"><path class="background" aria-hidden="true" d="M0,0h120v120h-120Z"/><g><g class="mark-line role-mark layer_0_marks" role="graphics-object" aria-roledescription="line mark container"><path aria-label="VO2_m: 0.23106662489; ΔG_ATP: −66.3100045232; group: Young" role="graphics-symbol" aria-roledescription="line mark" d="M12.603634084900651,109.8600271394821L13.854323564136616,102.49808937843727L15.094417771975314,96.70619430977376L16.326567915505986,91.971429208254L17.552798630699968,87.98976986295338L18.77457219924672,84.56709154885948L19.99292998499774,81.5731217726202L21.20860919153052,78.9169564336994L22.42213417255674,76.53305487468015L23.63388245721302,74.37282381560863L24.844125443260854,72.39936427893417L26.05305610542149,70.58406516087916L27.260814967945816,68.90433947419251L28.46749990360469,67.34207247642235L29.67317701620227,65.88253433684758L30.877889868017704,64.51360076744322L32.08166012671424,63.225187222678414L33.284495479750596,62.00882507642973L34.4863894653962,60.85734593325424L35.687325909928134,59.76463784915313L36.88727687568896,58.72545958377351L38.08620603744713,57.735293453252325L39.28406960654887,56.79023001577707L40.4808133605421,55.886878892583354L41.67637721254238,55.02229370090163L42.87069169089671,54.193916805791105L44.06367771952939,53.39953199058027L45.25524967844822,52.63722953122532L46.445310984124255,51.90537760482539L47.63375375139095,51.20260380273202L48.82046001527084,50.52777731514152L50.00529955383679,49.880004103233205L51.18812689671585,49.25862391342207L52.36878318994722,48.663210841366435L53.54708980349776,48.09358733505042L54.72285126226119,47.54983484871491L55.895849098685694,47.03232135270582L57.06583953760296,46.54173112015223L58.23255255384821,46.079105153518405L59.39568392165145,45.645898532450246L60.55489223307869,45.24404474260382L61.70979485713035,44.876035432466324L62.85995645628938,44.54503380651704L64.0048873455304,44.2549790361013L65.14402499063854,44.01076160219282L66.27672891739809,43.818372635489595L67.40225556416323,43.68511894709763L68.51975156314676,43.619828909464104L69.6282195553469,43.63305722539326L70.72647553405768,43.737270463544064L71.81312726863756,43.94687802323233L72.88648965859927,44.27803180613182L73.94449510296327,44.74785924971684L74.98459788736209,45.372694973033056L76.00352330958015,46.16433774084953L76.99704154134993,47.122472605915846L77.95951440637354,48.22032124018233L78.88322445841169,49.37905958424426L79.75728526742793,50.42854723992559L80.56565541339104,51.068651269703416L81.28350606913733,50.88616736524773L81.87307561833217,49.512072704514594L82.2941176693265,46.932678112175836L82.55494267535664,43.7176234513322L82.72866400024111,40.59277841198173L82.86174693974837,37.82439450053652L82.96397314498036,35.39732231799781L83.04267691921399,33.261847782030145L83.10483129329474,31.37064887836505L83.15530113045106,29.682038323654073L83.1972773634458,28.16154423041962L83.23289015484438,26.78150148735177L83.26360753617293,25.51987862598207L83.29047063463138,24.359077656232778L83.31423985158003,23.284937798712694L83.33548195698266,22.285955228005605L83.35462912415909,21.352693188543064L83.37201790764624,20.477335706093527L83.38791004424229,19.65334583919094L83.40251963847108,18.87521389502262L83.41601795592243,18.13825384329312L83.42854360948292,17.438450590695993L83.44021531515608,16.77234276630088L83.45113000774631,16.13692380211933L83.46137005957189,15.529568099181684L83.47100524057677,14.947969588549768L83.48009570622855,14.390092698659377L83.48869380333832,13.854132032990947L83.49684327681186,13.338478463432244L83.50458437401902,12.84169313496796L83.51195155124718,12.362483463799885L83.51897492817238,11.899684254747172L83.52568159543794,11.45224179453316L83.53209555703815,11.019199979970375L83.53823824994387,10.599688704424356L83.54412914518375,10.192913943722033L83.54978459288313,9.798148841132846L83.5552213769652,9.414727086674697L83.56045328333873,9.042035633643986L83.56549321123214,8.679509574096755" stroke="#009DA3" stroke-width="2"/></g></g><path class="foreground" aria-hidden="true" d="" display="none"/></g><g transform="translate(0,0)"><path class="background" aria-hidden="true" d="M0,0h120v120h-120Z"/><g><g class="mark-line role-mark layer_0_marks" role="graphics-object" aria-roledescription="line mark container"><path aria-label="VO2_m: 0.23618645947; ΔG_ATP: −65.3254072518; group: Old" role="graphics-symbol" aria-roledescription="line mark" d="M12.882897789265748,103.95244351078918L14.115032156557055,96.63011078756654L15.338363697064144,91.33699326432588L16.557081035372835,87.15065408734381L17.773053426795677,83.67363131394586L18.987267125528817,80.6941608236898L20.20029489489578,78.08472840413788L21.412487856221265,75.7620943482666L22.624071194901482,73.66869380432172L23.835191145433225,71.76295067467936L25.045944547038328,70.0137988507663L26.25639525260228,68.39738203002662L27.466584465592405,66.89496360497242L28.676538161894182,65.49154778333241L29.886271036722814,64.17493880613756L31.095789184320594,62.93508029866143L32.305093392361904,61.763579835218934L33.51418059566577,60.6533593709587L34.72304208691386,59.5983939047851L35.93166909618993,58.5935117167669L37.140049353002134,57.634240914892416L38.3481693634066,56.716688832399534L39.55601394395744,55.83744673385854L40.763567295885416,54.99351330708623L41.97081168574626,54.182233385971365L43.17772923495542,53.401247230287936L44.38430088658751,52.64844953315742L45.59050658703619,51.92195523242799L46.79632568491441,51.22007092714875L48.00173650152773,50.541271171102835L49.206716746880346,49.884178267449435L50.41124275078543,49.24754556326342L51.61529037127787,48.63024259789154L52.818833970078785,48.0312433680233L54.02184743396319,47.44961509355881L55.22430279748673,46.88451012323049L56.42617149929836,46.33515742922509L57.627422736859266,45.80085683801417L58.828025584719725,45.28097246350126L60.02794605194759,44.774929120238546L61.22714946468945,44.282207105220095L62.425598997761384,43.80233972537326L63.62325553533505,43.334910585963826L64.82007798635375,42.87955133370588L66.01602294435939,42.435938127167454L67.21104463467545,42.003795348725816L68.4050946558992,41.58288989553376L69.59811826565098,41.173033208922334L70.79006311257204,40.77408253661951L71.98086930898769,40.38594001427419L73.1704734755107,40.00855601638386L74.35880819754776,39.641929638960846L75.54580150011103,39.2861110985491L76.73137549686265,38.94120727470045L77.91544679177686,38.60738378173437L79.09792387290983,38.284871306881094L80.27871400179099,37.9739669398582L81.45770773251509,37.6750507548536L82.63479259840393,37.38858397747527L83.80984402950908,37.115123131196476L84.98272821597561,36.855329579014786L86.15329765103584,36.609982992572895L87.32139034509224,36.37999657196496L88.48683037486578,36.16642792351786L89.64942216274406,35.970505565077026L90.808950169184,35.79364425867106L91.96517617354925,35.63746525548731L93.11783471210337,35.503828750630866L94.26662739168333,35.39485559633022L95.41122236054238,35.3129492156454L96.55124007150775,35.26082840847857L97.68625919111577,35.24154247189972L98.81579088807985,35.25848432650172L99.93926864615324,35.31538184984811L101.0560441256441,35.41627090466L102.16536355606074,35.56538787321052L103.26632639837236,35.767028432788265L104.35786287709635,36.02523989431529L105.43866841889948,36.34335539566883L106.50714512202043,36.72314610360764L107.56128211956715,37.16358375877962L108.59850835028541,37.65876738012003L109.61545525109251,38.194828485171L110.607596174412,38.74536049668268L111.56873263822162,39.26511086441906L112.49022653024846,39.682890862503434L113.36010640388015,39.89699254015932L114.16244577168645,39.78204119310568L114.87836642954572,39.22022058073389L115.49069071081311,38.15957572557772L115.99193464366947,36.663206777663156L116.38896490468343,34.88910887854991L116.69859328916131,33.008641639498364L116.93993100274476,31.145817344264735L117.12995800606335,29.369081523654582L117.28200101075511,27.707173902846527L117.40589093604359,26.16627082796321L117.50863648864252,24.74149103084209L117.59524255291844,23.423475915873947L117.66932229702041,22.201653234254543" stroke="#F98F00" stroke-width="2"/></g></g><path class="foreground" aria-hidden="true" d="" display="none"/></g></g><g class="mark-group role-legend" role="graphics-symbol" aria-roledescription="legend" aria-label="Symbol legend for stroke color with 2 values: Young, Old"><g transform="translate(5,5)"><path class="background" aria-hidden="true" d="M0,0h46v24h-46Z" pointer-events="none"/><g><g class="mark-group role-legend-entry"><g transform="translate(0,0)"><path class="background" aria-hidden="true" d="M0,0h0v0h0Z" pointer-events="none"/><g><g class="mark-group role-scope" role="graphics-object" aria-roledescription="group mark container"><g transform="translate(0,0)"><path class="background" aria-hidden="true" d="M0,0h46v11h-46Z" pointer-events="none" opacity="1"/><g><g class="mark-symbol role-legend-symbol" pointer-events="none"><path transform="translate(6,6)" d="M-5,0L5,0" stroke="#009DA3" stroke-width="1.5" opacity="1"/></g><g class="mark-text role-legend-label" pointer-events="none"><text text-anchor="start" transform="translate(16,9)" font-family="Arial" font-size="10px" fill="#000" opacity="1">Young</text></g></g><path class="foreground" aria-hidden="true" d="" pointer-events="none" display="none"/></g><g transform="translate(0,13)"><path class="background" aria-hidden="true" d="M0,0h46v11h-46Z" pointer-events="none" opacity="1"/><g><g class="mark-symbol role-legend-symbol" pointer-events="none"><path transform="translate(6,6)" d="M-5,0L5,0" stroke="#F98F00" stroke-width="1.5" opacity="1"/></g><g class="mark-text role-legend-label" pointer-events="none"><text text-anchor="start" transform="translate(16,9)" font-family="Arial" font-size="10px" fill="#000" opacity="1">Old</text></g></g><path class="foreground" aria-hidden="true" d="" pointer-events="none" display="none"/></g></g></g><path class="foreground" aria-hidden="true" d="" pointer-events="none" display="none"/></g></g></g><path class="foreground" aria-hidden="true" d="" pointer-events="none" display="none"/></g></g></g><path class="foreground" aria-hidden="true" d="" display="none"/></g></g></g></svg>
