<?xml version="1.0" encoding="utf-8"?>
<!DOCTYPE svg PUBLIC "-//W3C//DTD SVG 1.1//EN" "http://www.w3.org/Graphics/SVG/1.1/DTD/svg11.dtd">
<svg xmlns="http://www.w3.org/2000/svg" xmlns:xlink="http://www.w3.org/1999/xlink" version="1.1" class="marks" width="168" height="160" viewBox="0 0 168 160"><rect width="168" height="160" fill="white"/><g fill="none" stroke-miterlimit="10" transform="translate(43,5)"><g class="mark-group role-frame root" role="graphics-object" aria-roledescription="group mark container"><g transform="translate(0,0)"><path class="background" aria-hidden="true" d="M0.5,0.5h120v120h-120Z"/><g><g class="mark-group role-axis" role="graphics-symbol" aria-roledescription="axis" aria-label="X-axis titled 'VO2 (mmol/L mito/s)' for a linear scale with values from 0.0 to 2.2"><g transform="translate(0.5,120.5)"><path class="background" aria-hidden="true" d="M0,0h0v0h0Z" pointer-events="none"/><g><g class="mark-rule role-axis-tick" pointer-events="none"><line transform="translate(0,0)" x2="0" y2="3" stroke="black" stroke-width="1" opacity="1"/><line transform="translate(55,0)" x2="0" y2="3" stroke="black" stroke-width="1" opacity="1"/><line transform="translate(109,0)" x2="0" y2="3" stroke="black" stroke-width="1" opacity="1"/></g><g class="mark-text role-axis-label" pointer-events="none"><text text-anchor="start" transform="translate(0,13)" font-family="Arial" font-size="10px" fill="#000" opacity="1">0</text><text text-anchor="middle" transform="translate(54.54545454545455,13)" font-family="Arial" font-size="10px" fill="#000" opacity="1">1</text><text text-anchor="middle" transform="translate(109.0909090909091,13)" font-family="Arial" font-size="10px" fill="#000" opacity="1">2</text></g><g class="mark-rule role-axis-domain" pointer-events="none"><line transform="translate(0,0)" x2="120" y2="0" stroke="black" stroke-width="1" opacity="1"/></g><g class="mark-text role-axis-title" pointer-events="none"><text text-anchor="middle" transform="translate(60,28)" font-family="Arial" font-size="11px" font-weight="normal" fill="#000" opacity="1">VO2 (mmol/L mito/s)</text></g></g><path class="foreground" aria-hidden="true" d="" pointer-events="none" display="none"/></g></g><g class="mark-group role-axis" role="graphics-symbol" aria-roledescription="axis" aria-label="Y-axis titled 'ΔG_ATP (kJ/mol)' for a linear scale with values from −68 to −48"><g transform="translate(0.5,0.5)"><path class="background" aria-hidden="true" d="M0,0h0v0h0Z" pointer-events="none"/><g><g class="mark-rule role-axis-tick" pointer-events="none"><line transform="translate(0,102)" x2="-3" y2="0" stroke="black" stroke-width="1" opacity="1"/><line transform="translate(0,72)" x2="-3" y2="0" stroke="black" stroke-width="1" opacity="1"/><line transform="translate(0,42)" x2="-3" y2="0" stroke="black" stroke-width="1" opacity="1"/><line transform="translate(0,12)" x2="-3" y2="0" stroke="black" stroke-width="1" opacity="1"/></g><g class="mark-text role-axis-label" pointer-events="none"><text text-anchor="end" transform="translate(-5,105)" font-family="Arial" font-size="10px" fill="#000" opacity="1">−65</text><text text-anchor="end" transform="translate(-5,75)" font-family="Arial" font-size="10px" fill="#000" opacity="1">−60</text><text text-anchor="end" transform="translate(-5,45)" font-family="Arial" font-size="10px" fill="#000" opacity="1">−55</text><text text-anchor="end" transform="translate(-5,14.999999999999996)" font-family="Arial" font-size="10px" fill="#000" opacity="1">−50</text></g><g class="mark-rule role-axis-domain" pointer-events="none"><line transform="translate(0,120)" x2="0" y2="-120" stroke="black" stroke-width="1" opacity="1"/></g><g class="mark-text role-axis-title" pointer-events="none"><text text-anchor="middle" transform="translate(-27,60) rotate(-90) translate(0,-2)" font-family="Arial" font-size="11px" font-weight="normal" fill="#000" opacity="1">ΔG_ATP (kJ/mol)</text></g></g><path class="foreground" aria-hidden="true" d="" pointer-events="none" display="none"/></g></g><g class="mark-group role-scope layer_0_pathgroup" role="graphics-object" aria-roledescription="group mark container"><g transform="translate(0,0)"><path class="background" aria-hidden="true" d="M0,0h120v120h-120Z"/><g><g class="mark-line role-mark layer_0_marks" role="graphics-object" aria-roledescription="line mark container"><path aria-label="VO2_m: 0.23106662489; ΔG_ATP: −66.3100045232; group: Young" role="graphics-symbol" aria-roledescription="line mark" d="M12.603634084900651,109.8600271394821L13.854323564136616,102.49808937843727L15.094417771975314,96.70619430977376L16.326567915505986,91.971429208254L17.552798630699968,87.98976986295338L18.77457219924672,84.56709154885948L19.99292998499774,81.5731217726202L21.20860919153052,78.9169564336994L22.42213417255674,76.53305487468015L23.63388245721302,74.37282381560863L24.844125443260854,72.39936427893417L26.05305610542149,70.58406516087916L27.260814967945816,68.90433947419251L28.46749990360469,67.34207247642235L29.67317701620227,65.88253433684758L30.877889868017704,64.51360076744322L32.08166012671424,63.225187222678414L33.284495479750596,62.00882507642973L34.4863894653962,60.85734593325424L35.687325909928134,59.76463784915313L36.88727687568896,58.72545958377351L38.08620603744713,57.735293453252325L39.28406960654887,56.79023001577707L40.4808133605421,55.886878892583354L41.67637721254238,55.02229370090163L42.87069169089671,54.193916805791105L44.06367771952939,53.39953199058027L45.25524967844822,52.63722953122532L46.445310984124255,51.90537760482539L47.63375375139095,51.20260380273202L48.82046001527084,50.52777731514152L50.00529955383679,49.880004103233205L51.18812689671585,49.25862391342207L52.36878318994722,48.663210841366435L53.54708980349776,48.09358733505042L54.72285126226119,47.54983484871491L55.895849098685694,47.03232135270582L57.06583953760296,46.54173112015223L58.23255255384821,46.079105153518405L59.39568392165145,45.645898532450246L60.55489223307869,45.24404474260382L61.70979485713035,44.876035432466324L62.85995645628938,44.54503380651704L64.0048873455304,44.2549790361013L65.14402499063854,44.01076160219282L66.27672891739809,43.818372635489595L67.40225556416323,43.68511894709763L68.51975156314676,43.619828909464104L69.6282195553469,43.63305722539326L70.72647553405768,43.737270463544064L71.81312726863756,43.94687802323233L72.88648965859927,44.27803180613182L73.94449510296327,44.74785924971684L74.98459788736209,45.372694973033056L76.00352330958015,46.16433774084953L76.99704154134993,47.122472605915846L77.95951440637354,48.22032124018233L78.88322445841169,49.37905958424426L79.75728526742793,50.42854723992559L80.56565541339104,51.068651269703416L81.28350606913733,50.88616736524773L81.87307561833217,49.512072704514594L82.2941176693265,46.932678112175836L82.55494267535664,43.7176234513322L82.72866400024111,40.59277841198173L82.86174693974837,37.82439450053652L82.96397314498036,35.39732231799781L83.04267691921399,33.261847782030145L83.10483129329474,31.37064887836505L83.15530113045106,29.682038323654073L83.1972773634458,28.16154423041962L83.23289015484438,26.78150148735177L83.26360753617293,25.51987862598207L83.29047063463138,24.359077656232778L83.31423985158003,23.284937798712694L83.33548195698266,22.285955228005605L83.35462912415909,21.352693188543064L83.37201790764624,20.477335706093527L83.38791004424229,19.65334583919094L83.40251963847108,18.87521389502262L83.41601795592243,18.13825384329312L83.42854360948292,17.438450590695993L83.44021531515608,16.77234276630088L83.45113000774631,16.13692380211933L83.46137005957189,15.529568099181684L83.47100524057677,14.947969588549768L83.48009570622855,14.390092698659377L83.48869380333832,13.854132032990947L83.49684327681186,13.338478463432244L83.50458437401902,12.84169313496796L83.51195155124718,12.362483463799885L83.51897492817238,11.899684254747172L83.52568159543794,11.45224179453316L83.53209555703815,11.019199979970375L83.53823824994387,10.599688704424356L83.54412914518375,10.192913943722033L83.54978459288313,9.798148841132846L83.5552213769652,9.414727086674697L83.56045328333873,9.042035633643986L83.56549321123214,8.679509574096755" stroke="#009DA3" stroke-width="2"/></g></g><path class="foreground" aria-hidden="true" d="" display="none"/></g><g transform="translate(0,0)"><path class="background" aria-hidden="true" d="M0,0h120v120h-120Z"/><g><g class="mark-line role-mark layer_0_marks" role="graphics-object" aria-roledescription="line mark container"><path aria-label="VO2_m: 0.232158006883; ΔG_ATP: −66.5157673576; group: Old" role="graphics-symbol" aria-roledescription="line mark" d="M12.663164011815491,111.09460414536125L13.917578839445301,103.461892445996L15.162692582010438,97.49217987909879L16.400490198939433,92.63612806437641L17.63272750585508,88.56911326483396L18.86076482035703,85.08451597338762L20.08560390562708,82.04431355848601L21.307973315696074,79.35267644615988L22.52840139486239,76.94085043123096L23.747276268836377,74.75808725022443L24.96488374529879,72.765997967977L26.181437134162714,70.93491506252712L27.397096787653336,69.24147932271944L28.611983845041742,67.66699527651099L29.82619006689047,66.19628290975879L31.039785031202914,64.8168584520813L32.25282152015135,63.518338347879315L33.46533885802639,62.291998053752195L34.67736597245032,61.13044001962998L35.88892384530983,60.02734031766841L37.10002612751828,58.977252680826034L38.31068153618198,57.97545537454653L39.52089422019008,57.017829501903634L40.73066440305609,56.100762408156235L41.93998934384983,55.22106929065785L43.14886342215539,54.37592972647735L44.35727817302194,53.562835551640546L45.56522370177738,52.779547728524896L46.772688250845114,52.024060771941095L47.97965644523578,51.29457267923818L49.18611327876174,50.589460408950345L50.392042061016966,49.90725750597494L51.597422130210624,49.24663790624027L52.80223516009787,48.60639884653165L54.00645757721905,47.98544897619149L55.21006591625224,47.38279709769677L56.41303491850199,46.7975423882931L57.61533759110354,46.22886596694343L58.81694519373629,45.67602480234609L60.01782696697277,45.13834507937326L61.2179503874536,44.61521721202689L62.417280807366915,44.106091833906696L63.61578126438677,43.61047631845714L64.81341261925778,43.127931641363375L66.01013306847537,42.6580705319052L67.2058982005158,42.20055548938444L68.40066022188296,41.7550984233717L69.59436893630385,41.32145855109002L70.78697015111194,40.899444480648064L71.97840567279074,40.48891352573219L73.16861371713489,40.089772820901544L74.35752793266768,39.701981356658045L75.54507684652987,39.325552828302996L76.73118400963928,38.960557702613634L77.91576612966122,38.60712865744198L79.09873436851387,38.2654641960421L80.2799932653168,37.935832460836075L81.45943739921336,37.61858423004333L82.63695406736922,37.31415388398136L83.81242055125038,37.023072156134276L84.98570202456503,36.74597772111746L86.15665325534606,36.48362611596394L87.32511363143362,36.23690835191929L88.49090689002615,36.00686573592202L89.6538401100724,35.794704708902366L90.81369772935555,35.6018260577489L91.97024676376671,35.429838201337134L93.12321905143502,35.28058962163823L94.27232087159386,35.15619482951524L95.41722193161314,35.059056680413505L96.55754933078734,34.99189374183925L97.69288069786626,34.957774421135134L98.82273996302095,34.96011343437977L99.94655269070508,35.00268317269047L101.06369589973471,35.08957411005258L102.17341521294375,35.22513380774626L103.27482932894952,35.41379336600449L104.36688286296193,35.65981335560309L105.44830144248004,35.96682479184483L106.51750591480952,36.337066946303366L107.57257942985859,36.77016033905466L108.61098258703299,37.261201901623735L109.6294659106104,37.79778016695718L110.62367592627695,38.355551506771455L111.58764463238164,38.89218367053082L112.5130968524648,39.34011054886604L113.38852733625568,39.60122598901353L114.19845571137981,39.55140469354455L114.9240443930797,39.06757130322284L115.54711608358201,38.08333080062994L116.05833263992197,36.64439644103687L116.46320261453363,34.901822806863045L116.77858746045116,33.03251099608542L117.02396375438072,31.16883393396574L117.21657682402821,29.38523287920862L117.37013084287425,27.714162840602054L117.49476325594512,26.163733222273102L117.59775990186922,24.72998455911284L117.68430220187678,23.403899697284487L117.75811042444721,22.174962534200407" stroke="#F98F00" stroke-width="2"/></g></g><path class="foreground" aria-hidden="true" d="" display="none"/></g></g><g class="mark-group role-legend" role="graphics-symbol" aria-roledescription="legend" aria-label="Symbol legend for stroke color with 2 values: Young, Old"><g transform="translate(5,5)"><path class="background" aria-hidden="true" d="M0,0h46v24h-46Z" pointer-events="none"/><g><g class="mark-group role-legend-entry"><g transform="translate(0,0)"><path class="background" aria-hidden="true" d="M0,0h0v0h0Z" pointer-events="none"/><g><g class="mark-group role-scope" role="graphics-object" aria-roledescription="group mark container"><g transform="translate(0,0)"><path class="background" aria-hidden="true" d="M0,0h46v11h-46Z" pointer-events="none" opacity="1"/><g><g class="mark-symbol role-legend-symbol" pointer-events="none"><path transform="translate(6,6)" d="M-5,0L5,0" stroke="#009DA3" stroke-width="1.5" opacity="1"/></g><g class="mark-text role-legend-label" pointer-events="none"><text text-anchor="start" transform="translate(16,9)" font-family="Arial" font-size="10px" fill="#000" opacity="1">Young</text></g></g><path class="foreground" aria-hidden="true" d="" pointer-events="none" display="none"/></g><g transform="translate(0,13)"><path class="background" aria-hidden="true" d="M0,0h46v11h-46Z" pointer-events="none" opacity="1"/><g><g class="mark-symbol role-legend-symbol" pointer-events="none"><path transform="translate(6,6)" d="M-5,0L5,0" stroke="#F98F00" stroke-width="1.5" opacity="1"/></g><g class="mark-text role-legend-label" pointer-events="none"><text text-anchor="start" transform="translate(16,9)" font-family="Arial" font-size="10px" fill="#000" opacity="1">Old</text></g></g><path class="foreground" aria-hidden="true" d="" pointer-events="none" display="none"/></g></g></g><path class="foreground" aria-hidden="true" d="" pointer-events="none" display="none"/></g></g></g><path class="foreground" aria-hidden="true" d="" pointer-events="none" display="none"/></g></g></g><path class="foreground" aria-hidden="true" d="" display="none"/></g></g></g></svg>
