<?xml version="1.0" encoding="utf-8"?>
<!DOCTYPE svg PUBLIC "-//W3C//DTD SVG 1.1//EN" "http://www.w3.org/Graphics/SVG/1.1/DTD/svg11.dtd">
<svg xmlns="http://www.w3.org/2000/svg" xmlns:xlink="http://www.w3.org/1999/xlink" version="1.1" class="marks" width="168" height="160" viewBox="0 0 168 160"><rect width="168" height="160" fill="white"/><g fill="none" stroke-miterlimit="10" transform="translate(43,5)"><g class="mark-group role-frame root" role="graphics-object" aria-roledescription="group mark container"><g transform="translate(0,0)"><path class="background" aria-hidden="true" d="M0.5,0.5h120v120h-120Z"/><g><g class="mark-group role-axis" role="graphics-symbol" aria-roledescription="axis" aria-label="X-axis titled 'VO2 (mmol/L mito/s)' for a linear scale with values from 0.0 to 2.2"><g transform="translate(0.5,120.5)"><path class="background" aria-hidden="true" d="M0,0h0v0h0Z" pointer-events="none"/><g><g class="mark-rule role-axis-tick" pointer-events="none"><line transform="translate(0,0)" x2="0" y2="3" stroke="black" stroke-width="1" opacity="1"/><line transform="translate(55,0)" x2="0" y2="3" stroke="black" stroke-width="1" opacity="1"/><line transform="translate(109,0)" x2="0" y2="3" stroke="black" stroke-width="1" opacity="1"/></g><g class="mark-text role-axis-label" pointer-events="none"><text text-anchor="start" transform="translate(0,13)" font-family="Arial" font-size="10px" fill="#000" opacity="1">0</text><text text-anchor="middle" transform="translate(54.54545454545455,13)" font-family="Arial" font-size="10px" fill="#000" opacity="1">1</text><text text-anchor="middle" transform="translate(109.0909090909091,13)" font-family="Arial" font-size="10px" fill="#000" opacity="1">2</text></g><g class="mark-rule role-axis-domain" pointer-events="none"><line transform="translate(0,0)" x2="120" y2="0" stroke="black" stroke-width="1" opacity="1"/></g><g class="mark-text role-axis-title" pointer-events="none"><text text-anchor="middle" transform="translate(60,28)" font-family="Arial" font-size="11px" font-weight="normal" fill="#000" opacity="1">VO2 (mmol/L mito/s)</text></g></g><path class="foreground" aria-hidden="true" d="" pointer-events="none" display="none"/></g></g><g class="mark-group role-axis" role="graphics-symbol" aria-roledescription="axis" aria-label="Y-axis titled 'Δp (mV)' for a linear scale with values from 145 to 185"><g transform="translate(0.5,0.5)"><path class="background" aria-hidden="true" d="M0,0h0v0h0Z" pointer-events="none"/><g><g class="mark-rule role-axis-tick" pointer-events="none"><line transform="translate(0,105)" x2="-3" y2="0" stroke="black" stroke-width="1" opacity="1"/><line transform="translate(0,75)" x2="-3" y2="0" stroke="black" stroke-width="1" opacity="1"/><line transform="translate(0,45)" x2="-3" y2="0" stroke="black" stroke-width="1" opacity="1"/><line transform="translate(0,15)" x2="-3" y2="0" stroke="black" stroke-width="1" opacity="1"/></g><g class="mark-text role-axis-label" pointer-events="none"><text text-anchor="end" transform="translate(-5,108)" font-family="Arial" font-size="10px" fill="#000" opacity="1">150</text><text text-anchor="end" transform="translate(-5,78)" font-family="Arial" font-size="10px" fill="#000" opacity="1">160</text><text text-anchor="end" transform="translate(-5,48)" font-family="Arial" font-size="10px" fill="#000" opacity="1">170</text><text text-anchor="end" transform="translate(-5,18)" font-family="Arial" font-size="10px" fill="#000" opacity="1">180</text></g><g class="mark-rule role-axis-domain" pointer-events="none"><line transform="translate(0,120)" x2="0" y2="-120" stroke="black" stroke-width="1" opacity="1"/></g><g class="mark-text role-axis-title" pointer-events="none"><text text-anchor="middle" transform="translate(-27,60) rotate(-90) translate(0,-2)" font-family="Arial" font-size="11px" font-weight="normal" fill="#000" opacity="1">Δp (mV)</text></g></g><path class="foreground" aria-hidden="true" d="" pointer-events="none" display="none"/></g></g><g class="mark-group role-scope layer_0_pathgroup" role="graphics-object" aria-roledescription="group mark container"><g transform="translate(0,0)"><path class="background" aria-hidden="true" d="M0,0h120v120h-120Z"/><g><g class="mark-line role-mark layer_0_marks" role="graphics-object" aria-roledescription="line mark container"><path aria-label="VO2_m: 0.23106662489; Δp: 178.873484792; group: Young" role="graphics-symbol" aria-roledescription="line mark" d="M12.603634084900651,18.37954562296122L13.854323564136616,17.987452942563493L15.094417771975314,17.77466243594325L16.326567915505986,17.70844453318879L17.552798630699968,17.754471487169575L18.77457219924672,17.8836418801524L19.99292998499774,18.073383432707224L21.20860919153052,18.3067357593196L22.42213417255674,18.57110740614835L23.63388245721302,18.8572531022404L24.844125443260854,19.15828998133506L26.05305610542149,19.46918749360634L27.260814967945816,19.78625571272215L28.46749990360469,20.10681208325977L29.67317701620227,20.428942536198143L30.877889868017704,20.751364929455747L32.08166012671424,21.07322546429469L33.284495479750596,21.394074597838507L34.4863894653962,21.713757528896025L35.687325909928134,22.03240167028205L36.88727687568896,22.350327668092515L38.08620603744713,22.66806418692184L39.28406960654887,22.98633391349259L40.4808133605421,23.30599511353384L41.67637721254238,23.62810152116495L42.87069169089671,23.953846948368856L44.06367771952939,24.284597027150706L45.25524967844822,24.621884816972475L46.445310984124255,24.967424425745925L47.63375375139095,25.323105519725747L48.82046001527084,25.6910409175477L50.00529955383679,26.07355259303898L51.18812689671585,26.47319993171771L52.36878318994722,26.892815025599994L53.54708980349776,27.335510415535285L54.72285126226119,27.80472579528325L55.895849098685694,28.304250363031652L57.06583953760296,28.83826654342883L58.23255255384821,29.411394329305345L59.39568392165145,30.02874070436917L60.55489223307869,30.6959610431376L61.70979485713035,31.419322914434893L62.85995645628938,32.20579751347393L64.0048873455304,33.06313058909137L65.14402499063854,33.99999181983808L66.27672891739809,35.02607621045041L67.40225556416323,36.152296184362L68.51975156314676,37.39097889891045L69.6282195553469,38.756108050260536L70.72647553405768,40.26368653609446L71.81312726863756,41.93213505933545L72.88648965859927,43.78286749006286L73.94449510296327,45.84097420654686L74.98459788736209,48.13617588831153L76.00352330958015,50.70384170340554L76.99704154134993,53.58568764029653L77.95951440637354,56.829274027290495L78.88322445841169,60.4837547914164L79.75728526742793,64.58659617315607L80.56565541339104,69.13575874577828L81.28350606913733,74.04684869144634L81.87307561833217,79.10374751937456L82.2941176693265,83.90817880554664L82.55494267535664,87.95082196607467L82.72866400024111,91.02017503460962L82.86174693974837,93.33090465187942L82.96397314498036,95.13555446915694L83.04267691921399,96.58819402116649L83.10483129329474,97.7848295580323L83.15530113045106,98.78999109374445L83.1972773634458,99.64849783485198L83.23289015484438,100.3922280147994L83.26360753617293,101.0443794408182L83.29047063463138,101.62220450696086L83.31423985158003,102.13879141790446L83.33548195698266,102.60425124645892L83.35462912415909,103.0265224588918L83.37201790764624,103.41192900361045L83.38791004424229,103.76557666727228L83.40251963847108,104.09163408712453L83.41601795592243,104.39354337056409L83.42854360948292,104.67417409543717L83.44021531515608,104.93593834014297L83.45113000774631,105.18088149335L83.46137005957189,105.41075008725082L83.47100524057677,105.62704578736273L83.48009570622855,105.83106766757365L83.48869380333832,106.02394603113638L83.49684327681186,106.20666992177314L83.50458437401902,106.38010852000747L83.51195155124718,106.54502961287335L83.51897492817238,106.70211429185744L83.52568159543794,106.85196905718809L83.53209555703815,106.99513611108483L83.53823824994387,107.13210187697615L83.54412914518375,107.26330416839488L83.54978459288313,107.38913842261806L83.5552213769652,107.50996255552894L83.56045328333873,107.62610175314973L83.56549321123214,107.73785208112622" stroke="#009DA3" stroke-width="2"/></g></g><path class="foreground" aria-hidden="true" d="" display="none"/></g><g transform="translate(0,0)"><path class="background" aria-hidden="true" d="M0,0h120v120h-120Z"/><g><g class="mark-line role-mark layer_0_marks" role="graphics-object" aria-roledescription="line mark container"><path aria-label="VO2_m: 0.23618645947; Δp: 182.416874283; group: Old" role="graphics-symbol" aria-roledescription="line mark" d="M12.882897789265748,7.749377150240031L14.115032156557055,7.779235863126326L15.338363697064144,8.102041308536737L16.557081035372835,8.569578635649231L17.773053426795677,9.115080225396861L18.987267125528817,9.70311326634604L20.20029489489578,10.313172066854008L21.412487856221265,10.932696984690944L22.624071194901482,11.553765685668589L23.835191145433225,12.171254837901525L25.045944547038328,12.781841728690813L26.25639525260228,13.383381202495821L27.466584465592405,13.974515796990833L28.676538161894182,14.554439093436887L29.886271036722814,15.12271951391742L31.095789184320594,15.679182775864149L32.305093392361904,16.22385138007808L33.51418059566577,16.7568910422888L34.72304208691386,17.278530968887193L35.93166909618993,17.78911585069142L37.140049353002134,18.289006951368883L38.3481693634066,18.778613952347946L39.55601394395744,19.25836689745861L40.763567295885416,19.728723620068852L41.97081168574626,20.19014116820145L43.17772923495542,20.643099478366544L44.38430088658751,21.08808167413585L45.59050658703619,21.525575485971444L46.79632568491441,21.956077730315606L48.00173650152773,22.380088965915313L49.206716746880346,22.798118129728554L50.41124275078543,23.2106755812351L51.61529037127787,23.618285384507264L52.818833970078785,24.021473304841866L54.02184743396319,24.420783697910874L55.22430279748673,24.816763745555555L56.42617149929836,25.20998011147747L57.627422736859266,25.60100806690891L58.828025584719725,25.990447852463838L60.02794605194759,26.378909063307564L61.22714946468945,26.767031548394474L62.425598997761384,27.15547434632149L63.62325553533505,27.544921313319215L64.82007798635375,27.93608557261024L66.01602294435939,28.32972121178784L67.21104463467545,28.726602272749947L68.4050946558992,29.127552485949984L69.59811826565098,29.5334336476979L70.79006311257204,29.945155841091125L71.98086930898769,30.36367895973391L73.1704734755107,30.790016810965078L74.35880819754776,31.225245157542297L75.54580150011103,31.67050602013614L76.73137549686265,32.12701187239424L77.91544679177686,32.59605462879546L79.09792387290983,33.07901155005987L80.27871400179099,33.577354898902094L81.45770773251509,34.092658361716985L82.63479259840393,34.626613267567166L83.80984402950908,35.18101913764124L84.98272821597561,35.75783449973966L86.15329765103584,36.35915330742702L87.32139034509224,36.98724199716068L88.48683037486578,37.64454585819684L89.64942216274406,38.33372186688382L90.808950169184,39.057655251347605L91.96517617354925,39.819481519829736L93.11783471210337,40.62263489132044L94.26662739168333,41.47087477005289L95.41122236054238,42.3683268588345L96.55124007150775,43.319538056491524L97.68625919111577,44.3295497888482L98.81579088807985,45.403951635207356L99.93926864615324,46.54897376256969L101.0560441256441,47.7716025614227L102.16536355606074,49.079663441952135L103.26632639837236,50.48199149741319L104.35786287709635,51.98856229108252L105.43866841889948,53.61069941316509L106.50714512202043,55.36114833469917L107.56128211956715,57.25427199832086L108.59850835028541,59.30590961033722L109.61545525109251,61.53300205438405L110.607596174412,63.952477498108856L111.56873263822162,66.57850771900434L112.49022653024846,69.41730169971783L113.36010640388015,72.45735377539685L114.16244577168645,75.65497005314899L114.87836642954572,78.91856943135974L115.49069071081311,82.10684009705676L115.99193464366947,85.06153168949146L116.38896490468343,87.66846389301054L116.69859328916131,89.89342814932974L116.93993100274476,91.76385651724394L117.12995800606335,93.3326740321773L117.28200101075511,94.65530385904117L117.40589093604359,95.7801378700187L117.50863648864252,96.74642778415608L117.59524255291844,97.58497205850347L117.66932229702041,98.31969191732236" stroke="#F98F00" stroke-width="2"/></g></g><path class="foreground" aria-hidden="true" d="" display="none"/></g></g><g class="mark-group role-legend" role="graphics-symbol" aria-roledescription="legend" aria-label="Symbol legend for stroke color with 2 values: Young, Old"><g transform="translate(69,5)"><path class="background" aria-hidden="true" d="M0,0h46v24h-46Z" pointer-events="none"/><g><g class="mark-group role-legend-entry"><g transform="translate(0,0)"><path class="background" aria-hidden="true" d="M0,0h0v0h0Z" pointer-events="none"/><g><g class="mark-group role-scope" role="graphics-object" aria-roledescription="group mark container"><g transform="translate(0,0)"><path class="background" aria-hidden="true" d="M0,0h46v11h-46Z" pointer-events="none" opacity="1"/><g><g class="mark-symbol role-legend-symbol" pointer-events="none"><path transform="translate(6,6)" d="M-5,0L5,0" stroke="#009DA3" stroke-width="1.5" opacity="1"/></g><g class="mark-text role-legend-label" pointer-events="none"><text text-anchor="start" transform="translate(16,9)" font-family="Arial" font-size="10px" fill="#000" opacity="1">Young</text></g></g><path class="foreground" aria-hidden="true" d="" pointer-events="none" display="none"/></g><g transform="translate(0,13)"><path class="background" aria-hidden="true" d="M0,0h46v11h-46Z" pointer-events="none" opacity="1"/><g><g class="mark-symbol role-legend-symbol" pointer-events="none"><path transform="translate(6,6)" d="M-5,0L5,0" stroke="#F98F00" stroke-width="1.5" opacity="1"/></g><g class="mark-text role-legend-label" pointer-events="none"><text text-anchor="start" transform="translate(16,9)" font-family="Arial" font-size="10px" fill="#000" opacity="1">Old</text></g></g><path class="foreground" aria-hidden="true" d="" pointer-events="none" display="none"/></g></g></g><path class="foreground" aria-hidden="true" d="" pointer-events="none" display="none"/></g></g></g><path class="foreground" aria-hidden="true" d="" pointer-events="none" display="none"/></g></g></g><path class="foreground" aria-hidden="true" d="" display="none"/></g></g></g></svg>
