<?xml version="1.0" encoding="utf-8"?>
<!DOCTYPE svg PUBLIC "-//W3C//DTD SVG 1.1//EN" "http://www.w3.org/Graphics/SVG/1.1/DTD/svg11.dtd">
<svg xmlns="http://www.w3.org/2000/svg" xmlns:xlink="http://www.w3.org/1999/xlink" version="1.1" class="marks" width="168" height="160" viewBox="0 0 168 160"><rect width="168" height="160" fill="white"/><g fill="none" stroke-miterlimit="10" transform="translate(43,5)"><g class="mark-group role-frame root" role="graphics-object" aria-roledescription="group mark container"><g transform="translate(0,0)"><path class="background" aria-hidden="true" d="M0.5,0.5h120v120h-120Z"/><g><g class="mark-group role-axis" role="graphics-symbol" aria-roledescription="axis" aria-label="X-axis titled 'VO2 (mmol/L mito/s)' for a linear scale with values from 0.0 to 2.2"><g transform="translate(0.5,120.5)"><path class="background" aria-hidden="true" d="M0,0h0v0h0Z" pointer-events="none"/><g><g class="mark-rule role-axis-tick" pointer-events="none"><line transform="translate(0,0)" x2="0" y2="3" stroke="black" stroke-width="1" opacity="1"/><line transform="translate(55,0)" x2="0" y2="3" stroke="black" stroke-width="1" opacity="1"/><line transform="translate(109,0)" x2="0" y2="3" stroke="black" stroke-width="1" opacity="1"/></g><g class="mark-text role-axis-label" pointer-events="none"><text text-anchor="start" transform="translate(0,13)" font-family="Arial" font-size="10px" fill="#000" opacity="1">0</text><text text-anchor="middle" transform="translate(54.54545454545455,13)" font-family="Arial" font-size="10px" fill="#000" opacity="1">1</text><text text-anchor="middle" transform="translate(109.0909090909091,13)" font-family="Arial" font-size="10px" fill="#000" opacity="1">2</text></g><g class="mark-rule role-axis-domain" pointer-events="none"><line transform="translate(0,0)" x2="120" y2="0" stroke="black" stroke-width="1" opacity="1"/></g><g class="mark-text role-axis-title" pointer-events="none"><text text-anchor="middle" transform="translate(60,28)" font-family="Arial" font-size="11px" font-weight="normal" fill="#000" opacity="1">VO2 (mmol/L mito/s)</text></g></g><path class="foreground" aria-hidden="true" d="" pointer-events="none" display="none"/></g></g><g class="mark-group role-axis" role="graphics-symbol" aria-roledescription="axis" aria-label="Y-axis titled 'Δp (mV)' for a linear scale with values from 145 to 185"><g transform="translate(0.5,0.5)"><path class="background" aria-hidden="true" d="M0,0h0v0h0Z" pointer-events="none"/><g><g class="mark-rule role-axis-tick" pointer-events="none"><line transform="translate(0,105)" x2="-3" y2="0" stroke="black" stroke-width="1" opacity="1"/><line transform="translate(0,75)" x2="-3" y2="0" stroke="black" stroke-width="1" opacity="1"/><line transform="translate(0,45)" x2="-3" y2="0" stroke="black" stroke-width="1" opacity="1"/><line transform="translate(0,15)" x2="-3" y2="0" stroke="black" stroke-width="1" opacity="1"/></g><g class="mark-text role-axis-label" pointer-events="none"><text text-anchor="end" transform="translate(-5,108)" font-family="Arial" font-size="10px" fill="#000" opacity="1">150</text><text text-anchor="end" transform="translate(-5,78)" font-family="Arial" font-size="10px" fill="#000" opacity="1">160</text><text text-anchor="end" transform="translate(-5,48)" font-family="Arial" font-size="10px" fill="#000" opacity="1">170</text><text text-anchor="end" transform="translate(-5,18)" font-family="Arial" font-size="10px" fill="#000" opacity="1">180</text></g><g class="mark-rule role-axis-domain" pointer-events="none"><line transform="translate(0,120)" x2="0" y2="-120" stroke="black" stroke-width="1" opacity="1"/></g><g class="mark-text role-axis-title" pointer-events="none"><text text-anchor="middle" transform="translate(-27,60) rotate(-90) translate(0,-2)" font-family="Arial" font-size="11px" font-weight="normal" fill="#000" opacity="1">Δp (mV)</text></g></g><path class="foreground" aria-hidden="true" d="" pointer-events="none" display="none"/></g></g><g class="mark-group role-scope layer_0_pathgroup" role="graphics-object" aria-roledescription="group mark container"><g transform="translate(0,0)"><path class="background" aria-hidden="true" d="M0,0h120v120h-120Z"/><g><g class="mark-line role-mark layer_0_marks" role="graphics-object" aria-roledescription="line mark container"><path aria-label="VO2_m: 0.23106662489; Δp: 178.873484792; group: Young" role="graphics-symbol" aria-roledescription="line mark" d="M12.603634084900651,18.37954562296122L13.854323564136616,17.987452942563493L15.094417771975314,17.77466243594325L16.326567915505986,17.70844453318879L17.552798630699968,17.754471487169575L18.77457219924672,17.8836418801524L19.99292998499774,18.073383432707224L21.20860919153052,18.3067357593196L22.42213417255674,18.57110740614835L23.63388245721302,18.8572531022404L24.844125443260854,19.15828998133506L26.05305610542149,19.46918749360634L27.260814967945816,19.78625571272215L28.46749990360469,20.10681208325977L29.67317701620227,20.428942536198143L30.877889868017704,20.751364929455747L32.08166012671424,21.07322546429469L33.284495479750596,21.394074597838507L34.4863894653962,21.713757528896025L35.687325909928134,22.03240167028205L36.88727687568896,22.350327668092515L38.08620603744713,22.66806418692184L39.28406960654887,22.98633391349259L40.4808133605421,23.30599511353384L41.67637721254238,23.62810152116495L42.87069169089671,23.953846948368856L44.06367771952939,24.284597027150706L45.25524967844822,24.621884816972475L46.445310984124255,24.967424425745925L47.63375375139095,25.323105519725747L48.82046001527084,25.6910409175477L50.00529955383679,26.07355259303898L51.18812689671585,26.47319993171771L52.36878318994722,26.892815025599994L53.54708980349776,27.335510415535285L54.72285126226119,27.80472579528325L55.895849098685694,28.304250363031652L57.06583953760296,28.83826654342883L58.23255255384821,29.411394329305345L59.39568392165145,30.02874070436917L60.55489223307869,30.6959610431376L61.70979485713035,31.419322914434893L62.85995645628938,32.20579751347393L64.0048873455304,33.06313058909137L65.14402499063854,33.99999181983808L66.27672891739809,35.02607621045041L67.40225556416323,36.152296184362L68.51975156314676,37.39097889891045L69.6282195553469,38.756108050260536L70.72647553405768,40.26368653609446L71.81312726863756,41.93213505933545L72.88648965859927,43.78286749006286L73.94449510296327,45.84097420654686L74.98459788736209,48.13617588831153L76.00352330958015,50.70384170340554L76.99704154134993,53.58568764029653L77.95951440637354,56.829274027290495L78.88322445841169,60.4837547914164L79.75728526742793,64.58659617315607L80.56565541339104,69.13575874577828L81.28350606913733,74.04684869144634L81.87307561833217,79.10374751937456L82.2941176693265,83.90817880554664L82.55494267535664,87.95082196607467L82.72866400024111,91.02017503460962L82.86174693974837,93.33090465187942L82.96397314498036,95.13555446915694L83.04267691921399,96.58819402116649L83.10483129329474,97.7848295580323L83.15530113045106,98.78999109374445L83.1972773634458,99.64849783485198L83.23289015484438,100.3922280147994L83.26360753617293,101.0443794408182L83.29047063463138,101.62220450696086L83.31423985158003,102.13879141790446L83.33548195698266,102.60425124645892L83.35462912415909,103.0265224588918L83.37201790764624,103.41192900361045L83.38791004424229,103.76557666727228L83.40251963847108,104.09163408712453L83.41601795592243,104.39354337056409L83.42854360948292,104.67417409543717L83.44021531515608,104.93593834014297L83.45113000774631,105.18088149335L83.46137005957189,105.41075008725082L83.47100524057677,105.62704578736273L83.48009570622855,105.83106766757365L83.48869380333832,106.02394603113638L83.49684327681186,106.20666992177314L83.50458437401902,106.38010852000747L83.51195155124718,106.54502961287335L83.51897492817238,106.70211429185744L83.52568159543794,106.85196905718809L83.53209555703815,106.99513611108483L83.53823824994387,107.13210187697615L83.54412914518375,107.26330416839488L83.54978459288313,107.38913842261806L83.5552213769652,107.50996255552894L83.56045328333873,107.62610175314973L83.56549321123214,107.73785208112622" stroke="#009DA3" stroke-width="2"/></g></g><path class="foreground" aria-hidden="true" d="" display="none"/></g><g transform="translate(0,0)"><path class="background" aria-hidden="true" d="M0,0h120v120h-120Z"/><g><g class="mark-line role-mark layer_0_marks" role="graphics-object" aria-roledescription="line mark container"><path aria-label="VO2_m: 0.232158006883; Δp: 179.855507369; group: Old" role="graphics-symbol" aria-roledescription="line mark" d="M12.663164011815491,15.433477892550371L13.917578839445301,14.84968695177795L15.162692582010438,14.491489097599697L16.400490198939433,14.325368270590278L17.63272750585508,14.309965462726035L18.86076482035703,14.408667631917496L20.08560390562708,14.592478830447991L21.307973315696074,14.839394606961998L22.52840139486239,15.132905586654491L23.747276268836377,15.460681214413228L24.96488374529879,15.81344143796735L26.181437134162714,16.18418003968483L27.397096787653336,16.567577050721415L28.611983845041742,16.959568743739908L29.82619006689047,17.35703937821406L31.039785031202914,17.757594695326194L32.25282152015135,18.15940122134759L33.46533885802639,18.561053345254095L34.67736597245032,18.961480167867755L35.88892384530983,19.359881245857732L37.10002612751828,19.755664592482624L38.31068153618198,20.148406352321157L39.52089422019008,20.537824338384922L40.73066440305609,20.92374556833598L41.93998934384983,21.306093538996215L43.14886342215539,21.684865724285977L44.35727817302194,22.060121072345503L45.56522370177738,22.431981871839607L46.772688250845114,22.800614993039183L47.97965644523578,23.166222242518224L49.18611327876174,23.529056639080892L50.392042061016966,23.88939934597008L51.597422130210624,24.247549221909313L52.80223516009787,24.60385950183689L54.00645757721905,24.95869823753324L55.21006591625224,25.312460486573404L56.41303491850199,25.665571220409365L57.61533759110354,26.018488712153733L58.81694519373629,26.37169108794233L60.01782696697277,26.725689488037432L61.2179503874536,27.08102669673732L62.417280807366915,27.43827663208713L63.61578126438677,27.798046171417717L64.81341261925778,28.16097976616828L66.01013306847537,28.52775866158876L67.2058982005158,28.89910595999925L68.40066022188296,29.275785847124954L69.59436893630385,29.658614019411182L70.78697015111194,30.048452241963524L71.97840567279074,30.446217817281788L73.16861371713489,30.852887586196513L74.35752793266768,31.269501350001782L75.54507684652987,31.697166859072674L76.73118400963928,32.1370667820434L77.91576612966122,32.59046347888611L79.09873436851387,33.05870802036417L80.2799932653168,33.54324543878996L81.45943739921336,34.04562628133113L82.63695406736922,34.56751308123788L83.81242055125038,35.11069450149102L84.98570202456503,35.677093425246305L86.15665325534606,36.26878501561026L87.32511363143362,36.888009703418334L88.49090689002615,37.537193407395904L89.6538401100724,38.21896051196663L90.81369772935555,38.93617232446442L91.97024676376671,39.69193805326992L93.12321905143502,40.4896547242636L94.27232087159386,41.33305075974442L95.41722193161314,42.22621378149785L96.55754933078734,43.17364535843794L97.69288069786626,44.180345009007375L98.82273996302095,45.25186783702611L99.94655269070508,46.394328956851496L101.06369589973471,47.61469695151263L102.17341521294375,48.92073047547882L103.27482932894952,50.32117542002024L104.36688286296193,51.82592905258289L105.44830144248004,53.44621342393217L106.51750591480952,55.19471609117807L107.57257942985859,57.085736436437344L108.61098258703299,59.135113104900576L109.6294659106104,61.359936581490125L110.62367592627695,63.77745208231794L111.58764463238164,66.40273410078242L112.5130968524648,69.24370142744226L113.38852733625568,72.29205584274271L114.19845571137981,75.50938449995351L114.9240443930797,78.81084899923792L115.54711608358201,82.05944625300799L116.05833263992197,85.09202191351392L116.46320261453363,87.78008493111534L116.77858746045116,90.07699543036611L117.02396375438072,92.00628726614201L117.21657682402821,93.62190847050192L117.37013084287425,94.9813819806061L117.49476325594512,96.13527361964032L117.59775990186922,97.12463742746988L117.68430220187678,97.98168445241123L117.75811042444721,98.73140726797348" stroke="#F98F00" stroke-width="2"/></g></g><path class="foreground" aria-hidden="true" d="" display="none"/></g></g><g class="mark-group role-legend" role="graphics-symbol" aria-roledescription="legend" aria-label="Symbol legend for stroke color with 2 values: Young, Old"><g transform="translate(69,5)"><path class="background" aria-hidden="true" d="M0,0h46v24h-46Z" pointer-events="none"/><g><g class="mark-group role-legend-entry"><g transform="translate(0,0)"><path class="background" aria-hidden="true" d="M0,0h0v0h0Z" pointer-events="none"/><g><g class="mark-group role-scope" role="graphics-object" aria-roledescription="group mark container"><g transform="translate(0,0)"><path class="background" aria-hidden="true" d="M0,0h46v11h-46Z" pointer-events="none" opacity="1"/><g><g class="mark-symbol role-legend-symbol" pointer-events="none"><path transform="translate(6,6)" d="M-5,0L5,0" stroke="#009DA3" stroke-width="1.5" opacity="1"/></g><g class="mark-text role-legend-label" pointer-events="none"><text text-anchor="start" transform="translate(16,9)" font-family="Arial" font-size="10px" fill="#000" opacity="1">Young</text></g></g><path class="foreground" aria-hidden="true" d="" pointer-events="none" display="none"/></g><g transform="translate(0,13)"><path class="background" aria-hidden="true" d="M0,0h46v11h-46Z" pointer-events="none" opacity="1"/><g><g class="mark-symbol role-legend-symbol" pointer-events="none"><path transform="translate(6,6)" d="M-5,0L5,0" stroke="#F98F00" stroke-width="1.5" opacity="1"/></g><g class="mark-text role-legend-label" pointer-events="none"><text text-anchor="start" transform="translate(16,9)" font-family="Arial" font-size="10px" fill="#000" opacity="1">Old</text></g></g><path class="foreground" aria-hidden="true" d="" pointer-events="none" display="none"/></g></g></g><path class="foreground" aria-hidden="true" d="" pointer-events="none" display="none"/></g></g></g><path class="foreground" aria-hidden="true" d="" pointer-events="none" display="none"/></g></g></g><path class="foreground" aria-hidden="true" d="" display="none"/></g></g></g></svg>
