<?xml version="1.0" encoding="utf-8"?>
<!DOCTYPE svg PUBLIC "-//W3C//DTD SVG 1.1//EN" "http://www.w3.org/Graphics/SVG/1.1/DTD/svg11.dtd">
<svg xmlns="http://www.w3.org/2000/svg" xmlns:xlink="http://www.w3.org/1999/xlink" version="1.1" class="marks" width="168" height="160" viewBox="0 0 168 160"><rect width="168" height="160" fill="white"/><g fill="none" stroke-miterlimit="10" transform="translate(43,5)"><g class="mark-group role-frame root" role="graphics-object" aria-roledescription="group mark container"><g transform="translate(0,0)"><path class="background" aria-hidden="true" d="M0.5,0.5h120v120h-120Z"/><g><g class="mark-group role-axis" role="graphics-symbol" aria-roledescription="axis" aria-label="X-axis titled 'VO2 (mmol/L mito/s)' for a linear scale with values from 0.0 to 2.2"><g transform="translate(0.5,120.5)"><path class="background" aria-hidden="true" d="M0,0h0v0h0Z" pointer-events="none"/><g><g class="mark-rule role-axis-tick" pointer-events="none"><line transform="translate(0,0)" x2="0" y2="3" stroke="black" stroke-width="1" opacity="1"/><line transform="translate(55,0)" x2="0" y2="3" stroke="black" stroke-width="1" opacity="1"/><line transform="translate(109,0)" x2="0" y2="3" stroke="black" stroke-width="1" opacity="1"/></g><g class="mark-text role-axis-label" pointer-events="none"><text text-anchor="start" transform="translate(0,13)" font-family="Arial" font-size="10px" fill="#000" opacity="1">0</text><text text-anchor="middle" transform="translate(54.54545454545455,13)" font-family="Arial" font-size="10px" fill="#000" opacity="1">1</text><text text-anchor="middle" transform="translate(109.0909090909091,13)" font-family="Arial" font-size="10px" fill="#000" opacity="1">2</text></g><g class="mark-rule role-axis-domain" pointer-events="none"><line transform="translate(0,0)" x2="120" y2="0" stroke="black" stroke-width="1" opacity="1"/></g><g class="mark-text role-axis-title" pointer-events="none"><text text-anchor="middle" transform="translate(60,28)" font-family="Arial" font-size="11px" font-weight="normal" fill="#000" opacity="1">VO2 (mmol/L mito/s)</text></g></g><path class="foreground" aria-hidden="true" d="" pointer-events="none" display="none"/></g></g><g class="mark-group role-axis" role="graphics-symbol" aria-roledescription="axis" aria-label="Y-axis titled 'Δp (mV)' for a linear scale with values from 145 to 185"><g transform="translate(0.5,0.5)"><path class="background" aria-hidden="true" d="M0,0h0v0h0Z" pointer-events="none"/><g><g class="mark-rule role-axis-tick" pointer-events="none"><line transform="translate(0,105)" x2="-3" y2="0" stroke="black" stroke-width="1" opacity="1"/><line transform="translate(0,75)" x2="-3" y2="0" stroke="black" stroke-width="1" opacity="1"/><line transform="translate(0,45)" x2="-3" y2="0" stroke="black" stroke-width="1" opacity="1"/><line transform="translate(0,15)" x2="-3" y2="0" stroke="black" stroke-width="1" opacity="1"/></g><g class="mark-text role-axis-label" pointer-events="none"><text text-anchor="end" transform="translate(-5,108)" font-family="Arial" font-size="10px" fill="#000" opacity="1">150</text><text text-anchor="end" transform="translate(-5,78)" font-family="Arial" font-size="10px" fill="#000" opacity="1">160</text><text text-anchor="end" transform="translate(-5,48)" font-family="Arial" font-size="10px" fill="#000" opacity="1">170</text><text text-anchor="end" transform="translate(-5,18)" font-family="Arial" font-size="10px" fill="#000" opacity="1">180</text></g><g class="mark-rule role-axis-domain" pointer-events="none"><line transform="translate(0,120)" x2="0" y2="-120" stroke="black" stroke-width="1" opacity="1"/></g><g class="mark-text role-axis-title" pointer-events="none"><text text-anchor="middle" transform="translate(-27,60) rotate(-90) translate(0,-2)" font-family="Arial" font-size="11px" font-weight="normal" fill="#000" opacity="1">Δp (mV)</text></g></g><path class="foreground" aria-hidden="true" d="" pointer-events="none" display="none"/></g></g><g class="mark-group role-scope layer_0_pathgroup" role="graphics-object" aria-roledescription="group mark container"><g transform="translate(0,0)"><path class="background" aria-hidden="true" d="M0,0h120v120h-120Z"/><g><g class="mark-line role-mark layer_0_marks" role="graphics-object" aria-roledescription="line mark container"><path aria-label="VO2_m: 0.23106662489; Δp: 178.873484792; group: Young" role="graphics-symbol" aria-roledescription="line mark" d="M12.603634084900651,18.37954562296122L13.854323564136616,17.987452942563493L15.094417771975314,17.77466243594325L16.326567915505986,17.70844453318879L17.552798630699968,17.754471487169575L18.77457219924672,17.8836418801524L19.99292998499774,18.073383432707224L21.20860919153052,18.3067357593196L22.42213417255674,18.57110740614835L23.63388245721302,18.8572531022404L24.844125443260854,19.15828998133506L26.05305610542149,19.46918749360634L27.260814967945816,19.78625571272215L28.46749990360469,20.10681208325977L29.67317701620227,20.428942536198143L30.877889868017704,20.751364929455747L32.08166012671424,21.07322546429469L33.284495479750596,21.394074597838507L34.4863894653962,21.713757528896025L35.687325909928134,22.03240167028205L36.88727687568896,22.350327668092515L38.08620603744713,22.66806418692184L39.28406960654887,22.98633391349259L40.4808133605421,23.30599511353384L41.67637721254238,23.62810152116495L42.87069169089671,23.953846948368856L44.06367771952939,24.284597027150706L45.25524967844822,24.621884816972475L46.445310984124255,24.967424425745925L47.63375375139095,25.323105519725747L48.82046001527084,25.6910409175477L50.00529955383679,26.07355259303898L51.18812689671585,26.47319993171771L52.36878318994722,26.892815025599994L53.54708980349776,27.335510415535285L54.72285126226119,27.80472579528325L55.895849098685694,28.304250363031652L57.06583953760296,28.83826654342883L58.23255255384821,29.411394329305345L59.39568392165145,30.02874070436917L60.55489223307869,30.6959610431376L61.70979485713035,31.419322914434893L62.85995645628938,32.20579751347393L64.0048873455304,33.06313058909137L65.14402499063854,33.99999181983808L66.27672891739809,35.02607621045041L67.40225556416323,36.152296184362L68.51975156314676,37.39097889891045L69.6282195553469,38.756108050260536L70.72647553405768,40.26368653609446L71.81312726863756,41.93213505933545L72.88648965859927,43.78286749006286L73.94449510296327,45.84097420654686L74.98459788736209,48.13617588831153L76.00352330958015,50.70384170340554L76.99704154134993,53.58568764029653L77.95951440637354,56.829274027290495L78.88322445841169,60.4837547914164L79.75728526742793,64.58659617315607L80.56565541339104,69.13575874577828L81.28350606913733,74.04684869144634L81.87307561833217,79.10374751937456L82.2941176693265,83.90817880554664L82.55494267535664,87.95082196607467L82.72866400024111,91.02017503460962L82.86174693974837,93.33090465187942L82.96397314498036,95.13555446915694L83.04267691921399,96.58819402116649L83.10483129329474,97.7848295580323L83.15530113045106,98.78999109374445L83.1972773634458,99.64849783485198L83.23289015484438,100.3922280147994L83.26360753617293,101.0443794408182L83.29047063463138,101.62220450696086L83.31423985158003,102.13879141790446L83.33548195698266,102.60425124645892L83.35462912415909,103.0265224588918L83.37201790764624,103.41192900361045L83.38791004424229,103.76557666727228L83.40251963847108,104.09163408712453L83.41601795592243,104.39354337056409L83.42854360948292,104.67417409543717L83.44021531515608,104.93593834014297L83.45113000774631,105.18088149335L83.46137005957189,105.41075008725082L83.47100524057677,105.62704578736273L83.48009570622855,105.83106766757365L83.48869380333832,106.02394603113638L83.49684327681186,106.20666992177314L83.50458437401902,106.38010852000747L83.51195155124718,106.54502961287335L83.51897492817238,106.70211429185744L83.52568159543794,106.85196905718809L83.53209555703815,106.99513611108483L83.53823824994387,107.13210187697615L83.54412914518375,107.26330416839488L83.54978459288313,107.38913842261806L83.5552213769652,107.50996255552894L83.56045328333873,107.62610175314973L83.56549321123214,107.73785208112622" stroke="#009DA3" stroke-width="2"/></g></g><path class="foreground" aria-hidden="true" d="" display="none"/></g><g transform="translate(0,0)"><path class="background" aria-hidden="true" d="M0,0h120v120h-120Z"/><g><g class="mark-line role-mark layer_0_marks" role="graphics-object" aria-roledescription="line mark container"><path aria-label="VO2_m: 0.236186123948; Δp: 182.416647573; group: Old" role="graphics-symbol" aria-roledescription="line mark" d="M12.88287948807921,7.750057281504326L14.115009914051885,7.78007249466512L15.338338875431628,8.102986875056928L16.557054451680784,8.570612487382334L17.77302514386293,9.116174155590958L18.9872373633695,9.70425627114273L20.200264055061844,10.31435602754251L21.41245586042241,10.933909871489993L22.62403877743396,11.555013187750864L23.835157973896315,12.172524390030963L25.045910711998005,12.783129758231663L26.2563609482897,13.384686632694414L27.46654975899478,13.975836445308829L28.676503210152852,14.555775260394736L29.886235282268025,15.124056555197459L31.09575341037967,15.680531689907188L32.30505711120853,16.225201183070116L33.51414395859502,16.758246782213778L34.72300542413408,17.279896633978527L35.931631936222196,17.790479084547286L37.14001228852714,18.290377860947476L38.348132058251394,18.779983735405178L39.5559767303975,19.259740766208072L40.76352989388889,19.730095827726046L41.970774041077156,20.191511055506986L43.17769109506331,20.644457612253575L44.3842634000511,21.0894504995893L45.59046879441545,21.526938136175996L46.79628783676748,21.95743553319062L48.001698691244016,22.381442792917234L49.2066788804178,22.799466385466726L50.411205375646205,23.21201701902843L51.61525230643377,23.61961923402169L52.81879537112318,24.022803699931107L54.02180937000777,24.422103053245287L55.2242650996685,24.818078423253557L56.426133954203436,25.211285701688773L57.627385362539876,25.602306177775205L58.82798804224795,25.991734614251133L60.0279086083544,26.380187171813596L61.22711248938581,26.76830149188657L62.42556187668027,27.156731027638617L63.62321848445098,27.546166009674664L64.82004082902529,27.93732025596193L66.01598626180412,28.330940463809892L67.21100796819957,28.727808722102644L68.40505724890241,29.128745358583217L69.59808222337563,29.53461352989202L70.79002728558277,29.94632094057757L71.98083326189865,30.36482752623251L73.17043776680953,30.791150059505476L74.35877288306928,31.226362630985626L75.54576635683277,31.67160636269991L76.73134084568554,32.12809508951369L77.91541229434223,32.5971199016596L79.09789110703329,33.080058865962485L80.27867994577694,33.578383149818904L81.45767352417903,34.09366820602057L82.63475958708274,34.62759876028261L83.80981149504206,35.18198773527939L84.98269350433779,35.75878046958018L86.15326438150242,36.36008147723948L87.3213579455906,36.98814889748072L88.48679864428685,37.64543035906328L89.64939027847856,38.334586066202185L90.8089188450413,39.05849563113844L91.9651451612344,39.82030153194128L93.1178035525458,40.623433239881166L94.2665966465242,41.47164989074134L95.4111915149719,42.369076402454596L96.5512156905306,43.3202681215833L97.68623000921777,44.33025042137717L98.81575761787988,45.40463668616911L99.93923853588846,46.54963920548198L101.0560142374305,47.772244297414915L102.1653334416172,49.08027890102537L103.26629656349024,50.48259394280166L104.35783152258655,51.98914943722095L105.43863678486717,53.61126490787817L106.50711168938604,55.36170390106389L107.56124836516926,57.254799678016894L108.59847281581811,59.306419782840074L109.61541422401531,61.53351098059738L110.60755750240024,63.95295100371734L111.5686862153318,66.57896617598223L112.49017165601498,69.4177221431512L113.36004141904822,72.45773311704943L114.1623681344891,75.65528333982746L114.87827245113867,78.91878314319223L115.49057857781287,82.10692915004515L115.99181161202114,85.06146981153893L116.38882630155567,87.6682634736265L116.69844687210487,89.89310706373203L116.93977995943735,91.76343951221094L117.12979952951522,93.33218997699987L117.2818489839172,94.6547511035526L117.40573726771608,95.77954253475986L117.50848262951105,96.74579824552865L117.5950918544903,97.584313051518L117.66917286636907,98.3190113840289" stroke="#F98F00" stroke-width="2"/></g></g><path class="foreground" aria-hidden="true" d="" display="none"/></g></g><g class="mark-group role-legend" role="graphics-symbol" aria-roledescription="legend" aria-label="Symbol legend for stroke color with 2 values: Young, Old"><g transform="translate(69,5)"><path class="background" aria-hidden="true" d="M0,0h46v24h-46Z" pointer-events="none"/><g><g class="mark-group role-legend-entry"><g transform="translate(0,0)"><path class="background" aria-hidden="true" d="M0,0h0v0h0Z" pointer-events="none"/><g><g class="mark-group role-scope" role="graphics-object" aria-roledescription="group mark container"><g transform="translate(0,0)"><path class="background" aria-hidden="true" d="M0,0h46v11h-46Z" pointer-events="none" opacity="1"/><g><g class="mark-symbol role-legend-symbol" pointer-events="none"><path transform="translate(6,6)" d="M-5,0L5,0" stroke="#009DA3" stroke-width="1.5" opacity="1"/></g><g class="mark-text role-legend-label" pointer-events="none"><text text-anchor="start" transform="translate(16,9)" font-family="Arial" font-size="10px" fill="#000" opacity="1">Young</text></g></g><path class="foreground" aria-hidden="true" d="" pointer-events="none" display="none"/></g><g transform="translate(0,13)"><path class="background" aria-hidden="true" d="M0,0h46v11h-46Z" pointer-events="none" opacity="1"/><g><g class="mark-symbol role-legend-symbol" pointer-events="none"><path transform="translate(6,6)" d="M-5,0L5,0" stroke="#F98F00" stroke-width="1.5" opacity="1"/></g><g class="mark-text role-legend-label" pointer-events="none"><text text-anchor="start" transform="translate(16,9)" font-family="Arial" font-size="10px" fill="#000" opacity="1">Old</text></g></g><path class="foreground" aria-hidden="true" d="" pointer-events="none" display="none"/></g></g></g><path class="foreground" aria-hidden="true" d="" pointer-events="none" display="none"/></g></g></g><path class="foreground" aria-hidden="true" d="" pointer-events="none" display="none"/></g></g></g><path class="foreground" aria-hidden="true" d="" display="none"/></g></g></g></svg>
