<?xml version="1.0" encoding="utf-8"?>
<!DOCTYPE svg PUBLIC "-//W3C//DTD SVG 1.1//EN" "http://www.w3.org/Graphics/SVG/1.1/DTD/svg11.dtd">
<svg xmlns="http://www.w3.org/2000/svg" xmlns:xlink="http://www.w3.org/1999/xlink" version="1.1" class="marks" width="168" height="160" viewBox="0 0 168 160"><rect width="168" height="160" fill="white"/><g fill="none" stroke-miterlimit="10" transform="translate(43,5)"><g class="mark-group role-frame root" role="graphics-object" aria-roledescription="group mark container"><g transform="translate(0,0)"><path class="background" aria-hidden="true" d="M0.5,0.5h120v120h-120Z"/><g><g class="mark-group role-axis" role="graphics-symbol" aria-roledescription="axis" aria-label="X-axis titled 'VO2 (mmol/L mito/s)' for a linear scale with values from 0.0 to 2.2"><g transform="translate(0.5,120.5)"><path class="background" aria-hidden="true" d="M0,0h0v0h0Z" pointer-events="none"/><g><g class="mark-rule role-axis-tick" pointer-events="none"><line transform="translate(0,0)" x2="0" y2="3" stroke="black" stroke-width="1" opacity="1"/><line transform="translate(55,0)" x2="0" y2="3" stroke="black" stroke-width="1" opacity="1"/><line transform="translate(109,0)" x2="0" y2="3" stroke="black" stroke-width="1" opacity="1"/></g><g class="mark-text role-axis-label" pointer-events="none"><text text-anchor="start" transform="translate(0,13)" font-family="Arial" font-size="10px" fill="#000" opacity="1">0</text><text text-anchor="middle" transform="translate(54.54545454545455,13)" font-family="Arial" font-size="10px" fill="#000" opacity="1">1</text><text text-anchor="middle" transform="translate(109.0909090909091,13)" font-family="Arial" font-size="10px" fill="#000" opacity="1">2</text></g><g class="mark-rule role-axis-domain" pointer-events="none"><line transform="translate(0,0)" x2="120" y2="0" stroke="black" stroke-width="1" opacity="1"/></g><g class="mark-text role-axis-title" pointer-events="none"><text text-anchor="middle" transform="translate(60,28)" font-family="Arial" font-size="11px" font-weight="normal" fill="#000" opacity="1">VO2 (mmol/L mito/s)</text></g></g><path class="foreground" aria-hidden="true" d="" pointer-events="none" display="none"/></g></g><g class="mark-group role-axis" role="graphics-symbol" aria-roledescription="axis" aria-label="Y-axis titled 'ΔΨ (mV)' for a linear scale with values from 60 to 220"><g transform="translate(0.5,0.5)"><path class="background" aria-hidden="true" d="M0,0h0v0h0Z" pointer-events="none"/><g><g class="mark-rule role-axis-tick" pointer-events="none"><line transform="translate(0,90)" x2="-3" y2="0" stroke="black" stroke-width="1" opacity="1"/><line transform="translate(0,53)" x2="-3" y2="0" stroke="black" stroke-width="1" opacity="1"/><line transform="translate(0,15)" x2="-3" y2="0" stroke="black" stroke-width="1" opacity="1"/></g><g class="mark-text role-axis-label" pointer-events="none"><text text-anchor="end" transform="translate(-5,93)" font-family="Arial" font-size="10px" fill="#000" opacity="1">100</text><text text-anchor="end" transform="translate(-5,55.5)" font-family="Arial" font-size="10px" fill="#000" opacity="1">150</text><text text-anchor="end" transform="translate(-5,18)" font-family="Arial" font-size="10px" fill="#000" opacity="1">200</text></g><g class="mark-rule role-axis-domain" pointer-events="none"><line transform="translate(0,120)" x2="0" y2="-120" stroke="black" stroke-width="1" opacity="1"/></g><g class="mark-text role-axis-title" pointer-events="none"><text text-anchor="middle" transform="translate(-27,60) rotate(-90) translate(0,-2)" font-family="Arial" font-size="11px" font-weight="normal" fill="#000" opacity="1">ΔΨ (mV)</text></g></g><path class="foreground" aria-hidden="true" d="" pointer-events="none" display="none"/></g></g><g class="mark-group role-scope layer_0_pathgroup" role="graphics-object" aria-roledescription="group mark container"><g transform="translate(0,0)"><path class="background" aria-hidden="true" d="M0,0h120v120h-120Z"/><g><g class="mark-line role-mark layer_0_marks" role="graphics-object" aria-roledescription="line mark container"><path aria-label="VO2_m: 0.23106662489; dPsi: 199.930214879; group: Young" role="graphics-symbol" aria-roledescription="line mark" d="M12.603634084900651,15.052338840566106L13.854323564136616,14.923823918139503L15.094417771975314,14.939264894213125L16.326567915505986,15.061987844534412L17.552798630699968,15.264023939817367L18.77457219924672,15.525179266050447L19.99292998499774,15.831070413825232L21.20860919153052,16.171507824380956L22.42213417255674,16.539244698441173L23.63388245721302,16.92904293868051L24.844125443260854,17.337179730005907L26.05305610542149,17.760936706638752L27.260814967945816,18.198368508376248L28.46749990360469,18.64810367649913L29.67317701620227,19.10920749043981L30.877889868017704,19.581053659888276L32.08166012671424,20.06331484992618L33.284495479750596,20.555856970145214L34.4863894653962,21.05873621604722L35.687325909928134,21.572140347441117L36.88727687568896,22.096417120415346L38.08620603744713,22.63202641677499L39.28406960654887,23.179526162762826L40.4808133605421,23.739617607336115L41.67637721254238,24.31307468482657L42.87069169089671,24.900804137314164L44.06367771952939,25.503813330395523L45.25524967844822,26.123233408305502L46.445310984124255,26.760313110995277L47.63375375139095,27.4164606583993L48.82046001527084,28.093197074333524L50.00529955383679,28.792225605705223L51.18812689671585,29.515435331550826L52.36878318994722,30.264891175024573L53.54708980349776,31.042906468800318L54.72285126226119,31.852017235950317L55.895849098685694,32.69505494729302L57.06583953760296,33.57516369452612L58.23255255384821,34.49583505560924L59.39568392165145,35.460990818162024L60.55489223307869,36.4750164442967L61.70979485713035,37.54281670163159L62.85995645628938,38.669959729644276L64.0048873455304,39.86267253233723L65.14402499063854,41.12809675975822L66.27672891739809,42.47431191496343L67.40225556416323,43.910589065057934L68.51975156314676,45.447574591367214L69.6282195553469,47.09753776869338L70.72647553405768,48.87476186114175L71.81312726863756,50.79591524667186L72.88648965859927,52.88062070523594L73.94449510296327,55.1520749103091L74.98459788736209,57.63787360885826L76.00352330958015,60.37083357245354L76.99704154134993,63.38921225898658L77.95951440637354,66.73551325087242L78.88322445841169,70.45116951989326L79.75728526742793,74.56200823925853L80.56565541339104,79.05017397518249L81.28350606913733,83.81476392259451L81.87307561833217,88.63354442768885L82.2941176693265,93.1301594078227L82.55494267535664,96.84927924690678L82.72866400024111,99.62573985564669L82.86174693974837,101.68551535491194L82.96397314498036,103.27712220754157L83.04267691921399,104.54823770623564L83.10483129329474,105.58880432297548L83.15530113045106,106.45835164823288L83.1972773634458,107.19778516299303L83.23289015484438,107.83595868992914L83.26360753617293,108.3937261330567L83.29047063463138,108.8865075966823L83.31423985158003,109.32594281049931L83.33548195698266,109.72098495207236L83.35462912415909,110.07863627352302L83.37201790764624,110.40445545792907L83.38791004424229,110.70291742938524L83.40251963847108,110.97766436563259L83.41601795592243,111.23169651934542L83.42854360948292,111.46750967169969L83.44021531515608,111.68719622497977L83.45113000774631,111.89252751811212L83.46137005957189,112.08501312436512L83.47100524057677,112.2659487959699L83.48009570622855,112.4364535673423L83.48869380333832,112.59749950357764L83.49684327681186,112.74993638317933L83.50458437401902,112.89450949154522L83.51195155124718,113.0318765560415L83.51897492817238,113.16262038878473L83.52568159543794,113.28725929136054L83.53209555703815,113.40625613873202L83.53823824994387,113.52002576186504L83.54412914518375,113.62894110938645L83.54978459288313,113.73333900069315L83.5552213769652,113.83352353116554L83.56045328333873,113.92977109509586L83.56549321123214,114.02233303692623" stroke="#009DA3" stroke-width="2"/></g></g><path class="foreground" aria-hidden="true" d="" display="none"/></g><g transform="translate(0,0)"><path class="background" aria-hidden="true" d="M0,0h120v120h-120Z"/><g><g class="mark-line role-mark layer_0_marks" role="graphics-object" aria-roledescription="line mark container"><path aria-label="VO2_m: 0.232158006883; dPsi: 201.024199343; group: Old" role="graphics-symbol" aria-roledescription="line mark" d="M12.663164011815491,14.231850492485849L13.917578839445301,14.051577875040557L15.162692582010438,13.99732508532178L16.400490198939433,14.041668696753016L17.63272750585508,14.16036769386L18.86076482035703,14.334632370178749L20.08560390562708,14.550626894902239L21.307973315696074,14.798288702429826L22.52840139486239,15.070317620144857L23.747276268836377,15.361348073405638L24.96488374529879,15.667426442181887L26.181437134162714,15.985598900569794L27.397096787653336,16.313640269450186L28.611983845041742,16.6498658610957L29.82619006689047,16.992994619510668L31.039785031202914,17.342051324169244L32.25282152015135,17.69629024560568L33.46533885802639,18.055148909917172L34.67736597245032,18.418208961137456L35.88892384530983,18.785161319201652L37.10002612751828,19.155790259203226L38.31068153618198,19.529954849033267L39.52089422019008,19.907571691412784L40.73066440305609,20.288610371573583L41.93998934384983,20.673079737193405L43.14886342215539,21.061027894423855L44.35727817302194,21.452537893594222L45.56522370177738,21.84771394593469L46.772688250845114,22.246688478372356L47.97965644523578,22.649622933892324L49.18611327876174,23.056689148090584L50.392042061016966,23.46808281600207L51.597422130210624,23.88403563600128L52.80223516009787,24.30477254039055L54.00645757721905,24.7305502430413L55.21006591625224,25.16164785458834L56.41303491850199,25.598361430499136L57.61533759110354,26.040998801319795L58.81694519373629,26.48990139925367L60.01782696697277,26.945427182331517L61.2179503874536,27.407955200060062L62.417280807366915,27.87789008394928L63.61578126438677,28.35566386755762L64.81341261925778,28.8417325900065L66.01013306847537,29.33658433589059L67.2058982005158,29.840735965022567L68.40066022188296,30.35474525445824L69.59436893630385,30.879192995675457L70.78697015111194,31.414712571292867L71.97840567279074,31.961976584057933L73.16861371713489,32.521700848833774L74.35752793266768,33.094651849638616L75.54507684652987,33.68165514037425L76.73118400963928,34.28359018149007L77.91576612966122,34.9014105608839L79.09873436851387,35.53613818232745L80.2799932653168,36.188858540495985L81.45943739921336,36.86077511418866L82.63695406736922,37.553164425869944L83.81242055125038,38.2674141599028L84.98570202456503,39.00503605440064L86.15665325534606,39.76766022693174L87.32511363143362,40.5570734962171L88.49090689002615,41.37522717455852L89.6538401100724,42.22423834250239L90.81369772935555,43.10645551195758L91.97024676376671,44.02443443762859L93.12321905143502,44.98100603565429L94.27232087159386,45.979304254384665L95.41722193161314,47.022786805726284L96.55754933078734,48.11528996389271L97.69288069786626,49.26112423345184L98.82273996302095,50.46508213109422L99.94655269070508,51.73253167438692L101.06369589973471,53.069529590203686L102.17341521294375,54.482908833564096L103.27482932894952,55.98035359817356L104.36688286296193,57.57056344100832L105.44830144248004,59.26337497568511L106.51750591480952,61.069845468434075L107.57257942985859,63.002270254934515L108.61098258703299,65.07408540538303L109.6294659106104,67.29935366070009L110.62367592627695,69.69155034925116L111.58764463238164,72.26112945722669L112.5130968524648,75.01058794447584L113.38852733625568,77.92596008916762L114.19845571137981,80.9644781331628L114.9240443930797,84.04125425856576L115.54711608358201,87.0272519749737L116.05833263992197,89.77636961963381L116.46320261453363,92.18109577104661L116.77858746045116,94.21132193910111L117.02396375438072,95.89893797728104L117.21657682402821,97.2997908279678L117.37013084287425,98.4698350995655L117.49476325594512,99.45672873910218L117.59775990186922,100.29838306398605L117.68430220187678,101.0241219479569L117.75811042444721,101.65644603641806" stroke="#F98F00" stroke-width="2"/></g></g><path class="foreground" aria-hidden="true" d="" display="none"/></g></g><g class="mark-group role-legend" role="graphics-symbol" aria-roledescription="legend" aria-label="Symbol legend for stroke color with 2 values: Young, Old"><g transform="translate(69,5)"><path class="background" aria-hidden="true" d="M0,0h46v24h-46Z" pointer-events="none"/><g><g class="mark-group role-legend-entry"><g transform="translate(0,0)"><path class="background" aria-hidden="true" d="M0,0h0v0h0Z" pointer-events="none"/><g><g class="mark-group role-scope" role="graphics-object" aria-roledescription="group mark container"><g transform="translate(0,0)"><path class="background" aria-hidden="true" d="M0,0h46v11h-46Z" pointer-events="none" opacity="1"/><g><g class="mark-symbol role-legend-symbol" pointer-events="none"><path transform="translate(6,6)" d="M-5,0L5,0" stroke="#009DA3" stroke-width="1.5" opacity="1"/></g><g class="mark-text role-legend-label" pointer-events="none"><text text-anchor="start" transform="translate(16,9)" font-family="Arial" font-size="10px" fill="#000" opacity="1">Young</text></g></g><path class="foreground" aria-hidden="true" d="" pointer-events="none" display="none"/></g><g transform="translate(0,13)"><path class="background" aria-hidden="true" d="M0,0h46v11h-46Z" pointer-events="none" opacity="1"/><g><g class="mark-symbol role-legend-symbol" pointer-events="none"><path transform="translate(6,6)" d="M-5,0L5,0" stroke="#F98F00" stroke-width="1.5" opacity="1"/></g><g class="mark-text role-legend-label" pointer-events="none"><text text-anchor="start" transform="translate(16,9)" font-family="Arial" font-size="10px" fill="#000" opacity="1">Old</text></g></g><path class="foreground" aria-hidden="true" d="" pointer-events="none" display="none"/></g></g></g><path class="foreground" aria-hidden="true" d="" pointer-events="none" display="none"/></g></g></g><path class="foreground" aria-hidden="true" d="" pointer-events="none" display="none"/></g></g></g><path class="foreground" aria-hidden="true" d="" display="none"/></g></g></g></svg>
