<?xml version="1.0" encoding="utf-8"?>
<!DOCTYPE svg PUBLIC "-//W3C//DTD SVG 1.1//EN" "http://www.w3.org/Graphics/SVG/1.1/DTD/svg11.dtd">
<svg xmlns="http://www.w3.org/2000/svg" xmlns:xlink="http://www.w3.org/1999/xlink" version="1.1" class="marks" width="168" height="160" viewBox="0 0 168 160"><rect width="168" height="160" fill="white"/><g fill="none" stroke-miterlimit="10" transform="translate(43,5)"><g class="mark-group role-frame root" role="graphics-object" aria-roledescription="group mark container"><g transform="translate(0,0)"><path class="background" aria-hidden="true" d="M0.5,0.5h120v120h-120Z"/><g><g class="mark-group role-axis" role="graphics-symbol" aria-roledescription="axis" aria-label="X-axis titled 'VO2 (mmol/L mito/s)' for a linear scale with values from 0.0 to 2.2"><g transform="translate(0.5,120.5)"><path class="background" aria-hidden="true" d="M0,0h0v0h0Z" pointer-events="none"/><g><g class="mark-rule role-axis-tick" pointer-events="none"><line transform="translate(0,0)" x2="0" y2="3" stroke="black" stroke-width="1" opacity="1"/><line transform="translate(55,0)" x2="0" y2="3" stroke="black" stroke-width="1" opacity="1"/><line transform="translate(109,0)" x2="0" y2="3" stroke="black" stroke-width="1" opacity="1"/></g><g class="mark-text role-axis-label" pointer-events="none"><text text-anchor="start" transform="translate(0,13)" font-family="Arial" font-size="10px" fill="#000" opacity="1">0</text><text text-anchor="middle" transform="translate(54.54545454545455,13)" font-family="Arial" font-size="10px" fill="#000" opacity="1">1</text><text text-anchor="middle" transform="translate(109.0909090909091,13)" font-family="Arial" font-size="10px" fill="#000" opacity="1">2</text></g><g class="mark-rule role-axis-domain" pointer-events="none"><line transform="translate(0,0)" x2="120" y2="0" stroke="black" stroke-width="1" opacity="1"/></g><g class="mark-text role-axis-title" pointer-events="none"><text text-anchor="middle" transform="translate(60,28)" font-family="Arial" font-size="11px" font-weight="normal" fill="#000" opacity="1">VO2 (mmol/L mito/s)</text></g></g><path class="foreground" aria-hidden="true" d="" pointer-events="none" display="none"/></g></g><g class="mark-group role-axis" role="graphics-symbol" aria-roledescription="axis" aria-label="Y-axis titled 'ΔΨ (mV)' for a linear scale with values from 60 to 220"><g transform="translate(0.5,0.5)"><path class="background" aria-hidden="true" d="M0,0h0v0h0Z" pointer-events="none"/><g><g class="mark-rule role-axis-tick" pointer-events="none"><line transform="translate(0,90)" x2="-3" y2="0" stroke="black" stroke-width="1" opacity="1"/><line transform="translate(0,53)" x2="-3" y2="0" stroke="black" stroke-width="1" opacity="1"/><line transform="translate(0,15)" x2="-3" y2="0" stroke="black" stroke-width="1" opacity="1"/></g><g class="mark-text role-axis-label" pointer-events="none"><text text-anchor="end" transform="translate(-5,93)" font-family="Arial" font-size="10px" fill="#000" opacity="1">100</text><text text-anchor="end" transform="translate(-5,55.5)" font-family="Arial" font-size="10px" fill="#000" opacity="1">150</text><text text-anchor="end" transform="translate(-5,18)" font-family="Arial" font-size="10px" fill="#000" opacity="1">200</text></g><g class="mark-rule role-axis-domain" pointer-events="none"><line transform="translate(0,120)" x2="0" y2="-120" stroke="black" stroke-width="1" opacity="1"/></g><g class="mark-text role-axis-title" pointer-events="none"><text text-anchor="middle" transform="translate(-27,60) rotate(-90) translate(0,-2)" font-family="Arial" font-size="11px" font-weight="normal" fill="#000" opacity="1">ΔΨ (mV)</text></g></g><path class="foreground" aria-hidden="true" d="" pointer-events="none" display="none"/></g></g><g class="mark-group role-scope layer_0_pathgroup" role="graphics-object" aria-roledescription="group mark container"><g transform="translate(0,0)"><path class="background" aria-hidden="true" d="M0,0h120v120h-120Z"/><g><g class="mark-line role-mark layer_0_marks" role="graphics-object" aria-roledescription="line mark container"><path aria-label="VO2_m: 0.23106662489; dPsi: 199.930214879; group: Young" role="graphics-symbol" aria-roledescription="line mark" d="M12.603634084900651,15.052338840566106L13.854323564136616,14.923823918139503L15.094417771975314,14.939264894213125L16.326567915505986,15.061987844534412L17.552798630699968,15.264023939817367L18.77457219924672,15.525179266050447L19.99292998499774,15.831070413825232L21.20860919153052,16.171507824380956L22.42213417255674,16.539244698441173L23.63388245721302,16.92904293868051L24.844125443260854,17.337179730005907L26.05305610542149,17.760936706638752L27.260814967945816,18.198368508376248L28.46749990360469,18.64810367649913L29.67317701620227,19.10920749043981L30.877889868017704,19.581053659888276L32.08166012671424,20.06331484992618L33.284495479750596,20.555856970145214L34.4863894653962,21.05873621604722L35.687325909928134,21.572140347441117L36.88727687568896,22.096417120415346L38.08620603744713,22.63202641677499L39.28406960654887,23.179526162762826L40.4808133605421,23.739617607336115L41.67637721254238,24.31307468482657L42.87069169089671,24.900804137314164L44.06367771952939,25.503813330395523L45.25524967844822,26.123233408305502L46.445310984124255,26.760313110995277L47.63375375139095,27.4164606583993L48.82046001527084,28.093197074333524L50.00529955383679,28.792225605705223L51.18812689671585,29.515435331550826L52.36878318994722,30.264891175024573L53.54708980349776,31.042906468800318L54.72285126226119,31.852017235950317L55.895849098685694,32.69505494729302L57.06583953760296,33.57516369452612L58.23255255384821,34.49583505560924L59.39568392165145,35.460990818162024L60.55489223307869,36.4750164442967L61.70979485713035,37.54281670163159L62.85995645628938,38.669959729644276L64.0048873455304,39.86267253233723L65.14402499063854,41.12809675975822L66.27672891739809,42.47431191496343L67.40225556416323,43.910589065057934L68.51975156314676,45.447574591367214L69.6282195553469,47.09753776869338L70.72647553405768,48.87476186114175L71.81312726863756,50.79591524667186L72.88648965859927,52.88062070523594L73.94449510296327,55.1520749103091L74.98459788736209,57.63787360885826L76.00352330958015,60.37083357245354L76.99704154134993,63.38921225898658L77.95951440637354,66.73551325087242L78.88322445841169,70.45116951989326L79.75728526742793,74.56200823925853L80.56565541339104,79.05017397518249L81.28350606913733,83.81476392259451L81.87307561833217,88.63354442768885L82.2941176693265,93.1301594078227L82.55494267535664,96.84927924690678L82.72866400024111,99.62573985564669L82.86174693974837,101.68551535491194L82.96397314498036,103.27712220754157L83.04267691921399,104.54823770623564L83.10483129329474,105.58880432297548L83.15530113045106,106.45835164823288L83.1972773634458,107.19778516299303L83.23289015484438,107.83595868992914L83.26360753617293,108.3937261330567L83.29047063463138,108.8865075966823L83.31423985158003,109.32594281049931L83.33548195698266,109.72098495207236L83.35462912415909,110.07863627352302L83.37201790764624,110.40445545792907L83.38791004424229,110.70291742938524L83.40251963847108,110.97766436563259L83.41601795592243,111.23169651934542L83.42854360948292,111.46750967169969L83.44021531515608,111.68719622497977L83.45113000774631,111.89252751811212L83.46137005957189,112.08501312436512L83.47100524057677,112.2659487959699L83.48009570622855,112.4364535673423L83.48869380333832,112.59749950357764L83.49684327681186,112.74993638317933L83.50458437401902,112.89450949154522L83.51195155124718,113.0318765560415L83.51897492817238,113.16262038878473L83.52568159543794,113.28725929136054L83.53209555703815,113.40625613873202L83.53823824994387,113.52002576186504L83.54412914518375,113.62894110938645L83.54978459288313,113.73333900069315L83.5552213769652,113.83352353116554L83.56045328333873,113.92977109509586L83.56549321123214,114.02233303692623" stroke="#009DA3" stroke-width="2"/></g></g><path class="foreground" aria-hidden="true" d="" display="none"/></g><g transform="translate(0,0)"><path class="background" aria-hidden="true" d="M0,0h120v120h-120Z"/><g><g class="mark-line role-mark layer_0_marks" role="graphics-object" aria-roledescription="line mark container"><path aria-label="VO2_m: 0.236186123948; dPsi: 205.075658983; group: Old" role="graphics-symbol" aria-roledescription="line mark" d="M12.88287948807921,11.193255762567844L14.115009914051885,11.321796718097614L15.338338875431628,11.569221054562346L16.557054451680784,11.877751923228885L17.77302514386293,12.221633505456593L18.9872373633695,12.587274523136829L20.200264055061844,12.966784576289347L21.41245586042241,13.355334691592402L22.62403877743396,13.749811116485269L23.835157973896315,14.148211730886157L25.045910711998005,14.549192227694444L26.2563609482897,14.951864941496185L27.46654975899478,15.355655153650499L28.676503210152852,15.760192734913264L29.886235282268025,16.16527462871919L31.09575341037967,16.570782101699177L32.30505711120853,16.976707349477028L33.51414395859502,17.383065439019802L34.72300542413408,17.78995642985055L35.931631936222196,18.19749040366328L37.14001228852714,18.605799434685764L38.348132058251394,19.015061582726844L39.5559767303975,19.425448903154315L40.76352989388889,19.837161997896544L41.970774041077156,20.25041294139462L43.17769109506331,20.66542700483477L44.3842634000511,21.082403851128547L45.59046879441545,21.501625021963914L46.79628783676748,21.923322440365716L48.001698691244016,22.34775752659566L49.2066788804178,22.775201588573104L50.411205375646205,23.205939739830896L51.61525230643377,23.640258064386266L52.81879537112318,24.078461497635708L54.02180937000777,24.520872348309098L55.2242650996685,24.96780856964733L56.426133954203436,25.419624233052534L57.627385362539876,25.87667465465678L58.82798804224795,26.33933802464895L60.0279086083544,26.80800573922025L61.22711248938581,27.283088196911798L62.42556187668027,27.765031136731405L63.62321848445098,28.254284472966802L64.82004082902529,28.75133246499139L66.01598626180412,29.25668672792621L67.21100796819957,29.770885028121228L68.40505724890241,30.294500018652492L69.59808222337563,30.82813700459222L70.79002728558277,31.37244610991463L71.98083326189865,31.928114052256294L73.17043776680953,32.495864182644176L74.35877288306928,33.076482687821375L75.54576635683277,33.670809136818825L76.73134084568554,34.27972980538652L77.91541229434223,34.90420954327632L79.09789110703329,35.54528006188467L80.27867994577694,36.20404741051771L81.45767352417903,36.881717116021626L82.63475958708274,37.57955975307911L83.80981149504206,38.298996577792295L84.98269350433779,39.04153697211277L86.15326438150242,39.80882921554287L87.3213579455906,40.60266503290955L88.48679864428685,41.42499325676174L89.64939027847856,42.27797203448052L90.8089188450413,43.16393514090126L91.9651451612344,44.08546657905771L93.1178035525458,45.04540755713599L94.2665966465242,46.04690395560962L95.4111915149719,47.09343138328724L96.5512156905306,48.18886744119197L97.68623000921777,49.3375141240151L98.81575761787988,50.54422971499872L99.93923853588846,51.81439085621647L101.0560142374305,53.15410557195637L102.1653334416172,54.570215116897415L103.26629656349024,56.0704899394927L104.35783152258655,57.663651581106585L105.43863678486717,59.35960265241534L106.50711168938604,61.16942736653489L107.56124836516926,63.10544050157973L108.59847281581811,65.18104245014587L109.61541422401531,67.41011940177285L110.60755750240024,69.80574989192587L111.5686862153318,72.37754038945809L112.49017165601498,75.1263006730285L113.36004141904822,78.03509703344065L114.1623681344891,81.05635142129756L114.87827245113867,84.09928024208067L115.49057857781287,87.03151172497826L115.99181161202114,89.71210741079675L116.38882630155567,92.04686279912612L116.69844687210487,94.01655360764293L116.93977995943735,95.6559211743937L117.12979952951522,97.01936289813774L117.2818489839172,98.16064881212516L117.40573726771608,99.12540527674959L117.50848262951105,99.94990209177998L117.5950918544903,100.66221673318154L117.66917286636907,101.28392967425594" stroke="#F98F00" stroke-width="2"/></g></g><path class="foreground" aria-hidden="true" d="" display="none"/></g></g><g class="mark-group role-legend" role="graphics-symbol" aria-roledescription="legend" aria-label="Symbol legend for stroke color with 2 values: Young, Old"><g transform="translate(69,5)"><path class="background" aria-hidden="true" d="M0,0h46v24h-46Z" pointer-events="none"/><g><g class="mark-group role-legend-entry"><g transform="translate(0,0)"><path class="background" aria-hidden="true" d="M0,0h0v0h0Z" pointer-events="none"/><g><g class="mark-group role-scope" role="graphics-object" aria-roledescription="group mark container"><g transform="translate(0,0)"><path class="background" aria-hidden="true" d="M0,0h46v11h-46Z" pointer-events="none" opacity="1"/><g><g class="mark-symbol role-legend-symbol" pointer-events="none"><path transform="translate(6,6)" d="M-5,0L5,0" stroke="#009DA3" stroke-width="1.5" opacity="1"/></g><g class="mark-text role-legend-label" pointer-events="none"><text text-anchor="start" transform="translate(16,9)" font-family="Arial" font-size="10px" fill="#000" opacity="1">Young</text></g></g><path class="foreground" aria-hidden="true" d="" pointer-events="none" display="none"/></g><g transform="translate(0,13)"><path class="background" aria-hidden="true" d="M0,0h46v11h-46Z" pointer-events="none" opacity="1"/><g><g class="mark-symbol role-legend-symbol" pointer-events="none"><path transform="translate(6,6)" d="M-5,0L5,0" stroke="#F98F00" stroke-width="1.5" opacity="1"/></g><g class="mark-text role-legend-label" pointer-events="none"><text text-anchor="start" transform="translate(16,9)" font-family="Arial" font-size="10px" fill="#000" opacity="1">Old</text></g></g><path class="foreground" aria-hidden="true" d="" pointer-events="none" display="none"/></g></g></g><path class="foreground" aria-hidden="true" d="" pointer-events="none" display="none"/></g></g></g><path class="foreground" aria-hidden="true" d="" pointer-events="none" display="none"/></g></g></g><path class="foreground" aria-hidden="true" d="" display="none"/></g></g></g></svg>
