<?xml version="1.0" encoding="utf-8"?>
<!DOCTYPE svg PUBLIC "-//W3C//DTD SVG 1.1//EN" "http://www.w3.org/Graphics/SVG/1.1/DTD/svg11.dtd">
<svg xmlns="http://www.w3.org/2000/svg" xmlns:xlink="http://www.w3.org/1999/xlink" version="1.1" class="marks" width="168" height="160" viewBox="0 0 168 160"><rect width="168" height="160" fill="white"/><g fill="none" stroke-miterlimit="10" transform="translate(43,5)"><g class="mark-group role-frame root" role="graphics-object" aria-roledescription="group mark container"><g transform="translate(0,0)"><path class="background" aria-hidden="true" d="M0.5,0.5h120v120h-120Z"/><g><g class="mark-group role-axis" role="graphics-symbol" aria-roledescription="axis" aria-label="X-axis titled 'VO2 (mmol/L mito/s)' for a linear scale with values from 0.0 to 2.2"><g transform="translate(0.5,120.5)"><path class="background" aria-hidden="true" d="M0,0h0v0h0Z" pointer-events="none"/><g><g class="mark-rule role-axis-tick" pointer-events="none"><line transform="translate(0,0)" x2="0" y2="3" stroke="black" stroke-width="1" opacity="1"/><line transform="translate(55,0)" x2="0" y2="3" stroke="black" stroke-width="1" opacity="1"/><line transform="translate(109,0)" x2="0" y2="3" stroke="black" stroke-width="1" opacity="1"/></g><g class="mark-text role-axis-label" pointer-events="none"><text text-anchor="start" transform="translate(0,13)" font-family="Arial" font-size="10px" fill="#000" opacity="1">0</text><text text-anchor="middle" transform="translate(54.54545454545455,13)" font-family="Arial" font-size="10px" fill="#000" opacity="1">1</text><text text-anchor="middle" transform="translate(109.0909090909091,13)" font-family="Arial" font-size="10px" fill="#000" opacity="1">2</text></g><g class="mark-rule role-axis-domain" pointer-events="none"><line transform="translate(0,0)" x2="120" y2="0" stroke="black" stroke-width="1" opacity="1"/></g><g class="mark-text role-axis-title" pointer-events="none"><text text-anchor="middle" transform="translate(60,28)" font-family="Arial" font-size="11px" font-weight="normal" fill="#000" opacity="1">VO2 (mmol/L mito/s)</text></g></g><path class="foreground" aria-hidden="true" d="" pointer-events="none" display="none"/></g></g><g class="mark-group role-axis" role="graphics-symbol" aria-roledescription="axis" aria-label="Y-axis titled 'ΔΨ (mV)' for a linear scale with values from 60 to 220"><g transform="translate(0.5,0.5)"><path class="background" aria-hidden="true" d="M0,0h0v0h0Z" pointer-events="none"/><g><g class="mark-rule role-axis-tick" pointer-events="none"><line transform="translate(0,90)" x2="-3" y2="0" stroke="black" stroke-width="1" opacity="1"/><line transform="translate(0,53)" x2="-3" y2="0" stroke="black" stroke-width="1" opacity="1"/><line transform="translate(0,15)" x2="-3" y2="0" stroke="black" stroke-width="1" opacity="1"/></g><g class="mark-text role-axis-label" pointer-events="none"><text text-anchor="end" transform="translate(-5,93)" font-family="Arial" font-size="10px" fill="#000" opacity="1">100</text><text text-anchor="end" transform="translate(-5,55.5)" font-family="Arial" font-size="10px" fill="#000" opacity="1">150</text><text text-anchor="end" transform="translate(-5,18)" font-family="Arial" font-size="10px" fill="#000" opacity="1">200</text></g><g class="mark-rule role-axis-domain" pointer-events="none"><line transform="translate(0,120)" x2="0" y2="-120" stroke="black" stroke-width="1" opacity="1"/></g><g class="mark-text role-axis-title" pointer-events="none"><text text-anchor="middle" transform="translate(-27,60) rotate(-90) translate(0,-2)" font-family="Arial" font-size="11px" font-weight="normal" fill="#000" opacity="1">ΔΨ (mV)</text></g></g><path class="foreground" aria-hidden="true" d="" pointer-events="none" display="none"/></g></g><g class="mark-group role-scope layer_0_pathgroup" role="graphics-object" aria-roledescription="group mark container"><g transform="translate(0,0)"><path class="background" aria-hidden="true" d="M0,0h120v120h-120Z"/><g><g class="mark-line role-mark layer_0_marks" role="graphics-object" aria-roledescription="line mark container"><path aria-label="VO2_m: 0.23106662489; dPsi: 199.930214879; group: Young" role="graphics-symbol" aria-roledescription="line mark" d="M12.603634084900651,15.052338840566106L13.854323564136616,14.923823918139503L15.094417771975314,14.939264894213125L16.326567915505986,15.061987844534412L17.552798630699968,15.264023939817367L18.77457219924672,15.525179266050447L19.99292998499774,15.831070413825232L21.20860919153052,16.171507824380956L22.42213417255674,16.539244698441173L23.63388245721302,16.92904293868051L24.844125443260854,17.337179730005907L26.05305610542149,17.760936706638752L27.260814967945816,18.198368508376248L28.46749990360469,18.64810367649913L29.67317701620227,19.10920749043981L30.877889868017704,19.581053659888276L32.08166012671424,20.06331484992618L33.284495479750596,20.555856970145214L34.4863894653962,21.05873621604722L35.687325909928134,21.572140347441117L36.88727687568896,22.096417120415346L38.08620603744713,22.63202641677499L39.28406960654887,23.179526162762826L40.4808133605421,23.739617607336115L41.67637721254238,24.31307468482657L42.87069169089671,24.900804137314164L44.06367771952939,25.503813330395523L45.25524967844822,26.123233408305502L46.445310984124255,26.760313110995277L47.63375375139095,27.4164606583993L48.82046001527084,28.093197074333524L50.00529955383679,28.792225605705223L51.18812689671585,29.515435331550826L52.36878318994722,30.264891175024573L53.54708980349776,31.042906468800318L54.72285126226119,31.852017235950317L55.895849098685694,32.69505494729302L57.06583953760296,33.57516369452612L58.23255255384821,34.49583505560924L59.39568392165145,35.460990818162024L60.55489223307869,36.4750164442967L61.70979485713035,37.54281670163159L62.85995645628938,38.669959729644276L64.0048873455304,39.86267253233723L65.14402499063854,41.12809675975822L66.27672891739809,42.47431191496343L67.40225556416323,43.910589065057934L68.51975156314676,45.447574591367214L69.6282195553469,47.09753776869338L70.72647553405768,48.87476186114175L71.81312726863756,50.79591524667186L72.88648965859927,52.88062070523594L73.94449510296327,55.1520749103091L74.98459788736209,57.63787360885826L76.00352330958015,60.37083357245354L76.99704154134993,63.38921225898658L77.95951440637354,66.73551325087242L78.88322445841169,70.45116951989326L79.75728526742793,74.56200823925853L80.56565541339104,79.05017397518249L81.28350606913733,83.81476392259451L81.87307561833217,88.63354442768885L82.2941176693265,93.1301594078227L82.55494267535664,96.84927924690678L82.72866400024111,99.62573985564669L82.86174693974837,101.68551535491194L82.96397314498036,103.27712220754157L83.04267691921399,104.54823770623564L83.10483129329474,105.58880432297548L83.15530113045106,106.45835164823288L83.1972773634458,107.19778516299303L83.23289015484438,107.83595868992914L83.26360753617293,108.3937261330567L83.29047063463138,108.8865075966823L83.31423985158003,109.32594281049931L83.33548195698266,109.72098495207236L83.35462912415909,110.07863627352302L83.37201790764624,110.40445545792907L83.38791004424229,110.70291742938524L83.40251963847108,110.97766436563259L83.41601795592243,111.23169651934542L83.42854360948292,111.46750967169969L83.44021531515608,111.68719622497977L83.45113000774631,111.89252751811212L83.46137005957189,112.08501312436512L83.47100524057677,112.2659487959699L83.48009570622855,112.4364535673423L83.48869380333832,112.59749950357764L83.49684327681186,112.74993638317933L83.50458437401902,112.89450949154522L83.51195155124718,113.0318765560415L83.51897492817238,113.16262038878473L83.52568159543794,113.28725929136054L83.53209555703815,113.40625613873202L83.53823824994387,113.52002576186504L83.54412914518375,113.62894110938645L83.54978459288313,113.73333900069315L83.5552213769652,113.83352353116554L83.56045328333873,113.92977109509586L83.56549321123214,114.02233303692623" stroke="#009DA3" stroke-width="2"/></g></g><path class="foreground" aria-hidden="true" d="" display="none"/></g><g transform="translate(0,0)"><path class="background" aria-hidden="true" d="M0,0h120v120h-120Z"/><g><g class="mark-line role-mark layer_0_marks" role="graphics-object" aria-roledescription="line mark container"><path aria-label="VO2_m: 0.23618645947; dPsi: 205.075995847; group: Old" role="graphics-symbol" aria-roledescription="line mark" d="M12.882897789265748,11.19300311447673L14.115032156557055,11.321489247976837L15.338363697064144,11.568875410323862L16.557081035372835,11.877384074110973L17.773053426795677,12.221241018491478L18.987267125528817,12.586863379016187L20.20029489489578,12.966358723929584L21.412487856221265,13.354892801883684L22.624071194901482,13.749363506469376L23.835191145433225,14.147753840830566L25.045944547038328,14.548725340161717L26.25639525260228,14.951391573625056L27.466584465592405,15.355176473443986L28.676538161894182,15.759711463534423L29.886271036722814,16.164781532268226L31.095789184320594,16.570287464604256L32.305093392361904,16.976204201566464L33.51418059566577,17.382559497796485L34.72304208691386,17.78945222149102L35.93166909618993,18.196979057606622L37.140049353002134,18.605290614716033L38.3481693634066,19.01454881037626L39.55601394395744,19.424937850375205L40.763567295885416,19.836648578610113L41.97081168574626,20.249897520435027L43.17772923495542,20.66490110148318L44.38430088658751,21.081890406101067L45.59050658703619,21.501108401414083L46.79632568491441,21.92280463669078L48.00173650152773,22.347240352239027L49.206716746880346,22.774684120440266L50.41124275078543,23.205420689451948L51.61529037127787,23.639738627481577L52.818833970078785,24.077946367434077L54.02184743396319,24.520353954707094L55.22430279748673,24.967295573666675L56.42617149929836,25.419111393238612L57.627422736859266,25.876165631598013L58.828025584719725,26.338827813469045L60.02794605194759,26.80749976588004L61.22714946468945,27.282588619544978L62.425598997761384,27.764529730192493L63.62325553533505,28.253784646188194L64.82007798635375,28.75084099925335L66.01602294435939,29.256189904705323L67.21104463467545,29.77039229275132L68.4050946558992,30.294012810006052L69.59811826565098,30.827655039875708L70.79006311257204,31.37196777535575L71.98086930898769,31.92763342472525L73.1704734755107,32.49538948551762L74.35880819754776,33.076016772573375L75.54580150011103,33.67034344402431L76.73137549686265,34.279269576041436L77.91544679177686,34.903754572055306L79.09792387290983,35.544835264344066L80.27871400179099,36.20360009067738L81.45770773251509,36.881268004094245L82.63479259840393,37.57912630065349L83.80984402950908,38.29856871684125L84.98272821597561,39.041113172119076L86.15329765103584,39.80840608710735L87.32139034509224,40.60224883473012L88.48683037486578,41.42458567182387L89.64942216274406,42.27756596391671L90.808950169184,43.16353942764807L91.96517617354925,44.08507326200052L93.11783471210337,45.04501832317683L94.26662739168333,46.04652253568262L95.41122236054238,47.093058856946534L96.55124007150775,48.18850016308775L97.68625919111577,49.33716317488844L98.81579088807985,50.54387333532059L99.93926864615324,51.814037565462094L101.0560441256441,53.153761455997284L102.16536355606074,54.56988312529117L103.26632639837236,56.070153969122806L104.35786287709635,57.66331442085664L105.43866841889948,59.35927359320573L106.50714512202043,61.16909246494643L107.56128211956715,63.105121944403464L108.59850835028541,65.1807284024683L109.61545525109251,67.40979151421755L110.607596174412,69.80544883220742L111.56873263822162,72.37724134352707L112.49022653024846,75.12602792736335L113.36010640388015,78.03485342754054L114.16244577168645,81.05616080263106L114.87836642954572,84.0991739218453L115.49069071081311,87.03151131938232L115.99193464366947,89.71223675540925L116.38896490468343,92.04710732722242L116.69859328916131,94.0168972067204L116.93993100274476,95.65634166140518L117.12995800606335,97.01983406950242L117.28200101075511,98.1611750460552L117.40589093604359,99.12596248071915L117.50863648864252,99.95048371972051L117.59524255291844,100.66281971371299L117.66932229702041,101.28454722546329" stroke="#F98F00" stroke-width="2"/></g></g><path class="foreground" aria-hidden="true" d="" display="none"/></g></g><g class="mark-group role-legend" role="graphics-symbol" aria-roledescription="legend" aria-label="Symbol legend for stroke color with 2 values: Young, Old"><g transform="translate(69,5)"><path class="background" aria-hidden="true" d="M0,0h46v24h-46Z" pointer-events="none"/><g><g class="mark-group role-legend-entry"><g transform="translate(0,0)"><path class="background" aria-hidden="true" d="M0,0h0v0h0Z" pointer-events="none"/><g><g class="mark-group role-scope" role="graphics-object" aria-roledescription="group mark container"><g transform="translate(0,0)"><path class="background" aria-hidden="true" d="M0,0h46v11h-46Z" pointer-events="none" opacity="1"/><g><g class="mark-symbol role-legend-symbol" pointer-events="none"><path transform="translate(6,6)" d="M-5,0L5,0" stroke="#009DA3" stroke-width="1.5" opacity="1"/></g><g class="mark-text role-legend-label" pointer-events="none"><text text-anchor="start" transform="translate(16,9)" font-family="Arial" font-size="10px" fill="#000" opacity="1">Young</text></g></g><path class="foreground" aria-hidden="true" d="" pointer-events="none" display="none"/></g><g transform="translate(0,13)"><path class="background" aria-hidden="true" d="M0,0h46v11h-46Z" pointer-events="none" opacity="1"/><g><g class="mark-symbol role-legend-symbol" pointer-events="none"><path transform="translate(6,6)" d="M-5,0L5,0" stroke="#F98F00" stroke-width="1.5" opacity="1"/></g><g class="mark-text role-legend-label" pointer-events="none"><text text-anchor="start" transform="translate(16,9)" font-family="Arial" font-size="10px" fill="#000" opacity="1">Old</text></g></g><path class="foreground" aria-hidden="true" d="" pointer-events="none" display="none"/></g></g></g><path class="foreground" aria-hidden="true" d="" pointer-events="none" display="none"/></g></g></g><path class="foreground" aria-hidden="true" d="" pointer-events="none" display="none"/></g></g></g><path class="foreground" aria-hidden="true" d="" display="none"/></g></g></g></svg>
