<?xml version="1.0" encoding="utf-8"?>
<!DOCTYPE svg PUBLIC "-//W3C//DTD SVG 1.1//EN" "http://www.w3.org/Graphics/SVG/1.1/DTD/svg11.dtd">
<svg xmlns="http://www.w3.org/2000/svg" xmlns:xlink="http://www.w3.org/1999/xlink" version="1.1" class="marks" width="156" height="160" viewBox="0 0 156 160"><rect width="156" height="160" fill="white"/><g fill="none" stroke-miterlimit="10" transform="translate(31,5)"><g class="mark-group role-frame root" role="graphics-object" aria-roledescription="group mark container"><g transform="translate(0,0)"><path class="background" aria-hidden="true" d="M0.5,0.5h120v120h-120Z"/><g><g class="mark-group role-axis" role="graphics-symbol" aria-roledescription="axis" aria-label="X-axis titled 'VO2 (mmol/L mito/s)' for a linear scale with values from 0.0 to 2.2"><g transform="translate(0.5,120.5)"><path class="background" aria-hidden="true" d="M0,0h0v0h0Z" pointer-events="none"/><g><g class="mark-rule role-axis-tick" pointer-events="none"><line transform="translate(0,0)" x2="0" y2="3" stroke="black" stroke-width="1" opacity="1"/><line transform="translate(55,0)" x2="0" y2="3" stroke="black" stroke-width="1" opacity="1"/><line transform="translate(109,0)" x2="0" y2="3" stroke="black" stroke-width="1" opacity="1"/></g><g class="mark-text role-axis-label" pointer-events="none"><text text-anchor="start" transform="translate(0,13)" font-family="Arial" font-size="10px" fill="#000" opacity="1">0</text><text text-anchor="middle" transform="translate(54.54545454545455,13)" font-family="Arial" font-size="10px" fill="#000" opacity="1">1</text><text text-anchor="middle" transform="translate(109.0909090909091,13)" font-family="Arial" font-size="10px" fill="#000" opacity="1">2</text></g><g class="mark-rule role-axis-domain" pointer-events="none"><line transform="translate(0,0)" x2="120" y2="0" stroke="black" stroke-width="1" opacity="1"/></g><g class="mark-text role-axis-title" pointer-events="none"><text text-anchor="middle" transform="translate(60,28)" font-family="Arial" font-size="11px" font-weight="normal" fill="#000" opacity="1">VO2 (mmol/L mito/s)</text></g></g><path class="foreground" aria-hidden="true" d="" pointer-events="none" display="none"/></g></g><g class="mark-group role-axis" role="graphics-symbol" aria-roledescription="axis" aria-label="Y-axis titled 'PCr:ATP ratio' for a linear scale with values from 0.0 to 2.4"><g transform="translate(0.5,0.5)"><path class="background" aria-hidden="true" d="M0,0h0v0h0Z" pointer-events="none"/><g><g class="mark-rule role-axis-tick" pointer-events="none"><line transform="translate(0,120)" x2="-3" y2="0" stroke="black" stroke-width="1" opacity="1"/><line transform="translate(0,70)" x2="-3" y2="0" stroke="black" stroke-width="1" opacity="1"/><line transform="translate(0,20)" x2="-3" y2="0" stroke="black" stroke-width="1" opacity="1"/></g><g class="mark-text role-axis-label" pointer-events="none"><text text-anchor="end" transform="translate(-5,123)" font-family="Arial" font-size="10px" fill="#000" opacity="1">0</text><text text-anchor="end" transform="translate(-5,72.99999999999999)" font-family="Arial" font-size="10px" fill="#000" opacity="1">1</text><text text-anchor="end" transform="translate(-5,22.999999999999996)" font-family="Arial" font-size="10px" fill="#000" opacity="1">2</text></g><g class="mark-rule role-axis-domain" pointer-events="none"><line transform="translate(0,120)" x2="0" y2="-120" stroke="black" stroke-width="1" opacity="1"/></g><g class="mark-text role-axis-title" pointer-events="none"><text text-anchor="middle" transform="translate(-15,60) rotate(-90) translate(0,-2)" font-family="Arial" font-size="11px" font-weight="normal" fill="#000" opacity="1">PCr:ATP ratio</text></g></g><path class="foreground" aria-hidden="true" d="" pointer-events="none" display="none"/></g></g><g class="mark-group role-scope layer_0_pathgroup" role="graphics-object" aria-roledescription="group mark container"><g transform="translate(0,0)"><path class="background" aria-hidden="true" d="M0,0h120v120h-120Z"/><g><g class="mark-line role-mark layer_0_marks" role="graphics-object" aria-roledescription="line mark container"><path aria-label="VO2_m: 0.23106662489; PCrATP: 2.31560070136; group: Young" role="graphics-symbol" aria-roledescription="line mark" d="M12.603634084900651,4.219964932116098L13.854323564136616,7.035678333347777L15.094417771975314,9.638587915689524L16.326567915505986,12.06865791721443L17.552798630699968,14.353548732112987L18.77457219924672,16.514015419243222L19.99292998499774,18.566182095823347L21.20860919153052,20.52287062296703L22.42213417255674,22.394476150599015L23.63388245721302,24.189566266721947L24.844125443260854,25.91532354508358L26.05305610542149,27.577844568052967L27.260814967945816,29.18237415997284L28.46749990360469,30.73347592319655L29.67317701620227,32.23516194610053L30.877889868017704,33.690987708730916L32.08166012671424,35.104139613562644L33.284495479750596,36.47748810883269L34.4863894653962,37.81364281530985L35.687325909928134,39.11498733527199L36.88727687568896,40.3837209164097L38.08620603744713,41.6218802006512L39.28406960654887,42.831361511056016L40.4808133605421,44.01395065858233L41.67637721254238,45.171327386004336L42.87069169089671,46.30509240488931L44.06367771952939,47.41677458058782L45.25524967844822,48.50784727008224L46.445310984124255,49.579737619476425L47.63375375139095,50.633844901143725L48.82046001527084,51.6715393340405L50.00529955383679,52.69418510097983L51.18812689671585,53.70314931749802L52.36878318994722,54.69980728867051L53.54708980349776,55.68556694282036L54.72285126226119,56.66187111594573L55.895849098685694,57.63022311838003L57.06583953760296,58.59220076656285L58.23255255384821,59.54947593013091L59.39568392165145,60.50384814289861L60.55489223307869,61.457268977489996L61.70979485713035,62.411877021698736L62.85995645628938,63.37006051972722L64.0048873455304,64.33449210139146L65.14402499063854,65.30824236847388L66.27672891739809,66.29485381212496L67.40225556416323,67.29850207532868L68.51975156314676,68.32418484745337L69.6282195553469,69.37799434933942L70.72647553405768,70.46753819782461L71.81312726863756,71.60253787193507L72.88648965859927,72.79577666100252L73.94449510296327,74.06457862409476L74.98459788736209,75.43323882621785L76.00352330958015,76.93702772353004L76.99704154134993,78.62870268451319L77.95951440637354,80.58886883383656L78.88322445841169,82.94018689908329L79.75728526742793,85.8579233218581L80.56565541339104,89.5463539477914L81.28350606913733,94.11297049004044L81.87307561833217,99.3068235152976L82.2941176693265,104.3402522876231L82.55494267535664,108.29586294242722L82.72866400024111,110.95307336273154L82.86174693974837,112.70249638866967L82.96397314498036,113.90768708051264L83.04267691921399,114.77438619327941L83.10483129329474,115.420233656649L83.15530113045106,115.91647346046516L83.1972773634458,116.30788128484814L83.23289015484438,116.62354824886478L83.26360753617293,116.88298771612754L83.29047063463138,117.09968223088201L83.31423985158003,117.28319947544065L83.33548195698266,117.44049369666679L83.35462912415909,117.57672803593802L83.37201790764624,117.69580903127401L83.38791004424229,117.80074342207911L83.40251963847108,117.89387968739524L83.41601795592243,117.97707804695355L83.42854360948292,118.05183004916212L83.44021531515608,118.11934450288749L83.45113000774631,118.18061153885817L83.46137005957189,118.23644941798555L83.47100524057677,118.28754015299232L83.48009570622855,118.33445656573605L83.48869380333832,118.37768320763121L83.49684327681186,118.41763277923577L83.50458437401902,118.4546587429128L83.51195155124718,118.48906569298943L83.51897492817238,118.52111745892711L83.52568159543794,118.55104366758616L83.53209555703815,118.57904511500209L83.53823824994387,118.60529814095011L83.54412914518375,118.62995822653015L83.54978459288313,118.65316302963957L83.5552213769652,118.67503476456791L83.56045328333873,118.69568240810484L83.56549321123214,118.71520339010718" stroke="#009DA3" stroke-width="2"/></g></g><path class="foreground" aria-hidden="true" d="" display="none"/></g><g transform="translate(0,0)"><path class="background" aria-hidden="true" d="M0,0h120v120h-120Z"/><g><g class="mark-line role-mark layer_0_marks" role="graphics-object" aria-roledescription="line mark container"><path aria-label="VO2_m: 0.23618645947; PCrATP: 2.0144237049; group: Old" role="graphics-symbol" aria-roledescription="line mark" d="M12.882897789265748,19.27881475478983L14.115032156557055,22.10273970294001L15.338363697064144,24.557144274429582L16.557081035372835,26.77575705611284L17.773053426795677,28.82217803959781L18.987267125528817,30.73326245636561L20.20029489489578,32.532969036904774L21.412487856221265,34.23810818154217L22.624071194901482,35.86112999514181L23.835191145433225,37.41164036994646L25.045944547038328,38.897286567119394L26.25639525260228,40.324311522228236L27.466584465592405,41.697917046893075L28.676538161894182,43.022509957767795L29.886271036722814,44.30187742903699L31.095789184320594,45.53931408261889L32.305093392361904,46.73771407049884L33.51418059566577,47.89964210938707L34.72304208691386,49.02739341090533L35.93166909618993,50.12302746245158L37.140049353002134,51.188412055078096L38.3481693634066,52.22524547583144L39.55601394395744,53.23508152076641L40.763567295885416,54.219346215724784L41.97081168574626,55.17935687175663L43.17772923495542,56.116331295265915L44.38430088658751,57.031401508092856L45.59050658703619,57.92562296485167L46.79632568491441,58.79998193223133L48.00173650152773,59.655403497201135L49.206716746880346,60.49275702947428L50.41124275078543,61.312863137259136L51.61529037127787,62.116496272664584L52.818833970078785,62.90439176625309L54.02184743396319,63.677246298109054L55.22430279748673,64.43572525656504L56.42617149929836,65.18046244367396L57.627422736859266,65.91206603215011L58.828025584719725,66.63111749946393L60.02794605194759,67.33817899496825L61.22714946468945,68.03378995036913L62.425598997761384,68.71847353527623L63.62325553533505,69.39273780555531L64.82007798635375,70.05707728796567L66.01602294435939,70.71197005813524L67.21104463467545,71.35789186713927L68.4050946558992,71.99530468984722L69.59811826565098,72.62466477803675L70.79006311257204,73.24642497661557L71.98086930898769,73.86103368099985L73.1704734755107,74.46894017539162L74.35880819754776,75.07059342539581L75.54580150011103,75.66644399990804L76.73137549686265,76.2569501602553L77.91544679177686,76.842576576591L79.09792387290983,77.42379930636565L80.27871400179099,78.00110195157757L81.45770773251509,78.5749933219862L82.63479259840393,79.1459964541683L83.80984402950908,79.71465908872301L84.98272821597561,80.28155842398428L86.15329765103584,80.84730625221337L87.32139034509224,81.41255725301957L88.48683037486578,81.97801079871951L89.64942216274406,82.54442931988035L90.808950169184,83.11264391517895L91.96517617354925,83.68356622680773L93.11783471210337,84.25821335306888L94.26662739168333,84.83772477607477L95.41122236054238,85.42338636966883L96.55124007150775,86.01667132979962L97.68625919111577,86.6192819574737L98.81579088807985,87.23320817449454L99.93926864615324,87.86080386295907L101.0560441256441,88.50489872702019L102.16536355606074,89.16892109635525L103.26632639837236,89.85710767283558L104.35786287709635,90.57475794165386L105.43866841889948,91.32862016991717L106.50714512202043,92.12737648908573L107.56128211956715,92.98238417644532L108.59850835028541,93.9085901369006L109.61545525109251,94.92571463748061L110.607596174412,96.05947138666303L111.56873263822162,97.34204086008367L112.49022653024846,98.8100520125456L113.36010640388015,100.49594128140501L114.16244577168645,102.407635796629L114.87836642954572,104.49667336178459L115.49069071081311,106.63664558791282L115.99193464366947,108.65322736147792L116.38896490468343,110.40588587795268L116.69859328916131,111.84341343736592L116.93993100274476,112.98752138713257L117.12995800606335,113.88992229233327L117.28200101075511,114.60435215947788L117.40589093604359,115.17581375185453L117.50863648864252,115.63892235662355L117.59524255291844,116.0193791756289L117.66932229702041,116.33608512148497" stroke="#F98F00" stroke-width="2"/></g></g><path class="foreground" aria-hidden="true" d="" display="none"/></g></g><g class="mark-group role-legend" role="graphics-symbol" aria-roledescription="legend" aria-label="Symbol legend for stroke color with 2 values: Young, Old"><g transform="translate(69,5)"><path class="background" aria-hidden="true" d="M0,0h46v24h-46Z" pointer-events="none"/><g><g class="mark-group role-legend-entry"><g transform="translate(0,0)"><path class="background" aria-hidden="true" d="M0,0h0v0h0Z" pointer-events="none"/><g><g class="mark-group role-scope" role="graphics-object" aria-roledescription="group mark container"><g transform="translate(0,0)"><path class="background" aria-hidden="true" d="M0,0h46v11h-46Z" pointer-events="none" opacity="1"/><g><g class="mark-symbol role-legend-symbol" pointer-events="none"><path transform="translate(6,6)" d="M-5,0L5,0" stroke="#009DA3" stroke-width="1.5" opacity="1"/></g><g class="mark-text role-legend-label" pointer-events="none"><text text-anchor="start" transform="translate(16,9)" font-family="Arial" font-size="10px" fill="#000" opacity="1">Young</text></g></g><path class="foreground" aria-hidden="true" d="" pointer-events="none" display="none"/></g><g transform="translate(0,13)"><path class="background" aria-hidden="true" d="M0,0h46v11h-46Z" pointer-events="none" opacity="1"/><g><g class="mark-symbol role-legend-symbol" pointer-events="none"><path transform="translate(6,6)" d="M-5,0L5,0" stroke="#F98F00" stroke-width="1.5" opacity="1"/></g><g class="mark-text role-legend-label" pointer-events="none"><text text-anchor="start" transform="translate(16,9)" font-family="Arial" font-size="10px" fill="#000" opacity="1">Old</text></g></g><path class="foreground" aria-hidden="true" d="" pointer-events="none" display="none"/></g></g></g><path class="foreground" aria-hidden="true" d="" pointer-events="none" display="none"/></g></g></g><path class="foreground" aria-hidden="true" d="" pointer-events="none" display="none"/></g></g></g><path class="foreground" aria-hidden="true" d="" display="none"/></g></g></g></svg>
