<?xml version="1.0" encoding="utf-8"?>
<!DOCTYPE svg PUBLIC "-//W3C//DTD SVG 1.1//EN" "http://www.w3.org/Graphics/SVG/1.1/DTD/svg11.dtd">
<svg xmlns="http://www.w3.org/2000/svg" xmlns:xlink="http://www.w3.org/1999/xlink" version="1.1" class="marks" width="156" height="160" viewBox="0 0 156 160"><rect width="156" height="160" fill="white"/><g fill="none" stroke-miterlimit="10" transform="translate(31,5)"><g class="mark-group role-frame root" role="graphics-object" aria-roledescription="group mark container"><g transform="translate(0,0)"><path class="background" aria-hidden="true" d="M0.5,0.5h120v120h-120Z"/><g><g class="mark-group role-axis" role="graphics-symbol" aria-roledescription="axis" aria-label="X-axis titled 'VO2 (mmol/L mito/s)' for a linear scale with values from 0.0 to 2.2"><g transform="translate(0.5,120.5)"><path class="background" aria-hidden="true" d="M0,0h0v0h0Z" pointer-events="none"/><g><g class="mark-rule role-axis-tick" pointer-events="none"><line transform="translate(0,0)" x2="0" y2="3" stroke="black" stroke-width="1" opacity="1"/><line transform="translate(55,0)" x2="0" y2="3" stroke="black" stroke-width="1" opacity="1"/><line transform="translate(109,0)" x2="0" y2="3" stroke="black" stroke-width="1" opacity="1"/></g><g class="mark-text role-axis-label" pointer-events="none"><text text-anchor="start" transform="translate(0,13)" font-family="Arial" font-size="10px" fill="#000" opacity="1">0</text><text text-anchor="middle" transform="translate(54.54545454545455,13)" font-family="Arial" font-size="10px" fill="#000" opacity="1">1</text><text text-anchor="middle" transform="translate(109.0909090909091,13)" font-family="Arial" font-size="10px" fill="#000" opacity="1">2</text></g><g class="mark-rule role-axis-domain" pointer-events="none"><line transform="translate(0,0)" x2="120" y2="0" stroke="black" stroke-width="1" opacity="1"/></g><g class="mark-text role-axis-title" pointer-events="none"><text text-anchor="middle" transform="translate(60,28)" font-family="Arial" font-size="11px" font-weight="normal" fill="#000" opacity="1">VO2 (mmol/L mito/s)</text></g></g><path class="foreground" aria-hidden="true" d="" pointer-events="none" display="none"/></g></g><g class="mark-group role-axis" role="graphics-symbol" aria-roledescription="axis" aria-label="Y-axis titled 'PCr:ATP ratio' for a linear scale with values from 0.0 to 2.4"><g transform="translate(0.5,0.5)"><path class="background" aria-hidden="true" d="M0,0h0v0h0Z" pointer-events="none"/><g><g class="mark-rule role-axis-tick" pointer-events="none"><line transform="translate(0,120)" x2="-3" y2="0" stroke="black" stroke-width="1" opacity="1"/><line transform="translate(0,70)" x2="-3" y2="0" stroke="black" stroke-width="1" opacity="1"/><line transform="translate(0,20)" x2="-3" y2="0" stroke="black" stroke-width="1" opacity="1"/></g><g class="mark-text role-axis-label" pointer-events="none"><text text-anchor="end" transform="translate(-5,123)" font-family="Arial" font-size="10px" fill="#000" opacity="1">0</text><text text-anchor="end" transform="translate(-5,72.99999999999999)" font-family="Arial" font-size="10px" fill="#000" opacity="1">1</text><text text-anchor="end" transform="translate(-5,22.999999999999996)" font-family="Arial" font-size="10px" fill="#000" opacity="1">2</text></g><g class="mark-rule role-axis-domain" pointer-events="none"><line transform="translate(0,120)" x2="0" y2="-120" stroke="black" stroke-width="1" opacity="1"/></g><g class="mark-text role-axis-title" pointer-events="none"><text text-anchor="middle" transform="translate(-15,60) rotate(-90) translate(0,-2)" font-family="Arial" font-size="11px" font-weight="normal" fill="#000" opacity="1">PCr:ATP ratio</text></g></g><path class="foreground" aria-hidden="true" d="" pointer-events="none" display="none"/></g></g><g class="mark-group role-scope layer_0_pathgroup" role="graphics-object" aria-roledescription="group mark container"><g transform="translate(0,0)"><path class="background" aria-hidden="true" d="M0,0h120v120h-120Z"/><g><g class="mark-line role-mark layer_0_marks" role="graphics-object" aria-roledescription="line mark container"><path aria-label="VO2_m: 0.23106662489; PCrATP: 2.31560070136; group: Young" role="graphics-symbol" aria-roledescription="line mark" d="M12.603634084900651,4.219964932116098L13.854323564136616,7.035678333347777L15.094417771975314,9.638587915689524L16.326567915505986,12.06865791721443L17.552798630699968,14.353548732112987L18.77457219924672,16.514015419243222L19.99292998499774,18.566182095823347L21.20860919153052,20.52287062296703L22.42213417255674,22.394476150599015L23.63388245721302,24.189566266721947L24.844125443260854,25.91532354508358L26.05305610542149,27.577844568052967L27.260814967945816,29.18237415997284L28.46749990360469,30.73347592319655L29.67317701620227,32.23516194610053L30.877889868017704,33.690987708730916L32.08166012671424,35.104139613562644L33.284495479750596,36.47748810883269L34.4863894653962,37.81364281530985L35.687325909928134,39.11498733527199L36.88727687568896,40.3837209164097L38.08620603744713,41.6218802006512L39.28406960654887,42.831361511056016L40.4808133605421,44.01395065858233L41.67637721254238,45.171327386004336L42.87069169089671,46.30509240488931L44.06367771952939,47.41677458058782L45.25524967844822,48.50784727008224L46.445310984124255,49.579737619476425L47.63375375139095,50.633844901143725L48.82046001527084,51.6715393340405L50.00529955383679,52.69418510097983L51.18812689671585,53.70314931749802L52.36878318994722,54.69980728867051L53.54708980349776,55.68556694282036L54.72285126226119,56.66187111594573L55.895849098685694,57.63022311838003L57.06583953760296,58.59220076656285L58.23255255384821,59.54947593013091L59.39568392165145,60.50384814289861L60.55489223307869,61.457268977489996L61.70979485713035,62.411877021698736L62.85995645628938,63.37006051972722L64.0048873455304,64.33449210139146L65.14402499063854,65.30824236847388L66.27672891739809,66.29485381212496L67.40225556416323,67.29850207532868L68.51975156314676,68.32418484745337L69.6282195553469,69.37799434933942L70.72647553405768,70.46753819782461L71.81312726863756,71.60253787193507L72.88648965859927,72.79577666100252L73.94449510296327,74.06457862409476L74.98459788736209,75.43323882621785L76.00352330958015,76.93702772353004L76.99704154134993,78.62870268451319L77.95951440637354,80.58886883383656L78.88322445841169,82.94018689908329L79.75728526742793,85.8579233218581L80.56565541339104,89.5463539477914L81.28350606913733,94.11297049004044L81.87307561833217,99.3068235152976L82.2941176693265,104.3402522876231L82.55494267535664,108.29586294242722L82.72866400024111,110.95307336273154L82.86174693974837,112.70249638866967L82.96397314498036,113.90768708051264L83.04267691921399,114.77438619327941L83.10483129329474,115.420233656649L83.15530113045106,115.91647346046516L83.1972773634458,116.30788128484814L83.23289015484438,116.62354824886478L83.26360753617293,116.88298771612754L83.29047063463138,117.09968223088201L83.31423985158003,117.28319947544065L83.33548195698266,117.44049369666679L83.35462912415909,117.57672803593802L83.37201790764624,117.69580903127401L83.38791004424229,117.80074342207911L83.40251963847108,117.89387968739524L83.41601795592243,117.97707804695355L83.42854360948292,118.05183004916212L83.44021531515608,118.11934450288749L83.45113000774631,118.18061153885817L83.46137005957189,118.23644941798555L83.47100524057677,118.28754015299232L83.48009570622855,118.33445656573605L83.48869380333832,118.37768320763121L83.49684327681186,118.41763277923577L83.50458437401902,118.4546587429128L83.51195155124718,118.48906569298943L83.51897492817238,118.52111745892711L83.52568159543794,118.55104366758616L83.53209555703815,118.57904511500209L83.53823824994387,118.60529814095011L83.54412914518375,118.62995822653015L83.54978459288313,118.65316302963957L83.5552213769652,118.67503476456791L83.56045328333873,118.69568240810484L83.56549321123214,118.71520339010718" stroke="#009DA3" stroke-width="2"/></g></g><path class="foreground" aria-hidden="true" d="" display="none"/></g><g transform="translate(0,0)"><path class="background" aria-hidden="true" d="M0,0h120v120h-120Z"/><g><g class="mark-line role-mark layer_0_marks" role="graphics-object" aria-roledescription="line mark container"><path aria-label="VO2_m: 0.232158006883; PCrATP: 2.32121834962; group: Old" role="graphics-symbol" aria-roledescription="line mark" d="M12.663164011815491,3.9390825189973944L13.917578839445301,6.769250143135825L15.162692582010438,9.378207311137036L16.400490198939433,11.808421093728745L17.63272750585508,14.088955077846204L18.86076482035703,16.24153530420642L20.08560390562708,18.28297951585052L21.307973315696074,20.22659535833335L22.52840139486239,22.08311514026825L23.747276268836377,23.86133898308205L24.96488374529879,25.568598865835703L26.181437134162714,27.211087504051186L27.397096787653336,28.794101021098314L28.611983845041742,30.322219774599123L29.82619006689047,31.79944441169465L31.039785031202914,33.22930018131006L32.25282152015135,34.61491708028675L33.46533885802639,35.95909459036845L34.67736597245032,37.26435249464401L35.88892384530983,38.53297086226284L37.10002612751828,39.76702450855221L38.31068153618198,40.96841006550212L39.52089422019008,42.13886824965205L40.73066440305609,43.28000370368704L41.93998934384983,44.39330013742953L43.14886342215539,45.48013515845626L44.35727817302194,46.5417921672549L45.56522370177738,47.57946843762295L46.772688250845114,48.59428588928494L47.97965644523578,49.58729943861752L49.18611327876174,50.55950017775803L50.392042061016966,51.51182438810472L51.597422130210624,52.445161514268854L52.80223516009787,53.36035016355009L54.00645757721905,54.25819030122669L55.21006591625224,55.139445226959616L56.41303491850199,56.00484385800903L57.61533759110354,56.85508263426004L58.81694519373629,57.69083307732182L60.01782696697277,58.51274060355831L61.2179503874536,59.32142784625175L62.417280807366915,60.11749773818438L63.61578126438677,60.9015358792237L64.81341261925778,61.67411158545965L66.01013306847537,62.435781362593005L67.2058982005158,63.187089739213306L68.40066022188296,63.9285735112309L69.59436893630385,64.66075908746059L70.78697015111194,65.38417057597006L71.97840567279074,66.0993280671246L73.16861371713489,66.80674984707953L74.35752793266768,67.50695539372047L75.54507684652987,68.20046865208607L76.73118400963928,68.88781816963173L77.91576612966122,69.5695432516236L79.09873436851387,70.24619408019163L80.2799932653168,70.9183322170184L81.45943739921336,71.58654532437602L82.63695406736922,72.25143853514838L83.81242055125038,72.913645763896L84.98570202456503,73.57383578535426L86.15665325534606,74.23271372566263L87.32511363143362,74.89103451738741L88.49090689002615,75.5496094772249L89.6538401100724,76.20931240247188L90.81369772935555,76.87110306811842L91.97024676376671,77.53603068709802L93.12321905143502,78.20526253213387L94.27232087159386,78.88010651155449L95.41722193161314,79.56203654430097L96.55754933078734,80.25273314457876L97.69288069786626,80.95414448939403L98.82273996302095,81.66853519095457L99.94655269070508,82.39858372840115L101.06369589973471,83.14749294493717L102.17341521294375,83.9191556669262L103.27482932894952,84.71835134713565L104.36688286296193,85.55105513469198L105.44830144248004,86.4248495582775L106.51750591480952,87.34949372406372L107.57257942985859,88.33770564982744L108.61098258703299,89.4062473896256L109.6294659106104,90.577247971317L110.62367592627695,91.87963662293993L111.58764463238164,93.34999185364782L112.5130968524648,95.03076332022411L113.38852733625568,96.96170374574463L114.19845571137981,99.15848765236632L114.9240443930797,101.57667217339794L115.54711608358201,104.08150261134537L116.05833263992197,106.4708097450195L116.46320261453363,108.56645196796602L116.77858746045116,110.29297241289333L117.02396375438072,111.66875485596161L117.21657682402821,112.75342300444606L117.37013084287425,113.61101522997481L117.49476325594512,114.29582149779151L117.59775990186922,114.84977861208155L117.68430220187678,115.3040702488575L117.75811042444721,115.6816267186855" stroke="#F98F00" stroke-width="2"/></g></g><path class="foreground" aria-hidden="true" d="" display="none"/></g></g><g class="mark-group role-legend" role="graphics-symbol" aria-roledescription="legend" aria-label="Symbol legend for stroke color with 2 values: Young, Old"><g transform="translate(69,5)"><path class="background" aria-hidden="true" d="M0,0h46v24h-46Z" pointer-events="none"/><g><g class="mark-group role-legend-entry"><g transform="translate(0,0)"><path class="background" aria-hidden="true" d="M0,0h0v0h0Z" pointer-events="none"/><g><g class="mark-group role-scope" role="graphics-object" aria-roledescription="group mark container"><g transform="translate(0,0)"><path class="background" aria-hidden="true" d="M0,0h46v11h-46Z" pointer-events="none" opacity="1"/><g><g class="mark-symbol role-legend-symbol" pointer-events="none"><path transform="translate(6,6)" d="M-5,0L5,0" stroke="#009DA3" stroke-width="1.5" opacity="1"/></g><g class="mark-text role-legend-label" pointer-events="none"><text text-anchor="start" transform="translate(16,9)" font-family="Arial" font-size="10px" fill="#000" opacity="1">Young</text></g></g><path class="foreground" aria-hidden="true" d="" pointer-events="none" display="none"/></g><g transform="translate(0,13)"><path class="background" aria-hidden="true" d="M0,0h46v11h-46Z" pointer-events="none" opacity="1"/><g><g class="mark-symbol role-legend-symbol" pointer-events="none"><path transform="translate(6,6)" d="M-5,0L5,0" stroke="#F98F00" stroke-width="1.5" opacity="1"/></g><g class="mark-text role-legend-label" pointer-events="none"><text text-anchor="start" transform="translate(16,9)" font-family="Arial" font-size="10px" fill="#000" opacity="1">Old</text></g></g><path class="foreground" aria-hidden="true" d="" pointer-events="none" display="none"/></g></g></g><path class="foreground" aria-hidden="true" d="" pointer-events="none" display="none"/></g></g></g><path class="foreground" aria-hidden="true" d="" pointer-events="none" display="none"/></g></g></g><path class="foreground" aria-hidden="true" d="" display="none"/></g></g></g></svg>
