<?xml version="1.0" encoding="utf-8"?>
<!DOCTYPE svg PUBLIC "-//W3C//DTD SVG 1.1//EN" "http://www.w3.org/Graphics/SVG/1.1/DTD/svg11.dtd">
<svg xmlns="http://www.w3.org/2000/svg" xmlns:xlink="http://www.w3.org/1999/xlink" version="1.1" class="marks" width="156" height="160" viewBox="0 0 156 160"><rect width="156" height="160" fill="white"/><g fill="none" stroke-miterlimit="10" transform="translate(31,5)"><g class="mark-group role-frame root" role="graphics-object" aria-roledescription="group mark container"><g transform="translate(0,0)"><path class="background" aria-hidden="true" d="M0.5,0.5h120v120h-120Z"/><g><g class="mark-group role-axis" role="graphics-symbol" aria-roledescription="axis" aria-label="X-axis titled 'VO2 (mmol/L mito/s)' for a linear scale with values from 0.0 to 2.2"><g transform="translate(0.5,120.5)"><path class="background" aria-hidden="true" d="M0,0h0v0h0Z" pointer-events="none"/><g><g class="mark-rule role-axis-tick" pointer-events="none"><line transform="translate(0,0)" x2="0" y2="3" stroke="black" stroke-width="1" opacity="1"/><line transform="translate(55,0)" x2="0" y2="3" stroke="black" stroke-width="1" opacity="1"/><line transform="translate(109,0)" x2="0" y2="3" stroke="black" stroke-width="1" opacity="1"/></g><g class="mark-text role-axis-label" pointer-events="none"><text text-anchor="start" transform="translate(0,13)" font-family="Arial" font-size="10px" fill="#000" opacity="1">0</text><text text-anchor="middle" transform="translate(54.54545454545455,13)" font-family="Arial" font-size="10px" fill="#000" opacity="1">1</text><text text-anchor="middle" transform="translate(109.0909090909091,13)" font-family="Arial" font-size="10px" fill="#000" opacity="1">2</text></g><g class="mark-rule role-axis-domain" pointer-events="none"><line transform="translate(0,0)" x2="120" y2="0" stroke="black" stroke-width="1" opacity="1"/></g><g class="mark-text role-axis-title" pointer-events="none"><text text-anchor="middle" transform="translate(60,28)" font-family="Arial" font-size="11px" font-weight="normal" fill="#000" opacity="1">VO2 (mmol/L mito/s)</text></g></g><path class="foreground" aria-hidden="true" d="" pointer-events="none" display="none"/></g></g><g class="mark-group role-axis" role="graphics-symbol" aria-roledescription="axis" aria-label="Y-axis titled 'PCr:ATP ratio' for a linear scale with values from 0.0 to 2.4"><g transform="translate(0.5,0.5)"><path class="background" aria-hidden="true" d="M0,0h0v0h0Z" pointer-events="none"/><g><g class="mark-rule role-axis-tick" pointer-events="none"><line transform="translate(0,120)" x2="-3" y2="0" stroke="black" stroke-width="1" opacity="1"/><line transform="translate(0,70)" x2="-3" y2="0" stroke="black" stroke-width="1" opacity="1"/><line transform="translate(0,20)" x2="-3" y2="0" stroke="black" stroke-width="1" opacity="1"/></g><g class="mark-text role-axis-label" pointer-events="none"><text text-anchor="end" transform="translate(-5,123)" font-family="Arial" font-size="10px" fill="#000" opacity="1">0</text><text text-anchor="end" transform="translate(-5,72.99999999999999)" font-family="Arial" font-size="10px" fill="#000" opacity="1">1</text><text text-anchor="end" transform="translate(-5,22.999999999999996)" font-family="Arial" font-size="10px" fill="#000" opacity="1">2</text></g><g class="mark-rule role-axis-domain" pointer-events="none"><line transform="translate(0,120)" x2="0" y2="-120" stroke="black" stroke-width="1" opacity="1"/></g><g class="mark-text role-axis-title" pointer-events="none"><text text-anchor="middle" transform="translate(-15,60) rotate(-90) translate(0,-2)" font-family="Arial" font-size="11px" font-weight="normal" fill="#000" opacity="1">PCr:ATP ratio</text></g></g><path class="foreground" aria-hidden="true" d="" pointer-events="none" display="none"/></g></g><g class="mark-group role-scope layer_0_pathgroup" role="graphics-object" aria-roledescription="group mark container"><g transform="translate(0,0)"><path class="background" aria-hidden="true" d="M0,0h120v120h-120Z"/><g><g class="mark-line role-mark layer_0_marks" role="graphics-object" aria-roledescription="line mark container"><path aria-label="VO2_m: 0.23106662489; PCrATP: 2.31560070136; group: Young" role="graphics-symbol" aria-roledescription="line mark" d="M12.603634084900651,4.219964932116098L13.854323564136616,7.035678333347777L15.094417771975314,9.638587915689524L16.326567915505986,12.06865791721443L17.552798630699968,14.353548732112987L18.77457219924672,16.514015419243222L19.99292998499774,18.566182095823347L21.20860919153052,20.52287062296703L22.42213417255674,22.394476150599015L23.63388245721302,24.189566266721947L24.844125443260854,25.91532354508358L26.05305610542149,27.577844568052967L27.260814967945816,29.18237415997284L28.46749990360469,30.73347592319655L29.67317701620227,32.23516194610053L30.877889868017704,33.690987708730916L32.08166012671424,35.104139613562644L33.284495479750596,36.47748810883269L34.4863894653962,37.81364281530985L35.687325909928134,39.11498733527199L36.88727687568896,40.3837209164097L38.08620603744713,41.6218802006512L39.28406960654887,42.831361511056016L40.4808133605421,44.01395065858233L41.67637721254238,45.171327386004336L42.87069169089671,46.30509240488931L44.06367771952939,47.41677458058782L45.25524967844822,48.50784727008224L46.445310984124255,49.579737619476425L47.63375375139095,50.633844901143725L48.82046001527084,51.6715393340405L50.00529955383679,52.69418510097983L51.18812689671585,53.70314931749802L52.36878318994722,54.69980728867051L53.54708980349776,55.68556694282036L54.72285126226119,56.66187111594573L55.895849098685694,57.63022311838003L57.06583953760296,58.59220076656285L58.23255255384821,59.54947593013091L59.39568392165145,60.50384814289861L60.55489223307869,61.457268977489996L61.70979485713035,62.411877021698736L62.85995645628938,63.37006051972722L64.0048873455304,64.33449210139146L65.14402499063854,65.30824236847388L66.27672891739809,66.29485381212496L67.40225556416323,67.29850207532868L68.51975156314676,68.32418484745337L69.6282195553469,69.37799434933942L70.72647553405768,70.46753819782461L71.81312726863756,71.60253787193507L72.88648965859927,72.79577666100252L73.94449510296327,74.06457862409476L74.98459788736209,75.43323882621785L76.00352330958015,76.93702772353004L76.99704154134993,78.62870268451319L77.95951440637354,80.58886883383656L78.88322445841169,82.94018689908329L79.75728526742793,85.8579233218581L80.56565541339104,89.5463539477914L81.28350606913733,94.11297049004044L81.87307561833217,99.3068235152976L82.2941176693265,104.3402522876231L82.55494267535664,108.29586294242722L82.72866400024111,110.95307336273154L82.86174693974837,112.70249638866967L82.96397314498036,113.90768708051264L83.04267691921399,114.77438619327941L83.10483129329474,115.420233656649L83.15530113045106,115.91647346046516L83.1972773634458,116.30788128484814L83.23289015484438,116.62354824886478L83.26360753617293,116.88298771612754L83.29047063463138,117.09968223088201L83.31423985158003,117.28319947544065L83.33548195698266,117.44049369666679L83.35462912415909,117.57672803593802L83.37201790764624,117.69580903127401L83.38791004424229,117.80074342207911L83.40251963847108,117.89387968739524L83.41601795592243,117.97707804695355L83.42854360948292,118.05183004916212L83.44021531515608,118.11934450288749L83.45113000774631,118.18061153885817L83.46137005957189,118.23644941798555L83.47100524057677,118.28754015299232L83.48009570622855,118.33445656573605L83.48869380333832,118.37768320763121L83.49684327681186,118.41763277923577L83.50458437401902,118.4546587429128L83.51195155124718,118.48906569298943L83.51897492817238,118.52111745892711L83.52568159543794,118.55104366758616L83.53209555703815,118.57904511500209L83.53823824994387,118.60529814095011L83.54412914518375,118.62995822653015L83.54978459288313,118.65316302963957L83.5552213769652,118.67503476456791L83.56045328333873,118.69568240810484L83.56549321123214,118.71520339010718" stroke="#009DA3" stroke-width="2"/></g></g><path class="foreground" aria-hidden="true" d="" display="none"/></g><g transform="translate(0,0)"><path class="background" aria-hidden="true" d="M0,0h120v120h-120Z"/><g><g class="mark-line role-mark layer_0_marks" role="graphics-object" aria-roledescription="line mark container"><path aria-label="VO2_m: 0.236186123948; PCrATP: 2.01421520954; group: Old" role="graphics-symbol" aria-roledescription="line mark" d="M12.88287948807921,19.289239523107454L14.115009914051885,22.112880114433334L15.338338875431628,24.567037270952437L16.557054451680784,26.785425872765014L17.77302514386293,28.83164062495635L18.9872373633695,30.742532335051905L20.200264055061844,32.54205732554603L21.41245586042241,34.247024770280376L22.62403877743396,35.869882189048134L23.835157973896315,37.42023609595863L25.045910711998005,38.90573231820642L26.2563609482897,40.33261297007011L27.46654975899478,41.70607948019666L28.676503210152852,43.030537992953654L29.886235282268025,44.30977694872997L31.09575341037967,45.54708790786401L32.30505711120853,46.74536717942863L33.51414395859502,47.907177379194394L34.72300542413408,49.03481360965707L35.931631936222196,50.13033719995534L37.14001228852714,51.19561290227511L38.348132058251394,52.23234133899778L39.5559767303975,53.24207422803761L40.76352989388889,54.22623901452633L41.970774041077156,55.186152164057006L43.17769109506331,56.12303283833327L44.3842634000511,57.03800767790392L45.59046879441545,57.93213849631586L46.79628783676748,58.80640851272245L48.001698691244016,59.66174273423477L49.2066788804178,60.49901091360961L50.411205375646205,61.31903365914934L51.61525230643377,62.122584883816145L52.81879537112318,62.910399217882215L54.02180937000777,63.683175490841485L55.2242650996685,64.4415760969908L56.426133954203436,65.18623726926744L57.627385362539876,65.91776551642077L58.82798804224795,66.63674388265406L60.0279086083544,67.34373239278395L61.22711248938581,68.03927121258555L62.42556187668027,68.72388530149539L63.62321848445098,69.39808050399523L64.82004082902529,70.06235063633201L66.01598626180412,70.7171776751883L67.21100796819957,71.36303286580282L68.40505724890241,72.00037967902016L69.59808222337563,72.62967462967431L70.79002728558277,73.25137079876926L71.98083326189865,73.86591740350796L73.17043776680953,74.47376087367779L74.35877288306928,75.0753512158578L75.54576635683277,75.67114120758372L76.73134084568554,76.26158631226623L77.91541229434223,76.8471522610906L79.09789110703329,77.4283140142168L80.27867994577694,78.00555872470309L81.45767352417903,78.57939243304193L82.63475958708274,79.15033481851655L83.80981149504206,79.71893885496918L84.98269350433779,80.28578032328068L86.15326438150242,80.85147109926586L87.3213579455906,81.41666398218989L88.48679864428685,81.98205916386196L89.64939027847856,82.54842090019422L90.8089188450413,83.11657680989748L91.9651451612344,83.68744208494479L93.1178035525458,84.26203171334953L94.2665966465242,84.8414846107938L95.4111915149719,85.42708722088675L96.5512156905306,86.02031364263256L97.68623000921777,86.62286252695151L98.81575761787988,87.23673152492462L99.93923853588846,87.8642676735926L101.0560142374305,88.50830061793242L102.1653334416172,89.1722595036116L103.26629656349024,89.86038552487959L104.35783152258655,90.5779735828172L105.43863678486717,91.33176982302194L106.50711168938604,92.13046262282273L107.56124836516926,92.98539864291669L108.59847281581811,93.9115342455821L109.61541422401531,94.9285921490148L110.60755750240024,96.06226440004322L111.5686862153318,97.34475334582534L112.49017165601498,98.81266452426465L113.36004141904822,100.4984372513662L114.1623681344891,102.40997859047575L114.87827245113867,104.49881108171115L115.49057857781287,106.63853187372929L115.99181161202114,108.65483044842624L116.38882630155567,110.40722386861239L116.69844687210487,111.84452434799846L116.93977995943735,112.98845140961784L117.12979952951522,113.89071615565487L117.2818489839172,114.60503110376405L117.40573726771608,115.17640919998698L117.50848262951105,115.6394513096885L117.5950918544903,116.01985367342841L117.66917286636907,116.33651602301137" stroke="#F98F00" stroke-width="2"/></g></g><path class="foreground" aria-hidden="true" d="" display="none"/></g></g><g class="mark-group role-legend" role="graphics-symbol" aria-roledescription="legend" aria-label="Symbol legend for stroke color with 2 values: Young, Old"><g transform="translate(69,5)"><path class="background" aria-hidden="true" d="M0,0h46v24h-46Z" pointer-events="none"/><g><g class="mark-group role-legend-entry"><g transform="translate(0,0)"><path class="background" aria-hidden="true" d="M0,0h0v0h0Z" pointer-events="none"/><g><g class="mark-group role-scope" role="graphics-object" aria-roledescription="group mark container"><g transform="translate(0,0)"><path class="background" aria-hidden="true" d="M0,0h46v11h-46Z" pointer-events="none" opacity="1"/><g><g class="mark-symbol role-legend-symbol" pointer-events="none"><path transform="translate(6,6)" d="M-5,0L5,0" stroke="#009DA3" stroke-width="1.5" opacity="1"/></g><g class="mark-text role-legend-label" pointer-events="none"><text text-anchor="start" transform="translate(16,9)" font-family="Arial" font-size="10px" fill="#000" opacity="1">Young</text></g></g><path class="foreground" aria-hidden="true" d="" pointer-events="none" display="none"/></g><g transform="translate(0,13)"><path class="background" aria-hidden="true" d="M0,0h46v11h-46Z" pointer-events="none" opacity="1"/><g><g class="mark-symbol role-legend-symbol" pointer-events="none"><path transform="translate(6,6)" d="M-5,0L5,0" stroke="#F98F00" stroke-width="1.5" opacity="1"/></g><g class="mark-text role-legend-label" pointer-events="none"><text text-anchor="start" transform="translate(16,9)" font-family="Arial" font-size="10px" fill="#000" opacity="1">Old</text></g></g><path class="foreground" aria-hidden="true" d="" pointer-events="none" display="none"/></g></g></g><path class="foreground" aria-hidden="true" d="" pointer-events="none" display="none"/></g></g></g><path class="foreground" aria-hidden="true" d="" pointer-events="none" display="none"/></g></g></g><path class="foreground" aria-hidden="true" d="" display="none"/></g></g></g></svg>
