<?xml version="1.0" encoding="utf-8"?>
<!DOCTYPE svg PUBLIC "-//W3C//DTD SVG 1.1//EN" "http://www.w3.org/Graphics/SVG/1.1/DTD/svg11.dtd">
<svg xmlns="http://www.w3.org/2000/svg" xmlns:xlink="http://www.w3.org/1999/xlink" version="1.1" class="marks" width="156" height="160" viewBox="0 0 156 160"><rect width="156" height="160" fill="white"/><g fill="none" stroke-miterlimit="10" transform="translate(31,5)"><g class="mark-group role-frame root" role="graphics-object" aria-roledescription="group mark container"><g transform="translate(0,0)"><path class="background" aria-hidden="true" d="M0.5,0.5h120v120h-120Z"/><g><g class="mark-group role-axis" role="graphics-symbol" aria-roledescription="axis" aria-label="X-axis titled 'VO2 (mmol/L mito/s)' for a linear scale with values from 0.0 to 1.6"><g transform="translate(0.5,120.5)"><path class="background" aria-hidden="true" d="M0,0h0v0h0Z" pointer-events="none"/><g><g class="mark-rule role-axis-tick" pointer-events="none"><line transform="translate(0,0)" x2="0" y2="3" stroke="black" stroke-width="1" opacity="1"/><line transform="translate(38,0)" x2="0" y2="3" stroke="black" stroke-width="1" opacity="1"/><line transform="translate(75,0)" x2="0" y2="3" stroke="black" stroke-width="1" opacity="1"/><line transform="translate(113,0)" x2="0" y2="3" stroke="black" stroke-width="1" opacity="1"/></g><g class="mark-text role-axis-label" pointer-events="none"><text text-anchor="start" transform="translate(0,13)" font-family="Arial" font-size="10px" fill="#000" opacity="1">0.0</text><text text-anchor="middle" transform="translate(37.5,13)" font-family="Arial" font-size="10px" fill="#000" opacity="1">0.5</text><text text-anchor="middle" transform="translate(75,13)" font-family="Arial" font-size="10px" fill="#000" opacity="1">1.0</text><text text-anchor="middle" transform="translate(112.5,13)" font-family="Arial" font-size="10px" fill="#000" opacity="1">1.5</text></g><g class="mark-rule role-axis-domain" pointer-events="none"><line transform="translate(0,0)" x2="120" y2="0" stroke="black" stroke-width="1" opacity="1"/></g><g class="mark-text role-axis-title" pointer-events="none"><text text-anchor="middle" transform="translate(60,28)" font-family="Arial" font-size="11px" font-weight="normal" fill="#000" opacity="1">VO2 (mmol/L mito/s)</text></g></g><path class="foreground" aria-hidden="true" d="" pointer-events="none" display="none"/></g></g><g class="mark-group role-axis" role="graphics-symbol" aria-roledescription="axis" aria-label="Y-axis titled 'PCr:ATP ratio' for a linear scale with values from 0.0 to 2.4"><g transform="translate(0.5,0.5)"><path class="background" aria-hidden="true" d="M0,0h0v0h0Z" pointer-events="none"/><g><g class="mark-rule role-axis-tick" pointer-events="none"><line transform="translate(0,120)" x2="-3" y2="0" stroke="black" stroke-width="1" opacity="1"/><line transform="translate(0,70)" x2="-3" y2="0" stroke="black" stroke-width="1" opacity="1"/><line transform="translate(0,20)" x2="-3" y2="0" stroke="black" stroke-width="1" opacity="1"/></g><g class="mark-text role-axis-label" pointer-events="none"><text text-anchor="end" transform="translate(-5,123)" font-family="Arial" font-size="10px" fill="#000" opacity="1">0</text><text text-anchor="end" transform="translate(-5,72.99999999999999)" font-family="Arial" font-size="10px" fill="#000" opacity="1">1</text><text text-anchor="end" transform="translate(-5,22.999999999999996)" font-family="Arial" font-size="10px" fill="#000" opacity="1">2</text></g><g class="mark-rule role-axis-domain" pointer-events="none"><line transform="translate(0,120)" x2="0" y2="-120" stroke="black" stroke-width="1" opacity="1"/></g><g class="mark-text role-axis-title" pointer-events="none"><text text-anchor="middle" transform="translate(-15,60) rotate(-90) translate(0,-2)" font-family="Arial" font-size="11px" font-weight="normal" fill="#000" opacity="1">PCr:ATP ratio</text></g></g><path class="foreground" aria-hidden="true" d="" pointer-events="none" display="none"/></g></g><g class="mark-group role-scope layer_0_pathgroup" role="graphics-object" aria-roledescription="group mark container"><g transform="translate(0,0)"><path class="background" aria-hidden="true" d="M0,0h120v120h-120Z"/><g><g class="mark-line role-mark layer_0_marks" role="graphics-object" aria-roledescription="line mark container"><path aria-label="VO2_m: 0.23106662489; PCrATP: 2.31560070136; group: Young" role="graphics-symbol" aria-roledescription="line mark" d="M17.329996866738398,4.219964932116098L19.049694900687847,7.035678333347777L20.75482443646606,9.638587915689524L22.44903088382073,12.06865791721443L24.135098117212454,14.353548732112987L25.815036773964238,16.514015419243222L27.490278729371894,18.566182095823347L29.161837638354463,20.52287062296703L30.83043448726552,22.394476150599015L32.4965883786679,24.189566266721947L34.160672484483676,25.91532354508358L35.82295214495455,27.577844568052967L37.4836205809255,29.18237415997284L39.14281236745645,30.73347592319655L40.80061839727812,32.23516194610053L42.457098568524344,33.690987708730916L44.112282674232084,35.104139613562644L45.766181284657065,36.47748810883269L47.418785514919776,37.81364281530985L49.07007312615118,39.11498733527199L50.72000570407233,40.3837209164097L52.3685333014898,41.6218802006512L54.01559570900469,42.831361511056016L55.66111837074539,44.01395065858233L57.305018667245776,45.171327386004336L58.947201074982985,46.30509240488931L60.587556864352905,47.41677458058782L62.2259683078663,48.50784727008224L63.86230260317085,49.579737619476425L65.49641140816256,50.633844901143725L67.1281325209974,51.6715393340405L68.75728688652559,52.69418510097983L70.3836744829843,53.70314931749802L72.00707688617743,54.69980728867051L73.62724847980942,55.68556694282036L75.24392048560914,56.66187111594573L76.85679251069284,57.63022311838003L78.46552936420407,58.59220076656285L80.06975976154129,59.54947593013091L81.66906539227074,60.50384814289861L83.2629768204832,61.457268977489996L84.85096792855424,62.411877021698736L86.4324401273979,63.37006051972722L88.00672010010432,64.33449210139146L89.57303436212798,65.30824236847388L91.13050226142236,66.29485381212496L92.67810140072443,67.29850207532868L94.2146583993268,68.32418484745337L95.73880188860198,69.37799434933942L97.24890385932932,70.46753819782461L98.74304999437666,71.60253787193507L100.21892328057402,72.79577666100252L101.6736807665745,74.06457862409476L103.10382209512287,75.43323882621785L104.50484455067271,76.93702772353004L105.87093211935617,78.62870268451319L107.1943323087636,80.58886883383656L108.46443363031608,82.94018689908329L109.6662672427134,85.8579233218581L110.77777619341269,89.5463539477914L111.76482084506384,94.11297049004044L112.57547897520674,99.3068235152976L113.15441179532392,104.3402522876231L113.51304617861538,108.29586294242722L113.75191300033154,110.95307336273154L113.934902042154,112.70249638866967L114.075463074348,113.90768708051264L114.18368076391924,114.77438619327941L114.26914302828025,115.420233656649L114.33853905437022,115.91647346046516L114.396256374738,116.30788128484814L114.44522396291103,116.62354824886478L114.48746036223778,116.88298771612754L114.52439712261815,117.09968223088201L114.55707979592256,117.28319947544065L114.58628769085117,117.44049369666679L114.61261504571875,117.57672803593802L114.6365246230136,117.69580903127401L114.65837631083315,117.80074342207911L114.67846450289773,117.89387968739524L114.69702468939334,117.97707804695355L114.714247463039,118.05183004916212L114.7302960583396,118.11934450288749L114.74530376065118,118.18061153885817L114.75938383191135,118.23644941798555L114.77263220579306,118.28754015299232L114.78513159606426,118.33445656573605L114.7969539795902,118.37768320763121L114.80815950561632,118.41763277923577L114.81880351427615,118.4546587429128L114.82893338296489,118.48906569298943L114.83859052623704,118.52111745892711L114.84781219372717,118.55104366758616L114.85663139092746,118.57904511500209L114.86507759367282,118.60529814095011L114.87317757462766,118.62995822653015L114.88095381521431,118.65316302963957L114.88842939332716,118.67503476456791L114.89562326459077,118.69568240810484L114.9025531654442,118.71520339010718" stroke="#009DA3" stroke-width="2"/></g></g><path class="foreground" aria-hidden="true" d="" display="none"/></g><g transform="translate(0,0)"><path class="background" aria-hidden="true" d="M0,0h120v120h-120Z"/><g><g class="mark-line role-mark layer_0_marks" role="graphics-object" aria-roledescription="line mark container"><path aria-label="VO2_m: 0.234769551452; PCrATP: 1.65643362; group: Old" role="graphics-symbol" aria-roledescription="line mark" d="M17.607716358891587,37.17831899981681L19.28236059633763,39.519555935530704L20.947352576324928,41.55854898002687L22.607504020489653,43.40453352544962L24.264882831956037,45.10949158436934L25.92053186608314,46.703556754973505L27.575022802519722,48.20633796122606L29.228681161594526,49.631612443331306L30.881694038889528,50.98960597827973L32.53416497057674,52.28822561763753L34.18614086930228,53.533788087488546L35.83763969419368,54.731462038001936L37.48865083492321,55.88557429339535L39.13914781990956,56.99980602557319L40.78909270523806,58.07733511226416L42.438437967819766,59.12094096254033L44.08712706755653,60.13308238610516L45.735097554099994,61.11595471671984L47.382281473351206,62.07153533548781L49.02860423960838,63.00162059352467L50.67398530498425,63.9078563001356L52.31833948217293,64.79175742592044L53.96157282252065,65.65473353747291L55.60358700012535,66.49809951818715L57.24427584144102,67.32309257050974L58.883522365415374,68.13088744574918L60.52120652635911,68.92260221764018L62.157190482826024,69.69931365357063L63.79133017432811,70.46206228297444L65.42346736339513,71.21186325730177L67.05342980327522,71.94971776229026L68.68102930700975,72.67661423285068L70.30605799333233,73.39354762850395L71.92828953182199,74.10151882275532L73.54747341222838,74.80155102260422L75.16333270789384,75.49469841427889L76.77555944606793,76.18206154582757L78.38381418858171,76.86479346478377L79.9877132681701,77.54413393743988L81.58682949687363,78.2214095914997L83.18068557139159,78.89807230426246L84.76873986007581,79.57572860369389L86.35037641639083,80.25617577663667L87.92490035739715,80.94145734575119L89.49151583363489,81.63392450844064L91.04930662838545,82.33633226520044L92.59721283297856,83.05196378236076L94.13399677995675,83.78479794072577L95.6582299887663,84.53975135211407L97.16818905068223,85.32306402713517L98.66183036324206,86.14282986067941L100.13667627538598,87.00985878453722L101.58968806267283,87.93900966189977L103.0170387009938,88.95140195900784L104.41384359790145,90.07791122250195L105.773677117598,91.36484063158267L107.0878526656368,92.8821460178981L108.344174604634,94.73260142500114L109.52480734277772,97.05076252727193L110.60261605938433,99.95757182205118L111.53684166569356,103.41871188381864L112.27790842846179,107.05305181673634L112.80587308188322,110.21325181010647L113.16896104383265,112.52023229336547L113.42867325825927,114.08656012916315L113.61896097683154,115.15891535083523L113.761947741324,115.91606488952763L113.87305615067373,116.46914350262125L113.96217097496279,116.88635737194747L114.03559752015862,117.21015680272694L114.09744406043657,117.46767819204632L114.15050773038573,117.67679892508055L114.19673121637423,117.84966193780521L114.23751653596032,117.99474678013992L114.27389465043878,118.11812768503482L114.30664202504965,118.22425545629382L114.33635881744387,118.31645775316808L114.36350791366345,118.39726856553463L114.38846250258737,118.46864815668138L114.41151294926382,118.53213602787173L114.43292423755163,118.58895520258267L114.45287575152625,118.64009201936078L114.47154249035489,118.68634756925684L114.48906441865505,118.72838028799606L114.50556097963413,118.76673587388264L114.52113480722664,118.80187031455502L114.5358730073477,118.83416756224435L114.54985214967368,118.86395309200908L114.5631389956638,118.89150461407436L114.57579093690208,118.91706052200708L114.58785975249741,118.94082653695406L114.59939087622595,118.96298113840822L114.6104246346535,118.98367991049874L114.62099746792377,119.00305908003085L114.63114135430119,119.02123844994121L114.6408859038871,119.0383237701758L114.6502570315836,119.05440876301287L114.65927952943699,119.06957674917616L114.66797409518648,119.0839020964089L114.67636073733716,119.09745134588908" stroke="#F98F00" stroke-width="2"/></g></g><path class="foreground" aria-hidden="true" d="" display="none"/></g></g><g class="mark-group role-legend" role="graphics-symbol" aria-roledescription="legend" aria-label="Symbol legend for stroke color with 2 values: Young, Old"><g transform="translate(69,5)"><path class="background" aria-hidden="true" d="M0,0h46v24h-46Z" pointer-events="none"/><g><g class="mark-group role-legend-entry"><g transform="translate(0,0)"><path class="background" aria-hidden="true" d="M0,0h0v0h0Z" pointer-events="none"/><g><g class="mark-group role-scope" role="graphics-object" aria-roledescription="group mark container"><g transform="translate(0,0)"><path class="background" aria-hidden="true" d="M0,0h46v11h-46Z" pointer-events="none" opacity="1"/><g><g class="mark-symbol role-legend-symbol" pointer-events="none"><path transform="translate(6,6)" d="M-5,0L5,0" stroke="#009DA3" stroke-width="1.5" opacity="1"/></g><g class="mark-text role-legend-label" pointer-events="none"><text text-anchor="start" transform="translate(16,9)" font-family="Arial" font-size="10px" fill="#000" opacity="1">Young</text></g></g><path class="foreground" aria-hidden="true" d="" pointer-events="none" display="none"/></g><g transform="translate(0,13)"><path class="background" aria-hidden="true" d="M0,0h46v11h-46Z" pointer-events="none" opacity="1"/><g><g class="mark-symbol role-legend-symbol" pointer-events="none"><path transform="translate(6,6)" d="M-5,0L5,0" stroke="#F98F00" stroke-width="1.5" opacity="1"/></g><g class="mark-text role-legend-label" pointer-events="none"><text text-anchor="start" transform="translate(16,9)" font-family="Arial" font-size="10px" fill="#000" opacity="1">Old</text></g></g><path class="foreground" aria-hidden="true" d="" pointer-events="none" display="none"/></g></g></g><path class="foreground" aria-hidden="true" d="" pointer-events="none" display="none"/></g></g></g><path class="foreground" aria-hidden="true" d="" pointer-events="none" display="none"/></g></g></g><path class="foreground" aria-hidden="true" d="" display="none"/></g></g></g></svg>
