<?xml version="1.0" encoding="utf-8"?>
<!DOCTYPE svg PUBLIC "-//W3C//DTD SVG 1.1//EN" "http://www.w3.org/Graphics/SVG/1.1/DTD/svg11.dtd">
<svg xmlns="http://www.w3.org/2000/svg" xmlns:xlink="http://www.w3.org/1999/xlink" version="1.1" class="marks" width="156" height="160" viewBox="0 0 156 160"><rect width="156" height="160" fill="white"/><g fill="none" stroke-miterlimit="10" transform="translate(31,5)"><g class="mark-group role-frame root" role="graphics-object" aria-roledescription="group mark container"><g transform="translate(0,0)"><path class="background" aria-hidden="true" d="M0.5,0.5h120v120h-120Z"/><g><g class="mark-group role-axis" role="graphics-symbol" aria-roledescription="axis" aria-label="X-axis titled 'VO2 (mmol/L mito/s)' for a linear scale with values from 0.0 to 2.4"><g transform="translate(0.5,120.5)"><path class="background" aria-hidden="true" d="M0,0h0v0h0Z" pointer-events="none"/><g><g class="mark-rule role-axis-tick" pointer-events="none"><line transform="translate(0,0)" x2="0" y2="3" stroke="black" stroke-width="1" opacity="1"/><line transform="translate(50,0)" x2="0" y2="3" stroke="black" stroke-width="1" opacity="1"/><line transform="translate(100,0)" x2="0" y2="3" stroke="black" stroke-width="1" opacity="1"/></g><g class="mark-text role-axis-label" pointer-events="none"><text text-anchor="start" transform="translate(0,13)" font-family="Arial" font-size="10px" fill="#000" opacity="1">0</text><text text-anchor="middle" transform="translate(50,13)" font-family="Arial" font-size="10px" fill="#000" opacity="1">1</text><text text-anchor="middle" transform="translate(100,13)" font-family="Arial" font-size="10px" fill="#000" opacity="1">2</text></g><g class="mark-rule role-axis-domain" pointer-events="none"><line transform="translate(0,0)" x2="120" y2="0" stroke="black" stroke-width="1" opacity="1"/></g><g class="mark-text role-axis-title" pointer-events="none"><text text-anchor="middle" transform="translate(60,28)" font-family="Arial" font-size="11px" font-weight="normal" fill="#000" opacity="1">VO2 (mmol/L mito/s)</text></g></g><path class="foreground" aria-hidden="true" d="" pointer-events="none" display="none"/></g></g><g class="mark-group role-axis" role="graphics-symbol" aria-roledescription="axis" aria-label="Y-axis titled 'PCr:ATP ratio' for a linear scale with values from 0.0 to 2.4"><g transform="translate(0.5,0.5)"><path class="background" aria-hidden="true" d="M0,0h0v0h0Z" pointer-events="none"/><g><g class="mark-rule role-axis-tick" pointer-events="none"><line transform="translate(0,120)" x2="-3" y2="0" stroke="black" stroke-width="1" opacity="1"/><line transform="translate(0,70)" x2="-3" y2="0" stroke="black" stroke-width="1" opacity="1"/><line transform="translate(0,20)" x2="-3" y2="0" stroke="black" stroke-width="1" opacity="1"/></g><g class="mark-text role-axis-label" pointer-events="none"><text text-anchor="end" transform="translate(-5,123)" font-family="Arial" font-size="10px" fill="#000" opacity="1">0</text><text text-anchor="end" transform="translate(-5,72.99999999999999)" font-family="Arial" font-size="10px" fill="#000" opacity="1">1</text><text text-anchor="end" transform="translate(-5,22.999999999999996)" font-family="Arial" font-size="10px" fill="#000" opacity="1">2</text></g><g class="mark-rule role-axis-domain" pointer-events="none"><line transform="translate(0,120)" x2="0" y2="-120" stroke="black" stroke-width="1" opacity="1"/></g><g class="mark-text role-axis-title" pointer-events="none"><text text-anchor="middle" transform="translate(-15,60) rotate(-90) translate(0,-2)" font-family="Arial" font-size="11px" font-weight="normal" fill="#000" opacity="1">PCr:ATP ratio</text></g></g><path class="foreground" aria-hidden="true" d="" pointer-events="none" display="none"/></g></g><g class="mark-group role-scope layer_0_pathgroup" role="graphics-object" aria-roledescription="group mark container"><g transform="translate(0,0)"><path class="background" aria-hidden="true" d="M0,0h120v120h-120Z"/><g><g class="mark-line role-mark layer_0_marks" role="graphics-object" aria-roledescription="line mark container"><path aria-label="VO2: 0.230993178162; PCrATP: 2.31342401978; index: undefined; group: Young" role="graphics-symbol" aria-roledescription="line mark" d="M11.549658908106634,4.328799011147981L18.11335549509145,18.53168474677069L24.558932072867176,29.109166986456234L30.956825276370804,37.80400559636118L37.301018677464164,45.44137576804056L43.54967445718836,52.70922925151523L49.61343720408814,60.28826527948829L55.33979873007167,68.53475365166375L60.54323668363569,77.35508256873153L65.04593091633323,86.17057121926845L68.75636308464527,94.16031420925664L71.67656403831025,100.89906745708936L73.89087374119485,106.12324147952124L75.52291847845213,110.0336512914908L76.69316248122901,112.86351981408805L77.51421522250162,114.84009510257304L78.08239999471049,116.20612162257083L78.46978015800909,117.12947627252079L78.73601503951825,117.74202320729898L78.91776278190464,118.16913733102444L79.03870014935393,118.46023700257624L79.12025547614175,118.65288312036226L79.17687208353846,118.78404163539953L79.21799790875002,118.87478944456831L79.2489167796448,118.94188275818284L79.27226298704794,118.99286326516804L79.29020467226434,119.03217180069606L79.30428508307995,119.0631903257551L79.31555856756259,119.0879437036667L79.32495537440678,119.10783809993363L79.3330799661223,119.12416240627907L79.34030969355034,119.13784243527012L79.34686248507842,119.14950283485189L79.35286631788395,119.15956118771717L79.3584064017004,119.16831060138473L79.36354550748948,119.17596820393779L79.36833276210702,119.18270133237056L79.37280804960716,119.18864260093169L79.3770045336985,119.19389928097328L79.380950257833,119.19855952381694L79.38466923636295,119.20269669211632L79.38818223848526,119.20637248586786L79.39150737315403,119.20963926251665L79.39466053827405,119.21254179761372L79.39765577326698,119.21511864535113L79.40050554070864,119.21740320592532L79.40322095460401,119.21942457376002L79.40581196759625,119.22120821914193L79.40828752605502,119.22277654138438L79.41065569968895,119.22414932166262" stroke="#009DA3" stroke-width="2" opacity="1"/></g></g><path class="foreground" aria-hidden="true" d="" display="none"/></g><g transform="translate(0,0)"><path class="background" aria-hidden="true" d="M0,0h120v120h-120Z"/><g><g class="mark-line role-mark layer_0_marks" role="graphics-object" aria-roledescription="line mark container"><path aria-label="VO2: 0.232292140275; PCrATP: 2.32000486826; index: undefined; group: Old" role="graphics-symbol" aria-roledescription="line mark" d="M11.614607013762807,3.9997565870444607L18.203436643072042,18.165988526721737L24.689118697169015,28.60372502629824L31.145053427260315,37.07461501137242L37.57865877262085,44.28483361549476L43.98336602021489,50.67704165108035L50.339536331317994,56.56327444957128L56.613820309474676,62.215366152451146L62.75215494786006,67.74857870620164L68.68813924341885,73.25582599477974L74.344936473425,78.68502758772058L79.64908633021417,83.95506227993694L84.53823553370412,88.93406091740312L88.97522767866619,93.52751736451597L92.93875916687561,97.67572998383827L96.42799774662643,101.34909655432114L99.45759648730757,104.52001410829081L102.05787214310253,107.20571398037355L104.27124176582593,109.44067948402089L106.14024362772359,111.30045678780749L107.70563571110152,112.82745100773452L109.00980225133002,114.06669081147112L110.0914863161693,115.0704873161259L110.98367680821752,115.88162335480727L111.71478227611759,116.53356379701462L112.31104941952766,117.05628484973889L112.79384603949994,117.47443186846465L113.18390225782272,117.80516414263539L113.49992849738132,118.06585021582113L113.75614576302215,118.27344499518509L113.9633351523687,118.439808847166L114.12949139257114,118.574369662032L114.26114232184348,118.68269594553105L114.36504505824918,118.7690823575818L114.4472503943476,118.83823904077059L114.5124760351245,118.89406772869631L114.56458666868475,118.9392893435564L114.60673904224447,118.97615453311239L114.6413555698,119.00652277459642L114.67028397021792,119.03183858714169L114.69491608590597,119.05321322497376L114.71627037765636,119.07149163765918L114.73507829045171,119.0873055373491L114.75186724086082,119.10112583666887L114.76702391598421,119.11330778292992L114.7808366116677,119.12412405932064L114.79352362768883,119.1337875035418L114.80525314520264,119.14246679578864L114.81615717327551,119.15029754464116L114.82634121681431,119.15739023851154" stroke="#F98F00" stroke-width="2" opacity="1"/></g></g><path class="foreground" aria-hidden="true" d="" display="none"/></g></g><g class="mark-group role-legend" role="graphics-symbol" aria-roledescription="legend" aria-label="Symbol legend for stroke color with 2 values: Young, Old"><g transform="translate(69,5)"><path class="background" aria-hidden="true" d="M0,0h46v24h-46Z" pointer-events="none"/><g><g class="mark-group role-legend-entry"><g transform="translate(0,0)"><path class="background" aria-hidden="true" d="M0,0h0v0h0Z" pointer-events="none"/><g><g class="mark-group role-scope" role="graphics-object" aria-roledescription="group mark container"><g transform="translate(0,0)"><path class="background" aria-hidden="true" d="M0,0h46v11h-46Z" pointer-events="none" opacity="1"/><g><g class="mark-symbol role-legend-symbol" pointer-events="none"><path transform="translate(6,6)" d="M-5,0L5,0" stroke="#009DA3" stroke-width="1.5" opacity="1"/></g><g class="mark-text role-legend-label" pointer-events="none"><text text-anchor="start" transform="translate(16,9)" font-family="Arial" font-size="10px" fill="#000" opacity="1">Young</text></g></g><path class="foreground" aria-hidden="true" d="" pointer-events="none" display="none"/></g><g transform="translate(0,13)"><path class="background" aria-hidden="true" d="M0,0h46v11h-46Z" pointer-events="none" opacity="1"/><g><g class="mark-symbol role-legend-symbol" pointer-events="none"><path transform="translate(6,6)" d="M-5,0L5,0" stroke="#F98F00" stroke-width="1.5" opacity="1"/></g><g class="mark-text role-legend-label" pointer-events="none"><text text-anchor="start" transform="translate(16,9)" font-family="Arial" font-size="10px" fill="#000" opacity="1">Old</text></g></g><path class="foreground" aria-hidden="true" d="" pointer-events="none" display="none"/></g></g></g><path class="foreground" aria-hidden="true" d="" pointer-events="none" display="none"/></g></g></g><path class="foreground" aria-hidden="true" d="" pointer-events="none" display="none"/></g></g></g><path class="foreground" aria-hidden="true" d="" display="none"/></g></g></g></svg>
