<?xml version="1.0" encoding="utf-8"?>
<!DOCTYPE svg PUBLIC "-//W3C//DTD SVG 1.1//EN" "http://www.w3.org/Graphics/SVG/1.1/DTD/svg11.dtd">
<svg xmlns="http://www.w3.org/2000/svg" xmlns:xlink="http://www.w3.org/1999/xlink" version="1.1" class="marks" width="168" height="165" viewBox="0 0 168 165"><rect width="168" height="165" fill="white"/><g fill="none" stroke-miterlimit="10" transform="translate(43,10)"><g class="mark-group role-frame root" role="graphics-object" aria-roledescription="group mark container"><g transform="translate(0,0)"><path class="background" aria-hidden="true" d="M0.5,0.5h120v120h-120Z"/><g><g class="mark-group role-axis" role="graphics-symbol" aria-roledescription="axis" aria-label="X-axis titled 'VO2 (mmol/L mito/s)' for a linear scale with values from 0.0 to 2.4"><g transform="translate(0.5,120.5)"><path class="background" aria-hidden="true" d="M0,0h0v0h0Z" pointer-events="none"/><g><g class="mark-rule role-axis-tick" pointer-events="none"><line transform="translate(0,0)" x2="0" y2="3" stroke="black" stroke-width="1" opacity="1"/><line transform="translate(50,0)" x2="0" y2="3" stroke="black" stroke-width="1" opacity="1"/><line transform="translate(100,0)" x2="0" y2="3" stroke="black" stroke-width="1" opacity="1"/></g><g class="mark-text role-axis-label" pointer-events="none"><text text-anchor="start" transform="translate(0,13)" font-family="Arial" font-size="10px" fill="#000" opacity="1">0</text><text text-anchor="middle" transform="translate(50,13)" font-family="Arial" font-size="10px" fill="#000" opacity="1">1</text><text text-anchor="middle" transform="translate(100,13)" font-family="Arial" font-size="10px" fill="#000" opacity="1">2</text></g><g class="mark-rule role-axis-domain" pointer-events="none"><line transform="translate(0,0)" x2="120" y2="0" stroke="black" stroke-width="1" opacity="1"/></g><g class="mark-text role-axis-title" pointer-events="none"><text text-anchor="middle" transform="translate(60,28)" font-family="Arial" font-size="11px" font-weight="normal" fill="#000" opacity="1">VO2 (mmol/L mito/s)</text></g></g><path class="foreground" aria-hidden="true" d="" pointer-events="none" display="none"/></g></g><g class="mark-group role-axis" role="graphics-symbol" aria-roledescription="axis" aria-label="Y-axis titled 'ADP (μM)' for a linear scale with values from 0 to 300"><g transform="translate(0.5,0.5)"><path class="background" aria-hidden="true" d="M0,0h0v0h0Z" pointer-events="none"/><g><g class="mark-rule role-axis-tick" pointer-events="none"><line transform="translate(0,120)" x2="-3" y2="0" stroke="black" stroke-width="1" opacity="1"/><line transform="translate(0,80)" x2="-3" y2="0" stroke="black" stroke-width="1" opacity="1"/><line transform="translate(0,40)" x2="-3" y2="0" stroke="black" stroke-width="1" opacity="1"/><line transform="translate(0,0)" x2="-3" y2="0" stroke="black" stroke-width="1" opacity="1"/></g><g class="mark-text role-axis-label" pointer-events="none"><text text-anchor="end" transform="translate(-5,123)" font-family="Arial" font-size="10px" fill="#000" opacity="1">0</text><text text-anchor="end" transform="translate(-5,83.00000000000001)" font-family="Arial" font-size="10px" fill="#000" opacity="1">100</text><text text-anchor="end" transform="translate(-5,43.00000000000001)" font-family="Arial" font-size="10px" fill="#000" opacity="1">200</text><text text-anchor="end" transform="translate(-5,3)" font-family="Arial" font-size="10px" fill="#000" opacity="1">300</text></g><g class="mark-rule role-axis-domain" pointer-events="none"><line transform="translate(0,120)" x2="0" y2="-120" stroke="black" stroke-width="1" opacity="1"/></g><g class="mark-text role-axis-title" pointer-events="none"><text text-anchor="middle" transform="translate(-27,60) rotate(-90) translate(0,-2)" font-family="Arial" font-size="11px" font-weight="normal" fill="#000" opacity="1">ADP (μM)</text></g></g><path class="foreground" aria-hidden="true" d="" pointer-events="none" display="none"/></g></g><g class="mark-group role-scope layer_0_pathgroup" role="graphics-object" aria-roledescription="group mark container"><g transform="translate(0,0)"><path class="background" aria-hidden="true" d="M0,0h120v120h-120Z"/><g><g class="mark-line role-mark layer_0_marks" clip-path="url(#clip1)" role="graphics-object" aria-roledescription="line mark container"><path aria-label="VO2: 0.230993178162; ADP: 3.00489128572; index: undefined; group: Young" role="graphics-symbol" aria-roledescription="line mark" d="M11.549658908106634,118.79804348571247L18.11335549509145,117.03427214578012L24.558932072867176,115.36157166820036L30.956825276370804,113.6551569369576L37.301018677464164,111.7151343739986L43.54967445718836,107.93262675170851L49.61343720408814,98.5004196329996L55.33979873007167,76.64535217067629L60.54323668363569,35.859382489650365L65.04593091633323,-28.301920632399174L68.75636308464527,-114.14476543987304L71.67656403831025,-215.7906648349537L73.89087374119485,-325.5361176911272L75.52291847845213,-436.0950845267652L76.69316248122901,-542.7200363935972L77.51421522250162,-642.3484965194449L78.08239999471049,-733.26957273543L78.46978015800909,-815.0639934638617L78.73601503951825,-887.7647923639865L78.91776278190464,-952.0602413970275L79.03870014935393,-1008.8912770504528L79.12025547614175,-1059.0169429039697L79.17687208353846,-1103.1922913263818L79.21799790875002,-1142.1421532169961L79.2489167796448,-1176.5421242722866L79.27226298704794,-1207.0050275635847L79.29020467226434,-1234.0400218893897L79.30428508307995,-1258.0788653749387L79.31555856756259,-1279.491210880357L79.32495537440678,-1298.5888490136492L79.3330799661223,-1315.6412440819458L79.34030969355034,-1330.881973760837L79.34686248507842,-1344.513926147102L79.35286631788395,-1356.713337453916L79.3584064017004,-1367.633419744811L79.36354550748948,-1377.4077475903673L79.36833276210702,-1386.1531943488353L79.37280804960716,-1393.9723977055496L79.3770045336985,-1400.9558143735642L79.380950257833,-1407.1834339479071L79.38466923636295,-1412.7262137276282L79.38818223848526,-1417.6472853974549L79.39150737315403,-1422.0029746092684L79.39466053827405,-1425.8436664286062L79.39765577326698,-1429.2145431675708L79.40050554070864,-1432.1562160319324L79.40322095460401,-1434.705267984859L79.40581196759625,-1436.8947220313084L79.40828752605502,-1438.7544465804403L79.41065569968895,-1440.3115075004546" stroke="#009DA3" stroke-width="2" opacity="1"/></g></g><path class="foreground" aria-hidden="true" d="" display="none"/></g><g transform="translate(0,0)"><path class="background" aria-hidden="true" d="M0,0h120v120h-120Z"/><g><g class="mark-line role-mark layer_0_marks" clip-path="url(#clip2)" role="graphics-object" aria-roledescription="line mark container"><path aria-label="VO2: 0.232292140275; ADP: 2.9111200192; index: undefined; group: Old" role="graphics-symbol" aria-roledescription="line mark" d="M11.614607013762807,118.83555199232079L18.203436643072042,117.09188735412089L24.689118697169015,115.46401385852971L31.145053427260315,113.83833033277902L37.57865877262085,112.1310940521706L43.98336602021489,110.14139228629912L50.339536331317994,107.00774870061235L56.613820309474676,101.5635400819604L62.75215494786006,91.78744475502475L68.68813924341885,75.8763843071172L74.344936473425,52.06779165310326L79.64908633021417,19.351669114174207L84.53823553370412,-22.537529961241614L88.97522767866619,-72.63512341364529L92.93875916687561,-129.7716938777885L96.42799774662643,-192.35692887958055L99.45759648730757,-258.7675997960068L102.05787214310253,-327.2823666764034L104.27124176582593,-396.21854205425416L106.14024362772359,-464.3159040755409L107.70563571110152,-530.6855255922887L109.00980225133002,-594.568817581334L110.0914863161693,-655.4545276529647L110.98367680821752,-713.0791556587814L111.71478227611759,-767.3390305234494L112.31104941952766,-818.1848577563577L112.79384603949994,-865.6829830335465L113.18390225782272,-909.8984369434528L113.49992849738132,-950.9159420596391L113.75614576302215,-988.8904169769573L113.9633351523687,-1024.0157399157888L114.12949139257114,-1056.5038683009589L114.26114232184348,-1086.560733999702L114.36504505824918,-1114.3558090863517L114.4472503943476,-1140.04416427057L114.5124760351245,-1163.7808405697076L114.56458666868475,-1185.7133422804045L114.60673904224447,-1205.9800691117803L114.6413555698,-1224.7122352715535L114.67028397021792,-1242.032745179676L114.69491608590597,-1258.0557884878137L114.71627037765636,-1272.8869882684733L114.73507829045171,-1286.6234673271072L114.75186724086082,-1299.3539647909513L114.76702391598421,-1311.1592030696963L114.7808366116677,-1322.1124617634055L114.79352362768883,-1332.2802273971142L114.80525314520264,-1341.722838796107L114.81615717327551,-1350.4950988497856L114.82634121681431,-1358.646840527612" stroke="#F98F00" stroke-width="2" opacity="1"/></g></g><path class="foreground" aria-hidden="true" d="" display="none"/></g></g><g class="mark-group role-legend" role="graphics-symbol" aria-roledescription="legend" aria-label="Symbol legend for stroke color with 2 values: Young, Old"><g transform="translate(69,91)"><path class="background" aria-hidden="true" d="M0,0h46v24h-46Z" pointer-events="none"/><g><g class="mark-group role-legend-entry"><g transform="translate(0,0)"><path class="background" aria-hidden="true" d="M0,0h0v0h0Z" pointer-events="none"/><g><g class="mark-group role-scope" role="graphics-object" aria-roledescription="group mark container"><g transform="translate(0,0)"><path class="background" aria-hidden="true" d="M0,0h46v11h-46Z" pointer-events="none" opacity="1"/><g><g class="mark-symbol role-legend-symbol" pointer-events="none"><path transform="translate(6,6)" d="M-5,0L5,0" stroke="#009DA3" stroke-width="1.5" opacity="1"/></g><g class="mark-text role-legend-label" pointer-events="none"><text text-anchor="start" transform="translate(16,9)" font-family="Arial" font-size="10px" fill="#000" opacity="1">Young</text></g></g><path class="foreground" aria-hidden="true" d="" pointer-events="none" display="none"/></g><g transform="translate(0,13)"><path class="background" aria-hidden="true" d="M0,0h46v11h-46Z" pointer-events="none" opacity="1"/><g><g class="mark-symbol role-legend-symbol" pointer-events="none"><path transform="translate(6,6)" d="M-5,0L5,0" stroke="#F98F00" stroke-width="1.5" opacity="1"/></g><g class="mark-text role-legend-label" pointer-events="none"><text text-anchor="start" transform="translate(16,9)" font-family="Arial" font-size="10px" fill="#000" opacity="1">Old</text></g></g><path class="foreground" aria-hidden="true" d="" pointer-events="none" display="none"/></g></g></g><path class="foreground" aria-hidden="true" d="" pointer-events="none" display="none"/></g></g></g><path class="foreground" aria-hidden="true" d="" pointer-events="none" display="none"/></g></g></g><path class="foreground" aria-hidden="true" d="" display="none"/></g></g></g><defs><clipPath id="clip1"><rect x="0" y="0" width="120" height="120"/></clipPath><clipPath id="clip2"><rect x="0" y="0" width="120" height="120"/></clipPath></defs></svg>
