<?xml version="1.0" encoding="utf-8"?>
<!DOCTYPE svg PUBLIC "-//W3C//DTD SVG 1.1//EN" "http://www.w3.org/Graphics/SVG/1.1/DTD/svg11.dtd">
<svg xmlns="http://www.w3.org/2000/svg" xmlns:xlink="http://www.w3.org/1999/xlink" version="1.1" class="marks" width="168" height="165" viewBox="0 0 168 165"><rect width="168" height="165" fill="white"/><g fill="none" stroke-miterlimit="10" transform="translate(43,10)"><g class="mark-group role-frame root" role="graphics-object" aria-roledescription="group mark container"><g transform="translate(0,0)"><path class="background" aria-hidden="true" d="M0.5,0.5h120v120h-120Z"/><g><g class="mark-group role-axis" role="graphics-symbol" aria-roledescription="axis" aria-label="X-axis titled 'VO2 (mmol/L mito/s)' for a linear scale with values from 0.0 to 2.8"><g transform="translate(0.5,120.5)"><path class="background" aria-hidden="true" d="M0,0h0v0h0Z" pointer-events="none"/><g><g class="mark-rule role-axis-tick" pointer-events="none"><line transform="translate(0,0)" x2="0" y2="3" stroke="black" stroke-width="1" opacity="1"/><line transform="translate(43,0)" x2="0" y2="3" stroke="black" stroke-width="1" opacity="1"/><line transform="translate(86,0)" x2="0" y2="3" stroke="black" stroke-width="1" opacity="1"/></g><g class="mark-text role-axis-label" pointer-events="none"><text text-anchor="start" transform="translate(0,13)" font-family="Arial" font-size="10px" fill="#000" opacity="1">0</text><text text-anchor="middle" transform="translate(42.85714285714286,13)" font-family="Arial" font-size="10px" fill="#000" opacity="1">1</text><text text-anchor="middle" transform="translate(85.71428571428572,13)" font-family="Arial" font-size="10px" fill="#000" opacity="1">2</text></g><g class="mark-rule role-axis-domain" pointer-events="none"><line transform="translate(0,0)" x2="120" y2="0" stroke="black" stroke-width="1" opacity="1"/></g><g class="mark-text role-axis-title" pointer-events="none"><text text-anchor="middle" transform="translate(60,28)" font-family="Arial" font-size="11px" font-weight="normal" fill="#000" opacity="1">VO2 (mmol/L mito/s)</text></g></g><path class="foreground" aria-hidden="true" d="" pointer-events="none" display="none"/></g></g><g class="mark-group role-axis" role="graphics-symbol" aria-roledescription="axis" aria-label="Y-axis titled 'ADP (μM)' for a linear scale with values from 0 to 100"><g transform="translate(0.5,0.5)"><path class="background" aria-hidden="true" d="M0,0h0v0h0Z" pointer-events="none"/><g><g class="mark-rule role-axis-tick" pointer-events="none"><line transform="translate(0,120)" x2="-3" y2="0" stroke="black" stroke-width="1" opacity="1"/><line transform="translate(0,60)" x2="-3" y2="0" stroke="black" stroke-width="1" opacity="1"/><line transform="translate(0,0)" x2="-3" y2="0" stroke="black" stroke-width="1" opacity="1"/></g><g class="mark-text role-axis-label" pointer-events="none"><text text-anchor="end" transform="translate(-5,123)" font-family="Arial" font-size="10px" fill="#000" opacity="1">0</text><text text-anchor="end" transform="translate(-5,63)" font-family="Arial" font-size="10px" fill="#000" opacity="1">50</text><text text-anchor="end" transform="translate(-5,3)" font-family="Arial" font-size="10px" fill="#000" opacity="1">100</text></g><g class="mark-rule role-axis-domain" pointer-events="none"><line transform="translate(0,120)" x2="0" y2="-120" stroke="black" stroke-width="1" opacity="1"/></g><g class="mark-text role-axis-title" pointer-events="none"><text text-anchor="middle" transform="translate(-27,60) rotate(-90) translate(0,-2)" font-family="Arial" font-size="11px" font-weight="normal" fill="#000" opacity="1">ADP (μM)</text></g></g><path class="foreground" aria-hidden="true" d="" pointer-events="none" display="none"/></g></g><g class="mark-group role-scope layer_0_pathgroup" role="graphics-object" aria-roledescription="group mark container"><g transform="translate(0,0)"><path class="background" aria-hidden="true" d="M0,0h120v120h-120Z"/><g><g class="mark-line role-mark layer_0_marks" clip-path="url(#clip1)" role="graphics-object" aria-roledescription="line mark container"><path aria-label="VO2_m: 0.233206887263; ADP_μ: 2.9533638312; group: Young" role="graphics-symbol" aria-roledescription="line mark" d="M9.994580882699838,116.45596340255406L11.395888031036415,115.12291935028256L12.78590911832256,113.84842380245968L14.168362324805365,112.6117888976666L15.545735394979621,111.40106520468296L16.91961316952895,110.20827728941104L18.290996664725867,109.0277534130858L19.660529256045837,107.85528462983645L21.028627636895756,106.68762773794504L22.395564413419965,105.5222006620614L23.761517714962174,104.35688222579695L25.12660227544195,103.18987975092013L26.49088846119258,102.01963527015153L27.85441549338565,100.84476001596305L29.21719956151848,99.6639854574717L30.579239493051105,98.47612553971052L31.94052093684029,97.28004940984566L33.301018261286835,96.07465322626362L34.66069605282336,94.85884435403312L36.01951151216218,93.63152164320199L37.37741338686096,92.39155620484016L38.73434381622222,91.13778104317278L40.0902366293894,89.86896730915102L41.44501857148718,88.58381290987994L42.79860827905569,87.2809227881942L44.15091591610786,85.95878983107572L45.50184149846631,84.61576794594542L46.85127528990515,83.25005315280272L48.199094907718404,81.85964823625712L49.54516583178468,80.442330093102L50.88933757294509,78.99560529696194L52.231443392651485,77.5166665760305L53.57129637639556,76.00232181327829L54.908687499135944,74.44892706718774L56.243381863859284,72.852297287002L57.575113621752735,71.20757478795088L58.90358321254139,69.5091119391815L60.228448751407825,67.75026200229577L61.54931941033089,65.9231506992008L62.865746003560695,64.01835973368303L64.17721114117319,62.02452284454442L65.48311037965165,59.92772682770129L66.78273784784368,57.710756904360764L68.0752577227957,55.351967527179504L69.35967566124006,52.82366596210999L70.6347924689414,50.08966902260227L71.89914321640003,47.101572791482795L73.15091840741842,43.79264885188692L74.38782752696953,40.06767837093559L75.60691359621264,35.78486538599604L76.8042345017004,30.722225820879995L77.9743320707641,24.511180680890273L79.10927649312832,16.498749400685263L80.1968830188015,5.449886477074899L81.21735471536631,-11.09020635103561L82.13769945773173,-37.98872627655516L82.90776006512404,-83.66778703761521L83.479765722065,-157.12751740976003L83.86397684708143,-257.79048286153176L84.12016617821136,-375.2424677643763L84.2956900725382,-500.1963151981296L84.42073221994454,-626.8147546429227L84.51394976649459,-751.8097749243062L84.58629272114135,-873.511422110259L84.64431886922108,-991.1403266778304L84.6921216724634,-1104.3913129694315L84.73237153671597,-1213.2106919414107L84.76687601690249,-1317.678048126301L84.79690002687603,-1417.941542640046L84.8233550047871,-1514.1820359602154L84.84691487836929,-1606.5929913607154L84.86808846820027,-1695.369322106458L84.88726757131597,-1780.7011749786818L84.90475979198163,-1862.7705973809848L84.92080895725486,-1941.7501143352722L84.93561232505868,-2017.8020113442496L84.94933064068985,-2091.0784264442314L84.96209666068059,-2161.7216416548185L84.9740210369184,-2229.8645889480904L84.98519678396596,-2295.6314320206393L84.99570288301511,-2359.138157293697L85.00560680055493,-2420.4931806343034L85.01496676880504,-2479.7979080109226L85.0238330845775,-2537.1472949176714L85.03224788224738,-2592.630449708985L85.04025398211681,-2646.330587597395L85.04788037340236,-2698.32645314265L85.05516039278758,-2748.691582389763L85.0621192058749,-2797.4954925056204L85.06878119332907,-2844.8035704359913L85.07516407088615,-2890.677741187974L85.0812928185917,-2935.1759502947575L85.08718132832345,-2978.353486499071L85.09284580394615,-3020.2624463512498L85.09830056674834,-3060.952193420458L85.10355852920533,-3100.469528230001L85.10863136984851,-3138.858858596603L85.11352998878597,-3176.1623408384767L85.11826353973471,-3212.4200787870195L85.12284383474255,-3247.6700473782066" stroke="#009DA3" stroke-width="2"/></g></g><path class="foreground" aria-hidden="true" d="" display="none"/></g><g transform="translate(0,0)"><path class="background" aria-hidden="true" d="M0,0h120v120h-120Z"/><g><g class="mark-line role-mark layer_0_marks" clip-path="url(#clip2)" role="graphics-object" aria-roledescription="line mark container"><path aria-label="VO2_m: 0.233632276542; ADP_μ: 2.87881361494; group: Old" role="graphics-symbol" aria-roledescription="line mark" d="M10.012811851787824,116.54542366207686L11.4203849000619,115.21164127985912L12.817069948495538,113.93978773293811L14.206067387517772,112.708786232485L15.589842645340447,111.50633766291946L16.970035439107114,110.32418672836113L18.34771113639525,109.15648938109014L19.723564597652608,107.99895465049829L21.09805584164534,106.84832789076123L22.471494597125044,105.7020680009327L23.844092619957685,104.5581377826879L25.215995012830277,103.41486447347877L26.587303441037356,102.27084267138837L27.958086879149597,101.12486831695513L29.328392356844688,99.975888897322L30.698250932836824,98.8229691364873L32.06768118885445,97.66526210034422L33.43669328247934,96.50199142711834L34.80529035363854,95.33243318713578L36.17347033818676,94.15590418848765L37.54122663426299,92.97175167436174L38.90854983372147,91.7793441715865L40.27542727086749,90.57806478554902L41.64184439729061,89.36730645841867L43.00778453588603,88.14646512195823L44.373228864595504,86.9149332746101L45.73815721773813,85.67209939591477L47.10254784275028,84.41734116922407L48.46637757515679,83.15002282026015L49.82962140895721,81.86948875950958L51.19225336804302,80.57506434252743L52.55424564095001,79.26604702407714L53.915568759582094,77.94170484483584L55.27619170560031,76.60127178581007L56.63608182383172,75.2439438128705L57.995204254997944,73.86887178421904L59.35352230604654,72.475158824669L60.710997126564585,71.06185324772387L62.0675873329275,69.62794166256481L63.423249142059376,68.17234375457264L64.77793515404774,66.69389670408108L66.13159632075646,65.19136441393469L67.48417883606129,63.66340462693464L68.83562600486776,62.108575396499944L70.18587621243483,60.525312737221164L71.53486501173748,58.9119191699L72.88252053710566,57.26654676595396L74.22876695744597,55.58717708030659L75.57352122437372,53.871600057308406L76.91669613784033,52.11738540928375L78.25819285968991,50.321858354064915L79.59790650123573,48.482053811208786L80.93572189378858,46.594686270907616L82.27151301679052,44.65608766183793L83.60514190606979,42.66216351358598L84.93645645249259,40.60830110025988L86.26528839491714,38.48930308152643L87.59145177515477,36.299269579928584L88.91473994582634,34.03147791869333L90.2349209790889,31.678199669710633L91.55173609502111,29.230540889066006L92.86489482494704,26.67815474169445L94.17406639768511,24.008924879200645L95.47890292920668,21.208537391676792L96.77887929140388,18.25994673054229L98.07359409259044,15.142659395121996L99.36243360413295,11.831668019065527L100.64471712027813,8.296192677738397L101.9196349284217,4.497699479844064L103.18621759592048,0.3872591407015813L104.44328158799132,-4.09844748393291L105.68936508147877,-9.042902388964489L106.92263430211132,-14.558601371544677L108.14070302755269,-20.80073580727695L109.34047867419108,-27.988750387903877L110.5177559186252,-36.44062711144681L111.66673872437136,-46.62768694460554L112.77924241556117,-59.260017068375646L113.84361053888837,-75.4096434598139L114.84351376381,-96.6519506483701L115.75759524070466,-125.12294463133601L116.5621030950685,-163.2384182962624L117.23855723904565,-212.83347880313846L117.78302473020615,-274.09551848327834L118.20827054112543,-345.3178206471539L118.53667695082765,-423.7440951763365L118.79149507813244,-506.608877804885L118.99204897180961,-591.6923652303077L119.15279325210506,-677.4095781512087L119.28406767045206,-762.6984568903031L119.39319512298975,-846.8729036117996L119.4853836547819,-929.5036325970611L119.56438698910794,-1010.3322974157666L119.6329556201808,-1089.2135012411725L119.6931346553958,-1166.0767009462993L119.74647306521702,-1240.900380795883L119.79416155599495,-1313.6952429821788L119.83712880508473,-1384.4929049344385L119.8761083755388,-1453.3383231393152L119.9116874298129,-1520.284601135908" stroke="#F98F00" stroke-width="2"/></g></g><path class="foreground" aria-hidden="true" d="" display="none"/></g></g><g class="mark-group role-legend" role="graphics-symbol" aria-roledescription="legend" aria-label="Symbol legend for stroke color with 2 values: Young, Old"><g transform="translate(5,5)"><path class="background" aria-hidden="true" d="M0,0h46v24h-46Z" pointer-events="none"/><g><g class="mark-group role-legend-entry"><g transform="translate(0,0)"><path class="background" aria-hidden="true" d="M0,0h0v0h0Z" pointer-events="none"/><g><g class="mark-group role-scope" role="graphics-object" aria-roledescription="group mark container"><g transform="translate(0,0)"><path class="background" aria-hidden="true" d="M0,0h46v11h-46Z" pointer-events="none" opacity="1"/><g><g class="mark-symbol role-legend-symbol" pointer-events="none"><path transform="translate(6,6)" d="M-5,0L5,0" stroke="#009DA3" stroke-width="1.5" opacity="1"/></g><g class="mark-text role-legend-label" pointer-events="none"><text text-anchor="start" transform="translate(16,9)" font-family="Arial" font-size="10px" fill="#000" opacity="1">Young</text></g></g><path class="foreground" aria-hidden="true" d="" pointer-events="none" display="none"/></g><g transform="translate(0,13)"><path class="background" aria-hidden="true" d="M0,0h46v11h-46Z" pointer-events="none" opacity="1"/><g><g class="mark-symbol role-legend-symbol" pointer-events="none"><path transform="translate(6,6)" d="M-5,0L5,0" stroke="#F98F00" stroke-width="1.5" opacity="1"/></g><g class="mark-text role-legend-label" pointer-events="none"><text text-anchor="start" transform="translate(16,9)" font-family="Arial" font-size="10px" fill="#000" opacity="1">Old</text></g></g><path class="foreground" aria-hidden="true" d="" pointer-events="none" display="none"/></g></g></g><path class="foreground" aria-hidden="true" d="" pointer-events="none" display="none"/></g></g></g><path class="foreground" aria-hidden="true" d="" pointer-events="none" display="none"/></g></g></g><path class="foreground" aria-hidden="true" d="" display="none"/></g></g></g><defs><clipPath id="clip1"><rect x="0" y="0" width="120" height="120"/></clipPath><clipPath id="clip2"><rect x="0" y="0" width="120" height="120"/></clipPath></defs></svg>
