<?xml version="1.0" encoding="utf-8"?>
<!DOCTYPE svg PUBLIC "-//W3C//DTD SVG 1.1//EN" "http://www.w3.org/Graphics/SVG/1.1/DTD/svg11.dtd">
<svg xmlns="http://www.w3.org/2000/svg" xmlns:xlink="http://www.w3.org/1999/xlink" version="1.1" class="marks" width="168" height="165" viewBox="0 0 168 165"><rect width="168" height="165" fill="white"/><g fill="none" stroke-miterlimit="10" transform="translate(43,10)"><g class="mark-group role-frame root" role="graphics-object" aria-roledescription="group mark container"><g transform="translate(0,0)"><path class="background" aria-hidden="true" d="M0.5,0.5h120v120h-120Z"/><g><g class="mark-group role-axis" role="graphics-symbol" aria-roledescription="axis" aria-label="X-axis titled 'VO2 (mmol/L mito/s)' for a linear scale with values from 0.0 to 1.6"><g transform="translate(0.5,120.5)"><path class="background" aria-hidden="true" d="M0,0h0v0h0Z" pointer-events="none"/><g><g class="mark-rule role-axis-tick" pointer-events="none"><line transform="translate(0,0)" x2="0" y2="3" stroke="black" stroke-width="1" opacity="1"/><line transform="translate(38,0)" x2="0" y2="3" stroke="black" stroke-width="1" opacity="1"/><line transform="translate(75,0)" x2="0" y2="3" stroke="black" stroke-width="1" opacity="1"/><line transform="translate(113,0)" x2="0" y2="3" stroke="black" stroke-width="1" opacity="1"/></g><g class="mark-text role-axis-label" pointer-events="none"><text text-anchor="start" transform="translate(0,13)" font-family="Arial" font-size="10px" fill="#000" opacity="1">0.0</text><text text-anchor="middle" transform="translate(37.5,13)" font-family="Arial" font-size="10px" fill="#000" opacity="1">0.5</text><text text-anchor="middle" transform="translate(75,13)" font-family="Arial" font-size="10px" fill="#000" opacity="1">1.0</text><text text-anchor="middle" transform="translate(112.5,13)" font-family="Arial" font-size="10px" fill="#000" opacity="1">1.5</text></g><g class="mark-rule role-axis-domain" pointer-events="none"><line transform="translate(0,0)" x2="120" y2="0" stroke="black" stroke-width="1" opacity="1"/></g><g class="mark-text role-axis-title" pointer-events="none"><text text-anchor="middle" transform="translate(60,28)" font-family="Arial" font-size="11px" font-weight="normal" fill="#000" opacity="1">VO2 (mmol/L mito/s)</text></g></g><path class="foreground" aria-hidden="true" d="" pointer-events="none" display="none"/></g></g><g class="mark-group role-axis" role="graphics-symbol" aria-roledescription="axis" aria-label="Y-axis titled 'ADP (μM)' for a linear scale with values from 0 to 100"><g transform="translate(0.5,0.5)"><path class="background" aria-hidden="true" d="M0,0h0v0h0Z" pointer-events="none"/><g><g class="mark-rule role-axis-tick" pointer-events="none"><line transform="translate(0,120)" x2="-3" y2="0" stroke="black" stroke-width="1" opacity="1"/><line transform="translate(0,60)" x2="-3" y2="0" stroke="black" stroke-width="1" opacity="1"/><line transform="translate(0,0)" x2="-3" y2="0" stroke="black" stroke-width="1" opacity="1"/></g><g class="mark-text role-axis-label" pointer-events="none"><text text-anchor="end" transform="translate(-5,123)" font-family="Arial" font-size="10px" fill="#000" opacity="1">0</text><text text-anchor="end" transform="translate(-5,63)" font-family="Arial" font-size="10px" fill="#000" opacity="1">50</text><text text-anchor="end" transform="translate(-5,3)" font-family="Arial" font-size="10px" fill="#000" opacity="1">100</text></g><g class="mark-rule role-axis-domain" pointer-events="none"><line transform="translate(0,120)" x2="0" y2="-120" stroke="black" stroke-width="1" opacity="1"/></g><g class="mark-text role-axis-title" pointer-events="none"><text text-anchor="middle" transform="translate(-27,60) rotate(-90) translate(0,-2)" font-family="Arial" font-size="11px" font-weight="normal" fill="#000" opacity="1">ADP (μM)</text></g></g><path class="foreground" aria-hidden="true" d="" pointer-events="none" display="none"/></g></g><g class="mark-group role-scope layer_0_pathgroup" role="graphics-object" aria-roledescription="group mark container"><g transform="translate(0,0)"><path class="background" aria-hidden="true" d="M0,0h120v120h-120Z"/><g><g class="mark-line role-mark layer_0_marks" clip-path="url(#clip1)" role="graphics-object" aria-roledescription="line mark container"><path aria-label="VO2_m: 0.227415693306; ADP_μ: 3.00249338593; group: Young" role="graphics-symbol" aria-roledescription="line mark" d="M17.05617699798076,116.39700793687813L19.53507642506465,115.04930855277408L21.973930035165054,113.74613635482622L24.386575383457792,112.47368626735832L26.781561911955812,111.22115704055898L29.163807701701867,109.9801115478126L31.53610113481474,108.74384702110453L33.899971173732595,107.50679196628553L36.256161619412886,106.26403333713378L38.604897524622594,105.01096435623217L40.94602245154192,103.74299620206773L43.27907483450887,102.4553076462507L45.603307556011906,101.14257822474794L47.91770101808702,99.79871348317002L50.22093600571835,98.41649635137324L52.511356705010165,96.9871345776103L54.78690696141276,95.49965158956286L57.045044374873676,93.94001306590877L59.282627005788584,92.28984760528894L61.49574616206762,90.52444764992087L63.67951436409349,88.60957251140492L65.82776500889693,86.49587751982976L67.93256374227555,84.10849309104289L69.98346760848605,81.32542008361057L71.96621264005411,77.92727901774614L73.86052871006515,73.4642906264994L75.63738335824902,66.85740816497245L77.25831307278155,55.09886425914451L78.67479609883799,29.125217418617012L79.76404746076089,-38.78566958839113L80.16632784693724,-474.0498508434314L80.17929016906402,-215.7552101200539L80.26143381101717,-713.3755902374675L80.34570147685339,-938.1849638467692L80.40670330655827,-1148.4503891782906L80.45301585114878,-1343.8091654295872L80.48981373058764,-1525.0053754975297L80.52006038171255,-1693.158384555815L80.54556253951164,-1849.4383723652581L80.56749485210624,-1994.9482647337734L80.58664520112583,-2130.6870594459233L80.60358751162758,-2257.5460710045063L80.6187303550254,-2376.315408031064L80.63237783740891,-2487.6953944889465L80.64477509030405,-2592.3063856024332L80.65610372100663,-2690.700990382596L80.66651503338997,-2783.371767554203L80.67612789949644,-2870.7599219370977L80.68504156318073,-2953.261618630671L80.69333841963271,-3031.233849359637L80.70108817120227,-3104.9992706745506L80.70834646047389,-3174.850584388717L80.71516406674996,-3241.053676953323L80.72158605736128,-3303.8508269006675L80.72764656438704,-3363.463654687058L80.73338027351097,-3420.0948530106884L80.73881424263385,-3473.9306113458665L80.7439730733427,-3525.142105465099L80.74887549924665,-3573.887176678856L80.75355338110049,-3620.310863142041L80.75801193906929,-3664.548275480981L80.76227098871325,-3706.723874675844L80.76634473611539,-3746.9532589285027L80.77024660036354,-3785.3437809734323L80.77398608596108,-3821.995390970368L80.77757568652376,-3857.00103746753L80.78102446530453,-3890.447485762303L80.78435045387559,-3922.415430881022L80.78753419836326,-3952.9814625778936L80.79061001769219,-3982.215561781593L80.79357586655462,-4010.184378423965L80.79643779438435,-4036.950153326402L80.79920132200036,-4062.5713097379894L80.80187277484625,-4087.1027059282683L80.80445615216848,-4110.595982059191L80.80695556926582,-4133.099729886317L80.80937666217108,-4154.659678484488L80.81172262689266,-4175.318993808574L80.81399680390899,-4195.118393955243L80.81620314971934,-4214.096308119733L80.81834547817678,-4232.28904956163L80.82042341821658,-4249.731041324934L80.82244787559692,-4266.454628378182L80.82440869028976,-4282.490834500614L80.82631895562446,-4297.868632196381L80.82817781300744,-4312.61573616202L80.82998700894694,-4326.758392939244L80.83174901631607,-4340.32150540117L80.83346547592191,-4353.3287397724935L80.83513881725055,-4365.802574265325L80.83677005169129,-4377.764406220698L80.83836077293375,-4389.234583199334L80.83991400547046,-4400.232453294739L80.8414310052692,-4410.776470401252L80.84290939287004,-4420.884267682811L80.84435451010992,-4430.572550499017L80.84576678683686,-4439.857318466069L80.84714745364832,-4448.753829137493L80.84849650367265,-4457.27666321232L80.84981643855612,-4465.439716899169" stroke="#009DA3" stroke-width="2"/></g></g><path class="foreground" aria-hidden="true" d="" display="none"/></g><g transform="translate(0,0)"><path class="background" aria-hidden="true" d="M0,0h120v120h-120Z"/><g><g class="mark-line role-mark layer_0_marks" clip-path="url(#clip2)" role="graphics-object" aria-roledescription="line mark container"><path aria-label="VO2_m: 0.229565907116; ADP_μ: 2.91707992941; group: Old" role="graphics-symbol" aria-roledescription="line mark" d="M17.217443033729623,116.49950408471108L19.70128109274029,115.15571008675846L22.151533388546603,113.8642571462007L24.579438033126642,112.60940515276164L26.992586660330936,111.37991959003709L29.395619329819763,110.16752827810843L31.791344600040617,108.9660690481595L34.1814899729455,107.77082511408176L36.56713058679984,106.57805390174957L38.948938658613464,105.3846726307288L41.327317772580514,104.1880325048211L43.70249761178624,102.98577853835198L46.074577935794416,101.77573006423697L48.44356650770207,100.55580158279133L50.80939640505308,99.32393403799885L53.17193839460913,98.07803502588666L55.531009885356525,96.81592780879559L57.88637406688258,95.5352905877765L60.23774597376972,94.23360988644609L62.58478633807675,92.90811081412862L64.9270999361506,91.55568955662572L67.26422922149162,90.17282657268109L69.59564636469587,88.75548369768323L71.92074472652772,87.29897938844884L74.23882220755445,85.79781481332456L76.5490700731603,84.24547643188598L78.85054659500356,82.63414167508301L81.14215578339754,80.9543171823018L83.42261363350407,79.19431184477523L85.6903872948887,77.33952187710108L87.94367488691745,75.37137598093697L90.18028910160533,73.26577928881166L92.39757603475212,70.99069196488495L94.59225642674232,68.50224929310923L96.76022265531205,65.73812609949054L98.896222942039,62.60560718767324L100.99335699844573,58.95853770306142L103.04228466360715,54.549279203326L105.02985834975684,48.919923981095394L106.93673758944544,41.13539107371513L108.73278625825147,29.0871965661345L110.36734434733887,7.696430971580854L111.74796453840271,-34.911947400003584L112.72859698391066,-119.7178140155157L113.27907856863887,-254.73501460059504L113.60977015651265,-413.99814196879015L113.83020344372765,-579.1744729671739L113.98179906590418,-742.6154942728177L114.09231766492816,-900.495549314574L114.17710237575136,-1051.3046242350945L114.2447482078496,-1194.642560623436L114.30037666038318,-1330.6087823489624L114.34722245696527,-1459.519745325294L114.38742788307505,-1581.7768269872402L114.42247378469341,-1697.8029118901711L114.45340758250337,-1808.013283931987L114.4810095795361,-1912.8006147375295L114.50585884190949,-2012.5310641619856L114.52840392960756,-2107.5420471606926L114.54899320757139,-2198.1437108821747L114.56790724885587,-2284.619976007202L114.58537026294891,-2367.231129369402L114.60156329601351,-2446.2158823852697L114.6166386831426,-2521.7931554096804L114.63073316370833,-2594.163708389757L114.64394136026452,-2663.513449094913L114.65635813360446,-2730.0130729884604L114.66806343439931,-2793.8203877962046L114.67912379816815,-2855.081584708224L114.68959764739662,-2913.932183046638L114.6995362266604,-2970.4980437418308L114.70898447936462,-3024.8962588052873L114.71798211473327,-3077.235928837601L114.72656419973863,-3127.618867573252L114.73476200323252,-3176.1402164786855L114.74260466744323,-3222.888961624319L114.75011616911378,-3267.9485646192443L114.75731978284696,-3311.3972606012835L114.76423578240532,-3353.308560742398L114.7708833285219,-3393.751562401904L114.77727881240511,-3432.7913456494407L114.78343807229878,-3470.4892058509286L114.7893749669509,-3506.9029808685045L114.79510265154671,-3542.087263411359L114.80063305887296,-3576.0936493331283L114.8059773443807,-3608.970935075343L114.81114512882048,-3640.7653325118713L114.81614607716466,-3671.520599706632L114.82098835765534,-3701.2782475430763L114.82568140882734,-3730.077612482429L114.83023150551024,-3757.9561145969783L114.83464534855146,-3784.9492851177843L114.83893074032541,-3811.0908692036705L114.84309271341492,-3836.4130318109956L114.84713711198172,-3860.9463661350737L114.85106930612555,-3884.7200192606133L114.85489439008596,-3907.7617726631283L114.85861684877453,-3930.0981299694654L114.86224120094205,-3951.754375632762L114.86577152098987,-3972.754655072439" stroke="#F98F00" stroke-width="2"/></g></g><path class="foreground" aria-hidden="true" d="" display="none"/></g></g><g class="mark-group role-legend" role="graphics-symbol" aria-roledescription="legend" aria-label="Symbol legend for stroke color with 2 values: Young, Old"><g transform="translate(5,5)"><path class="background" aria-hidden="true" d="M0,0h46v24h-46Z" pointer-events="none"/><g><g class="mark-group role-legend-entry"><g transform="translate(0,0)"><path class="background" aria-hidden="true" d="M0,0h0v0h0Z" pointer-events="none"/><g><g class="mark-group role-scope" role="graphics-object" aria-roledescription="group mark container"><g transform="translate(0,0)"><path class="background" aria-hidden="true" d="M0,0h46v11h-46Z" pointer-events="none" opacity="1"/><g><g class="mark-symbol role-legend-symbol" pointer-events="none"><path transform="translate(6,6)" d="M-5,0L5,0" stroke="#009DA3" stroke-width="1.5" opacity="1"/></g><g class="mark-text role-legend-label" pointer-events="none"><text text-anchor="start" transform="translate(16,9)" font-family="Arial" font-size="10px" fill="#000" opacity="1">Young</text></g></g><path class="foreground" aria-hidden="true" d="" pointer-events="none" display="none"/></g><g transform="translate(0,13)"><path class="background" aria-hidden="true" d="M0,0h46v11h-46Z" pointer-events="none" opacity="1"/><g><g class="mark-symbol role-legend-symbol" pointer-events="none"><path transform="translate(6,6)" d="M-5,0L5,0" stroke="#F98F00" stroke-width="1.5" opacity="1"/></g><g class="mark-text role-legend-label" pointer-events="none"><text text-anchor="start" transform="translate(16,9)" font-family="Arial" font-size="10px" fill="#000" opacity="1">Old</text></g></g><path class="foreground" aria-hidden="true" d="" pointer-events="none" display="none"/></g></g></g><path class="foreground" aria-hidden="true" d="" pointer-events="none" display="none"/></g></g></g><path class="foreground" aria-hidden="true" d="" pointer-events="none" display="none"/></g></g></g><path class="foreground" aria-hidden="true" d="" display="none"/></g></g></g><defs><clipPath id="clip1"><rect x="0" y="0" width="120" height="120"/></clipPath><clipPath id="clip2"><rect x="0" y="0" width="120" height="120"/></clipPath></defs></svg>
