<?xml version="1.0" encoding="utf-8"?>
<!DOCTYPE svg PUBLIC "-//W3C//DTD SVG 1.1//EN" "http://www.w3.org/Graphics/SVG/1.1/DTD/svg11.dtd">
<svg xmlns="http://www.w3.org/2000/svg" xmlns:xlink="http://www.w3.org/1999/xlink" version="1.1" class="marks" width="168" height="165" viewBox="0 0 168 165"><rect width="168" height="165" fill="white"/><g fill="none" stroke-miterlimit="10" transform="translate(43,10)"><g class="mark-group role-frame root" role="graphics-object" aria-roledescription="group mark container"><g transform="translate(0,0)"><path class="background" aria-hidden="true" d="M0.5,0.5h120v120h-120Z"/><g><g class="mark-group role-axis" role="graphics-symbol" aria-roledescription="axis" aria-label="X-axis titled 'VO2 (mmol/L mito/s)' for a linear scale with values from 0.0 to 2.2"><g transform="translate(0.5,120.5)"><path class="background" aria-hidden="true" d="M0,0h0v0h0Z" pointer-events="none"/><g><g class="mark-rule role-axis-tick" pointer-events="none"><line transform="translate(0,0)" x2="0" y2="3" stroke="black" stroke-width="1" opacity="1"/><line transform="translate(55,0)" x2="0" y2="3" stroke="black" stroke-width="1" opacity="1"/><line transform="translate(109,0)" x2="0" y2="3" stroke="black" stroke-width="1" opacity="1"/></g><g class="mark-text role-axis-label" pointer-events="none"><text text-anchor="start" transform="translate(0,13)" font-family="Arial" font-size="10px" fill="#000" opacity="1">0</text><text text-anchor="middle" transform="translate(54.54545454545455,13)" font-family="Arial" font-size="10px" fill="#000" opacity="1">1</text><text text-anchor="middle" transform="translate(109.0909090909091,13)" font-family="Arial" font-size="10px" fill="#000" opacity="1">2</text></g><g class="mark-rule role-axis-domain" pointer-events="none"><line transform="translate(0,0)" x2="120" y2="0" stroke="black" stroke-width="1" opacity="1"/></g><g class="mark-text role-axis-title" pointer-events="none"><text text-anchor="middle" transform="translate(60,28)" font-family="Arial" font-size="11px" font-weight="normal" fill="#000" opacity="1">VO2 (mmol/L mito/s)</text></g></g><path class="foreground" aria-hidden="true" d="" pointer-events="none" display="none"/></g></g><g class="mark-group role-axis" role="graphics-symbol" aria-roledescription="axis" aria-label="Y-axis titled 'ADP (μM)' for a linear scale with values from 0 to 100"><g transform="translate(0.5,0.5)"><path class="background" aria-hidden="true" d="M0,0h0v0h0Z" pointer-events="none"/><g><g class="mark-rule role-axis-tick" pointer-events="none"><line transform="translate(0,120)" x2="-3" y2="0" stroke="black" stroke-width="1" opacity="1"/><line transform="translate(0,60)" x2="-3" y2="0" stroke="black" stroke-width="1" opacity="1"/><line transform="translate(0,0)" x2="-3" y2="0" stroke="black" stroke-width="1" opacity="1"/></g><g class="mark-text role-axis-label" pointer-events="none"><text text-anchor="end" transform="translate(-5,123)" font-family="Arial" font-size="10px" fill="#000" opacity="1">0</text><text text-anchor="end" transform="translate(-5,63)" font-family="Arial" font-size="10px" fill="#000" opacity="1">50</text><text text-anchor="end" transform="translate(-5,3)" font-family="Arial" font-size="10px" fill="#000" opacity="1">100</text></g><g class="mark-rule role-axis-domain" pointer-events="none"><line transform="translate(0,120)" x2="0" y2="-120" stroke="black" stroke-width="1" opacity="1"/></g><g class="mark-text role-axis-title" pointer-events="none"><text text-anchor="middle" transform="translate(-27,60) rotate(-90) translate(0,-2)" font-family="Arial" font-size="11px" font-weight="normal" fill="#000" opacity="1">ADP (μM)</text></g></g><path class="foreground" aria-hidden="true" d="" pointer-events="none" display="none"/></g></g><g class="mark-group role-scope layer_0_pathgroup" role="graphics-object" aria-roledescription="group mark container"><g transform="translate(0,0)"><path class="background" aria-hidden="true" d="M0,0h120v120h-120Z"/><g><g class="mark-line role-mark layer_0_marks" clip-path="url(#clip1)" role="graphics-object" aria-roledescription="line mark container"><path aria-label="VO2_m: 0.230646523393; ADP_μ: 2.79685923117; group: Young" role="graphics-symbol" aria-roledescription="line mark" d="M12.580719457788705,116.64376892259104L14.361836381499666,115.46797473913246L16.12931499299554,114.32530035732108L17.88665317806169,113.20736602526861L19.636716734869808,112.10786318086487L21.38148980181169,111.02176142974588L23.122280955139026,109.94505224206469L24.859940855602122,108.87450989356465L26.595015975396286,107.80748428284835L28.327853209545623,106.74174144274483L30.058658939068824,105.67533697996974L31.78754366039576,104.60652958871589L33.514546308706095,103.53370633206293L35.239650011786026,102.45532605409613L36.96279431926863,101.36987455914966L38.68387877884751,100.27581851106522L40.40276897177308,99.17156982961427L42.11929644418356,98.05544439350841L43.833256297087615,96.92561608061374L45.54440881256038,95.78007662434305L47.25247320367941,94.61657607745393L48.95712428448831,93.43256041350283L50.65798489243413,92.22509050325756L52.3546198701694,90.99074402196312L54.04652388550251,89.72548981376167L55.733109712803206,88.42451907423732L57.41369242064474,87.08203167949424L59.087470632666694,85.69094385887807L60.75349461223703,84.24246792926755L62.410651060221866,82.72557211801724L64.0575920008156,81.12610401699956L65.69270313523465,79.42557433547529L67.31401635193113,77.59921791662065L68.91911739851386,75.61284736398741L70.50497143344248,73.41745616492055L72.06773898192834,70.93948873185565L73.60240708200676,68.06181592241278L75.10226128212301,64.58375816912084L76.5579710596833,60.1295076005409L77.955969907855,53.920633618641915L79.2756796992743,44.17559100466732L80.4837038303626,26.52883617490049L81.51905751646316,-9.631927908322178L82.26797673319591,-86.01929738252848L82.65888681716694,-219.27006264896835L82.87543636156232,-381.0412113483412L83.02918094655357,-547.4729405291727L83.13616058236488,-712.0705444691931L83.21395636762489,-871.1229745793155L83.27354687922636,-1023.0553260083077L83.32107872790141,-1167.444988789481L83.36017587395295,-1304.389687952527L83.3931199507573,-1434.2103275106745L83.421414995331,-1557.3148143170845L83.44609552469474,-1674.13288910643L83.46789881839346,-1785.0854935034017L83.48736537426866,-1890.571109308898L83.50490193636574,-1990.960339930108L83.52082031544286,-2086.5948277610705L83.5353669264445,-2177.7878562308933L83.54873211627634,-2264.826825322138L83.5610773937074,-2347.9742333194445L83.5725298553889,-2427.4710157223662L83.58319621748038,-2503.5380659517737L83.59316535292122,-2576.3783613156684L83.60251226094236,-2646.178714265607L83.61130053960014,-2713.1113797104404L83.61958667115641,-2777.3353605817665L83.627416285194,-2838.997983496255L83.63482997551864,-2898.2357643789674L83.64186767141535,-2955.1752101614866L83.64855708188331,-3009.934436697938L83.65492772040986,-3062.6231757338446L83.66100373657662,-3113.343929486939L83.66680792991968,-3162.192401783509L83.67236011105672,-3209.2581729175245L83.67767786361206,-3254.625179614497L83.68277930056298,-3298.3720493851624L83.68767314228285,-3340.5729991603907L83.69237834198645,-3381.2972727690935L83.69690494518818,-3420.6104013208396L83.7012639775312,-3458.5740414583897L83.70546552785493,-3495.246347450244L83.70951847877018,-3530.682238640831L83.71343163040254,-3564.933585265557L83.71721255766471,-3598.049468657499L83.72086844182573,-3630.0763410068816L83.72440607254066,-3661.0582040431545L83.7278314297088,-3691.0367884909506L83.73115038542295,-3720.051676997801L83.73436787878062,-3748.140473102156L83.73748929047879,-3775.3388780233827L83.74051894798836,-3801.6808625150325L83.74346151894888,-3827.1987260206383L83.746320383751,-3851.923252132662L83.74909990821678,-3875.883725840817L83.7518032758729,-3899.1080916498213L83.75443392473682,-3921.6229864655593L83.75699560640415,-3943.4538138005664L83.75948957538452,-3964.6248973508605" stroke="#009DA3" stroke-width="2"/></g></g><path class="foreground" aria-hidden="true" d="" display="none"/></g><g transform="translate(0,0)"><path class="background" aria-hidden="true" d="M0,0h120v120h-120Z"/><g><g class="mark-line role-mark layer_0_marks" clip-path="url(#clip2)" role="graphics-object" aria-roledescription="line mark container"><path aria-label="VO2_m: 0.231778268794; ADP_μ: 2.71529038198; group: Old" role="graphics-symbol" aria-roledescription="line mark" d="M12.642451025111251,116.74165154162513L14.429949511080899,115.56568825836173L16.205528224650905,114.42674566653685L17.97168349680456,113.31572426013213L19.730995230296617,112.22597096336725L21.485395792996055,111.15224902822408L23.236214212611493,110.09046529101428L24.98434669069488,109.0374121396076L26.730399038441437,107.99054385375359L28.474783823603698,106.94780280448822L30.217783527779787,105.90749214573006L31.959591464533307,104.86818199328323L33.70033856163239,103.82864208127963L35.44011170480085,102.78779188220442L37.178965223769275,101.74466358407825L38.91692971202105,100.69837149931696L40.654016989494714,99.64809265115566L42.390224021134046,98.5930452168516L44.125536893648885,97.53247727905531L45.859931688539874,96.465652366861L47.59337606656547,95.39183875596419L49.325830006733455,94.31029951404207L51.057246717266246,93.22028369335476L52.78757265677011,92.12101700176828L54.51674812564178,91.0116939127057L56.24470625987997,89.8914667482566L57.97137404519081,88.75943737795536L59.696670199789644,87.6146450932791L61.420506625557806,86.4560579852864L63.14278645975701,85.28255715903074L64.86340361631711,84.09292296262929L66.58224185961464,82.88581803401867L68.29917365352664,81.6597677894261L70.01405895161736,80.41313731658916L71.72674398045864,79.14410665441261L73.43705816959123,77.85063154343331L75.14481356639462,76.5304105714336L76.84980088937905,75.18083688725079L78.55179025014925,73.79893962626342L80.25051950182646,72.38130918709415L81.94569988660234,70.92400949110387L83.63700415038905,69.42246466701647L85.3240648545738,67.87132486183395L87.00646279447083,66.26425763628916L88.6837213597323,64.59371827972944L90.35529158630968,62.850617279337314L92.02054001598916,61.02386605959893L93.6787325389676,59.09978007633411L95.32900567924735,57.06118707598415L96.97033426822114,54.88614608398446L98.60149461701043,52.54608821980695L100.22100322467647,50.002890652660255L101.82702714314503,47.20426112959518L103.41728027318993,44.076132435164006L104.98881708673889,40.509653591791285L106.53776395101896,36.337809475736975L108.05883310556911,31.29174650552923L109.5444999360615,24.915721321255425L110.9835311062021,16.39618712889982L112.35821068524298,4.218389782624539L113.63980945664184,-14.470712162313673L114.7828227340303,-44.724500259892075L115.7280438872162,-93.67168468012088L116.43656099265147,-166.41793081362596L116.9327008581638,-260.2550517486455L117.27647594914347,-367.4188483189493L117.51978787572443,-480.95934682756376L117.69841284207246,-596.2309692041506L117.83471625117932,-710.5269832186742L117.94232520134531,-822.3834072353965L118.02973183940009,-931.0513977126653L118.10241601700642,-1036.184810023095L118.1640480273064,-1137.6639082324475L118.21716076194592,-1235.497253694971L118.2635618139786,-1329.7643825666269L118.3045716888127,-1420.583390144464L118.34117765190334,-1508.0916206457036L118.37413367271519,-1592.4341552824073L118.40402463126857,-1673.7571669765282L118.43131263919928,-1752.2038797526147L118.45636802763207,-1827.912363295109L118.4794900897205,-1901.014451066042L118.5009259316576,-1971.6350512146987L118.5208765606487,-2039.8923365598798L118.53951521692264,-2105.8973418854516L118.55698477708363,-2169.754712449206L118.57340759580661,-2231.5627744244907L118.58888814300136,-2291.4139683577496L118.60351794309639,-2349.395125563094L118.61737423170396,-2405.588034287026L118.63052586285664,-2460.069590064749L118.64303298127541,-2512.9122321465725L118.654948145229,-2564.1842660555862L118.66631868917341,-2613.9500947911083L118.67718609974153,-2662.2705634563854L118.68758768251513,-2709.20316613539L118.69755682776817,-2754.8022941080094L118.7071235454197,-2799.1194481977045L118.7163149799265,-2842.2034319648496L118.7251557851368,-2884.1005322147917" stroke="#F98F00" stroke-width="2"/></g></g><path class="foreground" aria-hidden="true" d="" display="none"/></g></g><g class="mark-group role-legend" role="graphics-symbol" aria-roledescription="legend" aria-label="Symbol legend for stroke color with 2 values: Young, Old"><g transform="translate(5,5)"><path class="background" aria-hidden="true" d="M0,0h46v24h-46Z" pointer-events="none"/><g><g class="mark-group role-legend-entry"><g transform="translate(0,0)"><path class="background" aria-hidden="true" d="M0,0h0v0h0Z" pointer-events="none"/><g><g class="mark-group role-scope" role="graphics-object" aria-roledescription="group mark container"><g transform="translate(0,0)"><path class="background" aria-hidden="true" d="M0,0h46v11h-46Z" pointer-events="none" opacity="1"/><g><g class="mark-symbol role-legend-symbol" pointer-events="none"><path transform="translate(6,6)" d="M-5,0L5,0" stroke="#009DA3" stroke-width="1.5" opacity="1"/></g><g class="mark-text role-legend-label" pointer-events="none"><text text-anchor="start" transform="translate(16,9)" font-family="Arial" font-size="10px" fill="#000" opacity="1">Young</text></g></g><path class="foreground" aria-hidden="true" d="" pointer-events="none" display="none"/></g><g transform="translate(0,13)"><path class="background" aria-hidden="true" d="M0,0h46v11h-46Z" pointer-events="none" opacity="1"/><g><g class="mark-symbol role-legend-symbol" pointer-events="none"><path transform="translate(6,6)" d="M-5,0L5,0" stroke="#F98F00" stroke-width="1.5" opacity="1"/></g><g class="mark-text role-legend-label" pointer-events="none"><text text-anchor="start" transform="translate(16,9)" font-family="Arial" font-size="10px" fill="#000" opacity="1">Old</text></g></g><path class="foreground" aria-hidden="true" d="" pointer-events="none" display="none"/></g></g></g><path class="foreground" aria-hidden="true" d="" pointer-events="none" display="none"/></g></g></g><path class="foreground" aria-hidden="true" d="" pointer-events="none" display="none"/></g></g></g><path class="foreground" aria-hidden="true" d="" display="none"/></g></g></g><defs><clipPath id="clip1"><rect x="0" y="0" width="120" height="120"/></clipPath><clipPath id="clip2"><rect x="0" y="0" width="120" height="120"/></clipPath></defs></svg>
