<?xml version="1.0" encoding="utf-8"?>
<!DOCTYPE svg PUBLIC "-//W3C//DTD SVG 1.1//EN" "http://www.w3.org/Graphics/SVG/1.1/DTD/svg11.dtd">
<svg xmlns="http://www.w3.org/2000/svg" xmlns:xlink="http://www.w3.org/1999/xlink" version="1.1" class="marks" width="168" height="165" viewBox="0 0 168 165"><rect width="168" height="165" fill="white"/><g fill="none" stroke-miterlimit="10" transform="translate(43,10)"><g class="mark-group role-frame root" role="graphics-object" aria-roledescription="group mark container"><g transform="translate(0,0)"><path class="background" aria-hidden="true" d="M0.5,0.5h120v120h-120Z"/><g><g class="mark-group role-axis" role="graphics-symbol" aria-roledescription="axis" aria-label="X-axis titled 'VO2 (mmol/L mito/s)' for a linear scale with values from 0.0 to 1.6"><g transform="translate(0.5,120.5)"><path class="background" aria-hidden="true" d="M0,0h0v0h0Z" pointer-events="none"/><g><g class="mark-rule role-axis-tick" pointer-events="none"><line transform="translate(0,0)" x2="0" y2="3" stroke="black" stroke-width="1" opacity="1"/><line transform="translate(38,0)" x2="0" y2="3" stroke="black" stroke-width="1" opacity="1"/><line transform="translate(75,0)" x2="0" y2="3" stroke="black" stroke-width="1" opacity="1"/><line transform="translate(113,0)" x2="0" y2="3" stroke="black" stroke-width="1" opacity="1"/></g><g class="mark-text role-axis-label" pointer-events="none"><text text-anchor="start" transform="translate(0,13)" font-family="Arial" font-size="10px" fill="#000" opacity="1">0.0</text><text text-anchor="middle" transform="translate(37.5,13)" font-family="Arial" font-size="10px" fill="#000" opacity="1">0.5</text><text text-anchor="middle" transform="translate(75,13)" font-family="Arial" font-size="10px" fill="#000" opacity="1">1.0</text><text text-anchor="middle" transform="translate(112.5,13)" font-family="Arial" font-size="10px" fill="#000" opacity="1">1.5</text></g><g class="mark-rule role-axis-domain" pointer-events="none"><line transform="translate(0,0)" x2="120" y2="0" stroke="black" stroke-width="1" opacity="1"/></g><g class="mark-text role-axis-title" pointer-events="none"><text text-anchor="middle" transform="translate(60,28)" font-family="Arial" font-size="11px" font-weight="normal" fill="#000" opacity="1">VO2 (mmol/L mito/s)</text></g></g><path class="foreground" aria-hidden="true" d="" pointer-events="none" display="none"/></g></g><g class="mark-group role-axis" role="graphics-symbol" aria-roledescription="axis" aria-label="Y-axis titled 'ADP (μM)' for a linear scale with values from 0 to 100"><g transform="translate(0.5,0.5)"><path class="background" aria-hidden="true" d="M0,0h0v0h0Z" pointer-events="none"/><g><g class="mark-rule role-axis-tick" pointer-events="none"><line transform="translate(0,120)" x2="-3" y2="0" stroke="black" stroke-width="1" opacity="1"/><line transform="translate(0,60)" x2="-3" y2="0" stroke="black" stroke-width="1" opacity="1"/><line transform="translate(0,0)" x2="-3" y2="0" stroke="black" stroke-width="1" opacity="1"/></g><g class="mark-text role-axis-label" pointer-events="none"><text text-anchor="end" transform="translate(-5,123)" font-family="Arial" font-size="10px" fill="#000" opacity="1">0</text><text text-anchor="end" transform="translate(-5,63)" font-family="Arial" font-size="10px" fill="#000" opacity="1">50</text><text text-anchor="end" transform="translate(-5,3)" font-family="Arial" font-size="10px" fill="#000" opacity="1">100</text></g><g class="mark-rule role-axis-domain" pointer-events="none"><line transform="translate(0,120)" x2="0" y2="-120" stroke="black" stroke-width="1" opacity="1"/></g><g class="mark-text role-axis-title" pointer-events="none"><text text-anchor="middle" transform="translate(-27,60) rotate(-90) translate(0,-2)" font-family="Arial" font-size="11px" font-weight="normal" fill="#000" opacity="1">ADP (μM)</text></g></g><path class="foreground" aria-hidden="true" d="" pointer-events="none" display="none"/></g></g><g class="mark-group role-scope layer_0_pathgroup" role="graphics-object" aria-roledescription="group mark container"><g transform="translate(0,0)"><path class="background" aria-hidden="true" d="M0,0h120v120h-120Z"/><g><g class="mark-line role-mark layer_0_marks" clip-path="url(#clip1)" role="graphics-object" aria-roledescription="line mark container"><path aria-label="VO2_m: 0.227415693306; ADP_μ: 3.00249338593; group: Young" role="graphics-symbol" aria-roledescription="line mark" d="M17.05617699798076,116.39700793687813L19.53507642506465,115.04930855277408L21.973930035165054,113.74613635482622L24.386575383457792,112.47368626735832L26.781561911955812,111.22115704055898L29.163807701701867,109.9801115478126L31.53610113481474,108.74384702110453L33.899971173732595,107.50679196628553L36.256161619412886,106.26403333713378L38.604897524622594,105.01096435623217L40.94602245154192,103.74299620206773L43.27907483450887,102.4553076462507L45.603307556011906,101.14257822474794L47.91770101808702,99.79871348317002L50.22093600571835,98.41649635137324L52.511356705010165,96.9871345776103L54.78690696141276,95.49965158956286L57.045044374873676,93.94001306590877L59.282627005788584,92.28984760528894L61.49574616206762,90.52444764992087L63.67951436409349,88.60957251140492L65.82776500889693,86.49587751982976L67.93256374227555,84.10849309104289L69.98346760848605,81.32542008361057L71.96621264005411,77.92727901774614L73.86052871006515,73.4642906264994L75.63738335824902,66.85740816497245L77.25831307278155,55.09886425914451L78.67479609883799,29.125217418617012L79.76404746076089,-38.78566958839113L80.16632784693724,-474.0498508434314L80.17929016906402,-215.7552101200539L80.26143381101717,-713.3755902374675L80.34570147685339,-938.1849638467692L80.40670330655827,-1148.4503891782906L80.45301585114878,-1343.8091654295872L80.48981373058764,-1525.0053754975297L80.52006038171255,-1693.158384555815L80.54556253951164,-1849.4383723652581L80.56749485210624,-1994.9482647337734L80.58664520112583,-2130.6870594459233L80.60358751162758,-2257.5460710045063L80.6187303550254,-2376.315408031064L80.63237783740891,-2487.6953944889465L80.64477509030405,-2592.3063856024332L80.65610372100663,-2690.700990382596L80.66651503338997,-2783.371767554203L80.67612789949644,-2870.7599219370977L80.68504156318073,-2953.261618630671L80.69333841963271,-3031.233849359637L80.70108817120227,-3104.9992706745506L80.70834646047389,-3174.850584388717L80.71516406674996,-3241.053676953323L80.72158605736128,-3303.8508269006675L80.72764656438704,-3363.463654687058L80.73338027351097,-3420.0948530106884L80.73881424263385,-3473.9306113458665L80.7439730733427,-3525.142105465099L80.74887549924665,-3573.887176678856L80.75355338110049,-3620.310863142041L80.75801193906929,-3664.548275480981L80.76227098871325,-3706.723874675844L80.76634473611539,-3746.9532589285027L80.77024660036354,-3785.3437809734323L80.77398608596108,-3821.995390970368L80.77757568652376,-3857.00103746753L80.78102446530453,-3890.447485762303L80.78435045387559,-3922.415430881022L80.78753419836326,-3952.9814625778936L80.79061001769219,-3982.215561781593L80.79357586655462,-4010.184378423965L80.79643779438435,-4036.950153326402L80.79920132200036,-4062.5713097379894L80.80187277484625,-4087.1027059282683L80.80445615216848,-4110.595982059191L80.80695556926582,-4133.099729886317L80.80937666217108,-4154.659678484488L80.81172262689266,-4175.318993808574L80.81399680390899,-4195.118393955243L80.81620314971934,-4214.096308119733L80.81834547817678,-4232.28904956163L80.82042341821658,-4249.731041324934L80.82244787559692,-4266.454628378182L80.82440869028976,-4282.490834500614L80.82631895562446,-4297.868632196381L80.82817781300744,-4312.61573616202L80.82998700894694,-4326.758392939244L80.83174901631607,-4340.32150540117L80.83346547592191,-4353.3287397724935L80.83513881725055,-4365.802574265325L80.83677005169129,-4377.764406220698L80.83836077293375,-4389.234583199334L80.83991400547046,-4400.232453294739L80.8414310052692,-4410.776470401252L80.84290939287004,-4420.884267682811L80.84435451010992,-4430.572550499017L80.84576678683686,-4439.857318466069L80.84714745364832,-4448.753829137493L80.84849650367265,-4457.27666321232L80.84981643855612,-4465.439716899169" stroke="#009DA3" stroke-width="2"/></g></g><path class="foreground" aria-hidden="true" d="" display="none"/></g><g transform="translate(0,0)"><path class="background" aria-hidden="true" d="M0,0h120v120h-120Z"/><g><g class="mark-line role-mark layer_0_marks" clip-path="url(#clip2)" role="graphics-object" aria-roledescription="line mark container"><path aria-label="VO2_m: 0.229565918362; ADP_μ: 2.9170798257; group: Old" role="graphics-symbol" aria-roledescription="line mark" d="M17.2174438771394,116.49950420915827L19.701281476430783,115.15571011346445L22.151533575673792,113.86425719311684L24.579437116273713,112.60940473973798L26.99258673439798,111.379919623011L29.395619413931488,110.1675282754291L31.791344412787865,108.96606900204242L34.18148960797598,107.77082480808913L36.56713175524695,106.57805493710804L38.94893868905056,105.38467239568611L41.32731817893616,104.18803277360301L43.702496926254625,102.9857779579928L46.07457760408499,101.77573008907031L48.44356668650134,100.55580182617462L50.80939628125275,99.32393383169622L53.17193896623978,98.07803598303455L55.53100937656795,96.81592688841705L57.88637425363401,95.53529095560349L60.23774624915988,94.2336098406823L62.58478640717322,92.90811112140285L64.92709994731004,91.55568969838365L67.26422881993139,90.17282558568203L69.5956465071882,88.7554840681093L71.92074413469011,87.29897811193969L74.2388226869552,85.79781571262355L76.54906934955878,84.24547439648077L78.85054653160795,82.63414174539473L81.14215549452716,80.95431626833502L83.42260982845399,79.19431217323383L85.6903875838427,77.33952300242939L87.94367509019929,75.37137682934845L90.18028948560932,73.26577653135604L92.39758370466916,70.9906927553007L94.5922574627657,68.50225563972928L96.76022435999229,65.73812681021481L98.89622419838913,62.60561477377401L100.9933574033539,58.95853973047973L103.0422906649648,54.54927481198142L105.02986083680139,48.9199411548364L106.93673834968185,41.13538816942277L108.73279322654035,29.08720900095918L110.36734197735926,7.696391519008978L111.74794710450159,-34.91194183337509L112.7285802742969,-119.7177873532805L113.2790703014559,-254.7350816999241L113.60977358791055,-413.9978268953649L113.83020081504245,-579.1747078185161L113.98180044637384,-742.6153730515622L114.09231647166922,-900.495657606124L114.17710244347283,-1051.304605844654L114.24474922085497,-1194.6424817837114L114.30037790017137,-1330.6086921144008L114.34722223707159,-1459.5197608624148L114.38742748820098,-1581.7768632380719L114.42247368381321,-1697.8029186299382L114.45340757334121,-1808.013288256654L114.48100943407792,-1912.8006230815856L114.50585861322388,-2012.531052167497L114.52840386504195,-2107.542052646298L114.54899436190951,-2198.1436455185735L114.5679072942436,-2284.619973518165L114.5853695410459,-2367.231172722224L114.60156364582781,-2446.2158642129957L114.61664167120666,-2521.7930051358717L114.63073203715926,-2594.1637634368244L114.64394038254619,-2663.513495565733L114.65635819023954,-2730.013070346589L114.66806323459677,-2793.82039693995L114.67912413171004,-2855.081570101831L114.68959706513675,-2913.9322080345787L114.6995362612206,-2970.4980423110105L114.70898496447569,-3024.896239062653L114.717982031208,-3077.235932128019L114.7265642949504,-3127.6188639134048L114.73476244889255,-3176.1401997637663L114.74260468984774,-3222.888960797239L114.75011624067162,-3267.9485621279887L114.75731972192953,-3311.3972627136286L114.76423591359011,-3353.3085562676692L114.77088328915659,-3393.7515637355837L114.77727880327802,-3432.791345942699L114.78343801184813,-3470.4892077738136L114.78937500635601,-3506.902979645976L114.79510300294459,-3542.087252758126L114.80063320861038,-3576.0936449056344L114.80597726661843,-3608.9709373278624L114.81114518421971,-3640.7653309374086L114.81614645975564,-3671.5205891454543L114.8209886525803,-3701.278239547453L114.82568014105117,-3730.0776461384194L114.83023128810197,-3757.9561202247432L114.83464579871449,-3784.949273715828L114.83893082695815,-3811.090867050483L114.84309260315845,-3836.4130344747737L114.8471370931061,-3860.9463665913418L114.85106934496665,-3884.7200183198156L114.85489494601859,-3907.761760003704L114.85861683741527,-3930.098130219696L114.8622438609849,-3951.754317744519L114.86577095355173,-3972.754666997539" stroke="#F98F00" stroke-width="2"/></g></g><path class="foreground" aria-hidden="true" d="" display="none"/></g></g><g class="mark-group role-legend" role="graphics-symbol" aria-roledescription="legend" aria-label="Symbol legend for stroke color with 2 values: Young, Old"><g transform="translate(5,5)"><path class="background" aria-hidden="true" d="M0,0h46v24h-46Z" pointer-events="none"/><g><g class="mark-group role-legend-entry"><g transform="translate(0,0)"><path class="background" aria-hidden="true" d="M0,0h0v0h0Z" pointer-events="none"/><g><g class="mark-group role-scope" role="graphics-object" aria-roledescription="group mark container"><g transform="translate(0,0)"><path class="background" aria-hidden="true" d="M0,0h46v11h-46Z" pointer-events="none" opacity="1"/><g><g class="mark-symbol role-legend-symbol" pointer-events="none"><path transform="translate(6,6)" d="M-5,0L5,0" stroke="#009DA3" stroke-width="1.5" opacity="1"/></g><g class="mark-text role-legend-label" pointer-events="none"><text text-anchor="start" transform="translate(16,9)" font-family="Arial" font-size="10px" fill="#000" opacity="1">Young</text></g></g><path class="foreground" aria-hidden="true" d="" pointer-events="none" display="none"/></g><g transform="translate(0,13)"><path class="background" aria-hidden="true" d="M0,0h46v11h-46Z" pointer-events="none" opacity="1"/><g><g class="mark-symbol role-legend-symbol" pointer-events="none"><path transform="translate(6,6)" d="M-5,0L5,0" stroke="#F98F00" stroke-width="1.5" opacity="1"/></g><g class="mark-text role-legend-label" pointer-events="none"><text text-anchor="start" transform="translate(16,9)" font-family="Arial" font-size="10px" fill="#000" opacity="1">Old</text></g></g><path class="foreground" aria-hidden="true" d="" pointer-events="none" display="none"/></g></g></g><path class="foreground" aria-hidden="true" d="" pointer-events="none" display="none"/></g></g></g><path class="foreground" aria-hidden="true" d="" pointer-events="none" display="none"/></g></g></g><path class="foreground" aria-hidden="true" d="" display="none"/></g></g></g><defs><clipPath id="clip1"><rect x="0" y="0" width="120" height="120"/></clipPath><clipPath id="clip2"><rect x="0" y="0" width="120" height="120"/></clipPath></defs></svg>
