<?xml version="1.0" encoding="utf-8"?>
<!DOCTYPE svg PUBLIC "-//W3C//DTD SVG 1.1//EN" "http://www.w3.org/Graphics/SVG/1.1/DTD/svg11.dtd">
<svg xmlns="http://www.w3.org/2000/svg" xmlns:xlink="http://www.w3.org/1999/xlink" version="1.1" class="marks" width="168" height="165" viewBox="0 0 168 165"><rect width="168" height="165" fill="white"/><g fill="none" stroke-miterlimit="10" transform="translate(43,10)"><g class="mark-group role-frame root" role="graphics-object" aria-roledescription="group mark container"><g transform="translate(0,0)"><path class="background" aria-hidden="true" d="M0.5,0.5h120v120h-120Z"/><g><g class="mark-group role-axis" role="graphics-symbol" aria-roledescription="axis" aria-label="X-axis titled 'VO2 (mmol/L mito/s)' for a linear scale with values from 0.0 to 2.8"><g transform="translate(0.5,120.5)"><path class="background" aria-hidden="true" d="M0,0h0v0h0Z" pointer-events="none"/><g><g class="mark-rule role-axis-tick" pointer-events="none"><line transform="translate(0,0)" x2="0" y2="3" stroke="black" stroke-width="1" opacity="1"/><line transform="translate(43,0)" x2="0" y2="3" stroke="black" stroke-width="1" opacity="1"/><line transform="translate(86,0)" x2="0" y2="3" stroke="black" stroke-width="1" opacity="1"/></g><g class="mark-text role-axis-label" pointer-events="none"><text text-anchor="start" transform="translate(0,13)" font-family="Arial" font-size="10px" fill="#000" opacity="1">0</text><text text-anchor="middle" transform="translate(42.85714285714286,13)" font-family="Arial" font-size="10px" fill="#000" opacity="1">1</text><text text-anchor="middle" transform="translate(85.71428571428572,13)" font-family="Arial" font-size="10px" fill="#000" opacity="1">2</text></g><g class="mark-rule role-axis-domain" pointer-events="none"><line transform="translate(0,0)" x2="120" y2="0" stroke="black" stroke-width="1" opacity="1"/></g><g class="mark-text role-axis-title" pointer-events="none"><text text-anchor="middle" transform="translate(60,28)" font-family="Arial" font-size="11px" font-weight="normal" fill="#000" opacity="1">VO2 (mmol/L mito/s)</text></g></g><path class="foreground" aria-hidden="true" d="" pointer-events="none" display="none"/></g></g><g class="mark-group role-axis" role="graphics-symbol" aria-roledescription="axis" aria-label="Y-axis titled 'ADP (μM)' for a linear scale with values from 0 to 100"><g transform="translate(0.5,0.5)"><path class="background" aria-hidden="true" d="M0,0h0v0h0Z" pointer-events="none"/><g><g class="mark-rule role-axis-tick" pointer-events="none"><line transform="translate(0,120)" x2="-3" y2="0" stroke="black" stroke-width="1" opacity="1"/><line transform="translate(0,60)" x2="-3" y2="0" stroke="black" stroke-width="1" opacity="1"/><line transform="translate(0,0)" x2="-3" y2="0" stroke="black" stroke-width="1" opacity="1"/></g><g class="mark-text role-axis-label" pointer-events="none"><text text-anchor="end" transform="translate(-5,123)" font-family="Arial" font-size="10px" fill="#000" opacity="1">0</text><text text-anchor="end" transform="translate(-5,63)" font-family="Arial" font-size="10px" fill="#000" opacity="1">50</text><text text-anchor="end" transform="translate(-5,3)" font-family="Arial" font-size="10px" fill="#000" opacity="1">100</text></g><g class="mark-rule role-axis-domain" pointer-events="none"><line transform="translate(0,120)" x2="0" y2="-120" stroke="black" stroke-width="1" opacity="1"/></g><g class="mark-text role-axis-title" pointer-events="none"><text text-anchor="middle" transform="translate(-27,60) rotate(-90) translate(0,-2)" font-family="Arial" font-size="11px" font-weight="normal" fill="#000" opacity="1">ADP (μM)</text></g></g><path class="foreground" aria-hidden="true" d="" pointer-events="none" display="none"/></g></g><g class="mark-group role-scope layer_0_pathgroup" role="graphics-object" aria-roledescription="group mark container"><g transform="translate(0,0)"><path class="background" aria-hidden="true" d="M0,0h120v120h-120Z"/><g><g class="mark-line role-mark layer_0_marks" clip-path="url(#clip1)" role="graphics-object" aria-roledescription="line mark container"><path aria-label="VO2_m: 0.233206887263; ADP_μ: 2.9533638312; group: Young" role="graphics-symbol" aria-roledescription="line mark" d="M9.994580882699838,116.45596340255406L11.395888031036415,115.12291935028256L12.78590911832256,113.84842380245968L14.168362324805365,112.6117888976666L15.545735394979621,111.40106520468296L16.91961316952895,110.20827728941104L18.290996664725867,109.0277534130858L19.660529256045837,107.85528462983645L21.028627636895756,106.68762773794504L22.395564413419965,105.5222006620614L23.761517714962174,104.35688222579695L25.12660227544195,103.18987975092013L26.49088846119258,102.01963527015153L27.85441549338565,100.84476001596305L29.21719956151848,99.6639854574717L30.579239493051105,98.47612553971052L31.94052093684029,97.28004940984566L33.301018261286835,96.07465322626362L34.66069605282336,94.85884435403312L36.01951151216218,93.63152164320199L37.37741338686096,92.39155620484016L38.73434381622222,91.13778104317278L40.0902366293894,89.86896730915102L41.44501857148718,88.58381290987994L42.79860827905569,87.2809227881942L44.15091591610786,85.95878983107572L45.50184149846631,84.61576794594542L46.85127528990515,83.25005315280272L48.199094907718404,81.85964823625712L49.54516583178468,80.442330093102L50.88933757294509,78.99560529696194L52.231443392651485,77.5166665760305L53.57129637639556,76.00232181327829L54.908687499135944,74.44892706718774L56.243381863859284,72.852297287002L57.575113621752735,71.20757478795088L58.90358321254139,69.5091119391815L60.228448751407825,67.75026200229577L61.54931941033089,65.9231506992008L62.865746003560695,64.01835973368303L64.17721114117319,62.02452284454442L65.48311037965165,59.92772682770129L66.78273784784368,57.710756904360764L68.0752577227957,55.351967527179504L69.35967566124006,52.82366596210999L70.6347924689414,50.08966902260227L71.89914321640003,47.101572791482795L73.15091840741842,43.79264885188692L74.38782752696953,40.06767837093559L75.60691359621264,35.78486538599604L76.8042345017004,30.722225820879995L77.9743320707641,24.511180680890273L79.10927649312832,16.498749400685263L80.1968830188015,5.449886477074899L81.21735471536631,-11.09020635103561L82.13769945773173,-37.98872627655516L82.90776006512404,-83.66778703761521L83.479765722065,-157.12751740976003L83.86397684708143,-257.79048286153176L84.12016617821136,-375.2424677643763L84.2956900725382,-500.1963151981296L84.42073221994454,-626.8147546429227L84.51394976649459,-751.8097749243062L84.58629272114135,-873.511422110259L84.64431886922108,-991.1403266778304L84.6921216724634,-1104.3913129694315L84.73237153671597,-1213.2106919414107L84.76687601690249,-1317.678048126301L84.79690002687603,-1417.941542640046L84.8233550047871,-1514.1820359602154L84.84691487836929,-1606.5929913607154L84.86808846820027,-1695.369322106458L84.88726757131597,-1780.7011749786818L84.90475979198163,-1862.7705973809848L84.92080895725486,-1941.7501143352722L84.93561232505868,-2017.8020113442496L84.94933064068985,-2091.0784264442314L84.96209666068059,-2161.7216416548185L84.9740210369184,-2229.8645889480904L84.98519678396596,-2295.6314320206393L84.99570288301511,-2359.138157293697L85.00560680055493,-2420.4931806343034L85.01496676880504,-2479.7979080109226L85.0238330845775,-2537.1472949176714L85.03224788224738,-2592.630449708985L85.04025398211681,-2646.330587597395L85.04788037340236,-2698.32645314265L85.05516039278758,-2748.691582389763L85.0621192058749,-2797.4954925056204L85.06878119332907,-2844.8035704359913L85.07516407088615,-2890.677741187974L85.0812928185917,-2935.1759502947575L85.08718132832345,-2978.353486499071L85.09284580394615,-3020.2624463512498L85.09830056674834,-3060.952193420458L85.10355852920533,-3100.469528230001L85.10863136984851,-3138.858858596603L85.11352998878597,-3176.1623408384767L85.11826353973471,-3212.4200787870195L85.12284383474255,-3247.6700473782066" stroke="#009DA3" stroke-width="2"/></g></g><path class="foreground" aria-hidden="true" d="" display="none"/></g><g transform="translate(0,0)"><path class="background" aria-hidden="true" d="M0,0h120v120h-120Z"/><g><g class="mark-line role-mark layer_0_marks" clip-path="url(#clip2)" role="graphics-object" aria-roledescription="line mark container"><path aria-label="VO2_m: 0.233632277474; ADP_μ: 2.87881357912; group: Old" role="graphics-symbol" aria-roledescription="line mark" d="M10.012811891753437,116.54542370505725L11.420384974680667,115.21164130657986L12.817069663395824,113.9397875975861L14.206068481411346,112.70878614716761L15.589842777294866,111.50633777794964L16.970035241025386,110.3241865501626L18.34771107804795,109.15648934247933L19.723564742841354,107.99895482117168L21.09805629403218,106.84832856543999L22.47149420854118,105.70206742939881L23.8440924055261,104.55813786390299L25.21599516244691,103.4148645640442L26.587303454058446,102.27084271388118L27.958086954730604,101.12486847380413L29.328392518155695,99.97588926061663L30.698250891907385,98.82296901712358L32.06768102120526,97.66526168507731L33.43669331291661,96.50199146603435L34.80529035861463,95.33243320270111L36.173470226080454,94.15590421443912L37.54122656223546,92.97175143942329L38.908549773767575,91.77934396098121L40.27542728116603,90.57806481084612L41.64184443091122,89.36730658021997L43.00778453363192,88.14646497503935L44.37322877966575,86.91493289576643L45.738157211229236,85.67209935256056L47.10254788281779,84.41734136300055L48.46637752723334,83.15002254888984L49.82962147504844,81.86948909773253L51.19225343913806,80.57506459715358L52.55424565484031,79.26604711781232L53.91556874119887,77.94170477403647L55.27619142205857,76.60127217126349L56.63608180910716,75.24394371464572L57.995204247962015,73.86887180556933L59.353522339205824,72.47515902343282L60.71099707375677,71.06185329197956L62.067587273345296,69.62794121331886L63.423248850539935,68.1723418121833L64.77793515865275,66.69389674159822L66.1315962227555,65.1913634884458L67.48417881605593,63.663405359396094L68.83562600690681,62.108575444523396L70.18587661916227,60.52531274609448L71.53486497299751,58.911918838939926L72.88252052108461,57.26654659883539L74.22876700315929,55.5871774987708L75.57352165599667,53.87159973657871L76.91669640077065,52.11738611129673L78.25819288099967,50.32185833191097L79.59790649285102,48.48205465475167L80.93572197371145,46.59468705565787L82.27151312394444,44.656089424291345L83.60514224477815,42.66216479015386L84.93645653756667,40.60830237221247L86.2652885341315,38.4893051866041L87.59145170261621,36.2992684724103L88.91473966286182,34.03147429098993L90.23492102152508,31.67820033004533L91.55173675349253,29.23054410598121L92.86489495865271,26.678156431671944L94.17406506014159,24.008921714392656L95.47887037348158,21.208532425167455L96.77887921264103,18.25994450671995L98.07359322076812,15.142654615857104L99.36243340851074,11.83166953074287L100.64472108627805,8.29619194709581L101.91963523844096,4.497706640975698L103.18621775348767,0.3872594841554067L104.44328112428197,-4.098459769727958L105.68936588348538,-9.042883286558911L106.92262764219673,-14.558601957824129L108.14070158780783,-20.800770859593918L109.34047807850871,-27.988742368178563L110.51775730024909,-36.44061023396041L111.66673756709486,-46.62768822833939L112.77924228271533,-59.26001940643499L113.84360729667404,-75.40964010907192L114.84351119016443,-96.65199763977716L115.75759373078537,-125.12305419561238L116.5621053308001,-163.23825673981716L117.23855919234491,-212.83331823004502L117.78302479295814,-274.09551846648117L118.20826969197212,-345.3178840517652L118.53667503256217,-423.74426039413913L118.79149843996454,-506.608591101732L118.99204877107728,-591.6923818675683L119.15279319113709,-677.4095830311365L119.28406748376943,-762.698471412473L119.39319501308529,-846.8729146286839L119.48538362697249,-929.5036347750558L119.56438758200008,-1010.3322527877858L119.63295554534645,-1089.2135067491233L119.69313435763007,-1166.0767228003788L119.7464729465391,-1240.9003902839418L119.79416156967552,-1313.6952423531493L119.83712887463322,-1384.4929003242455L119.87610832415203,-1453.3383265685684L119.91168743689263,-1520.2846006778657" stroke="#F98F00" stroke-width="2"/></g></g><path class="foreground" aria-hidden="true" d="" display="none"/></g></g><g class="mark-group role-legend" role="graphics-symbol" aria-roledescription="legend" aria-label="Symbol legend for stroke color with 2 values: Young, Old"><g transform="translate(5,5)"><path class="background" aria-hidden="true" d="M0,0h46v24h-46Z" pointer-events="none"/><g><g class="mark-group role-legend-entry"><g transform="translate(0,0)"><path class="background" aria-hidden="true" d="M0,0h0v0h0Z" pointer-events="none"/><g><g class="mark-group role-scope" role="graphics-object" aria-roledescription="group mark container"><g transform="translate(0,0)"><path class="background" aria-hidden="true" d="M0,0h46v11h-46Z" pointer-events="none" opacity="1"/><g><g class="mark-symbol role-legend-symbol" pointer-events="none"><path transform="translate(6,6)" d="M-5,0L5,0" stroke="#009DA3" stroke-width="1.5" opacity="1"/></g><g class="mark-text role-legend-label" pointer-events="none"><text text-anchor="start" transform="translate(16,9)" font-family="Arial" font-size="10px" fill="#000" opacity="1">Young</text></g></g><path class="foreground" aria-hidden="true" d="" pointer-events="none" display="none"/></g><g transform="translate(0,13)"><path class="background" aria-hidden="true" d="M0,0h46v11h-46Z" pointer-events="none" opacity="1"/><g><g class="mark-symbol role-legend-symbol" pointer-events="none"><path transform="translate(6,6)" d="M-5,0L5,0" stroke="#F98F00" stroke-width="1.5" opacity="1"/></g><g class="mark-text role-legend-label" pointer-events="none"><text text-anchor="start" transform="translate(16,9)" font-family="Arial" font-size="10px" fill="#000" opacity="1">Old</text></g></g><path class="foreground" aria-hidden="true" d="" pointer-events="none" display="none"/></g></g></g><path class="foreground" aria-hidden="true" d="" pointer-events="none" display="none"/></g></g></g><path class="foreground" aria-hidden="true" d="" pointer-events="none" display="none"/></g></g></g><path class="foreground" aria-hidden="true" d="" display="none"/></g></g></g><defs><clipPath id="clip1"><rect x="0" y="0" width="120" height="120"/></clipPath><clipPath id="clip2"><rect x="0" y="0" width="120" height="120"/></clipPath></defs></svg>
