<?xml version="1.0" encoding="utf-8"?>
<!DOCTYPE svg PUBLIC "-//W3C//DTD SVG 1.1//EN" "http://www.w3.org/Graphics/SVG/1.1/DTD/svg11.dtd">
<svg xmlns="http://www.w3.org/2000/svg" xmlns:xlink="http://www.w3.org/1999/xlink" version="1.1" class="marks" width="168" height="165" viewBox="0 0 168 165"><rect width="168" height="165" fill="white"/><g fill="none" stroke-miterlimit="10" transform="translate(43,10)"><g class="mark-group role-frame root" role="graphics-object" aria-roledescription="group mark container"><g transform="translate(0,0)"><path class="background" aria-hidden="true" d="M0.5,0.5h120v120h-120Z"/><g><g class="mark-group role-axis" role="graphics-symbol" aria-roledescription="axis" aria-label="X-axis titled 'VO2 (mmol/L mito/s)' for a linear scale with values from 0.0 to 1.6"><g transform="translate(0.5,120.5)"><path class="background" aria-hidden="true" d="M0,0h0v0h0Z" pointer-events="none"/><g><g class="mark-rule role-axis-tick" pointer-events="none"><line transform="translate(0,0)" x2="0" y2="3" stroke="black" stroke-width="1" opacity="1"/><line transform="translate(38,0)" x2="0" y2="3" stroke="black" stroke-width="1" opacity="1"/><line transform="translate(75,0)" x2="0" y2="3" stroke="black" stroke-width="1" opacity="1"/><line transform="translate(113,0)" x2="0" y2="3" stroke="black" stroke-width="1" opacity="1"/></g><g class="mark-text role-axis-label" pointer-events="none"><text text-anchor="start" transform="translate(0,13)" font-family="Arial" font-size="10px" fill="#000" opacity="1">0.0</text><text text-anchor="middle" transform="translate(37.5,13)" font-family="Arial" font-size="10px" fill="#000" opacity="1">0.5</text><text text-anchor="middle" transform="translate(75,13)" font-family="Arial" font-size="10px" fill="#000" opacity="1">1.0</text><text text-anchor="middle" transform="translate(112.5,13)" font-family="Arial" font-size="10px" fill="#000" opacity="1">1.5</text></g><g class="mark-rule role-axis-domain" pointer-events="none"><line transform="translate(0,0)" x2="120" y2="0" stroke="black" stroke-width="1" opacity="1"/></g><g class="mark-text role-axis-title" pointer-events="none"><text text-anchor="middle" transform="translate(60,28)" font-family="Arial" font-size="11px" font-weight="normal" fill="#000" opacity="1">VO2 (mmol/L mito/s)</text></g></g><path class="foreground" aria-hidden="true" d="" pointer-events="none" display="none"/></g></g><g class="mark-group role-axis" role="graphics-symbol" aria-roledescription="axis" aria-label="Y-axis titled 'ADP (μM)' for a linear scale with values from 0 to 100"><g transform="translate(0.5,0.5)"><path class="background" aria-hidden="true" d="M0,0h0v0h0Z" pointer-events="none"/><g><g class="mark-rule role-axis-tick" pointer-events="none"><line transform="translate(0,120)" x2="-3" y2="0" stroke="black" stroke-width="1" opacity="1"/><line transform="translate(0,60)" x2="-3" y2="0" stroke="black" stroke-width="1" opacity="1"/><line transform="translate(0,0)" x2="-3" y2="0" stroke="black" stroke-width="1" opacity="1"/></g><g class="mark-text role-axis-label" pointer-events="none"><text text-anchor="end" transform="translate(-5,123)" font-family="Arial" font-size="10px" fill="#000" opacity="1">0</text><text text-anchor="end" transform="translate(-5,63)" font-family="Arial" font-size="10px" fill="#000" opacity="1">50</text><text text-anchor="end" transform="translate(-5,3)" font-family="Arial" font-size="10px" fill="#000" opacity="1">100</text></g><g class="mark-rule role-axis-domain" pointer-events="none"><line transform="translate(0,120)" x2="0" y2="-120" stroke="black" stroke-width="1" opacity="1"/></g><g class="mark-text role-axis-title" pointer-events="none"><text text-anchor="middle" transform="translate(-27,60) rotate(-90) translate(0,-2)" font-family="Arial" font-size="11px" font-weight="normal" fill="#000" opacity="1">ADP (μM)</text></g></g><path class="foreground" aria-hidden="true" d="" pointer-events="none" display="none"/></g></g><g class="mark-group role-scope layer_0_pathgroup" role="graphics-object" aria-roledescription="group mark container"><g transform="translate(0,0)"><path class="background" aria-hidden="true" d="M0,0h120v120h-120Z"/><g><g class="mark-line role-mark layer_0_marks" clip-path="url(#clip1)" role="graphics-object" aria-roledescription="line mark container"><path aria-label="VO2_m: 0.22243002117; ADP_μ: 3.04388077688; group: Young" role="graphics-symbol" aria-roledescription="line mark" d="M16.682251587772157,116.3473430677401L19.172564057939567,114.9761727874679L21.61507987456618,113.6378354577032L24.025921033108524,112.32684259829156L26.415725145130537,111.03396823328237L28.790568896687457,109.75063996843687L31.153827848723452,108.46961037875322L33.50733748453526,107.1846666123771L35.852005395637214,105.89021272857777L38.18814950067678,104.58091658177543L40.515674802538385,103.25140080160267L42.83416660054665,101.89596521779066L45.14294389555636,100.50830191671653L47.44106004837214,99.08117314286363L49.727314043634394,97.60600905313588L52.00020392470273,96.07239062725878L54.25788757315812,94.4672868269749L56.49810232001956,92.77399696795497L58.71807996966299,90.97045608486434L60.91437360692027,89.0265480823283L63.08265328368891,86.8994534600566L65.217397123692,84.52522813389592L67.3113695131395,81.80194104238105L69.35488706896962,78.55355713195071L71.33461355486727,74.44372366371549L73.23181273157914,68.7490374719192L75.02001668882322,59.711247167987224L76.66090347373746,42.63295465006506L78.08464716815509,4.4258810928379155L79.10816392058153,-90.5531229157227L79.51009675240509,-288.5227766177186L79.68997368155274,-526.5459556480657L79.84304979824402,-757.7599353073996L79.94995268862306,-978.1962406338719L80.02717638806594,-1184.8321126995947L80.08617032896348,-1377.1276817793505L80.13318747657807,-1555.7265548481L80.17186591024017,-1721.6552898173159L80.20446041763836,-1876.009082781507L80.2324526097453,-2019.8325307015805L80.25686100620084,-2154.080145763031L80.27840852751106,-2279.6088150243704L80.29762643495562,-2397.1819865519933L80.31491589718681,-2507.4785233317975L80.33058598635283,-2611.1025776116203L80.34487855659611,-2708.592970013925L80.3579879950406,-2800.4314104038L80.37006882446514,-2887.0501180992214L80.38125034810835,-2968.8377348887498L80.39164295956874,-3046.1447681603263L80.40133246866777,-3119.2888302228553L80.410395559218,-3188.557883646799L80.41889658204813,-3254.214001647513L80.42689111856967,-3316.4962149165326L80.43442699658492,-3375.6230790937198L80.44154631058865,-3431.7948359759207L80.4482857325834,-3485.195363713846L80.45467794593006,-3535.9938197806796L80.46074889623311,-3584.346254880497L80.4665270169183,-3630.3965228062602L80.4720337071333,-3674.277855102625L80.4772887315684,-3716.1136442148345L80.48231077344973,-3756.0183333101418L80.48711581390168,-3794.0982861525954L80.49172036419134,-3830.452385872814L80.49613198495115,-3865.17301124403L80.50037094922949,-3898.3458567619837L80.50444318364316,-3930.0513876314035L80.50836080117415,-3960.3646007984134L80.5121317232133,-3989.3557924278166L80.51576649460948,-4017.0907228948104L80.51927044775968,-4043.6311982054413L80.5226541866702,-4069.035075115511L80.52592117018015,-4093.356898252449L80.52907903185053,-4116.647842129783L80.53213263620984,-4138.956138449727L80.53508957327429,-4160.3271495510635L80.53795256192271,-4180.803754474228L80.54072714158461,-4200.426341041594L80.54341757034457,-4219.2330709460775L80.54602706018606,-4237.260023290299L80.54856052415035,-4254.54127872028L80.55102071904656,-4271.109127920896L80.55341179047457,-4286.994119231804L80.5557360330491,-4302.225232260296L80.55799713802992,-4316.829916191233L80.56019625600604,-4330.834257694939L80.56233763815146,-4344.262964916954L80.56442303305566,-4357.139549797177L80.56645496725052,-4369.4863441674115L80.56843543284585,-4381.324591868364L80.57036634453159,-4392.674505638117L80.57225580379708,-4403.555236613013L80.57408801135233,-4413.985366885654L80.57588202919737,-4423.982109729943L80.57763385756807,-4433.5621982301045L80.57934505584079,-4442.741515500223L80.58101708345534,-4451.535219466856L80.58265134177239,-4459.957781929395L80.58424901265124,-4468.023027748119" stroke="#009DA3" stroke-width="2"/></g></g><path class="foreground" aria-hidden="true" d="" display="none"/></g><g transform="translate(0,0)"><path class="background" aria-hidden="true" d="M0,0h120v120h-120Z"/><g><g class="mark-line role-mark layer_0_marks" clip-path="url(#clip2)" role="graphics-object" aria-roledescription="line mark container"><path aria-label="VO2_m: 0.223728159787; ADP_μ: 2.96981665923; group: Old" role="graphics-symbol" aria-roledescription="line mark" d="M16.779611983998254,116.43622000892915L19.282630007414536,115.06724433865709L21.741527126736823,113.73827561622686L24.171476192498158,112.44362108603784L26.583058739531616,111.17391322260966L28.98247114991493,109.92086794008293L31.373308818164322,108.67795771855197L33.75770519479252,107.44006934173056L36.136953743228474,106.20309159551493L38.511845260440246,104.96359732793218L40.88285192637419,103.71861186790909L43.25023962399813,102.46545444915222L45.61413032810714,101.20161664272126L47.97454271530417,99.92467137782202L50.3314157206683,98.63219654510903L52.684624264823306,97.32171067203495L55.033988572579155,95.99061258243681L57.37927802838197,94.63611800277043L59.72021422726231,93.25519688336482L62.05646857638885,91.84449979675033L64.38766115627071,90.40027054805735L66.71335675835809,88.91825185952892L69.03305499560292,87.39354860249117L71.34618502510688,85.8204768934361L73.65209162871051,84.19235313962741L75.95002114838843,82.50122246892147L78.23910050458895,80.73748210931628L80.51831671336588,78.88939265659211L82.78647904494524,76.94233676989118L85.04218057214229,74.87779465046029L87.28374022150827,72.67178082423166L89.50912722893842,70.2924438228877L91.71584304637966,67.69614831796355L93.90078979458431,64.8210961884547L96.06002229424203,61.57575610133709L98.18841086671429,57.81780383655695L100.27906910178353,53.312332610771634L102.32245178790279,47.64466406132554L104.30453687454155,40.027054350391765L106.20352898192753,28.850908141871457L107.98283639020796,10.651295882352692L109.57767228678861,-22.01399303268446L110.88108324618058,-82.94307092560464L111.79415781415142,-186.11220073398587L112.37174613665442,-325.44369329504883L112.7449497790908,-482.238754711796L112.9961495758049,-643.7762806027914L113.1747259340557,-803.1422586714558L113.30846284757827,-957.0965088224868L113.41292830803833,-1104.3328067449702L113.49728295718053,-1244.4783381365837L113.56721023629474,-1377.6024269287016L113.62641151505571,-1503.9774923412926L113.67739937541408,-1623.9613523117841L113.72194024466756,-1737.9386080172033L113.7613098565023,-1846.2917588974788L113.79645945488684,-1949.3866645758637L113.82810994103215,-2047.5668079803434L113.85681971974617,-2141.151097860318L113.88302897638451,-2230.433937242238L113.90709058320655,-2315.6863245117092L113.92928921838296,-2397.157581838764L113.94986000800398,-2475.0769368802407L113.96899630157264,-2549.6554689688955L113.98686201059371,-2621.0875753926607L114.00359348954692,-2689.5527450252503L114.01931049880137,-2755.2166715107564L114.03411142859379,-2818.2329325854707L114.04808330711663,-2878.7438021689413L114.0613016818511,-2936.8813822750626L114.0738344867173,-2992.7684474164894L114.08573813442537,-3046.51948699775L114.09706403764746,-3098.241213239566L114.10785783082592,-3148.0332960227674L114.1181593651922,-3195.988985171821L114.12800779376606,-3242.195473442541L114.1374326767379,-3286.734729709472L114.14646344016019,-3329.683590024276L114.15512904757642,-3371.1141854800635L114.16345116679832,-3411.0945414469093L114.17145281680365,-3449.6886078086386L114.17915397686873,-3486.956709257793L114.18657176898479,-3522.9558067192065L114.19372367691885,-3557.7396428497614L114.20062527485452,-3591.3590400154017L114.20729083884717,-3623.8620870851505L114.21373200172518,-3655.294364232657L114.21996219303746,-3685.6989887741715L114.22599217613866,-3715.1169021175756L114.23183208352634,-3743.5869563220313L114.23749160459617,-3771.146043880134L114.24297978166923,-3797.8292273747247L114.24830445993412,-3823.669867210799L114.25347100373908,-3848.699756731865L114.258494552305,-3872.9489272243686L114.26337343507399,-3896.4463708163435L114.26811962762554,-3919.219411595678L114.27273416883615,-3941.294345124284L114.27722739099052,-3962.696056752327L114.28160131174296,-3983.448483472872" stroke="#F98F00" stroke-width="2"/></g></g><path class="foreground" aria-hidden="true" d="" display="none"/></g></g><g class="mark-group role-legend" role="graphics-symbol" aria-roledescription="legend" aria-label="Symbol legend for stroke color with 2 values: Young, Old"><g transform="translate(5,5)"><path class="background" aria-hidden="true" d="M0,0h46v24h-46Z" pointer-events="none"/><g><g class="mark-group role-legend-entry"><g transform="translate(0,0)"><path class="background" aria-hidden="true" d="M0,0h0v0h0Z" pointer-events="none"/><g><g class="mark-group role-scope" role="graphics-object" aria-roledescription="group mark container"><g transform="translate(0,0)"><path class="background" aria-hidden="true" d="M0,0h46v11h-46Z" pointer-events="none" opacity="1"/><g><g class="mark-symbol role-legend-symbol" pointer-events="none"><path transform="translate(6,6)" d="M-5,0L5,0" stroke="#009DA3" stroke-width="1.5" opacity="1"/></g><g class="mark-text role-legend-label" pointer-events="none"><text text-anchor="start" transform="translate(16,9)" font-family="Arial" font-size="10px" fill="#000" opacity="1">Young</text></g></g><path class="foreground" aria-hidden="true" d="" pointer-events="none" display="none"/></g><g transform="translate(0,13)"><path class="background" aria-hidden="true" d="M0,0h46v11h-46Z" pointer-events="none" opacity="1"/><g><g class="mark-symbol role-legend-symbol" pointer-events="none"><path transform="translate(6,6)" d="M-5,0L5,0" stroke="#F98F00" stroke-width="1.5" opacity="1"/></g><g class="mark-text role-legend-label" pointer-events="none"><text text-anchor="start" transform="translate(16,9)" font-family="Arial" font-size="10px" fill="#000" opacity="1">Old</text></g></g><path class="foreground" aria-hidden="true" d="" pointer-events="none" display="none"/></g></g></g><path class="foreground" aria-hidden="true" d="" pointer-events="none" display="none"/></g></g></g><path class="foreground" aria-hidden="true" d="" pointer-events="none" display="none"/></g></g></g><path class="foreground" aria-hidden="true" d="" display="none"/></g></g></g><defs><clipPath id="clip1"><rect x="0" y="0" width="120" height="120"/></clipPath><clipPath id="clip2"><rect x="0" y="0" width="120" height="120"/></clipPath></defs></svg>
