<?xml version="1.0" encoding="utf-8"?>
<!DOCTYPE svg PUBLIC "-//W3C//DTD SVG 1.1//EN" "http://www.w3.org/Graphics/SVG/1.1/DTD/svg11.dtd">
<svg xmlns="http://www.w3.org/2000/svg" xmlns:xlink="http://www.w3.org/1999/xlink" version="1.1" class="marks" width="169" height="165" viewBox="0 0 169 165"><rect width="169" height="165" fill="white"/><g fill="none" stroke-miterlimit="10" transform="translate(43,10)"><g class="mark-group role-frame root" role="graphics-object" aria-roledescription="group mark container"><g transform="translate(0,0)"><path class="background" aria-hidden="true" d="M0.5,0.5h120v120h-120Z"/><g><g class="mark-group role-axis" role="graphics-symbol" aria-roledescription="axis" aria-label="X-axis titled 'VO2 (mmol/L mito/s)' for a linear scale with values from 0.0 to 3.0"><g transform="translate(0.5,120.5)"><path class="background" aria-hidden="true" d="M0,0h0v0h0Z" pointer-events="none"/><g><g class="mark-rule role-axis-tick" pointer-events="none"><line transform="translate(0,0)" x2="0" y2="3" stroke="black" stroke-width="1" opacity="1"/><line transform="translate(40,0)" x2="0" y2="3" stroke="black" stroke-width="1" opacity="1"/><line transform="translate(80,0)" x2="0" y2="3" stroke="black" stroke-width="1" opacity="1"/><line transform="translate(120,0)" x2="0" y2="3" stroke="black" stroke-width="1" opacity="1"/></g><g class="mark-text role-axis-label" pointer-events="none"><text text-anchor="start" transform="translate(0,13)" font-family="Arial" font-size="10px" fill="#000" opacity="1">0</text><text text-anchor="middle" transform="translate(40,13)" font-family="Arial" font-size="10px" fill="#000" opacity="1">1</text><text text-anchor="middle" transform="translate(80,13)" font-family="Arial" font-size="10px" fill="#000" opacity="1">2</text><text text-anchor="end" transform="translate(120,13)" font-family="Arial" font-size="10px" fill="#000" opacity="1">3</text></g><g class="mark-rule role-axis-domain" pointer-events="none"><line transform="translate(0,0)" x2="120" y2="0" stroke="black" stroke-width="1" opacity="1"/></g><g class="mark-text role-axis-title" pointer-events="none"><text text-anchor="middle" transform="translate(60,28)" font-family="Arial" font-size="11px" font-weight="normal" fill="#000" opacity="1">VO2 (mmol/L mito/s)</text></g></g><path class="foreground" aria-hidden="true" d="" pointer-events="none" display="none"/></g></g><g class="mark-group role-axis" role="graphics-symbol" aria-roledescription="axis" aria-label="Y-axis titled 'ADP (μM)' for a linear scale with values from 0 to 100"><g transform="translate(0.5,0.5)"><path class="background" aria-hidden="true" d="M0,0h0v0h0Z" pointer-events="none"/><g><g class="mark-rule role-axis-tick" pointer-events="none"><line transform="translate(0,120)" x2="-3" y2="0" stroke="black" stroke-width="1" opacity="1"/><line transform="translate(0,60)" x2="-3" y2="0" stroke="black" stroke-width="1" opacity="1"/><line transform="translate(0,0)" x2="-3" y2="0" stroke="black" stroke-width="1" opacity="1"/></g><g class="mark-text role-axis-label" pointer-events="none"><text text-anchor="end" transform="translate(-5,123)" font-family="Arial" font-size="10px" fill="#000" opacity="1">0</text><text text-anchor="end" transform="translate(-5,63)" font-family="Arial" font-size="10px" fill="#000" opacity="1">50</text><text text-anchor="end" transform="translate(-5,3)" font-family="Arial" font-size="10px" fill="#000" opacity="1">100</text></g><g class="mark-rule role-axis-domain" pointer-events="none"><line transform="translate(0,120)" x2="0" y2="-120" stroke="black" stroke-width="1" opacity="1"/></g><g class="mark-text role-axis-title" pointer-events="none"><text text-anchor="middle" transform="translate(-27,60) rotate(-90) translate(0,-2)" font-family="Arial" font-size="11px" font-weight="normal" fill="#000" opacity="1">ADP (μM)</text></g></g><path class="foreground" aria-hidden="true" d="" pointer-events="none" display="none"/></g></g><g class="mark-group role-scope layer_0_pathgroup" role="graphics-object" aria-roledescription="group mark container"><g transform="translate(0,0)"><path class="background" aria-hidden="true" d="M0,0h120v120h-120Z"/><g><g class="mark-line role-mark layer_0_marks" clip-path="url(#clip1)" role="graphics-object" aria-roledescription="line mark container"><path aria-label="VO2_m: 0.237553031466; ADP_μ: 2.91011150327; group: Young" role="graphics-symbol" aria-roledescription="line mark" d="M9.50212125865334,116.50786619607835L10.800720415165014,115.18128697093032L12.090879771792606,113.92031709661983L13.375787893062926,112.69940063030873L14.657299508385636,111.50508982550681L15.936530043141131,110.32897370883396L17.214163568256918,109.16529984951767L18.490629185927602,108.00989875162875L19.76619780672989,106.85960664318439L21.041041882139695,105.71193360545388L22.31526943699779,104.56485376890907L23.588944909129793,103.41666913778546L24.862103376139178,102.26591743101467L26.13475890587659,101.11130700732551L27.40691099021159,99.95166650052882L28.67854344755974,98.78591614201882L29.94963737947456,97.61302994523233L31.220162262010806,96.43202074700727L32.4900824085398,95.24192027997306L33.75935498258303,94.04175697651507L35.02793283926101,92.83054803329225L36.295762761164966,91.60728088137733L37.562786196301886,90.37090088084594L38.82893790155229,89.12029343261275L40.094146691357324,87.85427255078226L41.35833383806753,86.57156038998964L42.621411791454,85.27076553551397L43.88328535884831,83.95037026611567L45.14384806663793,82.60869557716889L46.40298140452784,81.24387023758712L47.660553489154616,79.85380325136076L48.9164167038216,78.43613279991453L50.17040569355116,76.98818009696227L51.422333086868704,75.50687622755076L52.67198753252901,73.98869272507794L53.91912853294144,72.42953704943514L55.16348137142367,70.82462957155815L56.40473150809159,69.16834933143402L57.64251512007148,67.45401719997922L58.87641306440822,65.67366243912473L60.10593602221148,63.81764392410791L61.33051053389164,61.87419692246441L62.54946174459343,59.8288035362365L63.76198838811459,57.66330135087051L64.96713171136493,55.354628041352065L66.16373652584781,52.87298570674882L67.35039469428679,50.17904951368491L68.52536840992057,47.21965440898943L69.68649476520821,43.92065705838631L70.83101593808372,40.17473251529899L71.95534173020644,35.818869994210175L73.0546428422389,30.590539888617986L74.12211637785667,24.03503803846904L75.14762477163522,15.296877117885836L76.11507015623228,2.6276133199163976L76.99747844816963,-17.74513931074022L77.74969703418722,-53.62942482907327L78.3122498000665,-117.09321594717694L78.66991085741391,-213.60123534393577L78.89510993248557,-331.31464903843505L79.04721575647227,-457.73467569662705L79.15311693330173,-586.3536631401745L79.2303127245266,-713.4747358787253L79.28926066270556,-837.2159655772048L79.33601146575612,-956.7274929592058L79.37422577217548,-1071.6914390949153L79.4062275879123,-1182.0634969451264L79.43355798925442,-1287.939382050855L79.4572789411973,-1389.484232901755L79.4781455949318,-1486.8947439489448L79.49670953293182,-1580.3784696651403L79.5133850990203,-1670.1423351437686L79.5284871072941,-1756.3869505899663L79.54226198810167,-1839.3032178544088L79.55490446706052,-1919.0711605003494L79.56657065856797,-1995.8595501704353L79.57738750956047,-2069.826063208789L79.58746049355392,-2141.117670919473L79.59687567484347,-2209.871497430646L79.60570640814807,-2276.2152460363445L79.61401387130246,-2340.268070401826L79.62185144491966,-2402.1410654412134L79.62926443556344,-2461.938050545623L79.63629172788951,-2519.7561263446664L79.64296758407939,-2575.6861610988626L79.64932184567093,-2629.813331805381L79.65538112212002,-2682.217550489398L79.66116812726186,-2732.973938195024L79.666704133155,-2782.153089322563L79.67200727355333,-2829.82154008637L79.67709395195018,-2876.041984636798L79.68197940486439,-2920.873590078736L79.68667689870794,-2964.3722656316104L79.69119861670002,-3006.5908781838557L79.6955556902668,-3047.5794689857294L79.69975859740204,-3087.3854335666165L79.7038144578194,-3126.0538572474074L79.70773410602672,-3163.6272903462627L79.71152430021581,-3200.1463367198858L79.71519230761419,-3235.649540075622" stroke="#009DA3" stroke-width="2"/></g></g><path class="foreground" aria-hidden="true" d="" display="none"/></g><g transform="translate(0,0)"><path class="background" aria-hidden="true" d="M0,0h120v120h-120Z"/><g><g class="mark-line role-mark layer_0_marks" clip-path="url(#clip2)" role="graphics-object" aria-roledescription="line mark container"><path aria-label="VO2_m: 0.238581448815; ADP_μ: 2.82588195398; group: Old" role="graphics-symbol" aria-roledescription="line mark" d="M9.543257952582094,116.6089416552285L10.844894263326923,115.28307417081488L12.139761098652782,114.02740249360431L13.429973432312796,112.81481025684822L14.717012589206702,111.63124475601374L16.00186107707659,110.46797165885674L17.285164065161972,109.3190650746974L18.56734461915333,108.18027114812864L19.848685319879074,107.04840667687417L21.129374753003212,105.9210067880179L22.409541931430056,104.79610780300725L23.689273253436358,103.67210321145592L24.9686270821546,102.54764946930065L26.247641383480016,101.42160043969041L27.526340439899027,100.29295763772171L28.804737769192418,99.16083762163936L30.08283876795555,98.02444384381452L31.36064410585427,96.88305046280034L32.63814912829849,95.7359824932386L33.915347486870445,94.58261043536665L35.19222807721281,93.42233057617209L36.46877893658713,92.25456594294852L37.744986174146376,91.0787557656135L39.0208341969042,89.89434998176468L40.29630638995092,88.70080426823178L41.571384898384366,87.49757618435882L42.846049898651124,86.2841211910456L44.12028190365968,85.05988764453441L45.39405954459069,83.8243157306769L46.66736052995014,82.5768300910385L47.94016132077617,81.31684140873084L49.2124375248723,80.0437389574406L50.484162942462355,78.75688922338409L51.75531085507389,77.45563137003424L53.02585251308373,76.1392733535759L54.29575774090505,74.80708818902447L55.564994889511716,73.4583091447909L56.83352997160438,72.09212467852194L58.101327837154436,70.70767476109056L59.368350098946564,69.30404122474825L60.63455643597929,67.88024508620317L61.899904439212015,66.43523696438143L63.16434760412223,64.96788952321248L64.42783696773972,63.47698785962433L65.69031957167556,61.961217051616536L66.9517387050858,60.41915331698429L68.21203313341795,58.849248646297724L69.4711363971927,57.24981045292723L70.72897706170387,55.61899163075991L71.98547724210302,53.95476200211029L73.24055203441293,52.25488521298664L74.49410889912158,50.51688734111261L75.74604648680182,48.73803108903527L76.99625554148616,46.915261376731L78.24460872477202,45.045165534101734L79.49097623026567,43.12391815997821L80.73520717328691,41.147204248926414L81.97713605284693,39.11013202785538L83.21657650667217,37.00715564594369L84.4533238107238,34.83190745275495L85.68714511049211,32.57707740810314L86.91777997695777,30.234199810203876L88.14493104447443,27.793415916030014L89.36826223337358,25.243161120019778L90.58738745954187,22.569737458351504L91.80186289347814,19.756812553121623L93.01117545789594,16.78468447337874L94.21472984075766,13.629336570656143L95.41179981854343,10.261105480367956L96.60156699367069,6.6429007838769705L97.78301420305804,2.7274040065130967L98.95490800434999,-1.5466509758845337L100.1157353386207,-6.2603980493766365L101.263581589256,-11.523872765445464L102.39599625428532,-17.49042583961635L103.50974211823326,-24.379884730457455L104.60047074200506,-32.51796531336436L105.66206441190175,-42.40211070373437L106.68578035231867,-54.81231194394253L107.65885534863708,-70.98463876559171L108.56292535623173,-92.83141063530648L109.37367210137452,-123.04160152734113L110.06539157055911,-164.59317076953857L110.62283007159586,-219.2994820384631L111.05155392505144,-286.424249798739L111.3736810542431,-363.10330875266254L111.61566604358364,-445.91381431650575L111.80025983901857,-531.9608317206427L111.94424210764299,-619.1760851447361L112.05921023502768,-706.202900074966L112.15304659351699,-792.1901853808658L112.23115252249785,-876.6198949090814L112.29729051543157,-959.1885069014926L112.35413579835354,-1039.7296858687355L112.40363183051402,-1118.164797110464L112.44721720064089,-1194.4715321706958L112.48597831807533,-1268.6634423043934L112.52074862427868,-1340.7768377723696L112.55217720800766,-1410.8621284808912L112.58077796688153,-1478.977991936728" stroke="#F98F00" stroke-width="2"/></g></g><path class="foreground" aria-hidden="true" d="" display="none"/></g></g><g class="mark-group role-legend" role="graphics-symbol" aria-roledescription="legend" aria-label="Symbol legend for stroke color with 2 values: Young, Old"><g transform="translate(5,5)"><path class="background" aria-hidden="true" d="M0,0h46v24h-46Z" pointer-events="none"/><g><g class="mark-group role-legend-entry"><g transform="translate(0,0)"><path class="background" aria-hidden="true" d="M0,0h0v0h0Z" pointer-events="none"/><g><g class="mark-group role-scope" role="graphics-object" aria-roledescription="group mark container"><g transform="translate(0,0)"><path class="background" aria-hidden="true" d="M0,0h46v11h-46Z" pointer-events="none" opacity="1"/><g><g class="mark-symbol role-legend-symbol" pointer-events="none"><path transform="translate(6,6)" d="M-5,0L5,0" stroke="#009DA3" stroke-width="1.5" opacity="1"/></g><g class="mark-text role-legend-label" pointer-events="none"><text text-anchor="start" transform="translate(16,9)" font-family="Arial" font-size="10px" fill="#000" opacity="1">Young</text></g></g><path class="foreground" aria-hidden="true" d="" pointer-events="none" display="none"/></g><g transform="translate(0,13)"><path class="background" aria-hidden="true" d="M0,0h46v11h-46Z" pointer-events="none" opacity="1"/><g><g class="mark-symbol role-legend-symbol" pointer-events="none"><path transform="translate(6,6)" d="M-5,0L5,0" stroke="#F98F00" stroke-width="1.5" opacity="1"/></g><g class="mark-text role-legend-label" pointer-events="none"><text text-anchor="start" transform="translate(16,9)" font-family="Arial" font-size="10px" fill="#000" opacity="1">Old</text></g></g><path class="foreground" aria-hidden="true" d="" pointer-events="none" display="none"/></g></g></g><path class="foreground" aria-hidden="true" d="" pointer-events="none" display="none"/></g></g></g><path class="foreground" aria-hidden="true" d="" pointer-events="none" display="none"/></g></g></g><path class="foreground" aria-hidden="true" d="" display="none"/></g></g></g><defs><clipPath id="clip1"><rect x="0" y="0" width="120" height="120"/></clipPath><clipPath id="clip2"><rect x="0" y="0" width="120" height="120"/></clipPath></defs></svg>
