<?xml version="1.0" encoding="utf-8"?>
<!DOCTYPE svg PUBLIC "-//W3C//DTD SVG 1.1//EN" "http://www.w3.org/Graphics/SVG/1.1/DTD/svg11.dtd">
<svg xmlns="http://www.w3.org/2000/svg" xmlns:xlink="http://www.w3.org/1999/xlink" version="1.1" class="marks" width="168" height="165" viewBox="0 0 168 165"><rect width="168" height="165" fill="white"/><g fill="none" stroke-miterlimit="10" transform="translate(43,10)"><g class="mark-group role-frame root" role="graphics-object" aria-roledescription="group mark container"><g transform="translate(0,0)"><path class="background" aria-hidden="true" d="M0.5,0.5h120v120h-120Z"/><g><g class="mark-group role-axis" role="graphics-symbol" aria-roledescription="axis" aria-label="X-axis titled 'VO2 (mmol/L mito/s)' for a linear scale with values from 0.0 to 2.2"><g transform="translate(0.5,120.5)"><path class="background" aria-hidden="true" d="M0,0h0v0h0Z" pointer-events="none"/><g><g class="mark-rule role-axis-tick" pointer-events="none"><line transform="translate(0,0)" x2="0" y2="3" stroke="black" stroke-width="1" opacity="1"/><line transform="translate(55,0)" x2="0" y2="3" stroke="black" stroke-width="1" opacity="1"/><line transform="translate(109,0)" x2="0" y2="3" stroke="black" stroke-width="1" opacity="1"/></g><g class="mark-text role-axis-label" pointer-events="none"><text text-anchor="start" transform="translate(0,13)" font-family="Arial" font-size="10px" fill="#000" opacity="1">0</text><text text-anchor="middle" transform="translate(54.54545454545455,13)" font-family="Arial" font-size="10px" fill="#000" opacity="1">1</text><text text-anchor="middle" transform="translate(109.0909090909091,13)" font-family="Arial" font-size="10px" fill="#000" opacity="1">2</text></g><g class="mark-rule role-axis-domain" pointer-events="none"><line transform="translate(0,0)" x2="120" y2="0" stroke="black" stroke-width="1" opacity="1"/></g><g class="mark-text role-axis-title" pointer-events="none"><text text-anchor="middle" transform="translate(60,28)" font-family="Arial" font-size="11px" font-weight="normal" fill="#000" opacity="1">VO2 (mmol/L mito/s)</text></g></g><path class="foreground" aria-hidden="true" d="" pointer-events="none" display="none"/></g></g><g class="mark-group role-axis" role="graphics-symbol" aria-roledescription="axis" aria-label="Y-axis titled 'ADP (μM)' for a linear scale with values from 0 to 100"><g transform="translate(0.5,0.5)"><path class="background" aria-hidden="true" d="M0,0h0v0h0Z" pointer-events="none"/><g><g class="mark-rule role-axis-tick" pointer-events="none"><line transform="translate(0,120)" x2="-3" y2="0" stroke="black" stroke-width="1" opacity="1"/><line transform="translate(0,60)" x2="-3" y2="0" stroke="black" stroke-width="1" opacity="1"/><line transform="translate(0,0)" x2="-3" y2="0" stroke="black" stroke-width="1" opacity="1"/></g><g class="mark-text role-axis-label" pointer-events="none"><text text-anchor="end" transform="translate(-5,123)" font-family="Arial" font-size="10px" fill="#000" opacity="1">0</text><text text-anchor="end" transform="translate(-5,63)" font-family="Arial" font-size="10px" fill="#000" opacity="1">50</text><text text-anchor="end" transform="translate(-5,3)" font-family="Arial" font-size="10px" fill="#000" opacity="1">100</text></g><g class="mark-rule role-axis-domain" pointer-events="none"><line transform="translate(0,120)" x2="0" y2="-120" stroke="black" stroke-width="1" opacity="1"/></g><g class="mark-text role-axis-title" pointer-events="none"><text text-anchor="middle" transform="translate(-27,60) rotate(-90) translate(0,-2)" font-family="Arial" font-size="11px" font-weight="normal" fill="#000" opacity="1">ADP (μM)</text></g></g><path class="foreground" aria-hidden="true" d="" pointer-events="none" display="none"/></g></g><g class="mark-group role-scope layer_0_pathgroup" role="graphics-object" aria-roledescription="group mark container"><g transform="translate(0,0)"><path class="background" aria-hidden="true" d="M0,0h120v120h-120Z"/><g><g class="mark-line role-mark layer_0_marks" clip-path="url(#clip1)" role="graphics-object" aria-roledescription="line mark container"><path aria-label="VO2_m: 0.230646523393; ADP_μ: 2.79685923117; group: Young" role="graphics-symbol" aria-roledescription="line mark" d="M12.580719457788705,116.64376892259104L14.361836381499666,115.46797473913246L16.12931499299554,114.32530035732108L17.88665317806169,113.20736602526861L19.636716734869808,112.10786318086487L21.38148980181169,111.02176142974588L23.122280955139026,109.94505224206469L24.859940855602122,108.87450989356465L26.595015975396286,107.80748428284835L28.327853209545623,106.74174144274483L30.058658939068824,105.67533697996974L31.78754366039576,104.60652958871589L33.514546308706095,103.53370633206293L35.239650011786026,102.45532605409613L36.96279431926863,101.36987455914966L38.68387877884751,100.27581851106522L40.40276897177308,99.17156982961427L42.11929644418356,98.05544439350841L43.833256297087615,96.92561608061374L45.54440881256038,95.78007662434305L47.25247320367941,94.61657607745393L48.95712428448831,93.43256041350283L50.65798489243413,92.22509050325756L52.3546198701694,90.99074402196312L54.04652388550251,89.72548981376167L55.733109712803206,88.42451907423732L57.41369242064474,87.08203167949424L59.087470632666694,85.69094385887807L60.75349461223703,84.24246792926755L62.410651060221866,82.72557211801724L64.0575920008156,81.12610401699956L65.69270313523465,79.42557433547529L67.31401635193113,77.59921791662065L68.91911739851386,75.61284736398741L70.50497143344248,73.41745616492055L72.06773898192834,70.93948873185565L73.60240708200676,68.06181592241278L75.10226128212301,64.58375816912084L76.5579710596833,60.1295076005409L77.955969907855,53.920633618641915L79.2756796992743,44.17559100466732L80.4837038303626,26.52883617490049L81.51905751646316,-9.631927908322178L82.26797673319591,-86.01929738252848L82.65888681716694,-219.27006264896835L82.87543636156232,-381.0412113483412L83.02918094655357,-547.4729405291727L83.13616058236488,-712.0705444691931L83.21395636762489,-871.1229745793155L83.27354687922636,-1023.0553260083077L83.32107872790141,-1167.444988789481L83.36017587395295,-1304.389687952527L83.3931199507573,-1434.2103275106745L83.421414995331,-1557.3148143170845L83.44609552469474,-1674.13288910643L83.46789881839346,-1785.0854935034017L83.48736537426866,-1890.571109308898L83.50490193636574,-1990.960339930108L83.52082031544286,-2086.5948277610705L83.5353669264445,-2177.7878562308933L83.54873211627634,-2264.826825322138L83.5610773937074,-2347.9742333194445L83.5725298553889,-2427.4710157223662L83.58319621748038,-2503.5380659517737L83.59316535292122,-2576.3783613156684L83.60251226094236,-2646.178714265607L83.61130053960014,-2713.1113797104404L83.61958667115641,-2777.3353605817665L83.627416285194,-2838.997983496255L83.63482997551864,-2898.2357643789674L83.64186767141535,-2955.1752101614866L83.64855708188331,-3009.934436697938L83.65492772040986,-3062.6231757338446L83.66100373657662,-3113.343929486939L83.66680792991968,-3162.192401783509L83.67236011105672,-3209.2581729175245L83.67767786361206,-3254.625179614497L83.68277930056298,-3298.3720493851624L83.68767314228285,-3340.5729991603907L83.69237834198645,-3381.2972727690935L83.69690494518818,-3420.6104013208396L83.7012639775312,-3458.5740414583897L83.70546552785493,-3495.246347450244L83.70951847877018,-3530.682238640831L83.71343163040254,-3564.933585265557L83.71721255766471,-3598.049468657499L83.72086844182573,-3630.0763410068816L83.72440607254066,-3661.0582040431545L83.7278314297088,-3691.0367884909506L83.73115038542295,-3720.051676997801L83.73436787878062,-3748.140473102156L83.73748929047879,-3775.3388780233827L83.74051894798836,-3801.6808625150325L83.74346151894888,-3827.1987260206383L83.746320383751,-3851.923252132662L83.74909990821678,-3875.883725840817L83.7518032758729,-3899.1080916498213L83.75443392473682,-3921.6229864655593L83.75699560640415,-3943.4538138005664L83.75948957538452,-3964.6248973508605" stroke="#009DA3" stroke-width="2"/></g></g><path class="foreground" aria-hidden="true" d="" display="none"/></g><g transform="translate(0,0)"><path class="background" aria-hidden="true" d="M0,0h120v120h-120Z"/><g><g class="mark-line role-mark layer_0_marks" clip-path="url(#clip2)" role="graphics-object" aria-roledescription="line mark container"><path aria-label="VO2_m: 0.231778259001; ADP_μ: 2.71529047768; group: Old" role="graphics-symbol" aria-roledescription="line mark" d="M12.642450490973394,116.74165142678538L14.42994959755194,115.5656882776729L16.205528256067478,114.42674572570405L17.971682250914434,113.31572379336683L19.73099496775176,112.2259708202622L21.485395564876256,111.15224891594144L23.23621372268409,110.09046495779474L24.98434650109423,109.03741199445483L26.730399033025016,107.99054382311095L28.474783857166354,106.9478025749402L30.2177836105328,105.9074922034154L31.959591870163106,104.86818246884938L33.70033846065453,103.8286419517489L35.440111674033076,102.78779197981163L37.17896563443057,101.74466391912252L38.91692976560178,100.69837157431813L40.65401680193432,99.64809233763698L42.39022398492624,98.59304514674253L44.12553698116996,97.53247745619764L45.85993177441579,96.46565249865913L47.593376083907664,95.39183870918276L49.325829881777416,94.31029921538705L51.057246691273285,93.22028363191336L52.78757265669541,92.12101700175057L54.51674808250574,91.01169387270963L56.244706403280034,89.89146677413913L57.97137392946945,88.75943692405268L59.69667297950197,87.61464499295967L61.42050659969621,86.45605788327845L63.142786381606804,85.28255702526846L64.86339965846457,84.09292266975469L66.58224175449071,82.88581773763062L68.29917366609409,81.65976753721273L70.01405894315678,80.41313858388594L71.72674392593342,79.14410697651465L73.43705826862889,77.85063154033405L75.14481345891997,76.53040936845377L76.84980148137856,75.18083737560039L78.55178968937389,73.79893893427524L80.25051922649494,72.38130762133196L81.94570026204107,70.9240088631375L83.63700435390331,69.42246575348584L85.3240650917447,67.87132572241491L87.00646281528049,66.26425775236856L88.6837205131147,64.59371672470387L90.35529056213088,62.85061402759445L92.02054010265178,61.02386629997244L93.67873281828317,59.099780598215894L95.32900454864806,57.061183338623415L96.97033429126093,54.886145461202716L98.6014953247506,52.5460893758568L100.22100259330317,50.00288436427575L101.82702920481425,47.204259030404096L103.41728078595865,44.07614012163585L104.98881641981073,40.50964784456963L106.537764429577,36.337808311630354L108.05883243385962,31.291737378014098L109.54449958587892,24.915720021744168L110.98351977753396,16.39616378050463L112.3582084067401,4.2183430188580795L113.63980400676887,-14.470718321499234L114.78282382925383,-44.72446273409371L115.72804373211719,-93.67171744236596L116.43656506192819,-166.41803285065214L116.93269681676655,-260.2554131483387L117.27647628895105,-367.41883790152036L117.51978849407325,-480.9592926536098L117.69841261235409,-596.2309884112216L117.83471607684821,-710.5269980442371L117.94232527448159,-822.3834012512618L118.02973175495259,-931.0514047879217L118.10241690241509,-1036.1847411451658L118.16404780882647,-1137.6639242929139L118.21716061204168,-1235.4972691090554L118.26356182111844,-1329.764382001014L118.3045720703666,-1420.5833634331816L118.34117779865592,-1508.0916107418734L118.37413364014625,-1592.4341574255545L118.40402410786257,-1673.7572035166404L118.43131306583517,-1752.203853094724L118.45636805618346,-1827.9123616091915L118.47949014683748,-1901.014447746381L118.50092506007628,-1971.635097885588L118.52087655191565,-2039.892336988748L118.5395151471813,-2105.897345682278L118.55698491826405,-2169.7547046785094L118.57340760713947,-2231.5627735936423L118.5888903679615,-2291.413852507918L118.60351794496245,-2349.39512542194L118.61737418561158,-2405.588036586625L118.63052568518793,-2460.0695987387867L118.64303287363306,-2512.9122373645755L118.65494818782814,-2564.1842640821947L118.66631867923239,-2613.950095256295L118.67718609881693,-2662.270563495637L118.6875876728105,-2709.2031665568484L118.69755682636332,-2754.802294152191L118.70712353480735,-2799.119448684776L118.71631500407722,-2842.2034309567043L118.72515572716449,-2884.1005345997987" stroke="#F98F00" stroke-width="2"/></g></g><path class="foreground" aria-hidden="true" d="" display="none"/></g></g><g class="mark-group role-legend" role="graphics-symbol" aria-roledescription="legend" aria-label="Symbol legend for stroke color with 2 values: Young, Old"><g transform="translate(5,5)"><path class="background" aria-hidden="true" d="M0,0h46v24h-46Z" pointer-events="none"/><g><g class="mark-group role-legend-entry"><g transform="translate(0,0)"><path class="background" aria-hidden="true" d="M0,0h0v0h0Z" pointer-events="none"/><g><g class="mark-group role-scope" role="graphics-object" aria-roledescription="group mark container"><g transform="translate(0,0)"><path class="background" aria-hidden="true" d="M0,0h46v11h-46Z" pointer-events="none" opacity="1"/><g><g class="mark-symbol role-legend-symbol" pointer-events="none"><path transform="translate(6,6)" d="M-5,0L5,0" stroke="#009DA3" stroke-width="1.5" opacity="1"/></g><g class="mark-text role-legend-label" pointer-events="none"><text text-anchor="start" transform="translate(16,9)" font-family="Arial" font-size="10px" fill="#000" opacity="1">Young</text></g></g><path class="foreground" aria-hidden="true" d="" pointer-events="none" display="none"/></g><g transform="translate(0,13)"><path class="background" aria-hidden="true" d="M0,0h46v11h-46Z" pointer-events="none" opacity="1"/><g><g class="mark-symbol role-legend-symbol" pointer-events="none"><path transform="translate(6,6)" d="M-5,0L5,0" stroke="#F98F00" stroke-width="1.5" opacity="1"/></g><g class="mark-text role-legend-label" pointer-events="none"><text text-anchor="start" transform="translate(16,9)" font-family="Arial" font-size="10px" fill="#000" opacity="1">Old</text></g></g><path class="foreground" aria-hidden="true" d="" pointer-events="none" display="none"/></g></g></g><path class="foreground" aria-hidden="true" d="" pointer-events="none" display="none"/></g></g></g><path class="foreground" aria-hidden="true" d="" pointer-events="none" display="none"/></g></g></g><path class="foreground" aria-hidden="true" d="" display="none"/></g></g></g><defs><clipPath id="clip1"><rect x="0" y="0" width="120" height="120"/></clipPath><clipPath id="clip2"><rect x="0" y="0" width="120" height="120"/></clipPath></defs></svg>
