<?xml version="1.0" encoding="utf-8"?>
<!DOCTYPE svg PUBLIC "-//W3C//DTD SVG 1.1//EN" "http://www.w3.org/Graphics/SVG/1.1/DTD/svg11.dtd">
<svg xmlns="http://www.w3.org/2000/svg" xmlns:xlink="http://www.w3.org/1999/xlink" version="1.1" class="marks" width="168" height="165" viewBox="0 0 168 165"><rect width="168" height="165" fill="white"/><g fill="none" stroke-miterlimit="10" transform="translate(43,10)"><g class="mark-group role-frame root" role="graphics-object" aria-roledescription="group mark container"><g transform="translate(0,0)"><path class="background" aria-hidden="true" d="M0.5,0.5h120v120h-120Z"/><g><g class="mark-group role-axis" role="graphics-symbol" aria-roledescription="axis" aria-label="X-axis titled 'VO2 (mmol/L mito/s)' for a linear scale with values from 0.0 to 2.2"><g transform="translate(0.5,120.5)"><path class="background" aria-hidden="true" d="M0,0h0v0h0Z" pointer-events="none"/><g><g class="mark-rule role-axis-tick" pointer-events="none"><line transform="translate(0,0)" x2="0" y2="3" stroke="black" stroke-width="1" opacity="1"/><line transform="translate(55,0)" x2="0" y2="3" stroke="black" stroke-width="1" opacity="1"/><line transform="translate(109,0)" x2="0" y2="3" stroke="black" stroke-width="1" opacity="1"/></g><g class="mark-text role-axis-label" pointer-events="none"><text text-anchor="start" transform="translate(0,13)" font-family="Arial" font-size="10px" fill="#000" opacity="1">0</text><text text-anchor="middle" transform="translate(54.54545454545455,13)" font-family="Arial" font-size="10px" fill="#000" opacity="1">1</text><text text-anchor="middle" transform="translate(109.0909090909091,13)" font-family="Arial" font-size="10px" fill="#000" opacity="1">2</text></g><g class="mark-rule role-axis-domain" pointer-events="none"><line transform="translate(0,0)" x2="120" y2="0" stroke="black" stroke-width="1" opacity="1"/></g><g class="mark-text role-axis-title" pointer-events="none"><text text-anchor="middle" transform="translate(60,28)" font-family="Arial" font-size="11px" font-weight="normal" fill="#000" opacity="1">VO2 (mmol/L mito/s)</text></g></g><path class="foreground" aria-hidden="true" d="" pointer-events="none" display="none"/></g></g><g class="mark-group role-axis" role="graphics-symbol" aria-roledescription="axis" aria-label="Y-axis titled 'ADP (μM)' for a linear scale with values from 0 to 100"><g transform="translate(0.5,0.5)"><path class="background" aria-hidden="true" d="M0,0h0v0h0Z" pointer-events="none"/><g><g class="mark-rule role-axis-tick" pointer-events="none"><line transform="translate(0,120)" x2="-3" y2="0" stroke="black" stroke-width="1" opacity="1"/><line transform="translate(0,60)" x2="-3" y2="0" stroke="black" stroke-width="1" opacity="1"/><line transform="translate(0,0)" x2="-3" y2="0" stroke="black" stroke-width="1" opacity="1"/></g><g class="mark-text role-axis-label" pointer-events="none"><text text-anchor="end" transform="translate(-5,123)" font-family="Arial" font-size="10px" fill="#000" opacity="1">0</text><text text-anchor="end" transform="translate(-5,63)" font-family="Arial" font-size="10px" fill="#000" opacity="1">50</text><text text-anchor="end" transform="translate(-5,3)" font-family="Arial" font-size="10px" fill="#000" opacity="1">100</text></g><g class="mark-rule role-axis-domain" pointer-events="none"><line transform="translate(0,120)" x2="0" y2="-120" stroke="black" stroke-width="1" opacity="1"/></g><g class="mark-text role-axis-title" pointer-events="none"><text text-anchor="middle" transform="translate(-27,60) rotate(-90) translate(0,-2)" font-family="Arial" font-size="11px" font-weight="normal" fill="#000" opacity="1">ADP (μM)</text></g></g><path class="foreground" aria-hidden="true" d="" pointer-events="none" display="none"/></g></g><g class="mark-group role-scope layer_0_pathgroup" role="graphics-object" aria-roledescription="group mark container"><g transform="translate(0,0)"><path class="background" aria-hidden="true" d="M0,0h120v120h-120Z"/><g><g class="mark-line role-mark layer_0_marks" clip-path="url(#clip1)" role="graphics-object" aria-roledescription="line mark container"><path aria-label="VO2_m: 0.231755187057; ADP_μ: 3.27561893702; group: Young" role="graphics-symbol" aria-roledescription="line mark" d="M12.641192021281443,116.06925727558166L14.445513555648386,114.46195666176331L16.221808652877193,112.94143991585862L17.981917172492174,111.47158347662028L19.732050711750606,110.0324363509108L21.475596486487483,108.61134145412021L23.214486574111163,107.1995990948431L24.949862210871384,105.7908327090661L26.682410849331866,104.38009535258489L28.412547192992488,102.96334428539106L30.14050799627531,101.53711419977029L31.86641523784836,100.0983032149238L33.59030670548327,98.6440172951492L35.31216055346858,97.17146319420101L37.031904691871034,95.67785292493883L38.74942660083215,94.16032698884989L40.46457723879702,92.61588516779358L42.1771704603766,91.04130844787356L43.88698587064393,89.43308635070434L45.59376458743333,87.78732976364967L47.29720640499288,86.09967163213727L48.99696621664124,84.36515368766226L50.692643500972686,82.57806387196725L52.38378181910022,80.7317923251834L54.06985127761453,78.8185709167345L55.750240091287495,76.82919867411889L57.424234808270974,74.75266249828479L59.09100521806926,72.57561887125645L60.749577582054414,70.28175216279926L62.39879654955543,67.85077736938963L64.03728931956655,65.25716387586415L65.66340524013793,62.46818041938139L67.2751445585931,59.4410490943425L68.87005095448049,56.11842638090613L70.44506731642966,52.42111277670028L71.99631522447838,48.23541243696058L73.51875692060139,43.38959975994604L75.00558196955312,37.60700377388227L76.44721540856473,30.403430926406013L77.82947774038061,20.843058342521203L79.1300574954399,6.911012506609819L80.31160835864125,-16.13348844687941L81.30823899124961,-59.413858161448665L82.02141717240885,-142.7871486631144L82.42914311095686,-274.9663145429184L82.67232157645272,-432.49109826141887L82.83331200689092,-596.6359527328631L82.9430860047484,-759.4165876931221L83.02231553250189,-916.8332396948819L83.08258482302978,-1067.2696198630256L83.13034091739613,-1210.2769420280165L83.1694037942198,-1345.9317886417693L83.20215905463691,-1474.5412164826873L83.2301818766233,-1596.5019713325992L83.25454671109928,-1712.235669787883L83.27601561600792,-1822.1567914373593L83.29514485784705,-1926.6585172894745L83.31234974470324,-2026.1071520184096L83.32794921368365,-2120.840522631892L83.34219040265117,-2211.168955411992L83.35526981397749,-2297.376762387709L83.36734519825838,-2379.7243991291853L83.37854515840992,-2458.4505761880764L83.3889758114075,-2533.774331227194L83.39872547361973,-2605.896962529508L83.40786848716056,-2675.003768312968L83.41646792822267,-2741.2656247495242L83.42457760132946,-2804.8404006632895L83.43224462600344,-2865.874152855693L83.43950851715952,-2924.5023747073815L83.44640498037029,-2980.850818007489L83.45296494581518,-3035.036482142529L83.45921487304831,-3087.168413919862L83.46518052179474,-3137.348232111755L83.47088214750872,-3185.671036356224L83.47633853807204,-3232.2257657669984L83.4815686243709,-3277.0956424512L83.48658538888175,-3320.358938072173L83.49140747647597,-3362.0888267191835L83.49604320926582,-3402.3545260315636L83.50050576462213,-3441.2209150327053L83.504805688539,-3478.7491979934152L83.50895206392133,-3514.9971280793493L83.51295563749996,-3550.0191154347185L83.51682206184833,-3583.8667705278585L83.52056057564252,-3616.588723065563L83.52417746427052,-3648.2311032371686L83.52767923525576,-3678.8375820278507L83.53107176792663,-3708.449569418747L83.53436049862523,-3737.106355523614L83.53755090192278,-3764.845230633693L83.54064742876649,-3791.7016497039863L83.54365444604228,-3817.709314429005L83.54657711646735,-3842.900253172585L83.54941696848084,-3867.305067138478L83.5521798018223,-3890.952761258321L83.55486850013015,-3913.8710676346677L83.55748609527517,-3936.086423184507L83.56003582565029,-3957.6240429199584L83.56251999028434,-3978.508023333998" stroke="#009DA3" stroke-width="2"/></g></g><path class="foreground" aria-hidden="true" d="" display="none"/></g><g transform="translate(0,0)"><path class="background" aria-hidden="true" d="M0,0h120v120h-120Z"/><g><g class="mark-line role-mark layer_0_marks" clip-path="url(#clip2)" role="graphics-object" aria-roledescription="line mark container"><path aria-label="VO2_m: 0.232783003315; ADP_μ: 3.19963209616; group: Old" role="graphics-symbol" aria-roledescription="line mark" d="M12.697254726269172,116.16044148460416L14.506702474277896,114.55463805393687L16.290500946404308,113.04194838669599L18.059062287839154,111.58481699635729L19.818245897773956,110.16263601387288L21.57135070557495,108.76249460577236L23.32029881191154,107.37569301473187L25.066258026657128,105.99602714503489L26.809961725111087,104.61885175148603L28.55188270986072,103.24053877200451L30.292327986366303,101.85814041677486L32.031501240726726,100.46918640453912L33.769533142266404,99.07153458306306L35.50650523850681,97.6632767314546L37.24246368963996,96.24266808120068L38.977429441210354,94.80807781721731L40.71140386722276,93.35794838222769L42.44437313446514,91.89076440795887L44.17631127710992,90.40502772482736L45.907182485495994,88.89923666166483L47.6369420937761,87.37186522047094L49.36553727177869,85.82134643587374L51.09290820896993,84.24605580622882L52.81898788192278,82.64429431437472L54.543702383992226,81.01427155063381L56.26696996073471,79.35408731317635L57.98870174036007,77.66171160045809L59.708801253573114,75.93496642172433L61.42716270740271,74.1715021693779L63.14367123982521,72.3687673022946L64.85820109936847,70.5239793355342L66.57061618985364,68.63409905055431L68.28076715002096,66.69577830574828L69.98849038213642,64.70532160059898L71.69360657219735,62.65863083275991L73.39591821878557,60.55113332954147L75.09520807534952,58.377718474397604L76.79123532762623,56.13263373507741L78.48373283466186,53.809375123296604L80.17240388500677,51.40056309440185L81.85691484894498,48.897743396186655L83.53689421373203,46.291222950625574L85.21192063138521,43.56976634368951L86.88151832537413,40.72029524284013L88.54514467812042,37.727428262358515L90.20217920876152,34.57296179930186L91.85190565451948,31.235099619646537L93.49349387603264,27.687492412381225L95.12596887294315,23.89782263301308L96.74818201711183,19.825955155827653L98.35875705569836,15.421119073484192L99.95603450791326,10.617931942220032L101.53797335871441,5.330177181911009L103.10202956902319,-0.558938458047411L104.64495185780966,-7.212449663123248L106.16247918071542,-14.866825913856694L107.64885862233416,-23.878803230039225L109.09601345992293,-34.811673910907714L110.49214990512633,-48.59434050942414L111.81941165780296,-66.81022771576724L113.05043720293789,-92.1612139534073L114.1456616051534,-128.9138211169547L115.05958060543851,-182.31959851716732L115.76569678613257,-255.58359917518368L116.2797480200616,-346.70114213863604L116.64591060677002,-449.94722657334273L116.90946799563571,-559.4883512485255L117.10453590680436,-671.0840715454125L117.25365463560337,-782.1108884401996L117.37117663172499,-891.0706508965451L117.46630812556653,-997.1552004697891L117.54509091344278,-1099.9632007392227L117.61160478651755,-1199.3302037912808L117.6686914797119,-1295.2286228371868L117.71837446993989,-1387.7103164944883L117.76213375599905,-1476.8714471192734L117.80107430319433,-1562.8318711827803L117.83603712103043,-1645.7226235067558L117.8676740964396,-1725.6783190942508L117.89649879483491,-1802.8326270655405L117.92291561363342,-1877.3159630117734L117.94726039351296,-1949.2530986823108L117.96980036460725,-2018.763457197668L117.99075839195591,-2085.9601556910607L118.01032049211909,-2150.950119433399L118.02864300934307,-2213.8342358290965L118.04585807300143,-2274.7076024043554L118.06207854679053,-2333.659795630719L118.077401043879,-2390.775192115851L118.09191211161087,-2446.1331354730137L118.10568386358831,-2499.8085732499267L118.1187775902771,-2551.8722578426855L118.13125305419585,-2602.390666301269L118.14315859677775,-2651.426799174762L118.15453880914784,-2699.0401151011074L118.16543282505394,-2745.2868830353304L118.17587609483546,-2790.220350761554L118.18590131854123,-2833.8909323405355L118.19553353623779,-2876.346618941033L118.20480079425738,-2917.632719885035" stroke="#F98F00" stroke-width="2"/></g></g><path class="foreground" aria-hidden="true" d="" display="none"/></g></g><g class="mark-group role-legend" role="graphics-symbol" aria-roledescription="legend" aria-label="Symbol legend for stroke color with 2 values: Young, Old"><g transform="translate(5,5)"><path class="background" aria-hidden="true" d="M0,0h46v24h-46Z" pointer-events="none"/><g><g class="mark-group role-legend-entry"><g transform="translate(0,0)"><path class="background" aria-hidden="true" d="M0,0h0v0h0Z" pointer-events="none"/><g><g class="mark-group role-scope" role="graphics-object" aria-roledescription="group mark container"><g transform="translate(0,0)"><path class="background" aria-hidden="true" d="M0,0h46v11h-46Z" pointer-events="none" opacity="1"/><g><g class="mark-symbol role-legend-symbol" pointer-events="none"><path transform="translate(6,6)" d="M-5,0L5,0" stroke="#009DA3" stroke-width="1.5" opacity="1"/></g><g class="mark-text role-legend-label" pointer-events="none"><text text-anchor="start" transform="translate(16,9)" font-family="Arial" font-size="10px" fill="#000" opacity="1">Young</text></g></g><path class="foreground" aria-hidden="true" d="" pointer-events="none" display="none"/></g><g transform="translate(0,13)"><path class="background" aria-hidden="true" d="M0,0h46v11h-46Z" pointer-events="none" opacity="1"/><g><g class="mark-symbol role-legend-symbol" pointer-events="none"><path transform="translate(6,6)" d="M-5,0L5,0" stroke="#F98F00" stroke-width="1.5" opacity="1"/></g><g class="mark-text role-legend-label" pointer-events="none"><text text-anchor="start" transform="translate(16,9)" font-family="Arial" font-size="10px" fill="#000" opacity="1">Old</text></g></g><path class="foreground" aria-hidden="true" d="" pointer-events="none" display="none"/></g></g></g><path class="foreground" aria-hidden="true" d="" pointer-events="none" display="none"/></g></g></g><path class="foreground" aria-hidden="true" d="" pointer-events="none" display="none"/></g></g></g><path class="foreground" aria-hidden="true" d="" display="none"/></g></g></g><defs><clipPath id="clip1"><rect x="0" y="0" width="120" height="120"/></clipPath><clipPath id="clip2"><rect x="0" y="0" width="120" height="120"/></clipPath></defs></svg>
