<?xml version="1.0" encoding="utf-8"?>
<!DOCTYPE svg PUBLIC "-//W3C//DTD SVG 1.1//EN" "http://www.w3.org/Graphics/SVG/1.1/DTD/svg11.dtd">
<svg xmlns="http://www.w3.org/2000/svg" xmlns:xlink="http://www.w3.org/1999/xlink" version="1.1" class="marks" width="168" height="165" viewBox="0 0 168 165"><rect width="168" height="165" fill="white"/><g fill="none" stroke-miterlimit="10" transform="translate(43,10)"><g class="mark-group role-frame root" role="graphics-object" aria-roledescription="group mark container"><g transform="translate(0,0)"><path class="background" aria-hidden="true" d="M0.5,0.5h120v120h-120Z"/><g><g class="mark-group role-axis" role="graphics-symbol" aria-roledescription="axis" aria-label="X-axis titled 'VO2 (mmol/L mito/s)' for a linear scale with values from 0.0 to 1.6"><g transform="translate(0.5,120.5)"><path class="background" aria-hidden="true" d="M0,0h0v0h0Z" pointer-events="none"/><g><g class="mark-rule role-axis-tick" pointer-events="none"><line transform="translate(0,0)" x2="0" y2="3" stroke="black" stroke-width="1" opacity="1"/><line transform="translate(38,0)" x2="0" y2="3" stroke="black" stroke-width="1" opacity="1"/><line transform="translate(75,0)" x2="0" y2="3" stroke="black" stroke-width="1" opacity="1"/><line transform="translate(113,0)" x2="0" y2="3" stroke="black" stroke-width="1" opacity="1"/></g><g class="mark-text role-axis-label" pointer-events="none"><text text-anchor="start" transform="translate(0,13)" font-family="Arial" font-size="10px" fill="#000" opacity="1">0.0</text><text text-anchor="middle" transform="translate(37.5,13)" font-family="Arial" font-size="10px" fill="#000" opacity="1">0.5</text><text text-anchor="middle" transform="translate(75,13)" font-family="Arial" font-size="10px" fill="#000" opacity="1">1.0</text><text text-anchor="middle" transform="translate(112.5,13)" font-family="Arial" font-size="10px" fill="#000" opacity="1">1.5</text></g><g class="mark-rule role-axis-domain" pointer-events="none"><line transform="translate(0,0)" x2="120" y2="0" stroke="black" stroke-width="1" opacity="1"/></g><g class="mark-text role-axis-title" pointer-events="none"><text text-anchor="middle" transform="translate(60,28)" font-family="Arial" font-size="11px" font-weight="normal" fill="#000" opacity="1">VO2 (mmol/L mito/s)</text></g></g><path class="foreground" aria-hidden="true" d="" pointer-events="none" display="none"/></g></g><g class="mark-group role-axis" role="graphics-symbol" aria-roledescription="axis" aria-label="Y-axis titled 'ADP (μM)' for a linear scale with values from 0 to 100"><g transform="translate(0.5,0.5)"><path class="background" aria-hidden="true" d="M0,0h0v0h0Z" pointer-events="none"/><g><g class="mark-rule role-axis-tick" pointer-events="none"><line transform="translate(0,120)" x2="-3" y2="0" stroke="black" stroke-width="1" opacity="1"/><line transform="translate(0,60)" x2="-3" y2="0" stroke="black" stroke-width="1" opacity="1"/><line transform="translate(0,0)" x2="-3" y2="0" stroke="black" stroke-width="1" opacity="1"/></g><g class="mark-text role-axis-label" pointer-events="none"><text text-anchor="end" transform="translate(-5,123)" font-family="Arial" font-size="10px" fill="#000" opacity="1">0</text><text text-anchor="end" transform="translate(-5,63)" font-family="Arial" font-size="10px" fill="#000" opacity="1">50</text><text text-anchor="end" transform="translate(-5,3)" font-family="Arial" font-size="10px" fill="#000" opacity="1">100</text></g><g class="mark-rule role-axis-domain" pointer-events="none"><line transform="translate(0,120)" x2="0" y2="-120" stroke="black" stroke-width="1" opacity="1"/></g><g class="mark-text role-axis-title" pointer-events="none"><text text-anchor="middle" transform="translate(-27,60) rotate(-90) translate(0,-2)" font-family="Arial" font-size="11px" font-weight="normal" fill="#000" opacity="1">ADP (μM)</text></g></g><path class="foreground" aria-hidden="true" d="" pointer-events="none" display="none"/></g></g><g class="mark-group role-scope layer_0_pathgroup" role="graphics-object" aria-roledescription="group mark container"><g transform="translate(0,0)"><path class="background" aria-hidden="true" d="M0,0h120v120h-120Z"/><g><g class="mark-line role-mark layer_0_marks" clip-path="url(#clip1)" role="graphics-object" aria-roledescription="line mark container"><path aria-label="VO2_m: 0.22243002117; ADP_μ: 3.04388077688; group: Young" role="graphics-symbol" aria-roledescription="line mark" d="M16.682251587772157,116.3473430677401L19.172564057939567,114.9761727874679L21.61507987456618,113.6378354577032L24.025921033108524,112.32684259829156L26.415725145130537,111.03396823328237L28.790568896687457,109.75063996843687L31.153827848723452,108.46961037875322L33.50733748453526,107.1846666123771L35.852005395637214,105.89021272857777L38.18814950067678,104.58091658177543L40.515674802538385,103.25140080160267L42.83416660054665,101.89596521779066L45.14294389555636,100.50830191671653L47.44106004837214,99.08117314286363L49.727314043634394,97.60600905313588L52.00020392470273,96.07239062725878L54.25788757315812,94.4672868269749L56.49810232001956,92.77399696795497L58.71807996966299,90.97045608486434L60.91437360692027,89.0265480823283L63.08265328368891,86.8994534600566L65.217397123692,84.52522813389592L67.3113695131395,81.80194104238105L69.35488706896962,78.55355713195071L71.33461355486727,74.44372366371549L73.23181273157914,68.7490374719192L75.02001668882322,59.711247167987224L76.66090347373746,42.63295465006506L78.08464716815509,4.4258810928379155L79.10816392058153,-90.5531229157227L79.51009675240509,-288.5227766177186L79.68997368155274,-526.5459556480657L79.84304979824402,-757.7599353073996L79.94995268862306,-978.1962406338719L80.02717638806594,-1184.8321126995947L80.08617032896348,-1377.1276817793505L80.13318747657807,-1555.7265548481L80.17186591024017,-1721.6552898173159L80.20446041763836,-1876.009082781507L80.2324526097453,-2019.8325307015805L80.25686100620084,-2154.080145763031L80.27840852751106,-2279.6088150243704L80.29762643495562,-2397.1819865519933L80.31491589718681,-2507.4785233317975L80.33058598635283,-2611.1025776116203L80.34487855659611,-2708.592970013925L80.3579879950406,-2800.4314104038L80.37006882446514,-2887.0501180992214L80.38125034810835,-2968.8377348887498L80.39164295956874,-3046.1447681603263L80.40133246866777,-3119.2888302228553L80.410395559218,-3188.557883646799L80.41889658204813,-3254.214001647513L80.42689111856967,-3316.4962149165326L80.43442699658492,-3375.6230790937198L80.44154631058865,-3431.7948359759207L80.4482857325834,-3485.195363713846L80.45467794593006,-3535.9938197806796L80.46074889623311,-3584.346254880497L80.4665270169183,-3630.3965228062602L80.4720337071333,-3674.277855102625L80.4772887315684,-3716.1136442148345L80.48231077344973,-3756.0183333101418L80.48711581390168,-3794.0982861525954L80.49172036419134,-3830.452385872814L80.49613198495115,-3865.17301124403L80.50037094922949,-3898.3458567619837L80.50444318364316,-3930.0513876314035L80.50836080117415,-3960.3646007984134L80.5121317232133,-3989.3557924278166L80.51576649460948,-4017.0907228948104L80.51927044775968,-4043.6311982054413L80.5226541866702,-4069.035075115511L80.52592117018015,-4093.356898252449L80.52907903185053,-4116.647842129783L80.53213263620984,-4138.956138449727L80.53508957327429,-4160.3271495510635L80.53795256192271,-4180.803754474228L80.54072714158461,-4200.426341041594L80.54341757034457,-4219.2330709460775L80.54602706018606,-4237.260023290299L80.54856052415035,-4254.54127872028L80.55102071904656,-4271.109127920896L80.55341179047457,-4286.994119231804L80.5557360330491,-4302.225232260296L80.55799713802992,-4316.829916191233L80.56019625600604,-4330.834257694939L80.56233763815146,-4344.262964916954L80.56442303305566,-4357.139549797177L80.56645496725052,-4369.4863441674115L80.56843543284585,-4381.324591868364L80.57036634453159,-4392.674505638117L80.57225580379708,-4403.555236613013L80.57408801135233,-4413.985366885654L80.57588202919737,-4423.982109729943L80.57763385756807,-4433.5621982301045L80.57934505584079,-4442.741515500223L80.58101708345534,-4451.535219466856L80.58265134177239,-4459.957781929395L80.58424901265124,-4468.023027748119" stroke="#009DA3" stroke-width="2"/></g></g><path class="foreground" aria-hidden="true" d="" display="none"/></g><g transform="translate(0,0)"><path class="background" aria-hidden="true" d="M0,0h120v120h-120Z"/><g><g class="mark-line role-mark layer_0_marks" clip-path="url(#clip2)" role="graphics-object" aria-roledescription="line mark container"><path aria-label="VO2_m: 0.223728161585; ADP_μ: 2.96981663984; group: Old" role="graphics-symbol" aria-roledescription="line mark" d="M16.779612118894647,116.43622003219046L19.28262902823269,115.06724412468968L21.741527230550666,113.73827565371009L24.17147651317058,112.44362127452105L26.583058848796817,111.17391336776663L28.982471178939633,109.92086795745256L31.37330894498318,108.67795778409139L33.757705166080434,107.44006931576611L36.136953866115284,106.20309173181626L38.5118450700907,104.96359709728533L40.88285173887477,103.71861142860276L43.25023962682759,102.46545445333605L45.61413043377346,101.20161682678125L47.97454265261085,99.92467156473944L50.33141573993421,98.6321965587709L52.6846244122491,97.32171099133441L55.03398857239906,95.99061255479396L57.37927800426066,94.63611793282965L59.72021475804795,93.2551982860579L62.0564688937049,91.84449903569424L64.38766116596948,90.40027051702793L66.71335644762736,88.91825091725539L69.03305510716064,87.39354874092635L71.34618476006541,85.82047806811627L73.65209112396776,84.19235247325125L75.95002036389063,82.50121942072045L78.23910100068706,80.73748404458122L80.51831740770533,78.88939330894385L82.78647895751445,76.94233637226834L85.04218019247395,74.87779356461081L87.2837402896221,72.67177987651516L89.5091249747773,70.29243375453173L91.71584331438886,67.69615196360331L93.90078400224391,64.82108424541396L96.06002370853501,61.57575993000112L98.18840999329679,57.81781003293712L100.27907726891462,53.31233196426017L102.3224492475711,47.64465489201582L104.30453847934702,40.02706406069156L106.20353078785429,28.85093882758444L107.98283658163089,10.651282683973289L109.57766873773409,-22.013933628452584L110.88108604418406,-82.9430861834124L111.79416189083706,-186.11183069142578L112.37176039783574,-325.4434868100814L112.74494945532585,-482.23875457699546L112.99615478956156,-643.7758049648708L113.1747267463108,-803.1422743495348L113.30846222440465,-957.0965611862965L113.41292891906465,-1104.3327549473843L113.4972830653671,-1244.4783297297556L113.567209672459,-1377.602469586853L113.62641105706312,-1503.97752521269L113.67739940594078,-1623.961350560203L113.72193882534744,-1737.93870269774L113.761309857346,-1846.2917588842913L113.79645909085872,-1949.386687322049L113.82810979876749,-2047.5668167895533L113.85681933817189,-2141.151120133521L113.88302920545365,-2230.4339244032285L113.90709046758488,-2315.686330803267L113.92928887754069,-2397.157603202485L113.94985963318328,-2475.076956209511L113.96899643909876,-2549.655462051666L113.98686189515794,-2621.087581018648L114.00359437883182,-2689.552702926658L114.01931055077675,-2755.216669114881L114.03411131896213,-2818.2329386156757L114.04808346590225,-2878.743795211172L114.06130252947864,-2936.881346291615L114.07383474733571,-2992.7684366292438L114.08573998882612,-3046.5194121837376L114.09706405367058,-3098.241212606399L114.10785733368778,-3148.0333153888123L114.1181604559215,-3195.988944382135L114.12800781539877,-3242.195472657568L114.13743274263527,-3286.734727345086L114.1464656620498,-3329.683512739712L114.15513058167252,-3371.114133322308L114.16345142076014,-3411.0945330659097L114.17145275591014,-3449.6886097815345L114.17915318199006,-3486.956734353905L114.18656879848247,-3522.9558984506575L114.19372370153162,-3557.739642110184L114.20062520088891,-3591.3590422419607L114.20729040350078,-3623.862099624233L114.21373184257641,-3655.294368722022L114.21996186514487,-3685.698997784511L114.22599226702074,-3715.116899664729L114.23183211114991,-3743.586955597311L114.23749160593128,-3771.1460438457507L114.24297962276896,-3797.829231366722L114.24830445790997,-3823.6698672677057L114.25347393745326,-3848.699685966727L114.25849505517412,-3872.9489137389946L114.26337484855864,-3896.446338337507L114.26811956988459,-3919.2194129055097L114.27273532891743,-3941.294319403231L114.2772273669849,-3962.696057277213L114.28160144787002,-3983.4484806463543" stroke="#F98F00" stroke-width="2"/></g></g><path class="foreground" aria-hidden="true" d="" display="none"/></g></g><g class="mark-group role-legend" role="graphics-symbol" aria-roledescription="legend" aria-label="Symbol legend for stroke color with 2 values: Young, Old"><g transform="translate(5,5)"><path class="background" aria-hidden="true" d="M0,0h46v24h-46Z" pointer-events="none"/><g><g class="mark-group role-legend-entry"><g transform="translate(0,0)"><path class="background" aria-hidden="true" d="M0,0h0v0h0Z" pointer-events="none"/><g><g class="mark-group role-scope" role="graphics-object" aria-roledescription="group mark container"><g transform="translate(0,0)"><path class="background" aria-hidden="true" d="M0,0h46v11h-46Z" pointer-events="none" opacity="1"/><g><g class="mark-symbol role-legend-symbol" pointer-events="none"><path transform="translate(6,6)" d="M-5,0L5,0" stroke="#009DA3" stroke-width="1.5" opacity="1"/></g><g class="mark-text role-legend-label" pointer-events="none"><text text-anchor="start" transform="translate(16,9)" font-family="Arial" font-size="10px" fill="#000" opacity="1">Young</text></g></g><path class="foreground" aria-hidden="true" d="" pointer-events="none" display="none"/></g><g transform="translate(0,13)"><path class="background" aria-hidden="true" d="M0,0h46v11h-46Z" pointer-events="none" opacity="1"/><g><g class="mark-symbol role-legend-symbol" pointer-events="none"><path transform="translate(6,6)" d="M-5,0L5,0" stroke="#F98F00" stroke-width="1.5" opacity="1"/></g><g class="mark-text role-legend-label" pointer-events="none"><text text-anchor="start" transform="translate(16,9)" font-family="Arial" font-size="10px" fill="#000" opacity="1">Old</text></g></g><path class="foreground" aria-hidden="true" d="" pointer-events="none" display="none"/></g></g></g><path class="foreground" aria-hidden="true" d="" pointer-events="none" display="none"/></g></g></g><path class="foreground" aria-hidden="true" d="" pointer-events="none" display="none"/></g></g></g><path class="foreground" aria-hidden="true" d="" display="none"/></g></g></g><defs><clipPath id="clip1"><rect x="0" y="0" width="120" height="120"/></clipPath><clipPath id="clip2"><rect x="0" y="0" width="120" height="120"/></clipPath></defs></svg>
