<?xml version="1.0" encoding="utf-8"?>
<!DOCTYPE svg PUBLIC "-//W3C//DTD SVG 1.1//EN" "http://www.w3.org/Graphics/SVG/1.1/DTD/svg11.dtd">
<svg xmlns="http://www.w3.org/2000/svg" xmlns:xlink="http://www.w3.org/1999/xlink" version="1.1" class="marks" width="168" height="165" viewBox="0 0 168 165"><rect width="168" height="165" fill="white"/><g fill="none" stroke-miterlimit="10" transform="translate(43,10)"><g class="mark-group role-frame root" role="graphics-object" aria-roledescription="group mark container"><g transform="translate(0,0)"><path class="background" aria-hidden="true" d="M0.5,0.5h120v120h-120Z"/><g><g class="mark-group role-axis" role="graphics-symbol" aria-roledescription="axis" aria-label="X-axis titled 'VO2 (mmol/L mito/s)' for a linear scale with values from 0.0 to 2.2"><g transform="translate(0.5,120.5)"><path class="background" aria-hidden="true" d="M0,0h0v0h0Z" pointer-events="none"/><g><g class="mark-rule role-axis-tick" pointer-events="none"><line transform="translate(0,0)" x2="0" y2="3" stroke="black" stroke-width="1" opacity="1"/><line transform="translate(55,0)" x2="0" y2="3" stroke="black" stroke-width="1" opacity="1"/><line transform="translate(109,0)" x2="0" y2="3" stroke="black" stroke-width="1" opacity="1"/></g><g class="mark-text role-axis-label" pointer-events="none"><text text-anchor="start" transform="translate(0,13)" font-family="Arial" font-size="10px" fill="#000" opacity="1">0</text><text text-anchor="middle" transform="translate(54.54545454545455,13)" font-family="Arial" font-size="10px" fill="#000" opacity="1">1</text><text text-anchor="middle" transform="translate(109.0909090909091,13)" font-family="Arial" font-size="10px" fill="#000" opacity="1">2</text></g><g class="mark-rule role-axis-domain" pointer-events="none"><line transform="translate(0,0)" x2="120" y2="0" stroke="black" stroke-width="1" opacity="1"/></g><g class="mark-text role-axis-title" pointer-events="none"><text text-anchor="middle" transform="translate(60,28)" font-family="Arial" font-size="11px" font-weight="normal" fill="#000" opacity="1">VO2 (mmol/L mito/s)</text></g></g><path class="foreground" aria-hidden="true" d="" pointer-events="none" display="none"/></g></g><g class="mark-group role-axis" role="graphics-symbol" aria-roledescription="axis" aria-label="Y-axis titled 'ADP (μM)' for a linear scale with values from 0 to 100"><g transform="translate(0.5,0.5)"><path class="background" aria-hidden="true" d="M0,0h0v0h0Z" pointer-events="none"/><g><g class="mark-rule role-axis-tick" pointer-events="none"><line transform="translate(0,120)" x2="-3" y2="0" stroke="black" stroke-width="1" opacity="1"/><line transform="translate(0,60)" x2="-3" y2="0" stroke="black" stroke-width="1" opacity="1"/><line transform="translate(0,0)" x2="-3" y2="0" stroke="black" stroke-width="1" opacity="1"/></g><g class="mark-text role-axis-label" pointer-events="none"><text text-anchor="end" transform="translate(-5,123)" font-family="Arial" font-size="10px" fill="#000" opacity="1">0</text><text text-anchor="end" transform="translate(-5,63)" font-family="Arial" font-size="10px" fill="#000" opacity="1">50</text><text text-anchor="end" transform="translate(-5,3)" font-family="Arial" font-size="10px" fill="#000" opacity="1">100</text></g><g class="mark-rule role-axis-domain" pointer-events="none"><line transform="translate(0,120)" x2="0" y2="-120" stroke="black" stroke-width="1" opacity="1"/></g><g class="mark-text role-axis-title" pointer-events="none"><text text-anchor="middle" transform="translate(-27,60) rotate(-90) translate(0,-2)" font-family="Arial" font-size="11px" font-weight="normal" fill="#000" opacity="1">ADP (μM)</text></g></g><path class="foreground" aria-hidden="true" d="" pointer-events="none" display="none"/></g></g><g class="mark-group role-scope layer_0_pathgroup" role="graphics-object" aria-roledescription="group mark container"><g transform="translate(0,0)"><path class="background" aria-hidden="true" d="M0,0h120v120h-120Z"/><g><g class="mark-line role-mark layer_0_marks" clip-path="url(#clip1)" role="graphics-object" aria-roledescription="line mark container"><path aria-label="VO2_m: 0.231755187057; ADP_μ: 3.27561893702; group: Young" role="graphics-symbol" aria-roledescription="line mark" d="M12.641192021281443,116.06925727558166L14.445513555648386,114.46195666176331L16.221808652877193,112.94143991585862L17.981917172492174,111.47158347662028L19.732050711750606,110.0324363509108L21.475596486487483,108.61134145412021L23.214486574111163,107.1995990948431L24.949862210871384,105.7908327090661L26.682410849331866,104.38009535258489L28.412547192992488,102.96334428539106L30.14050799627531,101.53711419977029L31.86641523784836,100.0983032149238L33.59030670548327,98.6440172951492L35.31216055346858,97.17146319420101L37.031904691871034,95.67785292493883L38.74942660083215,94.16032698884989L40.46457723879702,92.61588516779358L42.1771704603766,91.04130844787356L43.88698587064393,89.43308635070434L45.59376458743333,87.78732976364967L47.29720640499288,86.09967163213727L48.99696621664124,84.36515368766226L50.692643500972686,82.57806387196725L52.38378181910022,80.7317923251834L54.06985127761453,78.8185709167345L55.750240091287495,76.82919867411889L57.424234808270974,74.75266249828479L59.09100521806926,72.57561887125645L60.749577582054414,70.28175216279926L62.39879654955543,67.85077736938963L64.03728931956655,65.25716387586415L65.66340524013793,62.46818041938139L67.2751445585931,59.4410490943425L68.87005095448049,56.11842638090613L70.44506731642966,52.42111277670028L71.99631522447838,48.23541243696058L73.51875692060139,43.38959975994604L75.00558196955312,37.60700377388227L76.44721540856473,30.403430926406013L77.82947774038061,20.843058342521203L79.1300574954399,6.911012506609819L80.31160835864125,-16.13348844687941L81.30823899124961,-59.413858161448665L82.02141717240885,-142.7871486631144L82.42914311095686,-274.9663145429184L82.67232157645272,-432.49109826141887L82.83331200689092,-596.6359527328631L82.9430860047484,-759.4165876931221L83.02231553250189,-916.8332396948819L83.08258482302978,-1067.2696198630256L83.13034091739613,-1210.2769420280165L83.1694037942198,-1345.9317886417693L83.20215905463691,-1474.5412164826873L83.2301818766233,-1596.5019713325992L83.25454671109928,-1712.235669787883L83.27601561600792,-1822.1567914373593L83.29514485784705,-1926.6585172894745L83.31234974470324,-2026.1071520184096L83.32794921368365,-2120.840522631892L83.34219040265117,-2211.168955411992L83.35526981397749,-2297.376762387709L83.36734519825838,-2379.7243991291853L83.37854515840992,-2458.4505761880764L83.3889758114075,-2533.774331227194L83.39872547361973,-2605.896962529508L83.40786848716056,-2675.003768312968L83.41646792822267,-2741.2656247495242L83.42457760132946,-2804.8404006632895L83.43224462600344,-2865.874152855693L83.43950851715952,-2924.5023747073815L83.44640498037029,-2980.850818007489L83.45296494581518,-3035.036482142529L83.45921487304831,-3087.168413919862L83.46518052179474,-3137.348232111755L83.47088214750872,-3185.671036356224L83.47633853807204,-3232.2257657669984L83.4815686243709,-3277.0956424512L83.48658538888175,-3320.358938072173L83.49140747647597,-3362.0888267191835L83.49604320926582,-3402.3545260315636L83.50050576462213,-3441.2209150327053L83.504805688539,-3478.7491979934152L83.50895206392133,-3514.9971280793493L83.51295563749996,-3550.0191154347185L83.51682206184833,-3583.8667705278585L83.52056057564252,-3616.588723065563L83.52417746427052,-3648.2311032371686L83.52767923525576,-3678.8375820278507L83.53107176792663,-3708.449569418747L83.53436049862523,-3737.106355523614L83.53755090192278,-3764.845230633693L83.54064742876649,-3791.7016497039863L83.54365444604228,-3817.709314429005L83.54657711646735,-3842.900253172585L83.54941696848084,-3867.305067138478L83.5521798018223,-3890.952761258321L83.55486850013015,-3913.8710676346677L83.55748609527517,-3936.086423184507L83.56003582565029,-3957.6240429199584L83.56251999028434,-3978.508023333998" stroke="#009DA3" stroke-width="2"/></g></g><path class="foreground" aria-hidden="true" d="" display="none"/></g><g transform="translate(0,0)"><path class="background" aria-hidden="true" d="M0,0h120v120h-120Z"/><g><g class="mark-line role-mark layer_0_marks" clip-path="url(#clip2)" role="graphics-object" aria-roledescription="line mark container"><path aria-label="VO2_m: 0.232783017082; ADP_μ: 3.19963193803; group: Old" role="graphics-symbol" aria-roledescription="line mark" d="M12.697255477210783,116.16044167436333L14.50670255819278,114.55463796415196L16.290500878307583,113.04194824855787L18.059061689595513,111.58481657147318L19.818246116273322,110.1626362052874L21.571350965020404,108.76249488403452L23.320298965179305,107.37569322403455L25.066258128107147,105.99602731236278L26.8099616641471,104.618851657699L28.55188218874008,103.24053782150257L30.292327865780333,101.85814019308337L32.031501200453455,100.46918635006112L33.769533231868714,99.07153438727102L35.50650465938485,97.66327643176484L37.242463757235775,96.24266828126471L38.97742941121125,94.80807773034573L40.7114038481938,93.35794829060619L42.44437308796579,91.89076425085302L44.176311438905806,90.4050279032448L45.90718254689829,88.89923661607183L47.63694204649804,87.37186501826848L49.36553729083019,85.82134651024205L51.092908319506776,84.2460563173874L52.81898811246294,82.64429544537956L54.54370221096742,81.01427132031479L56.26697000589283,79.35408751655652L57.988701633354964,77.66170989051808L59.70880114245464,75.93496543213412L61.42716274210472,74.17150222808121L63.14367074762623,72.36876375622275L64.85820085700215,70.52397718222291L66.57061671287327,68.6340987597639L68.28076732306134,66.6957783105987L69.98849020546311,64.70532100465348L71.69360668056278,62.65863209024949L73.39591803704594,60.551131699018434L75.09520808044489,58.37771858164123L76.7912357564892,56.13263706677456L78.4837330020937,53.809377661993324L80.17240383337811,51.40056257079444L81.85691512599871,48.89774520527313L83.53689389955774,46.29121993553759L85.2119203479032,43.56976639046445L86.88151777607456,40.72028824889849L88.54514509262629,37.72743369116411L90.20217920995348,34.572961667281646L91.8519059437147,31.235103760632835L93.49349293369646,27.687481636169423L95.12596883650602,23.897822373071147L96.74818130625299,19.825951356785264L98.35875705074864,15.42111777093952L99.95603487706347,10.617934556402876L101.53797461737878,5.330170411243942L103.10203048102895,-0.5589170281106526L104.64495097562568,-7.2124720811587295L106.16247933750253,-14.866822549969099L107.64885827200234,-23.878811341454202L109.09601485307675,-34.811665529055674L110.49215028257004,-48.59432920826429L111.81941126663735,-66.81027872956895L113.05042695068994,-92.16125143647861L114.14565949975287,-128.913933796435L115.05958131845898,-182.31953713336742L115.7656953163965,-255.58361395531423L116.27974984425745,-346.70100610778803L116.64591086306451,-449.947235588524L116.90947334824936,-559.4879000837384L117.10453569872527,-671.084075050803L117.25365541091972,-782.1108306289219L117.3711778852151,-891.0705507790178L117.46630824496545,-997.1551911049819L117.54508981206872,-1099.963283432894L117.61160500007894,-1199.330187999698L117.66869144677617,-1295.2286262117523L117.7183744652026,-1387.710316788742L117.76213369035786,-1476.8714513648383L117.8010741420841,-1562.8318817204072L117.83603707824383,-1645.7226264601936L117.86767408437349,-1725.6783200990103L117.89649750475516,-1802.8327015693615L117.9229163159188,-1877.315921048153L117.9472606645459,-1949.2530831050244L117.9698001728526,-2018.7634681065551L117.99075840829374,-2085.960154776852L118.01032045720952,-2150.9501212495807L118.0286427652813,-2213.834249170947L118.04585763863996,-2274.7076265062296L118.06207811727162,-2333.659817457409L118.07740169167192,-2390.77515969596L118.09191215074833,-2446.1331335636023L118.10568360741406,-2499.808584757365L118.11877749754223,-2551.872262251058L118.13125295375673,-2602.3906709140506L118.143158708417,-2651.426793997121L118.15453885734382,-2699.040112971615L118.16543282512849,-2745.2868830494913L118.1758759314162,-2790.2203576821594L118.18589942315492,-2833.8910114870655L118.19553278683024,-2876.346652518417L118.20480076654589,-2917.6327209931937" stroke="#F98F00" stroke-width="2"/></g></g><path class="foreground" aria-hidden="true" d="" display="none"/></g></g><g class="mark-group role-legend" role="graphics-symbol" aria-roledescription="legend" aria-label="Symbol legend for stroke color with 2 values: Young, Old"><g transform="translate(5,5)"><path class="background" aria-hidden="true" d="M0,0h46v24h-46Z" pointer-events="none"/><g><g class="mark-group role-legend-entry"><g transform="translate(0,0)"><path class="background" aria-hidden="true" d="M0,0h0v0h0Z" pointer-events="none"/><g><g class="mark-group role-scope" role="graphics-object" aria-roledescription="group mark container"><g transform="translate(0,0)"><path class="background" aria-hidden="true" d="M0,0h46v11h-46Z" pointer-events="none" opacity="1"/><g><g class="mark-symbol role-legend-symbol" pointer-events="none"><path transform="translate(6,6)" d="M-5,0L5,0" stroke="#009DA3" stroke-width="1.5" opacity="1"/></g><g class="mark-text role-legend-label" pointer-events="none"><text text-anchor="start" transform="translate(16,9)" font-family="Arial" font-size="10px" fill="#000" opacity="1">Young</text></g></g><path class="foreground" aria-hidden="true" d="" pointer-events="none" display="none"/></g><g transform="translate(0,13)"><path class="background" aria-hidden="true" d="M0,0h46v11h-46Z" pointer-events="none" opacity="1"/><g><g class="mark-symbol role-legend-symbol" pointer-events="none"><path transform="translate(6,6)" d="M-5,0L5,0" stroke="#F98F00" stroke-width="1.5" opacity="1"/></g><g class="mark-text role-legend-label" pointer-events="none"><text text-anchor="start" transform="translate(16,9)" font-family="Arial" font-size="10px" fill="#000" opacity="1">Old</text></g></g><path class="foreground" aria-hidden="true" d="" pointer-events="none" display="none"/></g></g></g><path class="foreground" aria-hidden="true" d="" pointer-events="none" display="none"/></g></g></g><path class="foreground" aria-hidden="true" d="" pointer-events="none" display="none"/></g></g></g><path class="foreground" aria-hidden="true" d="" display="none"/></g></g></g><defs><clipPath id="clip1"><rect x="0" y="0" width="120" height="120"/></clipPath><clipPath id="clip2"><rect x="0" y="0" width="120" height="120"/></clipPath></defs></svg>
