<?xml version="1.0" encoding="utf-8"?>
<!DOCTYPE svg PUBLIC "-//W3C//DTD SVG 1.1//EN" "http://www.w3.org/Graphics/SVG/1.1/DTD/svg11.dtd">
<svg xmlns="http://www.w3.org/2000/svg" xmlns:xlink="http://www.w3.org/1999/xlink" version="1.1" class="marks" width="169" height="165" viewBox="0 0 169 165"><rect width="169" height="165" fill="white"/><g fill="none" stroke-miterlimit="10" transform="translate(43,10)"><g class="mark-group role-frame root" role="graphics-object" aria-roledescription="group mark container"><g transform="translate(0,0)"><path class="background" aria-hidden="true" d="M0.5,0.5h120v120h-120Z"/><g><g class="mark-group role-axis" role="graphics-symbol" aria-roledescription="axis" aria-label="X-axis titled 'VO2 (mmol/L mito/s)' for a linear scale with values from 0.0 to 3.0"><g transform="translate(0.5,120.5)"><path class="background" aria-hidden="true" d="M0,0h0v0h0Z" pointer-events="none"/><g><g class="mark-rule role-axis-tick" pointer-events="none"><line transform="translate(0,0)" x2="0" y2="3" stroke="black" stroke-width="1" opacity="1"/><line transform="translate(40,0)" x2="0" y2="3" stroke="black" stroke-width="1" opacity="1"/><line transform="translate(80,0)" x2="0" y2="3" stroke="black" stroke-width="1" opacity="1"/><line transform="translate(120,0)" x2="0" y2="3" stroke="black" stroke-width="1" opacity="1"/></g><g class="mark-text role-axis-label" pointer-events="none"><text text-anchor="start" transform="translate(0,13)" font-family="Arial" font-size="10px" fill="#000" opacity="1">0</text><text text-anchor="middle" transform="translate(40,13)" font-family="Arial" font-size="10px" fill="#000" opacity="1">1</text><text text-anchor="middle" transform="translate(80,13)" font-family="Arial" font-size="10px" fill="#000" opacity="1">2</text><text text-anchor="end" transform="translate(120,13)" font-family="Arial" font-size="10px" fill="#000" opacity="1">3</text></g><g class="mark-rule role-axis-domain" pointer-events="none"><line transform="translate(0,0)" x2="120" y2="0" stroke="black" stroke-width="1" opacity="1"/></g><g class="mark-text role-axis-title" pointer-events="none"><text text-anchor="middle" transform="translate(60,28)" font-family="Arial" font-size="11px" font-weight="normal" fill="#000" opacity="1">VO2 (mmol/L mito/s)</text></g></g><path class="foreground" aria-hidden="true" d="" pointer-events="none" display="none"/></g></g><g class="mark-group role-axis" role="graphics-symbol" aria-roledescription="axis" aria-label="Y-axis titled 'ADP (μM)' for a linear scale with values from 0 to 100"><g transform="translate(0.5,0.5)"><path class="background" aria-hidden="true" d="M0,0h0v0h0Z" pointer-events="none"/><g><g class="mark-rule role-axis-tick" pointer-events="none"><line transform="translate(0,120)" x2="-3" y2="0" stroke="black" stroke-width="1" opacity="1"/><line transform="translate(0,60)" x2="-3" y2="0" stroke="black" stroke-width="1" opacity="1"/><line transform="translate(0,0)" x2="-3" y2="0" stroke="black" stroke-width="1" opacity="1"/></g><g class="mark-text role-axis-label" pointer-events="none"><text text-anchor="end" transform="translate(-5,123)" font-family="Arial" font-size="10px" fill="#000" opacity="1">0</text><text text-anchor="end" transform="translate(-5,63)" font-family="Arial" font-size="10px" fill="#000" opacity="1">50</text><text text-anchor="end" transform="translate(-5,3)" font-family="Arial" font-size="10px" fill="#000" opacity="1">100</text></g><g class="mark-rule role-axis-domain" pointer-events="none"><line transform="translate(0,120)" x2="0" y2="-120" stroke="black" stroke-width="1" opacity="1"/></g><g class="mark-text role-axis-title" pointer-events="none"><text text-anchor="middle" transform="translate(-27,60) rotate(-90) translate(0,-2)" font-family="Arial" font-size="11px" font-weight="normal" fill="#000" opacity="1">ADP (μM)</text></g></g><path class="foreground" aria-hidden="true" d="" pointer-events="none" display="none"/></g></g><g class="mark-group role-scope layer_0_pathgroup" role="graphics-object" aria-roledescription="group mark container"><g transform="translate(0,0)"><path class="background" aria-hidden="true" d="M0,0h120v120h-120Z"/><g><g class="mark-line role-mark layer_0_marks" clip-path="url(#clip1)" role="graphics-object" aria-roledescription="line mark container"><path aria-label="VO2_m: 0.237553031466; ADP_μ: 2.91011150327; group: Young" role="graphics-symbol" aria-roledescription="line mark" d="M9.50212125865334,116.50786619607835L10.800720415165014,115.18128697093032L12.090879771792606,113.92031709661983L13.375787893062926,112.69940063030873L14.657299508385636,111.50508982550681L15.936530043141131,110.32897370883396L17.214163568256918,109.16529984951767L18.490629185927602,108.00989875162875L19.76619780672989,106.85960664318439L21.041041882139695,105.71193360545388L22.31526943699779,104.56485376890907L23.588944909129793,103.41666913778546L24.862103376139178,102.26591743101467L26.13475890587659,101.11130700732551L27.40691099021159,99.95166650052882L28.67854344755974,98.78591614201882L29.94963737947456,97.61302994523233L31.220162262010806,96.43202074700727L32.4900824085398,95.24192027997306L33.75935498258303,94.04175697651507L35.02793283926101,92.83054803329225L36.295762761164966,91.60728088137733L37.562786196301886,90.37090088084594L38.82893790155229,89.12029343261275L40.094146691357324,87.85427255078226L41.35833383806753,86.57156038998964L42.621411791454,85.27076553551397L43.88328535884831,83.95037026611567L45.14384806663793,82.60869557716889L46.40298140452784,81.24387023758712L47.660553489154616,79.85380325136076L48.9164167038216,78.43613279991453L50.17040569355116,76.98818009696227L51.422333086868704,75.50687622755076L52.67198753252901,73.98869272507794L53.91912853294144,72.42953704943514L55.16348137142367,70.82462957155815L56.40473150809159,69.16834933143402L57.64251512007148,67.45401719997922L58.87641306440822,65.67366243912473L60.10593602221148,63.81764392410791L61.33051053389164,61.87419692246441L62.54946174459343,59.8288035362365L63.76198838811459,57.66330135087051L64.96713171136493,55.354628041352065L66.16373652584781,52.87298570674882L67.35039469428679,50.17904951368491L68.52536840992057,47.21965440898943L69.68649476520821,43.92065705838631L70.83101593808372,40.17473251529899L71.95534173020644,35.818869994210175L73.0546428422389,30.590539888617986L74.12211637785667,24.03503803846904L75.14762477163522,15.296877117885836L76.11507015623228,2.6276133199163976L76.99747844816963,-17.74513931074022L77.74969703418722,-53.62942482907327L78.3122498000665,-117.09321594717694L78.66991085741391,-213.60123534393577L78.89510993248557,-331.31464903843505L79.04721575647227,-457.73467569662705L79.15311693330173,-586.3536631401745L79.2303127245266,-713.4747358787253L79.28926066270556,-837.2159655772048L79.33601146575612,-956.7274929592058L79.37422577217548,-1071.6914390949153L79.4062275879123,-1182.0634969451264L79.43355798925442,-1287.939382050855L79.4572789411973,-1389.484232901755L79.4781455949318,-1486.8947439489448L79.49670953293182,-1580.3784696651403L79.5133850990203,-1670.1423351437686L79.5284871072941,-1756.3869505899663L79.54226198810167,-1839.3032178544088L79.55490446706052,-1919.0711605003494L79.56657065856797,-1995.8595501704353L79.57738750956047,-2069.826063208789L79.58746049355392,-2141.117670919473L79.59687567484347,-2209.871497430646L79.60570640814807,-2276.2152460363445L79.61401387130246,-2340.268070401826L79.62185144491966,-2402.1410654412134L79.62926443556344,-2461.938050545623L79.63629172788951,-2519.7561263446664L79.64296758407939,-2575.6861610988626L79.64932184567093,-2629.813331805381L79.65538112212002,-2682.217550489398L79.66116812726186,-2732.973938195024L79.666704133155,-2782.153089322563L79.67200727355333,-2829.82154008637L79.67709395195018,-2876.041984636798L79.68197940486439,-2920.873590078736L79.68667689870794,-2964.3722656316104L79.69119861670002,-3006.5908781838557L79.6955556902668,-3047.5794689857294L79.69975859740204,-3087.3854335666165L79.7038144578194,-3126.0538572474074L79.70773410602672,-3163.6272903462627L79.71152430021581,-3200.1463367198858L79.71519230761419,-3235.649540075622" stroke="#009DA3" stroke-width="2"/></g></g><path class="foreground" aria-hidden="true" d="" display="none"/></g><g transform="translate(0,0)"><path class="background" aria-hidden="true" d="M0,0h120v120h-120Z"/><g><g class="mark-line role-mark layer_0_marks" clip-path="url(#clip2)" role="graphics-object" aria-roledescription="line mark container"><path aria-label="VO2_m: 0.238581450448; ADP_μ: 2.82588193643; group: Old" role="graphics-symbol" aria-roledescription="line mark" d="M9.543258017924366,116.60894167628645L10.844894013187506,115.28307409151188L12.13976124596448,114.02740255821428L13.429973509583107,112.81481028863529L14.717012355867901,111.63124457808797L16.001861481141702,110.46797200398467L17.28516440901496,109.31906541424097L18.567344614656246,108.18027086666117L19.848685245841963,107.04840658565683L21.12937555817032,105.92100659550158L22.409541851366097,104.79610763831327L23.68927321878787,103.67210317467301L24.968626768803304,102.54764931892385L26.247641686160907,101.4216007910839L27.526340565541602,100.2929578652305L28.804737583825762,99.16083719891306L30.082838726462786,98.02444374896976L31.360644054427134,96.88305033186931L32.638149515936334,95.73598352610011L33.915347516571806,94.58261051812283L35.19222810603391,93.42233067204538L36.46877895568987,92.25456599844148L37.74498620081709,91.07875582530069L39.020834247122885,89.89434980748663L40.29630644165604,88.70080389706665L41.571384732034225,87.4975765421916L42.84605010473693,86.28412200774535L44.12028194947703,85.0598878706052L45.394059612335944,83.82431529342605L46.66736045374845,82.57682985115285L47.94016131997069,81.31684135336084L49.21243734161009,80.04373873433093L50.484162903934056,78.75688901466734L51.75531078169318,77.4556310251769L53.02585255278161,76.13927357585935L54.29575794337522,74.80708905361348L55.56499483069772,73.45830878883757L56.833530047301785,72.09212467667379L58.101327699597995,70.70767390543445L59.36835010655672,69.30404129600329L60.6345566714209,67.88024535742721L61.899904462819755,66.4352370928592L63.16434761546538,64.96788961438155L64.42783695089028,63.476987712788564L65.6903195414923,61.961216795794456L66.95173869418163,60.41915347735126L68.21203301733426,58.84924743843441L69.47113648300682,57.24981083696641L70.7289771428381,55.61899197771516L71.98547725733603,53.95476215070194L73.24055205298505,52.25488549559051L74.49410879553403,50.516888107249216L75.74604640927123,48.73803029667931L76.99625389199822,46.915260929477405L78.24460877589152,45.045166158014574L79.49097616013832,43.1239172446673L80.73520704655209,41.147203220836964L81.97713543355506,39.11013596169384L83.21657655286381,37.00715631091394L84.45332389099039,34.83190751240508L85.68714522095304,32.57707194311899L86.9177799301502,30.234199037866723L88.1449315096961,27.79342104243678L89.36826201244632,25.243159637831365L90.58738742303971,22.569738330497927L91.80186249398152,19.756813574030847L93.01117525717216,16.784684650860914L94.2147231225888,13.629334445598333L95.41180077414656,10.261121340913766L96.60156648207715,6.642890193597011L97.78301181047101,2.727400869814116L98.95490757898399,-1.5466563110322173L100.11573503736498,-6.260401751198019L101.26358353287888,-11.523876077938517L102.39599749656708,-17.49041512396851L103.50974978326477,-24.37988997732557L104.60047122524186,-32.5179536709753L105.66206266759508,-42.40213257471388L106.68578491211937,-54.812321028941575L107.65885688863715,-70.98460514710351L108.5629215602165,-92.83143516145954L109.37367572959793,-123.04154591351431L110.06538944262721,-164.59307869107255L110.62283445537334,-219.29908684151258L111.05155629370498,-286.4242002315959L111.37367991700695,-363.10336961235583L111.61566662229751,-445.9137605864167L111.80025969114357,-531.9608472094332L111.94424115949764,-619.1761692002572L112.05921085555865,-706.2028461478664L112.15304506800175,-792.1902310826677L112.23115248061046,-876.6198929783839L112.29729062021526,-959.1884983995157L112.35413633914489,-1039.7296437912364L112.40363158745517,-1118.1648144635467L112.44721712444657,-1194.4715234647422L112.4859784141424,-1268.6634354025798L112.52074878827982,-1340.7768257709424L112.55217725251843,-1410.8621256660024L112.58077796229153,-1478.9779923276972" stroke="#F98F00" stroke-width="2"/></g></g><path class="foreground" aria-hidden="true" d="" display="none"/></g></g><g class="mark-group role-legend" role="graphics-symbol" aria-roledescription="legend" aria-label="Symbol legend for stroke color with 2 values: Young, Old"><g transform="translate(5,5)"><path class="background" aria-hidden="true" d="M0,0h46v24h-46Z" pointer-events="none"/><g><g class="mark-group role-legend-entry"><g transform="translate(0,0)"><path class="background" aria-hidden="true" d="M0,0h0v0h0Z" pointer-events="none"/><g><g class="mark-group role-scope" role="graphics-object" aria-roledescription="group mark container"><g transform="translate(0,0)"><path class="background" aria-hidden="true" d="M0,0h46v11h-46Z" pointer-events="none" opacity="1"/><g><g class="mark-symbol role-legend-symbol" pointer-events="none"><path transform="translate(6,6)" d="M-5,0L5,0" stroke="#009DA3" stroke-width="1.5" opacity="1"/></g><g class="mark-text role-legend-label" pointer-events="none"><text text-anchor="start" transform="translate(16,9)" font-family="Arial" font-size="10px" fill="#000" opacity="1">Young</text></g></g><path class="foreground" aria-hidden="true" d="" pointer-events="none" display="none"/></g><g transform="translate(0,13)"><path class="background" aria-hidden="true" d="M0,0h46v11h-46Z" pointer-events="none" opacity="1"/><g><g class="mark-symbol role-legend-symbol" pointer-events="none"><path transform="translate(6,6)" d="M-5,0L5,0" stroke="#F98F00" stroke-width="1.5" opacity="1"/></g><g class="mark-text role-legend-label" pointer-events="none"><text text-anchor="start" transform="translate(16,9)" font-family="Arial" font-size="10px" fill="#000" opacity="1">Old</text></g></g><path class="foreground" aria-hidden="true" d="" pointer-events="none" display="none"/></g></g></g><path class="foreground" aria-hidden="true" d="" pointer-events="none" display="none"/></g></g></g><path class="foreground" aria-hidden="true" d="" pointer-events="none" display="none"/></g></g></g><path class="foreground" aria-hidden="true" d="" display="none"/></g></g></g><defs><clipPath id="clip1"><rect x="0" y="0" width="120" height="120"/></clipPath><clipPath id="clip2"><rect x="0" y="0" width="120" height="120"/></clipPath></defs></svg>
