<?xml version="1.0" encoding="utf-8"?>
<!DOCTYPE svg PUBLIC "-//W3C//DTD SVG 1.1//EN" "http://www.w3.org/Graphics/SVG/1.1/DTD/svg11.dtd">
<svg xmlns="http://www.w3.org/2000/svg" xmlns:xlink="http://www.w3.org/1999/xlink" version="1.1" class="marks" width="157" height="160" viewBox="0 0 157 160"><rect width="157" height="160" fill="white"/><g fill="none" stroke-miterlimit="10" transform="translate(31,5)"><g class="mark-group role-frame root" role="graphics-object" aria-roledescription="group mark container"><g transform="translate(0,0)"><path class="background" aria-hidden="true" d="M0.5,0.5h120v120h-120Z"/><g><g class="mark-group role-axis" role="graphics-symbol" aria-roledescription="axis" aria-label="X-axis titled 'VO2 (mmol/L mito/s)' for a linear scale with values from 0.0 to 3.0"><g transform="translate(0.5,120.5)"><path class="background" aria-hidden="true" d="M0,0h0v0h0Z" pointer-events="none"/><g><g class="mark-rule role-axis-tick" pointer-events="none"><line transform="translate(0,0)" x2="0" y2="3" stroke="black" stroke-width="1" opacity="1"/><line transform="translate(40,0)" x2="0" y2="3" stroke="black" stroke-width="1" opacity="1"/><line transform="translate(80,0)" x2="0" y2="3" stroke="black" stroke-width="1" opacity="1"/><line transform="translate(120,0)" x2="0" y2="3" stroke="black" stroke-width="1" opacity="1"/></g><g class="mark-text role-axis-label" pointer-events="none"><text text-anchor="start" transform="translate(0,13)" font-family="Arial" font-size="10px" fill="#000" opacity="1">0</text><text text-anchor="middle" transform="translate(40,13)" font-family="Arial" font-size="10px" fill="#000" opacity="1">1</text><text text-anchor="middle" transform="translate(80,13)" font-family="Arial" font-size="10px" fill="#000" opacity="1">2</text><text text-anchor="end" transform="translate(120,13)" font-family="Arial" font-size="10px" fill="#000" opacity="1">3</text></g><g class="mark-rule role-axis-domain" pointer-events="none"><line transform="translate(0,0)" x2="120" y2="0" stroke="black" stroke-width="1" opacity="1"/></g><g class="mark-text role-axis-title" pointer-events="none"><text text-anchor="middle" transform="translate(60,28)" font-family="Arial" font-size="11px" font-weight="normal" fill="#000" opacity="1">VO2 (mmol/L mito/s)</text></g></g><path class="foreground" aria-hidden="true" d="" pointer-events="none" display="none"/></g></g><g class="mark-group role-axis" role="graphics-symbol" aria-roledescription="axis" aria-label="Y-axis titled 'PCr:ATP ratio' for a linear scale with values from 0.0 to 2.4"><g transform="translate(0.5,0.5)"><path class="background" aria-hidden="true" d="M0,0h0v0h0Z" pointer-events="none"/><g><g class="mark-rule role-axis-tick" pointer-events="none"><line transform="translate(0,120)" x2="-3" y2="0" stroke="black" stroke-width="1" opacity="1"/><line transform="translate(0,70)" x2="-3" y2="0" stroke="black" stroke-width="1" opacity="1"/><line transform="translate(0,20)" x2="-3" y2="0" stroke="black" stroke-width="1" opacity="1"/></g><g class="mark-text role-axis-label" pointer-events="none"><text text-anchor="end" transform="translate(-5,123)" font-family="Arial" font-size="10px" fill="#000" opacity="1">0</text><text text-anchor="end" transform="translate(-5,72.99999999999999)" font-family="Arial" font-size="10px" fill="#000" opacity="1">1</text><text text-anchor="end" transform="translate(-5,22.999999999999996)" font-family="Arial" font-size="10px" fill="#000" opacity="1">2</text></g><g class="mark-rule role-axis-domain" pointer-events="none"><line transform="translate(0,120)" x2="0" y2="-120" stroke="black" stroke-width="1" opacity="1"/></g><g class="mark-text role-axis-title" pointer-events="none"><text text-anchor="middle" transform="translate(-15,60) rotate(-90) translate(0,-2)" font-family="Arial" font-size="11px" font-weight="normal" fill="#000" opacity="1">PCr:ATP ratio</text></g></g><path class="foreground" aria-hidden="true" d="" pointer-events="none" display="none"/></g></g><g class="mark-group role-scope layer_0_pathgroup" role="graphics-object" aria-roledescription="group mark container"><g transform="translate(0,0)"><path class="background" aria-hidden="true" d="M0,0h120v120h-120Z"/><g><g class="mark-line role-mark layer_0_marks" role="graphics-object" aria-roledescription="line mark container"><path aria-label="VO2_m: 0.237553031466; PCrATP: 2.32000919291; group: Young" role="graphics-symbol" aria-roledescription="line mark" d="M9.50212125865334,3.999540354616138L10.800720415165014,7.955578307758677L12.090879771792606,11.481453437778L13.375787893062926,14.694957855242237L14.657299508385636,17.66269175727237L15.936530043141131,20.428370178456102L17.214163568256918,23.023040490108826L18.490629185927602,25.469920479929584L19.76619780672989,27.78705300975782L21.041041882139695,29.988875580288955L22.31526943699779,32.087219946942874L23.588944909129793,34.091972497722026L24.862103376139178,36.01152802935051L26.13475890587659,37.85311253527003L27.40691099021159,39.623023219244836L28.67854344755974,41.326794509270776L29.94963737947456,42.969347229549264L31.220162262010806,44.55508270494014L32.4900824085398,46.08796787043778L33.75935498258303,47.57160920887861L35.02793283926101,49.00929860682522L36.295762761164966,50.40406399498475L37.562786196301886,51.758705400954554L38.82893790155229,53.07583104090818L40.094146691357324,54.35788132161498L41.35833383806753,55.607157427390284L42.621411791454,56.825845943255054L43.88328535884831,58.01603126026396L45.14384806663793,59.17972386547254L46.40298140452784,60.31887940535843L47.660553489154616,61.4354106041828L48.9164167038216,62.531212896837204L50.17040569355116,63.60817973688082L51.422333086868704,64.66823085703128L52.67198753252901,65.71332921106816L53.91912853294144,66.7455124823313L55.16348137142367,67.7669239568306L56.40473150809159,68.77984815708348L57.64251512007148,69.78676481695774L58.87641306440822,70.7903880248401L60.10593602221148,71.79375562366714L61.33051053389164,72.80031350743133L62.54946174459343,73.81403372062712L63.76198838811459,74.83958077190616L64.96713171136493,75.88253370087375L66.16373652584781,76.94970069128519L67.35039469428679,78.04958733219284L68.52536840992057,79.19308216347426L69.68649476520821,80.39457114216839L70.83101593808372,81.67374271663088L71.95534173020644,83.0587772893763L73.0546428422389,84.59205394249318L74.12211637785667,86.3409162951676L75.14762477163522,88.41729744471715L76.11507015623228,91.00787946474092L76.99747844816963,94.38611949480749L77.74969703418722,98.75361632756372L78.3122498000665,103.69235951939615L78.66991085741391,107.97567364924117L78.89510993248557,110.91695845231396L79.04721575647227,112.82524358476209L79.15311693330173,114.10230912135788L79.2303127245266,114.99439835584457L79.28926066270556,115.64393218847202L79.33601146575612,116.13429673154666L79.37422577217548,116.51592265371458L79.4062275879123,116.82053227170812L79.43355798925442,117.06885800139814L79.4572789411973,117.27492828755167L79.4781455949318,117.44853181082463L79.49670953293182,117.59668567356279L79.5133850990203,117.72454036066733L79.5284871072941,117.83595626238647L79.54226198810167,117.93388010348282L79.55490446706052,118.02059842656442L79.56657065856797,118.09791150962126L79.57738750956047,118.1672553880484L79.58746049355392,118.22978902925165L79.59687567484347,118.28645797855117L79.60570640814807,118.33804096851792L79.61401387130246,118.38518515059135L79.62185144491966,118.42843256804228L79.62926443556344,118.46824069672942L79.63629172788951,118.50499826661326L79.64296758407939,118.53903765027968L79.64932184567093,118.57064472690784L79.65538112212002,118.60006669165665L79.66116812726186,118.62751844510181L79.666704133155,118.65318759818315L79.67200727355333,118.67723874930444L79.67709395195018,118.69981685532179L79.68197940486439,118.72105008796024L79.68667689870794,118.74105219850503L79.69119861670002,118.75992448146701L79.6955556902668,118.77775743407066L79.69975859740204,118.79463215031092L79.7038144578194,118.81062157299081L79.70773410602672,118.82579134623636L79.71152430021581,118.84020086158777L79.71519230761419,118.85390390038671" stroke="#009DA3" stroke-width="2"/></g></g><path class="foreground" aria-hidden="true" d="" display="none"/></g><g transform="translate(0,0)"><path class="background" aria-hidden="true" d="M0,0h120v120h-120Z"/><g><g class="mark-line role-mark layer_0_marks" role="graphics-object" aria-roledescription="line mark container"><path aria-label="VO2_m: 0.238581448815; PCrATP: 2.32600666612; group: Old" role="graphics-symbol" aria-roledescription="line mark" d="M9.543257952582094,3.699666693933512L10.844894263326923,7.673824785449046L12.139761098652782,11.20334958714066L13.429973432312796,14.412657328354307L14.717012589206702,17.371172681993304L16.00186107707659,20.12420181432671L17.285164065161972,22.70375241007022L18.56734461915333,25.13364794254043L19.848685319879074,27.43231044028564L21.129374753003212,29.61441718113018L22.409541931430056,31.69194288932484L23.689273253436358,33.674853459801014L24.9686270821546,35.571576299575106L26.247641383480016,37.389333866319625L27.526340439899027,39.13439084082033L28.804737769192418,40.81223216576471L30.08283876795555,42.42770409416987L31.36064410585427,43.985115970518535L32.63814912829849,45.48833029467813L33.915347486870445,46.94082119101326L35.19222807721281,48.34574089854077L36.46877893658713,49.70595309377759L37.744986174146376,51.02407436638692L39.0208341969042,52.30250454531103L40.29630638995092,53.54345247195114L41.571384898384366,54.74895736804298L42.846049898651124,55.92090764568561L44.12028190365968,57.06105825740783L45.39405954459069,58.17104251215292L46.66736052995014,59.252387777877665L47.94016132077617,60.30652198190512L49.2124375248723,61.33478654661258L50.484162942462355,62.338443071503136L51.75531085507389,63.31868159706799L53.02585251308373,64.276627370915L54.29575774090505,65.21334669263979L55.564994889511716,66.12985272911996L56.83352997160438,67.02711072614856L58.101327837154436,67.90604167413355L59.368350098946564,68.767528972553L60.63455643597929,69.61242009698108L61.899904439212015,70.44153179597436L63.16434760412223,71.25565332820099L64.42783696773972,72.05555012719248L65.69031957167556,72.84196813152123L66.9517387050858,73.61563545980171L68.21203313341795,74.37726659911851L69.4711363971927,75.12756778391557L70.72897706170387,75.86723652810032L71.98547724210302,76.59696859386683L73.24055203441293,77.31746091114464L74.49410889912158,78.02941653711247L75.74604648680182,78.73354575048668L76.99625554148616,79.4305763998606L78.24460872477202,80.12125602686142L79.49097623026567,80.8063571794854L80.73520717328691,81.4866873487697L81.97713605284693,82.16309797997775L83.21657650667217,82.83648600369916L84.4533238107238,83.50781889466316L85.68714511049211,84.178136899834L86.91777997695777,84.84857546854954L88.14493104447443,85.52038304631455L89.36826223337358,86.19494618338196L90.58738745954187,86.87382685913165L91.80186289347814,87.55879506312951L93.01117545789594,88.2518884172607L94.21472984075766,88.95547831808626L95.41179981854343,89.6723659440171L96.60156699367069,90.40589343497359L97.78301420305804,91.16014821701269L98.95490800434999,91.9401709124837L100.1157353386207,92.75231455381233L101.263581589256,93.60473767482493L102.39599625428532,94.50812562377818L103.50974211823326,95.47666592517558L104.60047074200506,96.52948602073887L105.66206441190175,97.69228143840493L106.68578035231867,98.99858560141611L107.65885534863708,100.48808087642958L108.56292535623173,102.19557799870488L109.37367210137452,104.12075797695837L110.06539157055911,106.1821166699949L110.62283007159586,108.20679310141693L111.05155392505144,110.01298727344883L111.3736810542431,111.50910640592647L111.61566604358364,112.69962552377129L111.80025983901857,113.63483773374254L111.94424210764299,114.37196462270687L112.05921023502768,114.95951212767643L112.15304659351699,115.43450581827396L112.23115252249785,115.82415272395978L112.29729051543157,116.14826997196072L112.35413579835354,116.42135623244472L112.40363183051402,116.6541308169461L112.44721720064089,116.85462314838186L112.48597831807533,117.02893066917386L112.52074862427868,117.18174738527493L112.55217720800766,117.31673429593228L112.58077796688153,117.43678179959454" stroke="#F98F00" stroke-width="2"/></g></g><path class="foreground" aria-hidden="true" d="" display="none"/></g></g><g class="mark-group role-legend" role="graphics-symbol" aria-roledescription="legend" aria-label="Symbol legend for stroke color with 2 values: Young, Old"><g transform="translate(69,5)"><path class="background" aria-hidden="true" d="M0,0h46v24h-46Z" pointer-events="none"/><g><g class="mark-group role-legend-entry"><g transform="translate(0,0)"><path class="background" aria-hidden="true" d="M0,0h0v0h0Z" pointer-events="none"/><g><g class="mark-group role-scope" role="graphics-object" aria-roledescription="group mark container"><g transform="translate(0,0)"><path class="background" aria-hidden="true" d="M0,0h46v11h-46Z" pointer-events="none" opacity="1"/><g><g class="mark-symbol role-legend-symbol" pointer-events="none"><path transform="translate(6,6)" d="M-5,0L5,0" stroke="#009DA3" stroke-width="1.5" opacity="1"/></g><g class="mark-text role-legend-label" pointer-events="none"><text text-anchor="start" transform="translate(16,9)" font-family="Arial" font-size="10px" fill="#000" opacity="1">Young</text></g></g><path class="foreground" aria-hidden="true" d="" pointer-events="none" display="none"/></g><g transform="translate(0,13)"><path class="background" aria-hidden="true" d="M0,0h46v11h-46Z" pointer-events="none" opacity="1"/><g><g class="mark-symbol role-legend-symbol" pointer-events="none"><path transform="translate(6,6)" d="M-5,0L5,0" stroke="#F98F00" stroke-width="1.5" opacity="1"/></g><g class="mark-text role-legend-label" pointer-events="none"><text text-anchor="start" transform="translate(16,9)" font-family="Arial" font-size="10px" fill="#000" opacity="1">Old</text></g></g><path class="foreground" aria-hidden="true" d="" pointer-events="none" display="none"/></g></g></g><path class="foreground" aria-hidden="true" d="" pointer-events="none" display="none"/></g></g></g><path class="foreground" aria-hidden="true" d="" pointer-events="none" display="none"/></g></g></g><path class="foreground" aria-hidden="true" d="" display="none"/></g></g></g></svg>
