<?xml version="1.0" encoding="utf-8"?>
<!DOCTYPE svg PUBLIC "-//W3C//DTD SVG 1.1//EN" "http://www.w3.org/Graphics/SVG/1.1/DTD/svg11.dtd">
<svg xmlns="http://www.w3.org/2000/svg" xmlns:xlink="http://www.w3.org/1999/xlink" version="1.1" class="marks" width="156" height="160" viewBox="0 0 156 160"><rect width="156" height="160" fill="white"/><g fill="none" stroke-miterlimit="10" transform="translate(31,5)"><g class="mark-group role-frame root" role="graphics-object" aria-roledescription="group mark container"><g transform="translate(0,0)"><path class="background" aria-hidden="true" d="M0.5,0.5h120v120h-120Z"/><g><g class="mark-group role-axis" role="graphics-symbol" aria-roledescription="axis" aria-label="X-axis titled 'VO2 (mmol/L mito/s)' for a linear scale with values from 0.0 to 1.6"><g transform="translate(0.5,120.5)"><path class="background" aria-hidden="true" d="M0,0h0v0h0Z" pointer-events="none"/><g><g class="mark-rule role-axis-tick" pointer-events="none"><line transform="translate(0,0)" x2="0" y2="3" stroke="black" stroke-width="1" opacity="1"/><line transform="translate(38,0)" x2="0" y2="3" stroke="black" stroke-width="1" opacity="1"/><line transform="translate(75,0)" x2="0" y2="3" stroke="black" stroke-width="1" opacity="1"/><line transform="translate(113,0)" x2="0" y2="3" stroke="black" stroke-width="1" opacity="1"/></g><g class="mark-text role-axis-label" pointer-events="none"><text text-anchor="start" transform="translate(0,13)" font-family="Arial" font-size="10px" fill="#000" opacity="1">0.0</text><text text-anchor="middle" transform="translate(37.5,13)" font-family="Arial" font-size="10px" fill="#000" opacity="1">0.5</text><text text-anchor="middle" transform="translate(75,13)" font-family="Arial" font-size="10px" fill="#000" opacity="1">1.0</text><text text-anchor="middle" transform="translate(112.5,13)" font-family="Arial" font-size="10px" fill="#000" opacity="1">1.5</text></g><g class="mark-rule role-axis-domain" pointer-events="none"><line transform="translate(0,0)" x2="120" y2="0" stroke="black" stroke-width="1" opacity="1"/></g><g class="mark-text role-axis-title" pointer-events="none"><text text-anchor="middle" transform="translate(60,28)" font-family="Arial" font-size="11px" font-weight="normal" fill="#000" opacity="1">VO2 (mmol/L mito/s)</text></g></g><path class="foreground" aria-hidden="true" d="" pointer-events="none" display="none"/></g></g><g class="mark-group role-axis" role="graphics-symbol" aria-roledescription="axis" aria-label="Y-axis titled 'PCr:ATP ratio' for a linear scale with values from 0.0 to 2.4"><g transform="translate(0.5,0.5)"><path class="background" aria-hidden="true" d="M0,0h0v0h0Z" pointer-events="none"/><g><g class="mark-rule role-axis-tick" pointer-events="none"><line transform="translate(0,120)" x2="-3" y2="0" stroke="black" stroke-width="1" opacity="1"/><line transform="translate(0,70)" x2="-3" y2="0" stroke="black" stroke-width="1" opacity="1"/><line transform="translate(0,20)" x2="-3" y2="0" stroke="black" stroke-width="1" opacity="1"/></g><g class="mark-text role-axis-label" pointer-events="none"><text text-anchor="end" transform="translate(-5,123)" font-family="Arial" font-size="10px" fill="#000" opacity="1">0</text><text text-anchor="end" transform="translate(-5,72.99999999999999)" font-family="Arial" font-size="10px" fill="#000" opacity="1">1</text><text text-anchor="end" transform="translate(-5,22.999999999999996)" font-family="Arial" font-size="10px" fill="#000" opacity="1">2</text></g><g class="mark-rule role-axis-domain" pointer-events="none"><line transform="translate(0,120)" x2="0" y2="-120" stroke="black" stroke-width="1" opacity="1"/></g><g class="mark-text role-axis-title" pointer-events="none"><text text-anchor="middle" transform="translate(-15,60) rotate(-90) translate(0,-2)" font-family="Arial" font-size="11px" font-weight="normal" fill="#000" opacity="1">PCr:ATP ratio</text></g></g><path class="foreground" aria-hidden="true" d="" pointer-events="none" display="none"/></g></g><g class="mark-group role-scope layer_0_pathgroup" role="graphics-object" aria-roledescription="group mark container"><g transform="translate(0,0)"><path class="background" aria-hidden="true" d="M0,0h120v120h-120Z"/><g><g class="mark-line role-mark layer_0_marks" role="graphics-object" aria-roledescription="line mark container"><path aria-label="VO2_m: 0.227415693306; PCrATP: 2.31346694671; group: Young" role="graphics-symbol" aria-roledescription="line mark" d="M17.05617699798076,4.3266526643140635L19.53507642506465,8.31879976324197L21.973930035165054,11.930779915515162L24.386575383457792,15.242734390849026L26.781561911955812,18.31279215656114L29.163807701701867,21.18369822458506L31.53610113481474,23.887545129924533L33.899971173732595,26.44918577196393L36.256161619412886,28.888529689370607L38.604897524622594,31.222060179385807L40.94602245154192,33.46388082340717L43.27907483450887,35.62645292973242L45.603307556011906,37.721179002078955L47.91770101808702,39.75884676387333L50.22093600571835,41.7500454686924L52.511356705010165,43.705577994735876L54.78690696141276,45.63690383051517L57.045044374873676,47.55668541338511L59.282627005788584,49.4794958265442L61.49574616206762,51.42285702777351L63.67951436409349,53.408786145079894L65.82776500889693,55.46642508288406L67.93256374227555,57.63682649634549L69.98346760848605,59.98263904757208L71.96621264005411,62.609652966370774L73.86052871006515,65.71894285606366L75.63738335824902,69.73585351751674L77.25831307278155,75.57051317630325L78.67479609883799,84.63175091517014L79.76404746076089,96.95825021247799L80.16632784693724,112.99653477628709L80.17929016906402,107.99215686158773L80.26143381101717,114.98390551284483L80.34570147685339,116.05946690138943L80.40670330655827,116.72963713476867L80.45301585114878,117.18337544464121L80.48981373058764,117.5094011927591L80.52006038171255,117.75429973125723L80.54556253951164,117.944655442608L80.56749485210624,118.09666460067038L80.58664520112583,118.22072641205813L80.60358751162758,118.3238105702941L80.6187303550254,118.41075691145701L80.63237783740891,118.48502857765365L80.64477509030405,118.54916672135047L80.65610372100663,118.60507822401021L80.66651503338997,118.65422087334902L80.67612789949644,118.6977282770271L80.68504156318073,118.73649490018285L80.69333841963271,118.77123591392491L80.70108817120227,118.80252989756367L80.70834646047389,118.83084999706982L80.71516406674996,118.85658673299399L80.72158605736128,118.88006529818524L80.72764656438704,118.90155876579212L80.73338027351097,118.92129795125716L80.73881424263385,118.93947940570612L80.7439730733427,118.95627147742816L80.74887549924665,118.97181924146251L80.75355338110049,118.98624815055709L80.75801193906929,118.99966770989273L80.76227098871325,119.0121734796808L80.76634473611539,119.02384943460139L80.77024660036354,119.03476962052775L80.77398608596108,119.04499960991095L80.77757568652376,119.05459761692003L80.78102446530453,119.06361555621663L80.78435045387559,119.07209976846883L80.78753419836326,119.08009212119713L80.79061001769219,119.08762983701725L80.79357586655462,119.094746767991L80.79643779438435,119.1014734606136L80.79920132200036,119.10783760335495L80.80187277484625,119.1138643463449L80.80445615216848,119.119576603831L80.80695556926582,119.12499528267159L80.80937666217108,119.1301394889091L80.81172262689266,119.13502673915286L80.81399680390899,119.13967310847039L80.81620314971934,119.14409337300927L80.81834547817678,119.14830114200178L80.82042341821658,119.1523089898203L80.82244787559692,119.15612848673373L80.82440869028976,119.15977041299355L80.82631895562446,119.16324468722134L80.82817781300744,119.16656055303767L80.82998700894694,119.16972659290721L80.83174901631607,119.17275079030667L80.83346547592191,119.17564058476884L80.83513881725055,119.17840291239405L80.83677005169129,119.18104425513152L80.83836077293375,119.18357067037155L80.83991400547046,119.18598782232212L80.8414310052692,119.1883010231558L80.84290939287004,119.19051526600894L80.84435451010992,119.1926352141503L80.84576678683686,119.194665264084L80.84714745364832,119.19660954847701L80.84849650367265,119.19847196071943L80.84981643855612,119.20025616239568" stroke="#009DA3" stroke-width="2"/></g></g><path class="foreground" aria-hidden="true" d="" display="none"/></g><g transform="translate(0,0)"><path class="background" aria-hidden="true" d="M0,0h120v120h-120Z"/><g><g class="mark-line role-mark layer_0_marks" role="graphics-object" aria-roledescription="line mark container"><path aria-label="VO2_m: 0.229565918362; PCrATP: 2.31951460922; group: Old" role="graphics-symbol" aria-roledescription="line mark" d="M17.2174438771394,4.024269538917342L19.701281476430783,8.026148011103022L22.151533575673792,11.626471583733782L24.579437116273713,14.91404620437551L26.99258673439798,17.9503022671122L29.395619413931488,20.779344238694172L31.791344412787865,23.433636845734224L34.18148960797598,25.93779943323336L36.56713175524695,28.311057407459593L38.94893868905056,30.56883717646585L41.32731817893616,32.72380196614976L43.702496926254625,34.786569355021484L46.07457760408499,36.76619811709662L48.44356668650134,38.6705513152195L50.80939628125275,40.50654831269766L53.17193896623978,42.28036302000244L55.53100937656795,43.9975859396096L57.88637425363401,45.663332713453215L60.23774624915988,47.28236152870796L62.58478640717322,48.85914595372433L64.92709994731004,50.39796051346486L67.26422881993139,51.90294844229164L69.5956465071882,53.3781872186825L71.92074413469011,54.82776807132075L74.2388226869552,56.25586083261152L76.54906934955878,57.666812701518005L78.85054653160795,59.06523231810762L81.14215549452716,60.45613683062177L83.42260982845399,61.84509745602435L85.6903875838427,63.238467638525464L87.94367509019929,64.64368485407523L90.18028948560932,66.06970925157111L92.39758370466916,67.52768168417573L94.5922574627657,69.0319725346035L96.76022435999229,70.60190789899994L98.89622419838913,72.26473619990325L100.9933574033539,74.06118040382856L103.0422906649648,76.0560120978688L105.02986083680139,78.35926556159788L106.93673834968185,81.1678248331237L108.73279322654035,84.83292755628214L110.36734197735926,89.87827889290399L111.74794710450159,96.58251866696264L112.7285802742969,103.79983434587244L113.2790703014559,109.17110034432177L113.60977358791055,112.24831399886648L113.83020081504245,114.0355838969048L113.98180044637384,115.15878150678073L114.09231647166922,115.9142014750574L114.17710244347283,116.45129393043898L114.24474922085497,116.85043484766665L114.30037790017137,117.15767819793385L114.34722223707159,117.4009649329235L114.38742748820098,117.59809997281148L114.42247368381321,117.76091208923337L114.45340757334121,117.8975431463063L114.48100943407792,118.01376728975747L114.50585861322388,118.11378851605322L114.52840386504195,118.20073650019171L114.54899436190951,118.27698765492839L114.5679072942436,118.34437778048661L114.5853695410459,118.40434675854405L114.60156364582781,118.45803972144945L114.61664167120666,118.50637834646021L114.63073203715926,118.5501127520703L114.64394038254619,118.58985961985543L114.65635819023954,118.62613043340093L114.66806323459677,118.65935300538563L114.67912413171004,118.68988783880997L114.68959706513675,118.71804094525886L114.6995362612206,118.74407358469895L114.70898496447569,118.7682103232282L114.717982031208,118.7906451584888L114.7265642949504,118.8115465199528L114.73476244889255,118.83106141050138L114.74260468984774,118.84931866354552L114.75011624067162,118.86643167546943L114.75731972192953,118.88250064848374L114.76423591359011,118.8976144485475L114.77088328915659,118.91185217143746L114.77727880327802,118.9252844424115L114.78343801184813,118.93797452048359L114.78937500635601,118.94997923593158L114.79510300294459,118.96134978182069L114.80063320861038,118.97213240714859L114.80597726661843,118.9823689785322L114.81114518421971,118.99209750508396L114.81614645975564,119.00135256385545L114.8209886525803,119.01016569027703L114.82568014105117,119.0185656847639L114.83023128810197,119.02657889378904L114.83464579871449,119.03422952767288L114.83893082695815,119.04153980375328L114.84309260315845,119.04853017596017L114.8471370931061,119.05521950220707L114.85106934496665,119.06162520115417L114.85489494601859,119.06776337819713L114.85861683741527,119.07364896551358L114.8622438609849,119.0792957785641L114.86577095355173,119.08471672729934" stroke="#F98F00" stroke-width="2"/></g></g><path class="foreground" aria-hidden="true" d="" display="none"/></g></g><g class="mark-group role-legend" role="graphics-symbol" aria-roledescription="legend" aria-label="Symbol legend for stroke color with 2 values: Young, Old"><g transform="translate(69,5)"><path class="background" aria-hidden="true" d="M0,0h46v24h-46Z" pointer-events="none"/><g><g class="mark-group role-legend-entry"><g transform="translate(0,0)"><path class="background" aria-hidden="true" d="M0,0h0v0h0Z" pointer-events="none"/><g><g class="mark-group role-scope" role="graphics-object" aria-roledescription="group mark container"><g transform="translate(0,0)"><path class="background" aria-hidden="true" d="M0,0h46v11h-46Z" pointer-events="none" opacity="1"/><g><g class="mark-symbol role-legend-symbol" pointer-events="none"><path transform="translate(6,6)" d="M-5,0L5,0" stroke="#009DA3" stroke-width="1.5" opacity="1"/></g><g class="mark-text role-legend-label" pointer-events="none"><text text-anchor="start" transform="translate(16,9)" font-family="Arial" font-size="10px" fill="#000" opacity="1">Young</text></g></g><path class="foreground" aria-hidden="true" d="" pointer-events="none" display="none"/></g><g transform="translate(0,13)"><path class="background" aria-hidden="true" d="M0,0h46v11h-46Z" pointer-events="none" opacity="1"/><g><g class="mark-symbol role-legend-symbol" pointer-events="none"><path transform="translate(6,6)" d="M-5,0L5,0" stroke="#F98F00" stroke-width="1.5" opacity="1"/></g><g class="mark-text role-legend-label" pointer-events="none"><text text-anchor="start" transform="translate(16,9)" font-family="Arial" font-size="10px" fill="#000" opacity="1">Old</text></g></g><path class="foreground" aria-hidden="true" d="" pointer-events="none" display="none"/></g></g></g><path class="foreground" aria-hidden="true" d="" pointer-events="none" display="none"/></g></g></g><path class="foreground" aria-hidden="true" d="" pointer-events="none" display="none"/></g></g></g><path class="foreground" aria-hidden="true" d="" display="none"/></g></g></g></svg>
