<?xml version="1.0" encoding="utf-8"?>
<!DOCTYPE svg PUBLIC "-//W3C//DTD SVG 1.1//EN" "http://www.w3.org/Graphics/SVG/1.1/DTD/svg11.dtd">
<svg xmlns="http://www.w3.org/2000/svg" xmlns:xlink="http://www.w3.org/1999/xlink" version="1.1" class="marks" width="157" height="160" viewBox="0 0 157 160"><rect width="157" height="160" fill="white"/><g fill="none" stroke-miterlimit="10" transform="translate(31,5)"><g class="mark-group role-frame root" role="graphics-object" aria-roledescription="group mark container"><g transform="translate(0,0)"><path class="background" aria-hidden="true" d="M0.5,0.5h120v120h-120Z"/><g><g class="mark-group role-axis" role="graphics-symbol" aria-roledescription="axis" aria-label="X-axis titled 'VO2 (mmol/L mito/s)' for a linear scale with values from 0.0 to 2.2"><g transform="translate(0.5,120.5)"><path class="background" aria-hidden="true" d="M0,0h0v0h0Z" pointer-events="none"/><g><g class="mark-rule role-axis-tick" pointer-events="none"><line transform="translate(0,0)" x2="0" y2="3" stroke="black" stroke-width="1" opacity="1"/><line transform="translate(55,0)" x2="0" y2="3" stroke="black" stroke-width="1" opacity="1"/><line transform="translate(109,0)" x2="0" y2="3" stroke="black" stroke-width="1" opacity="1"/></g><g class="mark-text role-axis-label" pointer-events="none"><text text-anchor="start" transform="translate(0,13)" font-family="Arial" font-size="10px" fill="#000" opacity="1">0</text><text text-anchor="middle" transform="translate(54.54545454545455,13)" font-family="Arial" font-size="10px" fill="#000" opacity="1">1</text><text text-anchor="middle" transform="translate(109.0909090909091,13)" font-family="Arial" font-size="10px" fill="#000" opacity="1">2</text></g><g class="mark-rule role-axis-domain" pointer-events="none"><line transform="translate(0,0)" x2="120" y2="0" stroke="black" stroke-width="1" opacity="1"/></g><g class="mark-text role-axis-title" pointer-events="none"><text text-anchor="middle" transform="translate(60,28)" font-family="Arial" font-size="11px" font-weight="normal" fill="#000" opacity="1">VO2 (mmol/L mito/s)</text></g></g><path class="foreground" aria-hidden="true" d="" pointer-events="none" display="none"/></g></g><g class="mark-group role-axis" role="graphics-symbol" aria-roledescription="axis" aria-label="Y-axis titled 'PCr:ATP ratio' for a linear scale with values from 0.0 to 2.4"><g transform="translate(0.5,0.5)"><path class="background" aria-hidden="true" d="M0,0h0v0h0Z" pointer-events="none"/><g><g class="mark-rule role-axis-tick" pointer-events="none"><line transform="translate(0,120)" x2="-3" y2="0" stroke="black" stroke-width="1" opacity="1"/><line transform="translate(0,70)" x2="-3" y2="0" stroke="black" stroke-width="1" opacity="1"/><line transform="translate(0,20)" x2="-3" y2="0" stroke="black" stroke-width="1" opacity="1"/></g><g class="mark-text role-axis-label" pointer-events="none"><text text-anchor="end" transform="translate(-5,123)" font-family="Arial" font-size="10px" fill="#000" opacity="1">0</text><text text-anchor="end" transform="translate(-5,72.99999999999999)" font-family="Arial" font-size="10px" fill="#000" opacity="1">1</text><text text-anchor="end" transform="translate(-5,22.999999999999996)" font-family="Arial" font-size="10px" fill="#000" opacity="1">2</text></g><g class="mark-rule role-axis-domain" pointer-events="none"><line transform="translate(0,120)" x2="0" y2="-120" stroke="black" stroke-width="1" opacity="1"/></g><g class="mark-text role-axis-title" pointer-events="none"><text text-anchor="middle" transform="translate(-15,60) rotate(-90) translate(0,-2)" font-family="Arial" font-size="11px" font-weight="normal" fill="#000" opacity="1">PCr:ATP ratio</text></g></g><path class="foreground" aria-hidden="true" d="" pointer-events="none" display="none"/></g></g><g class="mark-group role-scope layer_0_pathgroup" role="graphics-object" aria-roledescription="group mark container"><g transform="translate(0,0)"><path class="background" aria-hidden="true" d="M0,0h120v120h-120Z"/><g><g class="mark-line role-mark layer_0_marks" role="graphics-object" aria-roledescription="line mark container"><path aria-label="VO2_m: 0.231755187057; PCrATP: 2.29433822405; group: Young" role="graphics-symbol" aria-roledescription="line mark" d="M12.641192021281443,5.283088797550124L14.445513555648386,9.907173756100264L16.221808652877193,13.959316231845204L17.981917172492174,17.607563587954317L19.732050711750606,20.94734021977926L21.475596486487483,24.039980429143057L23.214486574111163,26.927908441012214L24.949862210871384,29.642102799474973L26.682410849331866,32.20616424463686L28.412547192992488,34.63869563797578L30.14050799627531,36.95477270413369L31.86641523784836,39.16689581850751L33.59030670548327,41.285641898002076L35.31216055346858,43.32010799930807L37.031904691871034,45.278246006408416L38.74942660083215,47.167104518393856L40.46457723879702,48.993012059408024L42.1771704603766,50.761731489580946L43.88698587064393,52.47857498671735L45.59376458743333,54.148506532701134L47.29720640499288,55.77622946531364L48.99696621664124,57.36626112200331L50.692643500972686,58.923023425701544L52.38378181910022,60.45088585774102L54.06985127761453,61.954271020869946L55.750240091287495,63.437722955882336L57.424234808270974,64.90600131097757L59.09100521806926,66.3642022880475L60.749577582054414,67.81787062690174L62.39879654955543,69.27321361510822L64.03728931956655,70.7373041383162L65.66340524013793,72.21842435920905L67.2751445585931,73.72651434552279L68.87005095448049,75.27389389471892L70.44506731642966,76.87636431613929L71.99631522447838,78.55508268577717L73.51875692060139,80.33996039348702L75.00558196955312,82.27600742010355L76.44721540856473,84.43591744887556L77.82947774038061,86.94488696588785L79.1300574954399,90.02438425198122L80.31160835864125,94.02745277112709L81.30823899124961,99.24425526571206L82.02141717240885,105.05842955312734L82.42914311095686,109.68726888070702L82.67232157645272,112.49802403532209L82.83331200689092,114.17875132669545L82.9430860047484,115.25151773807855L83.02231553250189,115.9796632601984L83.08258482302978,116.5003762459486L83.13034091739613,116.88887899852325L83.1694037942198,117.18879027102429L83.20215905463691,117.42678752668643L83.2301818766233,117.61996581211339L83.25454671109928,117.779730754218L83.27601561600792,117.91395756001897L83.29514485784705,118.02824669503121L83.31234974470324,118.12668376298379L83.32794921368365,118.21231578043174L83.34219040265117,118.28745984857423L83.35526981397749,118.35390817670591L83.36734519825838,118.41306820083138L83.37854515840992,118.4660601856657L83.3889758114075,118.51378668492774L83.39872547361973,118.55698283839938L83.40786848716056,118.59625336923912L83.41646792822267,118.63210021659074L83.42457760132946,118.664943445654L83.43224462600344,118.6951372324758L83.43950851715952,118.72298233477375L83.44640498037029,118.74873571505464L83.45296494581518,118.77261826372855L83.45921487304831,118.79482091596412L83.46518052179474,118.81550949001158L83.47088214750872,118.83482878530234L83.47633853807204,118.85290574039168L83.4815686243709,118.86985207745785L83.48658538888175,118.88576662266799L83.49140747647597,118.90073692841885L83.49604320926582,118.91484108440008L83.50050576462213,118.92814874131153L83.504805688539,118.9407223258022L83.50895206392133,118.95261794039737L83.51295563749996,118.96388609819851L83.51682206184833,118.97457249814512L83.52056057564252,118.98471847320788L83.52417746427052,118.99436157542986L83.52767923525576,119.00353596728505L83.53107176792663,119.01227280287239L83.53436049862523,119.02060055053377L83.53755090192278,119.02854527153463L83.54064742876649,119.03613087933365L83.54365444604228,119.04337934837156L83.54657711646735,119.05031089771904L83.54941696848084,119.05694420230635L83.5521798018223,119.06329647111258L83.55486850013015,119.06938364594411L83.55748609527517,119.0752204922606L83.56003582565029,119.08082070509398L83.56251999028434,119.08619701292498" stroke="#009DA3" stroke-width="2"/></g></g><path class="foreground" aria-hidden="true" d="" display="none"/></g><g transform="translate(0,0)"><path class="background" aria-hidden="true" d="M0,0h120v120h-120Z"/><g><g class="mark-line role-mark layer_0_marks" role="graphics-object" aria-roledescription="line mark container"><path aria-label="VO2_m: 0.232783003315; PCrATP: 2.29962836722; group: Old" role="graphics-symbol" aria-roledescription="line mark" d="M12.697254726269172,5.018581639159003L14.506702474277896,9.659536354529292L16.290500946404308,13.71010879264361L18.059062287839154,17.345699455178792L19.818245897773956,20.66544127166607L21.57135070557495,23.732679353219837L23.32029881191154,26.590938745677235L25.066258026657128,29.271786882832647L26.809961725111087,31.79911140278527L28.55188270986072,34.19160566087492L30.292327986366303,36.464307835499035L32.031501240726726,38.629573017243295L33.769533142266404,40.69774978644239L35.50650523850681,42.67763559981574L37.24246368963996,44.576807901031124L38.977429441210354,46.40186401453983L40.71140386722276,48.15860528528432L42.44437313446514,49.85217665800112L44.17631127710992,51.48717509184631L45.907182485495994,53.067735049414615L47.6369420937761,54.59759981442274L49.36553727177869,56.08017710619497L51.09290820896993,57.51858567585683L52.81898788192278,58.91569472165819L54.543702383992226,60.27415678855239L56.26696996073471,61.596436384333735L57.98870174036007,62.88483484689054L59.708801253573114,64.14150946651002L61.42716270740271,65.36849271503395L63.14367123982521,66.56771176160858L64.85820109936847,67.74100276209181L66.57061618985364,68.89011968146376L68.28076715002096,70.01675511071925L69.98849038213642,71.12254776989099L71.69360657219735,72.20909521367129L73.39591821878557,73.27796954058903L75.09520807534952,74.330722610438L76.79123532762623,75.36890456214279L78.48373283466186,76.39407584313581L80.17240388500677,77.40781673315456L81.85691484894498,78.4117566940533L83.53689421373203,79.4075749741489L85.21192063138521,80.3970392448229L86.88151832537413,81.38201988886682L88.54514467812042,82.3645338786659L90.20217920876152,83.34677250698977L91.85190565451948,84.33116422551626L93.49349387603264,85.32043280219199L95.12596887294315,86.31770263246668L96.74818201711183,87.32660538713243L98.35875705569836,88.35147116385187L99.95603450791326,89.39755652001804L101.53797335871441,90.47141920897283L103.10202956902319,91.5814653574366L104.64495185780966,92.7387414696743L106.16247918071542,93.95826394391453L107.64885862233416,95.26087177334821L109.09601345992293,96.67604553471689L110.49214990512633,98.2451339460689L111.81941165780296,100.02243017212031L113.05043720293789,102.06429498656945L114.1456616051534,104.38381181055686L115.05958060543851,106.86261487903822L115.76569678613257,109.22357769453376L116.2797480200616,111.20534812602604L116.64591060677002,112.73424410025204L116.90946799563571,113.87599651485351L117.10453590680436,114.72927061716169L117.25365463560337,115.37730004102963L117.37117663172499,115.87991154807979L117.46630812556653,116.27809510304765L117.54509091344278,116.59979245132438L117.61160478651755,116.86427894305199L117.6686914797119,117.08509648751168L117.71837446993989,117.27195415356078L117.76213375599905,117.43195164405863L117.80107430319433,117.57037896167112L117.83603712103043,117.69124653715825L117.8676740964396,117.79764325368386L117.89649879483491,117.89198280830392L117.92291561363342,117.97617666126932L117.94726039351296,118.0517558319425L117.96980036460725,118.11996109803135L117.99075839195591,118.18180753519523L118.01032049211909,118.23813331653977L118.02864300934307,118.28963639042445L118.04585807300143,118.33690246098487L118.06207854679053,118.38042653153772L118.077401043879,118.42062974874113L118.09191211161087,118.45787249980819L118.10568386358831,118.49246514367526L118.1187775902771,118.52467631999556L118.13125305419585,118.55473949850463L118.14315859677775,118.58285880944999L118.15453880914784,118.60921334235366L118.16543282505394,118.63396091742257L118.17587609483546,118.65724112105774L118.18590131854123,118.67917785196057L118.19553353623779,118.69988156450566L118.20480079425738,118.71945085314862" stroke="#F98F00" stroke-width="2"/></g></g><path class="foreground" aria-hidden="true" d="" display="none"/></g></g><g class="mark-group role-legend" role="graphics-symbol" aria-roledescription="legend" aria-label="Symbol legend for stroke color with 2 values: Young, Old"><g transform="translate(69,5)"><path class="background" aria-hidden="true" d="M0,0h46v24h-46Z" pointer-events="none"/><g><g class="mark-group role-legend-entry"><g transform="translate(0,0)"><path class="background" aria-hidden="true" d="M0,0h0v0h0Z" pointer-events="none"/><g><g class="mark-group role-scope" role="graphics-object" aria-roledescription="group mark container"><g transform="translate(0,0)"><path class="background" aria-hidden="true" d="M0,0h46v11h-46Z" pointer-events="none" opacity="1"/><g><g class="mark-symbol role-legend-symbol" pointer-events="none"><path transform="translate(6,6)" d="M-5,0L5,0" stroke="#009DA3" stroke-width="1.5" opacity="1"/></g><g class="mark-text role-legend-label" pointer-events="none"><text text-anchor="start" transform="translate(16,9)" font-family="Arial" font-size="10px" fill="#000" opacity="1">Young</text></g></g><path class="foreground" aria-hidden="true" d="" pointer-events="none" display="none"/></g><g transform="translate(0,13)"><path class="background" aria-hidden="true" d="M0,0h46v11h-46Z" pointer-events="none" opacity="1"/><g><g class="mark-symbol role-legend-symbol" pointer-events="none"><path transform="translate(6,6)" d="M-5,0L5,0" stroke="#F98F00" stroke-width="1.5" opacity="1"/></g><g class="mark-text role-legend-label" pointer-events="none"><text text-anchor="start" transform="translate(16,9)" font-family="Arial" font-size="10px" fill="#000" opacity="1">Old</text></g></g><path class="foreground" aria-hidden="true" d="" pointer-events="none" display="none"/></g></g></g><path class="foreground" aria-hidden="true" d="" pointer-events="none" display="none"/></g></g></g><path class="foreground" aria-hidden="true" d="" pointer-events="none" display="none"/></g></g></g><path class="foreground" aria-hidden="true" d="" display="none"/></g></g></g></svg>
