<?xml version="1.0" encoding="utf-8"?>
<!DOCTYPE svg PUBLIC "-//W3C//DTD SVG 1.1//EN" "http://www.w3.org/Graphics/SVG/1.1/DTD/svg11.dtd">
<svg xmlns="http://www.w3.org/2000/svg" xmlns:xlink="http://www.w3.org/1999/xlink" version="1.1" class="marks" width="158" height="160" viewBox="0 0 158 160"><rect width="158" height="160" fill="white"/><g fill="none" stroke-miterlimit="10" transform="translate(31,5)"><g class="mark-group role-frame root" role="graphics-object" aria-roledescription="group mark container"><g transform="translate(0,0)"><path class="background" aria-hidden="true" d="M0.5,0.5h120v120h-120Z"/><g><g class="mark-group role-axis" role="graphics-symbol" aria-roledescription="axis" aria-label="X-axis titled 'VO2 (mmol/L mito/s)' for a linear scale with values from 0.0 to 2.8"><g transform="translate(0.5,120.5)"><path class="background" aria-hidden="true" d="M0,0h0v0h0Z" pointer-events="none"/><g><g class="mark-rule role-axis-tick" pointer-events="none"><line transform="translate(0,0)" x2="0" y2="3" stroke="black" stroke-width="1" opacity="1"/><line transform="translate(43,0)" x2="0" y2="3" stroke="black" stroke-width="1" opacity="1"/><line transform="translate(86,0)" x2="0" y2="3" stroke="black" stroke-width="1" opacity="1"/></g><g class="mark-text role-axis-label" pointer-events="none"><text text-anchor="start" transform="translate(0,13)" font-family="Arial" font-size="10px" fill="#000" opacity="1">0</text><text text-anchor="middle" transform="translate(42.85714285714286,13)" font-family="Arial" font-size="10px" fill="#000" opacity="1">1</text><text text-anchor="middle" transform="translate(85.71428571428572,13)" font-family="Arial" font-size="10px" fill="#000" opacity="1">2</text></g><g class="mark-rule role-axis-domain" pointer-events="none"><line transform="translate(0,0)" x2="120" y2="0" stroke="black" stroke-width="1" opacity="1"/></g><g class="mark-text role-axis-title" pointer-events="none"><text text-anchor="middle" transform="translate(60,28)" font-family="Arial" font-size="11px" font-weight="normal" fill="#000" opacity="1">VO2 (mmol/L mito/s)</text></g></g><path class="foreground" aria-hidden="true" d="" pointer-events="none" display="none"/></g></g><g class="mark-group role-axis" role="graphics-symbol" aria-roledescription="axis" aria-label="Y-axis titled 'PCr:ATP ratio' for a linear scale with values from 0.0 to 2.4"><g transform="translate(0.5,0.5)"><path class="background" aria-hidden="true" d="M0,0h0v0h0Z" pointer-events="none"/><g><g class="mark-rule role-axis-tick" pointer-events="none"><line transform="translate(0,120)" x2="-3" y2="0" stroke="black" stroke-width="1" opacity="1"/><line transform="translate(0,70)" x2="-3" y2="0" stroke="black" stroke-width="1" opacity="1"/><line transform="translate(0,20)" x2="-3" y2="0" stroke="black" stroke-width="1" opacity="1"/></g><g class="mark-text role-axis-label" pointer-events="none"><text text-anchor="end" transform="translate(-5,123)" font-family="Arial" font-size="10px" fill="#000" opacity="1">0</text><text text-anchor="end" transform="translate(-5,72.99999999999999)" font-family="Arial" font-size="10px" fill="#000" opacity="1">1</text><text text-anchor="end" transform="translate(-5,22.999999999999996)" font-family="Arial" font-size="10px" fill="#000" opacity="1">2</text></g><g class="mark-rule role-axis-domain" pointer-events="none"><line transform="translate(0,120)" x2="0" y2="-120" stroke="black" stroke-width="1" opacity="1"/></g><g class="mark-text role-axis-title" pointer-events="none"><text text-anchor="middle" transform="translate(-15,60) rotate(-90) translate(0,-2)" font-family="Arial" font-size="11px" font-weight="normal" fill="#000" opacity="1">PCr:ATP ratio</text></g></g><path class="foreground" aria-hidden="true" d="" pointer-events="none" display="none"/></g></g><g class="mark-group role-scope layer_0_pathgroup" role="graphics-object" aria-roledescription="group mark container"><g transform="translate(0,0)"><path class="background" aria-hidden="true" d="M0,0h120v120h-120Z"/><g><g class="mark-line role-mark layer_0_marks" role="graphics-object" aria-roledescription="line mark container"><path aria-label="VO2_m: 0.233206887263; PCrATP: 2.31694170811; group: Young" role="graphics-symbol" aria-roledescription="line mark" d="M9.994580882699838,4.1529145946428025L11.395888031036415,8.1164995341301L12.78590911832256,11.667361220929129L14.168362324805365,14.908253835463325L15.545735394979621,17.9018278488616L16.91961316952895,20.690990726189312L18.290996664725867,23.306881865837397L19.660529256045837,25.773036076916327L21.028627636895756,28.107835641251317L22.395564413419965,30.326024583788143L23.761517714962174,32.439697070162545L25.12660227544195,34.45895897028136L26.49088846119258,36.392391163139536L27.85441549338565,38.24737801037346L29.21719956151848,40.03034928831835L30.579239493051105,41.74696218121162L31.94052093684029,43.402237150083224L33.301018261286835,45.00067167764542L34.66069605282336,46.546319787230445L36.01951151216218,48.04286343125861L37.37741338686096,49.49367171764944L38.73434381622222,50.90184114735936L40.0902366293894,52.27024345543245L41.44501857148718,53.601553178547185L42.79860827905569,54.8982787959525L44.15091591610786,56.162787870118606L45.50184149846631,57.39733442559126L46.85127528990515,58.60407417215149L48.199094907718404,59.78508967855645L49.54516583178468,60.942407643877175L50.88933757294509,62.07802028714855L52.231443392651485,63.19390002144536L53.57129637639556,64.29202775492448L54.908687499135944,65.37440954000387L56.243381863859284,66.44309992344238L57.575113621752735,67.50024098766151L58.90358321254139,68.54807784444807L60.228448751407825,69.58901380264895L61.54931941033089,70.62565226828399L62.865746003560695,71.66085956256276L64.17721114117319,72.69783636316849L65.48311037965165,73.74023726485228L66.78273784784368,74.79229356334659L68.0752577227957,75.85901284139308L69.35967566124006,76.94644854158898L70.6347924689414,78.06210147130311L71.89914321640003,79.215500055446L73.15091840741842,80.41913807565682L74.38782752696953,81.6899392851633L75.60691359621264,83.05172920386092L76.8042345017004,84.53941275645482L77.9743320707641,86.20622139741877L79.10927649312832,88.13577327921884L80.1968830188015,90.45933856061278L81.21735471536631,93.36576765951041L82.13769945773173,97.04211883565262L82.90776006512404,101.41129644741548L83.479765722065,105.78559318052842L83.86397684708143,109.2740328297627L84.12016617821136,111.68210689705761L84.2956900725382,113.30176410459492L84.42073221994454,114.41745034826423L84.51394976649459,115.2144242411421L84.58629272114135,115.80481663983527L84.64431886922108,116.25650793590957L84.6921216724634,116.61170496296494L84.73237153671597,116.89755927947074L84.76687601690249,117.13214215672429L84.79690002687603,117.32786433769778L84.8233550047871,117.49349203177167L84.84691487836929,117.63537346678498L84.86808846820027,117.75820850194738L84.88726757131597,117.8655452914848L84.90475979198163,117.96010937629326L84.92080895725486,118.04402723870328L84.93561232505868,118.11898102857002L84.94933064068985,118.18631820876836L84.96209666068059,118.24713036749696L84.9740210369184,118.30231091225511L84.98519678396596,118.35259790181327L84.99570288301511,118.39860626730886L85.00560680055493,118.4408523790571L85.01496676880504,118.47977295835574L85.0238330845775,118.51573984383901L85.03224788224738,118.54907163013391L85.04025398211681,118.58004257370594L85.04788037340236,118.60889054054053L85.05516039278758,118.63582229144495L85.0621192058749,118.66101878108758L85.06878119332907,118.68463886385591L85.07516407088615,118.7068227320729L85.0812928185917,118.72769422652895L85.08718132832345,118.74736360001292L85.09284580394615,118.76592902754372L85.09830056674834,118.78347830964805L85.10355852920533,118.80009020007702L85.10863136984851,118.81583554031963L85.11352998878597,118.83077822167104L85.11826353973471,118.84497603694362L85.12284383474255,118.8584813121076" stroke="#009DA3" stroke-width="2"/></g></g><path class="foreground" aria-hidden="true" d="" display="none"/></g><g transform="translate(0,0)"><path class="background" aria-hidden="true" d="M0,0h120v120h-120Z"/><g><g class="mark-line role-mark layer_0_marks" role="graphics-object" aria-roledescription="line mark container"><path aria-label="VO2_m: 0.233632277474; PCrATP: 2.32223428059; group: Old" role="graphics-symbol" aria-roledescription="line mark" d="M10.012811891753437,3.8882859706661055L11.420384974680667,7.871698260976485L12.817069663395824,11.43098972658632L14.206068481411346,14.67205341432203L15.589842777294866,17.659813667507457L16.970035241025386,20.438811076744262L18.34771107804795,23.04127040745645L19.723564742841354,25.49143864453557L21.09805629403218,27.80815703368511L22.47149420854118,30.006469147001447L23.8440924055261,32.09864600912417L25.21599516244691,34.09490460780352L26.587303454058446,36.003875675442046L27.958086954730604,37.83295125302711L29.328392518155695,39.588537121467844L30.698250891907385,41.27623816249341L32.06768102120526,42.90100029023395L33.43669331291661,44.46721973710214L34.80529035861463,45.978834384702L36.173470226080454,47.43938701424052L37.54122656223546,48.8520845822904L38.908549773767575,50.21984272148857L40.27542728116603,51.545324716064364L41.64184443091122,52.8309711735049L43.00778453363192,54.079027809431764L44.37322877966575,55.291568993880695L45.738157211229236,56.470513856960224L47.10254788281779,57.61764666014605L48.46637752723334,58.73462876956998L49.82962147504844,59.82301145752377L51.19225343913806,60.88424800451826L52.55424565484031,61.919702565980614L53.91556874119887,62.93065912168514L55.27619142205857,63.91832868914067L56.63608180910716,64.88385777830787L57.995204247962015,65.82833250468735L59.353522339205824,66.75278604654737L60.71099707375677,67.65820319005313L62.067587273345296,68.54552532058105L63.423248850539935,69.41565440191451L64.77793515865275,70.26945827424782L66.1315962227555,71.10777340472517L67.48417881605593,71.93140876271497L68.83562600690681,72.74115188643806L70.18587661916227,73.53776781639746L71.53486497299751,74.32200705281895L72.88252052108461,75.09460631029403L74.22876700315929,75.85629369125L75.57352165599667,76.60779205182602L76.91669640077065,77.34982121838773L78.25819288099967,78.08310437960954L79.59790649285102,78.80837107634767L80.93572197371145,79.52636238779749L82.27151312394444,80.23783695879828L83.60514224477815,80.94357462387599L84.93645653756667,81.64438731009034L86.2652885341315,82.34112214697872L87.59145170261621,83.03467610881994L88.91473966286182,83.72599951074591L90.23492102152508,84.4161187342701L91.55173675349253,85.10614472343853L92.86489495865271,85.79729661342368L94.17406506014159,86.4909250608138L95.47887037348158,87.18854483323804L96.77887921264103,87.89187305729772L98.07359322076812,88.60287874923242L99.36243340851074,89.32385968542489L100.64472108627805,90.05752166264347L101.91963523844096,90.8071020827847L103.18621775348767,91.57653677453622L104.44328112428197,92.37067936263357L105.68936588348538,93.19559807121968L106.92262764219673,94.05903083512673L108.14070158780783,94.9709141315415L109.34047807850871,95.94415157285844L110.51775730024909,96.99553290225157L111.66673756709486,98.1465065162982L112.77924228271533,99.42321193148238L113.84360729667404,100.8538452671661L114.84351119016443,102.45958356878452L115.75759373078537,104.23489260785043L116.5621053308001,106.1207974358055L117.23855919234491,107.99674092248645L117.78302479295814,109.72194128526664L118.20826969197212,111.2017082518298L118.53667503256217,112.4134327128136L118.79149843996454,113.38395950198195L118.99204877107728,114.15782264746566L119.15279319113709,114.77840044496459L119.28406748376943,115.28138706285016L119.39319501308529,115.69418367141992L119.48538362697249,116.03728904745293L119.56438758200008,116.32594763403799L119.63295554534645,116.57154380981166L119.69313435763007,116.78265570317713L119.7464729465391,116.96581937031257L119.79416156967552,117.12607445755376L119.83712887463322,117.26735316733058L119.87610832415203,117.39275924854778L119.91168743689263,117.50476934834418" stroke="#F98F00" stroke-width="2"/></g></g><path class="foreground" aria-hidden="true" d="" display="none"/></g></g><g class="mark-group role-legend" role="graphics-symbol" aria-roledescription="legend" aria-label="Symbol legend for stroke color with 2 values: Young, Old"><g transform="translate(69,5)"><path class="background" aria-hidden="true" d="M0,0h46v24h-46Z" pointer-events="none"/><g><g class="mark-group role-legend-entry"><g transform="translate(0,0)"><path class="background" aria-hidden="true" d="M0,0h0v0h0Z" pointer-events="none"/><g><g class="mark-group role-scope" role="graphics-object" aria-roledescription="group mark container"><g transform="translate(0,0)"><path class="background" aria-hidden="true" d="M0,0h46v11h-46Z" pointer-events="none" opacity="1"/><g><g class="mark-symbol role-legend-symbol" pointer-events="none"><path transform="translate(6,6)" d="M-5,0L5,0" stroke="#009DA3" stroke-width="1.5" opacity="1"/></g><g class="mark-text role-legend-label" pointer-events="none"><text text-anchor="start" transform="translate(16,9)" font-family="Arial" font-size="10px" fill="#000" opacity="1">Young</text></g></g><path class="foreground" aria-hidden="true" d="" pointer-events="none" display="none"/></g><g transform="translate(0,13)"><path class="background" aria-hidden="true" d="M0,0h46v11h-46Z" pointer-events="none" opacity="1"/><g><g class="mark-symbol role-legend-symbol" pointer-events="none"><path transform="translate(6,6)" d="M-5,0L5,0" stroke="#F98F00" stroke-width="1.5" opacity="1"/></g><g class="mark-text role-legend-label" pointer-events="none"><text text-anchor="start" transform="translate(16,9)" font-family="Arial" font-size="10px" fill="#000" opacity="1">Old</text></g></g><path class="foreground" aria-hidden="true" d="" pointer-events="none" display="none"/></g></g></g><path class="foreground" aria-hidden="true" d="" pointer-events="none" display="none"/></g></g></g><path class="foreground" aria-hidden="true" d="" pointer-events="none" display="none"/></g></g></g><path class="foreground" aria-hidden="true" d="" display="none"/></g></g></g></svg>
