<?xml version="1.0" encoding="utf-8"?>
<!DOCTYPE svg PUBLIC "-//W3C//DTD SVG 1.1//EN" "http://www.w3.org/Graphics/SVG/1.1/DTD/svg11.dtd">
<svg xmlns="http://www.w3.org/2000/svg" xmlns:xlink="http://www.w3.org/1999/xlink" version="1.1" class="marks" width="157" height="160" viewBox="0 0 157 160"><rect width="157" height="160" fill="white"/><g fill="none" stroke-miterlimit="10" transform="translate(31,5)"><g class="mark-group role-frame root" role="graphics-object" aria-roledescription="group mark container"><g transform="translate(0,0)"><path class="background" aria-hidden="true" d="M0.5,0.5h120v120h-120Z"/><g><g class="mark-group role-axis" role="graphics-symbol" aria-roledescription="axis" aria-label="X-axis titled 'VO2 (mmol/L mito/s)' for a linear scale with values from 0.0 to 2.2"><g transform="translate(0.5,120.5)"><path class="background" aria-hidden="true" d="M0,0h0v0h0Z" pointer-events="none"/><g><g class="mark-rule role-axis-tick" pointer-events="none"><line transform="translate(0,0)" x2="0" y2="3" stroke="black" stroke-width="1" opacity="1"/><line transform="translate(55,0)" x2="0" y2="3" stroke="black" stroke-width="1" opacity="1"/><line transform="translate(109,0)" x2="0" y2="3" stroke="black" stroke-width="1" opacity="1"/></g><g class="mark-text role-axis-label" pointer-events="none"><text text-anchor="start" transform="translate(0,13)" font-family="Arial" font-size="10px" fill="#000" opacity="1">0</text><text text-anchor="middle" transform="translate(54.54545454545455,13)" font-family="Arial" font-size="10px" fill="#000" opacity="1">1</text><text text-anchor="middle" transform="translate(109.0909090909091,13)" font-family="Arial" font-size="10px" fill="#000" opacity="1">2</text></g><g class="mark-rule role-axis-domain" pointer-events="none"><line transform="translate(0,0)" x2="120" y2="0" stroke="black" stroke-width="1" opacity="1"/></g><g class="mark-text role-axis-title" pointer-events="none"><text text-anchor="middle" transform="translate(60,28)" font-family="Arial" font-size="11px" font-weight="normal" fill="#000" opacity="1">VO2 (mmol/L mito/s)</text></g></g><path class="foreground" aria-hidden="true" d="" pointer-events="none" display="none"/></g></g><g class="mark-group role-axis" role="graphics-symbol" aria-roledescription="axis" aria-label="Y-axis titled 'PCr:ATP ratio' for a linear scale with values from 0.0 to 2.4"><g transform="translate(0.5,0.5)"><path class="background" aria-hidden="true" d="M0,0h0v0h0Z" pointer-events="none"/><g><g class="mark-rule role-axis-tick" pointer-events="none"><line transform="translate(0,120)" x2="-3" y2="0" stroke="black" stroke-width="1" opacity="1"/><line transform="translate(0,70)" x2="-3" y2="0" stroke="black" stroke-width="1" opacity="1"/><line transform="translate(0,20)" x2="-3" y2="0" stroke="black" stroke-width="1" opacity="1"/></g><g class="mark-text role-axis-label" pointer-events="none"><text text-anchor="end" transform="translate(-5,123)" font-family="Arial" font-size="10px" fill="#000" opacity="1">0</text><text text-anchor="end" transform="translate(-5,72.99999999999999)" font-family="Arial" font-size="10px" fill="#000" opacity="1">1</text><text text-anchor="end" transform="translate(-5,22.999999999999996)" font-family="Arial" font-size="10px" fill="#000" opacity="1">2</text></g><g class="mark-rule role-axis-domain" pointer-events="none"><line transform="translate(0,120)" x2="0" y2="-120" stroke="black" stroke-width="1" opacity="1"/></g><g class="mark-text role-axis-title" pointer-events="none"><text text-anchor="middle" transform="translate(-15,60) rotate(-90) translate(0,-2)" font-family="Arial" font-size="11px" font-weight="normal" fill="#000" opacity="1">PCr:ATP ratio</text></g></g><path class="foreground" aria-hidden="true" d="" pointer-events="none" display="none"/></g></g><g class="mark-group role-scope layer_0_pathgroup" role="graphics-object" aria-roledescription="group mark container"><g transform="translate(0,0)"><path class="background" aria-hidden="true" d="M0,0h120v120h-120Z"/><g><g class="mark-line role-mark layer_0_marks" role="graphics-object" aria-roledescription="line mark container"><path aria-label="VO2_m: 0.230646523393; PCrATP: 2.32808029042; group: Young" role="graphics-symbol" aria-roledescription="line mark" d="M12.580719457788705,3.595985478967534L14.361836381499666,7.158384231896697L16.12931499299554,10.422174889310538L17.88665317806169,13.441036431820192L19.636716734869808,16.254688871230066L21.38148980181169,18.893716067007627L23.122280955139026,21.38196945211562L24.859940855602122,23.7383549696394L26.595015975396286,25.978143975095847L28.327853209545623,28.113903352051736L30.058658939068824,30.156168094703805L31.78754366039576,32.11390669433307L33.514546308706095,33.99487541910999L35.239650011786026,35.80587586337944L36.96279431926863,37.55294673878695L38.68387877884751,39.24152264751563L40.40276897177308,40.87654925965323L42.11929644418356,42.46258538337777L43.833256297087615,44.0038919114591L45.54440881256038,45.504496166886824L47.25247320367941,46.968265871201744L48.95712428448831,48.3989696658739L50.65798489243413,49.80034265883768L52.3546198701694,51.17615169730304L54.04652388550251,52.53026803777382L55.733109712803206,53.866756890452976L57.41369242064474,55.18997598292923L59.087470632666694,56.50470396225674L60.75349461223703,57.816323073979675L62.410651060221866,59.13102001311524L64.0575920008156,60.45614754986875L65.69270313523465,61.80066800604014L67.31401635193113,63.175868335673144L68.91911739851386,64.59649031213873L70.50497143344248,66.08262240591644L72.06773898192834,67.662975176283L73.60240708200676,69.38102681733206L75.10226128212301,71.30704766401055L76.5579710596833,73.56273181669513L77.955969907855,76.3713280053982L79.2756796992743,80.1450636559722L80.4837038303626,85.53625985824576L81.51905751646316,93.02164624488354L82.26797673319591,101.5341368056002L82.65888681716694,108.13281994687843L82.87543636156232,111.76086955186949L83.02918094655357,113.75755006825439L83.13616058236488,114.98100848594484L83.21395636762489,115.79127525765239L83.27354687922636,116.36118451958833L83.32107872790141,116.78138658229969L83.36017587395295,117.10292074084768L83.3931199507573,117.3563451576424L83.421414995331,117.56093662303303L83.44609552469474,117.72939900186437L83.46789881839346,117.87041887122302L83.48736537426866,117.99012486321597L83.50490193636574,118.09295834987438L83.52082031544286,118.18221344952006L83.5353669264445,118.26038295501735L83.54873211627634,118.32938745745443L83.5610773937074,118.39072925580773L83.5725298553889,118.44560063062656L83.58319621748038,118.49495934614485L83.59316535292122,118.53958354451046L83.60251226094236,118.58011185888245L83.61130053960014,118.61707328930665L83.61958667115641,118.6509096120333L83.627416285194,118.68199284003973L83.63482997551864,118.71063826734334L83.64186767141535,118.73711480693086L83.64855708188331,118.76165350007253L83.65492772040986,118.78445364869796L83.66100373657662,118.80568824176756L83.66680792991968,118.82550808343056L83.67236011105672,118.84404527388178L83.67767786361206,118.86141601169184L83.68277930056298,118.877722870662L83.68767314228285,118.89305690762639L83.69237834198645,118.90749892581094L83.69690494518818,118.92112116715506L83.7012639775312,118.93398827519799L83.70546552785493,118.94615829697838L83.70951847877018,118.95768350878248L83.71343163040254,118.96861109787383L83.71721255766471,118.97898378600655L83.72086844182573,118.98884033382838L83.72440607254066,118.99821599035529L83.7278314297088,119.00714288634177L83.73115038542295,119.01565036469783L83.73436787878062,119.02376528481284L83.73748929047879,119.03151226655145L83.74051894798836,119.03891393302371L83.74346151894888,119.04599109631286L83.746320383751,119.05276294953002L83.74909990821678,119.0592472021505L83.7518032758729,119.06546023728353L83.75443392473682,119.07141722433758L83.75699560640415,119.07713222666571L83.75948957538452,119.08261832285275" stroke="#009DA3" stroke-width="2"/></g></g><path class="foreground" aria-hidden="true" d="" display="none"/></g><g transform="translate(0,0)"><path class="background" aria-hidden="true" d="M0,0h120v120h-120Z"/><g><g class="mark-line role-mark layer_0_marks" role="graphics-object" aria-roledescription="line mark container"><path aria-label="VO2_m: 0.231778259001; PCrATP: 2.33392817985; group: Old" role="graphics-symbol" aria-roledescription="line mark" d="M12.642450490973394,3.3035910072547248L14.42994959755194,6.884077933243393L16.205528256067478,10.153592282504276L17.971682250914434,13.169686303813055L19.73099496775176,15.974261427319032L21.485395564876256,18.599363219075066L23.23621372268409,21.06978214829612L24.98434650109423,23.404998398612843L26.730399033025016,25.62060819456706L28.474783857166354,27.729331563904843L30.2177836105328,29.741721653042774L31.959591870163106,31.666675823132138L33.70033846065453,33.51179773932727L35.440111674033076,35.28365778240125L37.17896563443057,36.988001260199745L38.91692976560178,38.62989753831024L40.65401680193432,40.21385173589381L42.39022398492624,41.74390280051438L44.12553698116996,43.22369395766267L45.85993177441579,44.65653211653786L47.593376083907664,46.04543574315253L49.325829881777416,47.39317567287873L51.057246691273285,48.70230740264836L52.78757265669541,49.97520195277692L54.51674808250574,51.21406682173285L56.244706403280034,52.42096980499431L57.97137392946945,53.5978570484354L59.69667297950197,54.74656838098426L61.42050659969621,55.868853950618394L63.142786381606804,56.96638677165898L64.86339965846457,58.04077650505174L66.58224175449071,59.09358103867605L68.29917366609409,60.126318947300035L70.01405894315678,61.1404799428888L71.72674392593342,62.1375404177166L73.43705826862889,63.11897172793219L75.14481345891997,64.08625782911946L76.84980148137856,65.04090389110495L78.55178968937389,65.98446370125822L80.25051922649494,66.91854834309301L81.94570026204107,67.84485499545285L83.63700435390331,68.76519475288273L85.3240650917447,69.68151970669625L87.00646281528049,70.5959744771617L88.6837205131147,71.51094401421634L90.35529056213088,72.42912482084483L92.02054010265178,73.35362102378751L93.67873281828317,74.28806926193904L95.32900454864806,75.23681230891098L96.97033429126093,76.20515023857556L98.6014953247506,77.19970093192441L100.22100259330317,78.22893514261614L101.82702920481425,79.30398364652311L103.41728078595865,80.4399393229242L104.98881641981073,81.65789329944143L106.537764429577,82.98826510534107L108.05883243385962,84.47633171009203L109.54449958587892,86.1908575156737L110.98351977753396,88.23623781957156L112.3582084067401,90.76211513864003L113.63980400676887,93.94188324611802L114.78282382925383,97.84688400837844L115.72804373211719,102.18104780569665L116.43656506192819,106.2128816707469L116.93269681676655,109.34758061946556L117.27647628895105,111.56099870949444L117.51978849407325,113.09760995827547L117.69841261235409,114.18509132262997L117.83471607684821,114.9786669641256L117.94232527448159,115.57624693911424L118.02973175495259,116.03921746760673L118.10241690241509,116.40685369309435L118.16404780882647,116.70500766021614L118.21716061204168,116.95120403984697L118.26356182111844,117.15765788505104L118.3045720703666,117.33310243123047L118.34117779865592,117.48392595504865L118.37413364014625,117.61489749087026L118.40402410786257,117.72964319244234L118.43131306583517,117.83096525164167L118.45636805618346,117.92106155990794L118.47949014683748,118.0016784423863L118.50092506007628,118.0742203621611L118.52087655191565,118.1398290350706L118.5395151471813,118.1994417665633L118.55698491826405,118.25383499129859L118.57340760713947,118.30365724172668L118.5888903679615,118.3494541851347L118.60351794496245,118.39168855253124L118.61737418561158,118.43075463222L118.63052568518793,118.46699099676093L118.64303287363306,118.50068970720059L118.65494818782814,118.53210409880779L118.66631867923239,118.56145493826601L118.67718609881693,118.58893550237899L118.6875876728105,118.61471571801448L118.69755682636332,118.6389455759743L118.70712353480735,118.661757969751L118.71631500407722,118.68327105549139L118.72515572716449,118.70359024272689" stroke="#F98F00" stroke-width="2"/></g></g><path class="foreground" aria-hidden="true" d="" display="none"/></g></g><g class="mark-group role-legend" role="graphics-symbol" aria-roledescription="legend" aria-label="Symbol legend for stroke color with 2 values: Young, Old"><g transform="translate(69,5)"><path class="background" aria-hidden="true" d="M0,0h46v24h-46Z" pointer-events="none"/><g><g class="mark-group role-legend-entry"><g transform="translate(0,0)"><path class="background" aria-hidden="true" d="M0,0h0v0h0Z" pointer-events="none"/><g><g class="mark-group role-scope" role="graphics-object" aria-roledescription="group mark container"><g transform="translate(0,0)"><path class="background" aria-hidden="true" d="M0,0h46v11h-46Z" pointer-events="none" opacity="1"/><g><g class="mark-symbol role-legend-symbol" pointer-events="none"><path transform="translate(6,6)" d="M-5,0L5,0" stroke="#009DA3" stroke-width="1.5" opacity="1"/></g><g class="mark-text role-legend-label" pointer-events="none"><text text-anchor="start" transform="translate(16,9)" font-family="Arial" font-size="10px" fill="#000" opacity="1">Young</text></g></g><path class="foreground" aria-hidden="true" d="" pointer-events="none" display="none"/></g><g transform="translate(0,13)"><path class="background" aria-hidden="true" d="M0,0h46v11h-46Z" pointer-events="none" opacity="1"/><g><g class="mark-symbol role-legend-symbol" pointer-events="none"><path transform="translate(6,6)" d="M-5,0L5,0" stroke="#F98F00" stroke-width="1.5" opacity="1"/></g><g class="mark-text role-legend-label" pointer-events="none"><text text-anchor="start" transform="translate(16,9)" font-family="Arial" font-size="10px" fill="#000" opacity="1">Old</text></g></g><path class="foreground" aria-hidden="true" d="" pointer-events="none" display="none"/></g></g></g><path class="foreground" aria-hidden="true" d="" pointer-events="none" display="none"/></g></g></g><path class="foreground" aria-hidden="true" d="" pointer-events="none" display="none"/></g></g></g><path class="foreground" aria-hidden="true" d="" display="none"/></g></g></g></svg>
