<?xml version="1.0" encoding="utf-8"?>
<!DOCTYPE svg PUBLIC "-//W3C//DTD SVG 1.1//EN" "http://www.w3.org/Graphics/SVG/1.1/DTD/svg11.dtd">
<svg xmlns="http://www.w3.org/2000/svg" xmlns:xlink="http://www.w3.org/1999/xlink" version="1.1" class="marks" width="156" height="160" viewBox="0 0 156 160"><rect width="156" height="160" fill="white"/><g fill="none" stroke-miterlimit="10" transform="translate(31,5)"><g class="mark-group role-frame root" role="graphics-object" aria-roledescription="group mark container"><g transform="translate(0,0)"><path class="background" aria-hidden="true" d="M0.5,0.5h120v120h-120Z"/><g><g class="mark-group role-axis" role="graphics-symbol" aria-roledescription="axis" aria-label="X-axis titled 'VO2 (mmol/L mito/s)' for a linear scale with values from 0.0 to 1.6"><g transform="translate(0.5,120.5)"><path class="background" aria-hidden="true" d="M0,0h0v0h0Z" pointer-events="none"/><g><g class="mark-rule role-axis-tick" pointer-events="none"><line transform="translate(0,0)" x2="0" y2="3" stroke="black" stroke-width="1" opacity="1"/><line transform="translate(38,0)" x2="0" y2="3" stroke="black" stroke-width="1" opacity="1"/><line transform="translate(75,0)" x2="0" y2="3" stroke="black" stroke-width="1" opacity="1"/><line transform="translate(113,0)" x2="0" y2="3" stroke="black" stroke-width="1" opacity="1"/></g><g class="mark-text role-axis-label" pointer-events="none"><text text-anchor="start" transform="translate(0,13)" font-family="Arial" font-size="10px" fill="#000" opacity="1">0.0</text><text text-anchor="middle" transform="translate(37.5,13)" font-family="Arial" font-size="10px" fill="#000" opacity="1">0.5</text><text text-anchor="middle" transform="translate(75,13)" font-family="Arial" font-size="10px" fill="#000" opacity="1">1.0</text><text text-anchor="middle" transform="translate(112.5,13)" font-family="Arial" font-size="10px" fill="#000" opacity="1">1.5</text></g><g class="mark-rule role-axis-domain" pointer-events="none"><line transform="translate(0,0)" x2="120" y2="0" stroke="black" stroke-width="1" opacity="1"/></g><g class="mark-text role-axis-title" pointer-events="none"><text text-anchor="middle" transform="translate(60,28)" font-family="Arial" font-size="11px" font-weight="normal" fill="#000" opacity="1">VO2 (mmol/L mito/s)</text></g></g><path class="foreground" aria-hidden="true" d="" pointer-events="none" display="none"/></g></g><g class="mark-group role-axis" role="graphics-symbol" aria-roledescription="axis" aria-label="Y-axis titled 'PCr:ATP ratio' for a linear scale with values from 0.0 to 2.4"><g transform="translate(0.5,0.5)"><path class="background" aria-hidden="true" d="M0,0h0v0h0Z" pointer-events="none"/><g><g class="mark-rule role-axis-tick" pointer-events="none"><line transform="translate(0,120)" x2="-3" y2="0" stroke="black" stroke-width="1" opacity="1"/><line transform="translate(0,70)" x2="-3" y2="0" stroke="black" stroke-width="1" opacity="1"/><line transform="translate(0,20)" x2="-3" y2="0" stroke="black" stroke-width="1" opacity="1"/></g><g class="mark-text role-axis-label" pointer-events="none"><text text-anchor="end" transform="translate(-5,123)" font-family="Arial" font-size="10px" fill="#000" opacity="1">0</text><text text-anchor="end" transform="translate(-5,72.99999999999999)" font-family="Arial" font-size="10px" fill="#000" opacity="1">1</text><text text-anchor="end" transform="translate(-5,22.999999999999996)" font-family="Arial" font-size="10px" fill="#000" opacity="1">2</text></g><g class="mark-rule role-axis-domain" pointer-events="none"><line transform="translate(0,120)" x2="0" y2="-120" stroke="black" stroke-width="1" opacity="1"/></g><g class="mark-text role-axis-title" pointer-events="none"><text text-anchor="middle" transform="translate(-15,60) rotate(-90) translate(0,-2)" font-family="Arial" font-size="11px" font-weight="normal" fill="#000" opacity="1">PCr:ATP ratio</text></g></g><path class="foreground" aria-hidden="true" d="" pointer-events="none" display="none"/></g></g><g class="mark-group role-scope layer_0_pathgroup" role="graphics-object" aria-roledescription="group mark container"><g transform="translate(0,0)"><path class="background" aria-hidden="true" d="M0,0h120v120h-120Z"/><g><g class="mark-line role-mark layer_0_marks" role="graphics-object" aria-roledescription="line mark container"><path aria-label="VO2_m: 0.22243002117; PCrATP: 2.31054796966; group: Young" role="graphics-symbol" aria-roledescription="line mark" d="M16.682251587772157,4.472601517105885L19.172564057939567,8.519066260635192L21.61507987456618,12.208288993515L24.025921033108524,15.596057121978708L26.415725145130537,18.73689287360172L28.790568896687457,21.67432537703523L31.153827848723452,24.441858465734573L33.50733748453526,27.0656200135273L35.852005395637214,29.566575189956737L38.18814950067678,31.96207658786646L40.515674802538385,34.266963392950785L42.83416660054665,36.49434294769995L45.14294389555636,38.656186260565924L47.44106004837214,40.763813368542976L49.727314043634394,42.82833471258502L52.00020392470273,44.861075836652084L54.25788757315812,46.87410728573093L56.49810232001956,48.88084280641234L58.71807996966299,50.8969579647152L60.91437360692027,52.94172518774917L63.08265328368891,55.04026164790771L65.217397123692,57.227407091354735L67.3113695131395,59.55527203575566L69.35488706896962,62.10829824767104L71.33461355486727,65.03586903459376L73.23181273157914,68.62376135053404L75.02001668882322,73.4335901230123L76.66090347373746,80.42310460358306L78.08464716815509,90.3782051800055L79.10816392058153,101.81424256102008L79.51009675240509,109.98799374883092L79.68997368155274,113.5514350768426L79.84304979824402,115.23811973960132L79.94995268862306,116.20614662546319L80.02717638806594,116.824187297064L80.08617032896348,117.24914295007586L80.13318747657807,117.55776881076915L80.17186591024017,117.79140136214001L80.20446041763836,117.97406255639116L80.2324526097453,118.12058817667108L80.25686100620084,118.24060485117431L80.27840852751106,118.34061859586753L80.29762643495562,118.42517798676568L80.31491589718681,118.4975556488679L80.33058598635283,118.56016471927606L80.34487855659611,118.6148227481471L80.3579879950406,118.6629241661237L80.37006882446514,118.70555646546067L80.38125034810835,118.74357990062641L80.39164295956874,118.77768376990262L80.40133246866777,118.80842702724505L80.410395559218,118.83626740543794L80.41889658204813,118.86158341024388L80.42689111856967,118.88469069958408L80.43442699658492,118.90585459865689L80.44154631058865,118.92529972391111L80.4482857325834,118.94321750065534L80.45467794593006,118.95977205964701L80.46074889623311,118.97510497353426L80.4665270169183,118.98933889105666L80.4720337071333,119.00258070838592L80.4772887315684,119.014923961562L80.48231077344973,119.02645084459394L80.48711581390168,119.03723389489558L80.49172036419134,119.04733733963167L80.49613198495115,119.05681833974491L80.50037094922949,119.06572774716443L80.50444318364316,119.074111174611L80.50836080117415,119.08200949162108L80.5121317232133,119.08945950324014L80.51576649460948,119.0964943921804L80.51927044775968,119.10314421060858L80.5226541866702,119.10943616827859L80.52592117018015,119.11539503923336L80.52907903185053,119.12104336092509L80.53213263620984,119.12640172060574L80.53508957327429,119.13148892992868L80.53795256192271,119.13632225278172L80.54072714158461,119.14091752320758L80.54341757034457,119.14528930833954L80.54602706018606,119.14945103185646L80.54856052415035,119.15341507172907L80.55102071904656,119.1571928762644L80.55341179047457,119.16079503479158L80.5557360330491,119.1642313698275L80.55799713802992,119.1675109919206L80.56019625600604,119.17064237835791L80.56233763815146,119.17363340551529L80.56442303305566,119.17649142160442L80.56645496725052,119.1792232784608L80.56843543284585,119.1818353770078L80.57036634453159,119.18433370214117L80.57225580379708,119.18672383574201L80.57408801135233,119.18901108341547L80.57588202919737,119.19120031256516L80.57763385756807,119.19329616410519L80.57934505584079,119.19530298202636L80.58101708345534,119.19722485265493L80.58265134177239,119.19906562314878L80.58424901265124,119.20082891908177" stroke="#009DA3" stroke-width="2"/></g></g><path class="foreground" aria-hidden="true" d="" display="none"/></g><g transform="translate(0,0)"><path class="background" aria-hidden="true" d="M0,0h120v120h-120Z"/><g><g class="mark-line role-mark layer_0_marks" role="graphics-object" aria-roledescription="line mark container"><path aria-label="VO2_m: 0.223728161585; PCrATP: 2.31577696776; group: Old" role="graphics-symbol" aria-roledescription="line mark" d="M16.779612118894647,4.211151612194541L19.28262902823269,8.269572346913572L21.741527230550666,11.950966714091633L24.17147651317058,15.315265816984676L26.583058848796817,18.420160870399037L28.982471178939633,21.31083084988024L31.37330894498318,24.021309988102292L33.757705166080434,26.57753697895018L36.136953866115284,28.999757012034696L38.5118450700907,31.304175061937084L40.88285173887477,33.504068811861465L43.25023962682759,35.610541558670825L45.61413043377346,37.633055443428226L47.97454265261085,39.57980347892315L50.33141573993421,41.45799086390223L52.6846244122491,43.27404163389535L55.03398857239906,45.033763269627784L57.37927800426066,46.74247405058157L59.72021475804795,48.40510944862458L62.0564688937049,50.0263217423161L64.38766116596948,51.610543775149424L66.71335644762736,53.16208183535532L69.03305510716064,54.68518079647382L71.34618476006541,56.18410706192488L73.65209112396776,57.66323365541689L75.95002036389063,59.12713444849315L78.23910100068706,60.58071535171316L80.51831740770533,62.02937921991645L82.78647895751445,63.47922546000212L85.04218019247395,64.93735656591416L87.2837402896221,66.41230926495467L89.5091249747773,67.91470297312348L91.71584331438886,69.45824107060285L93.90078400224391,71.06133565538347L96.06002370853501,72.74977736851936L98.18840999329679,74.56142544330322L100.27907726891462,76.55439251260538L102.3224492475711,78.82167980025882L104.30453847934702,81.515847203131L106.20353078785429,84.88194024241379L107.98283658163089,89.2582935298127L109.57766873773409,94.88249078965629L110.88108604418406,101.29124539116115L111.79416189083706,106.96644649749621L112.37176039783574,110.78691584439461L112.74494945532585,113.09820489576593L112.99615478956156,114.53412476049327L113.1747267463108,115.47766058463748L113.30846222440465,116.13278899073482L113.41292891906465,116.60952029174841L113.4972830653671,116.96997502882454L113.567209672459,117.25111318693203L113.62641105706312,117.47602436438551L113.67739940594078,117.65976545260526L113.72193882534744,117.81252598758867L113.761309857346,117.94142482834162L113.79645909085872,118.05157506651985L113.82810979876749,118.14673747554215L113.85681933817189,118.22973701883288L113.88302920545365,118.30273478177133L113.90709046758488,118.36741128768644L113.92928887754069,118.42509225152612L113.94985963318328,118.47683717567809L113.96899643909876,118.52350272511657L113.98686189515794,118.56578888893118L114.00359437883182,118.60427308201506L114.01931055077675,118.63943583585915L114.03411131896213,118.67168020202094L114.04808346590225,118.70134675435769L114.06130252947864,118.7287252081762L114.07383474733571,118.75406355246645L114.08573998882612,118.77757526302614L114.09706405367058,118.79944523959097L114.10785733368778,118.81983415757327L114.1181604559215,118.83888251873942L114.12800781539877,118.85671368038882L114.13743274263527,118.87343633006351L114.1464656620498,118.88914662835641L114.15513058167252,118.90393000777361L114.16345142076014,118.91786255994126L114.17145275591014,118.93101227046279L114.17915318199006,118.94344014053036L114.18656879848247,118.95520102879337L114.19372370153162,118.96634430640768L114.20062520088891,118.9769147516348L114.20729040350078,118.98695284213895L114.21373184257641,118.99649537803232L114.21996186514487,119.00557585583934L114.22599226702074,119.01422483398308L114.23183211114991,119.02247026483123L114.23749160593128,119.03033773889022L114.24297962276896,119.03785074644335L114.24830445790997,119.04503088369152L114.25347393745326,119.05189803931556L114.25849505517412,119.0584705623075L114.26337484855864,119.06476540333873L114.26811956988459,119.07079824798454L114.27273532891743,119.07658363351882L114.2772273669849,119.08213505188054L114.28160144787002,119.08746503638031" stroke="#F98F00" stroke-width="2"/></g></g><path class="foreground" aria-hidden="true" d="" display="none"/></g></g><g class="mark-group role-legend" role="graphics-symbol" aria-roledescription="legend" aria-label="Symbol legend for stroke color with 2 values: Young, Old"><g transform="translate(69,5)"><path class="background" aria-hidden="true" d="M0,0h46v24h-46Z" pointer-events="none"/><g><g class="mark-group role-legend-entry"><g transform="translate(0,0)"><path class="background" aria-hidden="true" d="M0,0h0v0h0Z" pointer-events="none"/><g><g class="mark-group role-scope" role="graphics-object" aria-roledescription="group mark container"><g transform="translate(0,0)"><path class="background" aria-hidden="true" d="M0,0h46v11h-46Z" pointer-events="none" opacity="1"/><g><g class="mark-symbol role-legend-symbol" pointer-events="none"><path transform="translate(6,6)" d="M-5,0L5,0" stroke="#009DA3" stroke-width="1.5" opacity="1"/></g><g class="mark-text role-legend-label" pointer-events="none"><text text-anchor="start" transform="translate(16,9)" font-family="Arial" font-size="10px" fill="#000" opacity="1">Young</text></g></g><path class="foreground" aria-hidden="true" d="" pointer-events="none" display="none"/></g><g transform="translate(0,13)"><path class="background" aria-hidden="true" d="M0,0h46v11h-46Z" pointer-events="none" opacity="1"/><g><g class="mark-symbol role-legend-symbol" pointer-events="none"><path transform="translate(6,6)" d="M-5,0L5,0" stroke="#F98F00" stroke-width="1.5" opacity="1"/></g><g class="mark-text role-legend-label" pointer-events="none"><text text-anchor="start" transform="translate(16,9)" font-family="Arial" font-size="10px" fill="#000" opacity="1">Old</text></g></g><path class="foreground" aria-hidden="true" d="" pointer-events="none" display="none"/></g></g></g><path class="foreground" aria-hidden="true" d="" pointer-events="none" display="none"/></g></g></g><path class="foreground" aria-hidden="true" d="" pointer-events="none" display="none"/></g></g></g><path class="foreground" aria-hidden="true" d="" display="none"/></g></g></g></svg>
