<?xml version="1.0" encoding="utf-8"?>
<!DOCTYPE svg PUBLIC "-//W3C//DTD SVG 1.1//EN" "http://www.w3.org/Graphics/SVG/1.1/DTD/svg11.dtd">
<svg xmlns="http://www.w3.org/2000/svg" xmlns:xlink="http://www.w3.org/1999/xlink" version="1.1" class="marks" width="156" height="160" viewBox="0 0 156 160"><rect width="156" height="160" fill="white"/><g fill="none" stroke-miterlimit="10" transform="translate(31,5)"><g class="mark-group role-frame root" role="graphics-object" aria-roledescription="group mark container"><g transform="translate(0,0)"><path class="background" aria-hidden="true" d="M0.5,0.5h120v120h-120Z"/><g><g class="mark-group role-axis" role="graphics-symbol" aria-roledescription="axis" aria-label="X-axis titled 'VO2 (mmol/L mito/s)' for a linear scale with values from 0.0 to 1.6"><g transform="translate(0.5,120.5)"><path class="background" aria-hidden="true" d="M0,0h0v0h0Z" pointer-events="none"/><g><g class="mark-rule role-axis-tick" pointer-events="none"><line transform="translate(0,0)" x2="0" y2="3" stroke="black" stroke-width="1" opacity="1"/><line transform="translate(38,0)" x2="0" y2="3" stroke="black" stroke-width="1" opacity="1"/><line transform="translate(75,0)" x2="0" y2="3" stroke="black" stroke-width="1" opacity="1"/><line transform="translate(113,0)" x2="0" y2="3" stroke="black" stroke-width="1" opacity="1"/></g><g class="mark-text role-axis-label" pointer-events="none"><text text-anchor="start" transform="translate(0,13)" font-family="Arial" font-size="10px" fill="#000" opacity="1">0.0</text><text text-anchor="middle" transform="translate(37.5,13)" font-family="Arial" font-size="10px" fill="#000" opacity="1">0.5</text><text text-anchor="middle" transform="translate(75,13)" font-family="Arial" font-size="10px" fill="#000" opacity="1">1.0</text><text text-anchor="middle" transform="translate(112.5,13)" font-family="Arial" font-size="10px" fill="#000" opacity="1">1.5</text></g><g class="mark-rule role-axis-domain" pointer-events="none"><line transform="translate(0,0)" x2="120" y2="0" stroke="black" stroke-width="1" opacity="1"/></g><g class="mark-text role-axis-title" pointer-events="none"><text text-anchor="middle" transform="translate(60,28)" font-family="Arial" font-size="11px" font-weight="normal" fill="#000" opacity="1">VO2 (mmol/L mito/s)</text></g></g><path class="foreground" aria-hidden="true" d="" pointer-events="none" display="none"/></g></g><g class="mark-group role-axis" role="graphics-symbol" aria-roledescription="axis" aria-label="Y-axis titled 'PCr:ATP ratio' for a linear scale with values from 0.0 to 2.4"><g transform="translate(0.5,0.5)"><path class="background" aria-hidden="true" d="M0,0h0v0h0Z" pointer-events="none"/><g><g class="mark-rule role-axis-tick" pointer-events="none"><line transform="translate(0,120)" x2="-3" y2="0" stroke="black" stroke-width="1" opacity="1"/><line transform="translate(0,70)" x2="-3" y2="0" stroke="black" stroke-width="1" opacity="1"/><line transform="translate(0,20)" x2="-3" y2="0" stroke="black" stroke-width="1" opacity="1"/></g><g class="mark-text role-axis-label" pointer-events="none"><text text-anchor="end" transform="translate(-5,123)" font-family="Arial" font-size="10px" fill="#000" opacity="1">0</text><text text-anchor="end" transform="translate(-5,72.99999999999999)" font-family="Arial" font-size="10px" fill="#000" opacity="1">1</text><text text-anchor="end" transform="translate(-5,22.999999999999996)" font-family="Arial" font-size="10px" fill="#000" opacity="1">2</text></g><g class="mark-rule role-axis-domain" pointer-events="none"><line transform="translate(0,120)" x2="0" y2="-120" stroke="black" stroke-width="1" opacity="1"/></g><g class="mark-text role-axis-title" pointer-events="none"><text text-anchor="middle" transform="translate(-15,60) rotate(-90) translate(0,-2)" font-family="Arial" font-size="11px" font-weight="normal" fill="#000" opacity="1">PCr:ATP ratio</text></g></g><path class="foreground" aria-hidden="true" d="" pointer-events="none" display="none"/></g></g><g class="mark-group role-scope layer_0_pathgroup" role="graphics-object" aria-roledescription="group mark container"><g transform="translate(0,0)"><path class="background" aria-hidden="true" d="M0,0h120v120h-120Z"/><g><g class="mark-line role-mark layer_0_marks" role="graphics-object" aria-roledescription="line mark container"><path aria-label="VO2_m: 0.22243002117; PCrATP: 2.31054796966; group: Young" role="graphics-symbol" aria-roledescription="line mark" d="M16.682251587772157,4.472601517105885L19.172564057939567,8.519066260635192L21.61507987456618,12.208288993515L24.025921033108524,15.596057121978708L26.415725145130537,18.73689287360172L28.790568896687457,21.67432537703523L31.153827848723452,24.441858465734573L33.50733748453526,27.0656200135273L35.852005395637214,29.566575189956737L38.18814950067678,31.96207658786646L40.515674802538385,34.266963392950785L42.83416660054665,36.49434294769995L45.14294389555636,38.656186260565924L47.44106004837214,40.763813368542976L49.727314043634394,42.82833471258502L52.00020392470273,44.861075836652084L54.25788757315812,46.87410728573093L56.49810232001956,48.88084280641234L58.71807996966299,50.8969579647152L60.91437360692027,52.94172518774917L63.08265328368891,55.04026164790771L65.217397123692,57.227407091354735L67.3113695131395,59.55527203575566L69.35488706896962,62.10829824767104L71.33461355486727,65.03586903459376L73.23181273157914,68.62376135053404L75.02001668882322,73.4335901230123L76.66090347373746,80.42310460358306L78.08464716815509,90.3782051800055L79.10816392058153,101.81424256102008L79.51009675240509,109.98799374883092L79.68997368155274,113.5514350768426L79.84304979824402,115.23811973960132L79.94995268862306,116.20614662546319L80.02717638806594,116.824187297064L80.08617032896348,117.24914295007586L80.13318747657807,117.55776881076915L80.17186591024017,117.79140136214001L80.20446041763836,117.97406255639116L80.2324526097453,118.12058817667108L80.25686100620084,118.24060485117431L80.27840852751106,118.34061859586753L80.29762643495562,118.42517798676568L80.31491589718681,118.4975556488679L80.33058598635283,118.56016471927606L80.34487855659611,118.6148227481471L80.3579879950406,118.6629241661237L80.37006882446514,118.70555646546067L80.38125034810835,118.74357990062641L80.39164295956874,118.77768376990262L80.40133246866777,118.80842702724505L80.410395559218,118.83626740543794L80.41889658204813,118.86158341024388L80.42689111856967,118.88469069958408L80.43442699658492,118.90585459865689L80.44154631058865,118.92529972391111L80.4482857325834,118.94321750065534L80.45467794593006,118.95977205964701L80.46074889623311,118.97510497353426L80.4665270169183,118.98933889105666L80.4720337071333,119.00258070838592L80.4772887315684,119.014923961562L80.48231077344973,119.02645084459394L80.48711581390168,119.03723389489558L80.49172036419134,119.04733733963167L80.49613198495115,119.05681833974491L80.50037094922949,119.06572774716443L80.50444318364316,119.074111174611L80.50836080117415,119.08200949162108L80.5121317232133,119.08945950324014L80.51576649460948,119.0964943921804L80.51927044775968,119.10314421060858L80.5226541866702,119.10943616827859L80.52592117018015,119.11539503923336L80.52907903185053,119.12104336092509L80.53213263620984,119.12640172060574L80.53508957327429,119.13148892992868L80.53795256192271,119.13632225278172L80.54072714158461,119.14091752320758L80.54341757034457,119.14528930833954L80.54602706018606,119.14945103185646L80.54856052415035,119.15341507172907L80.55102071904656,119.1571928762644L80.55341179047457,119.16079503479158L80.5557360330491,119.1642313698275L80.55799713802992,119.1675109919206L80.56019625600604,119.17064237835791L80.56233763815146,119.17363340551529L80.56442303305566,119.17649142160442L80.56645496725052,119.1792232784608L80.56843543284585,119.1818353770078L80.57036634453159,119.18433370214117L80.57225580379708,119.18672383574201L80.57408801135233,119.18901108341547L80.57588202919737,119.19120031256516L80.57763385756807,119.19329616410519L80.57934505584079,119.19530298202636L80.58101708345534,119.19722485265493L80.58265134177239,119.19906562314878L80.58424901265124,119.20082891908177" stroke="#009DA3" stroke-width="2"/></g></g><path class="foreground" aria-hidden="true" d="" display="none"/></g><g transform="translate(0,0)"><path class="background" aria-hidden="true" d="M0,0h120v120h-120Z"/><g><g class="mark-line role-mark layer_0_marks" role="graphics-object" aria-roledescription="line mark container"><path aria-label="VO2_m: 0.223728159787; PCrATP: 2.31577696638; group: Old" role="graphics-symbol" aria-roledescription="line mark" d="M16.779611983998254,4.211151681154486L19.282630007414536,8.269571756841394L21.741527126736823,11.950966810748183L24.171476192498158,15.315266273449076L26.583058739531616,18.420161201226698L28.98247114991493,21.310830887241835L31.373308818164322,24.021310121534132L33.75770519479252,26.577536928911382L36.136953743228474,28.99975726134126L38.511845260440246,31.3041746611391L40.88285192637419,33.50406808584142L43.25023962399813,35.610541565252745L45.61413032810714,37.63305571923634L47.97454271530417,39.57980374560669L50.3314157206683,41.457990882329746L52.684624264823306,43.27404204925796L55.033988572579155,45.03376323534902L57.37927802838197,46.74247396759435L59.72021422726231,48.405111037101705L62.05646857638885,50.02632092115805L64.38766115627071,51.61054374293884L66.71335675835809,53.162080905438025L69.03305499560292,54.68518092727934L71.34618502510688,56.18410812104219L73.65209162871051,57.66323308179385L75.95002114838843,59.12713195274698L78.23910050458895,60.58071686156297L80.51831671336588,62.02937970871989L82.78647904494524,63.4792251789131L85.04218057214229,64.93735583854188L87.28374022150827,66.41230866348766L89.50912722893842,67.91469693834061L91.71584304637966,69.45824312812233L93.90078979458431,71.06132937217163L96.06002229424203,72.74977926667978L98.18841086671429,74.5614282522397L100.27906910178353,76.55439227910013L102.32245178790279,78.82167635158754L104.30453687454155,81.51585045787877L106.20352898192753,84.88194862480509L107.98283639020796,89.25829067982055L109.57767228678861,94.88249833942388L110.88108324618058,101.29124411765173L111.79415781415142,106.96646075793699L112.37174613665442,110.78691752960633L112.7449497790908,113.09820486888056L112.9961495758049,114.53412813804103L113.1747259340557,115.477660507655L113.30846284757827,116.13278879876862L113.41292830803833,116.60952044048832L113.49728295718053,116.96997504827294L113.56721023629474,117.25111310474446L113.62641151505571,117.47602431038067L113.67739937541408,117.65976545763617L113.72194024466756,117.81252586843725L113.7613098565023,117.94142482834565L113.79645945488684,118.05157504367389L113.82810994103215,118.14673746814138L113.85681971974617,118.22973699991492L113.88302897638451,118.30273479209512L113.90709058320655,118.36741128305479L113.92928921838296,118.42509224677441L113.94986000800398,118.47683716320701L113.96899630157264,118.52350272931862L113.98686201059371,118.56578888568548L114.00359348954692,118.60427310509941L114.01931049880137,118.63943583711128L114.03411142859379,118.67168020234277L114.04808330711663,118.70134675765453L114.0613016818511,118.72872522480077L114.0738344867173,118.75406355726929L114.08573813442537,118.77757529520343L114.09706403764746,118.79944523985404L114.10785783082592,118.81983414977557L114.1181593651922,118.83888253475266L114.12800779376606,118.85671368068591L114.1374326767379,118.87343633093971L114.14646344016019,118.88914665629282L114.15512904757642,118.90393002617662L114.16345116679832,118.91786256277997L114.17145281680365,118.93101226979711L114.17915397686873,118.94344013223703L114.18657176898479,118.95520099928805L114.19372367691885,118.96634430664363L114.20062527485452,118.97691475094022L114.20729083884717,118.98695283828947L114.21373200172518,118.99649537668009L114.21996219303746,119.00557585315298L114.22599217613866,119.01422483469915L114.23183208352634,119.0224702650371L114.23749160459617,119.03033773890269L114.24297978166923,119.03785074540387L114.24830445993412,119.04503088367645L114.25347100373908,119.05189805865298L114.258494552305,119.05847057407826L114.26337343507399,119.06476541152887L114.26811962762554,119.07079824772117L114.27273416883615,119.07658364015673L114.27722739099052,119.08213505160306L114.28160131174296,119.08746503665604" stroke="#F98F00" stroke-width="2"/></g></g><path class="foreground" aria-hidden="true" d="" display="none"/></g></g><g class="mark-group role-legend" role="graphics-symbol" aria-roledescription="legend" aria-label="Symbol legend for stroke color with 2 values: Young, Old"><g transform="translate(69,5)"><path class="background" aria-hidden="true" d="M0,0h46v24h-46Z" pointer-events="none"/><g><g class="mark-group role-legend-entry"><g transform="translate(0,0)"><path class="background" aria-hidden="true" d="M0,0h0v0h0Z" pointer-events="none"/><g><g class="mark-group role-scope" role="graphics-object" aria-roledescription="group mark container"><g transform="translate(0,0)"><path class="background" aria-hidden="true" d="M0,0h46v11h-46Z" pointer-events="none" opacity="1"/><g><g class="mark-symbol role-legend-symbol" pointer-events="none"><path transform="translate(6,6)" d="M-5,0L5,0" stroke="#009DA3" stroke-width="1.5" opacity="1"/></g><g class="mark-text role-legend-label" pointer-events="none"><text text-anchor="start" transform="translate(16,9)" font-family="Arial" font-size="10px" fill="#000" opacity="1">Young</text></g></g><path class="foreground" aria-hidden="true" d="" pointer-events="none" display="none"/></g><g transform="translate(0,13)"><path class="background" aria-hidden="true" d="M0,0h46v11h-46Z" pointer-events="none" opacity="1"/><g><g class="mark-symbol role-legend-symbol" pointer-events="none"><path transform="translate(6,6)" d="M-5,0L5,0" stroke="#F98F00" stroke-width="1.5" opacity="1"/></g><g class="mark-text role-legend-label" pointer-events="none"><text text-anchor="start" transform="translate(16,9)" font-family="Arial" font-size="10px" fill="#000" opacity="1">Old</text></g></g><path class="foreground" aria-hidden="true" d="" pointer-events="none" display="none"/></g></g></g><path class="foreground" aria-hidden="true" d="" pointer-events="none" display="none"/></g></g></g><path class="foreground" aria-hidden="true" d="" pointer-events="none" display="none"/></g></g></g><path class="foreground" aria-hidden="true" d="" display="none"/></g></g></g></svg>
