<?xml version="1.0" encoding="utf-8"?>
<!DOCTYPE svg PUBLIC "-//W3C//DTD SVG 1.1//EN" "http://www.w3.org/Graphics/SVG/1.1/DTD/svg11.dtd">
<svg xmlns="http://www.w3.org/2000/svg" xmlns:xlink="http://www.w3.org/1999/xlink" version="1.1" class="marks" width="158" height="160" viewBox="0 0 158 160"><rect width="158" height="160" fill="white"/><g fill="none" stroke-miterlimit="10" transform="translate(31,5)"><g class="mark-group role-frame root" role="graphics-object" aria-roledescription="group mark container"><g transform="translate(0,0)"><path class="background" aria-hidden="true" d="M0.5,0.5h120v120h-120Z"/><g><g class="mark-group role-axis" role="graphics-symbol" aria-roledescription="axis" aria-label="X-axis titled 'VO2 (mmol/L mito/s)' for a linear scale with values from 0.0 to 2.8"><g transform="translate(0.5,120.5)"><path class="background" aria-hidden="true" d="M0,0h0v0h0Z" pointer-events="none"/><g><g class="mark-rule role-axis-tick" pointer-events="none"><line transform="translate(0,0)" x2="0" y2="3" stroke="black" stroke-width="1" opacity="1"/><line transform="translate(43,0)" x2="0" y2="3" stroke="black" stroke-width="1" opacity="1"/><line transform="translate(86,0)" x2="0" y2="3" stroke="black" stroke-width="1" opacity="1"/></g><g class="mark-text role-axis-label" pointer-events="none"><text text-anchor="start" transform="translate(0,13)" font-family="Arial" font-size="10px" fill="#000" opacity="1">0</text><text text-anchor="middle" transform="translate(42.85714285714286,13)" font-family="Arial" font-size="10px" fill="#000" opacity="1">1</text><text text-anchor="middle" transform="translate(85.71428571428572,13)" font-family="Arial" font-size="10px" fill="#000" opacity="1">2</text></g><g class="mark-rule role-axis-domain" pointer-events="none"><line transform="translate(0,0)" x2="120" y2="0" stroke="black" stroke-width="1" opacity="1"/></g><g class="mark-text role-axis-title" pointer-events="none"><text text-anchor="middle" transform="translate(60,28)" font-family="Arial" font-size="11px" font-weight="normal" fill="#000" opacity="1">VO2 (mmol/L mito/s)</text></g></g><path class="foreground" aria-hidden="true" d="" pointer-events="none" display="none"/></g></g><g class="mark-group role-axis" role="graphics-symbol" aria-roledescription="axis" aria-label="Y-axis titled 'PCr:ATP ratio' for a linear scale with values from 0.0 to 2.4"><g transform="translate(0.5,0.5)"><path class="background" aria-hidden="true" d="M0,0h0v0h0Z" pointer-events="none"/><g><g class="mark-rule role-axis-tick" pointer-events="none"><line transform="translate(0,120)" x2="-3" y2="0" stroke="black" stroke-width="1" opacity="1"/><line transform="translate(0,70)" x2="-3" y2="0" stroke="black" stroke-width="1" opacity="1"/><line transform="translate(0,20)" x2="-3" y2="0" stroke="black" stroke-width="1" opacity="1"/></g><g class="mark-text role-axis-label" pointer-events="none"><text text-anchor="end" transform="translate(-5,123)" font-family="Arial" font-size="10px" fill="#000" opacity="1">0</text><text text-anchor="end" transform="translate(-5,72.99999999999999)" font-family="Arial" font-size="10px" fill="#000" opacity="1">1</text><text text-anchor="end" transform="translate(-5,22.999999999999996)" font-family="Arial" font-size="10px" fill="#000" opacity="1">2</text></g><g class="mark-rule role-axis-domain" pointer-events="none"><line transform="translate(0,120)" x2="0" y2="-120" stroke="black" stroke-width="1" opacity="1"/></g><g class="mark-text role-axis-title" pointer-events="none"><text text-anchor="middle" transform="translate(-15,60) rotate(-90) translate(0,-2)" font-family="Arial" font-size="11px" font-weight="normal" fill="#000" opacity="1">PCr:ATP ratio</text></g></g><path class="foreground" aria-hidden="true" d="" pointer-events="none" display="none"/></g></g><g class="mark-group role-scope layer_0_pathgroup" role="graphics-object" aria-roledescription="group mark container"><g transform="translate(0,0)"><path class="background" aria-hidden="true" d="M0,0h120v120h-120Z"/><g><g class="mark-line role-mark layer_0_marks" role="graphics-object" aria-roledescription="line mark container"><path aria-label="VO2_m: 0.233206887263; PCrATP: 2.31694170811; group: Young" role="graphics-symbol" aria-roledescription="line mark" d="M9.994580882699838,4.1529145946428025L11.395888031036415,8.1164995341301L12.78590911832256,11.667361220929129L14.168362324805365,14.908253835463325L15.545735394979621,17.9018278488616L16.91961316952895,20.690990726189312L18.290996664725867,23.306881865837397L19.660529256045837,25.773036076916327L21.028627636895756,28.107835641251317L22.395564413419965,30.326024583788143L23.761517714962174,32.439697070162545L25.12660227544195,34.45895897028136L26.49088846119258,36.392391163139536L27.85441549338565,38.24737801037346L29.21719956151848,40.03034928831835L30.579239493051105,41.74696218121162L31.94052093684029,43.402237150083224L33.301018261286835,45.00067167764542L34.66069605282336,46.546319787230445L36.01951151216218,48.04286343125861L37.37741338686096,49.49367171764944L38.73434381622222,50.90184114735936L40.0902366293894,52.27024345543245L41.44501857148718,53.601553178547185L42.79860827905569,54.8982787959525L44.15091591610786,56.162787870118606L45.50184149846631,57.39733442559126L46.85127528990515,58.60407417215149L48.199094907718404,59.78508967855645L49.54516583178468,60.942407643877175L50.88933757294509,62.07802028714855L52.231443392651485,63.19390002144536L53.57129637639556,64.29202775492448L54.908687499135944,65.37440954000387L56.243381863859284,66.44309992344238L57.575113621752735,67.50024098766151L58.90358321254139,68.54807784444807L60.228448751407825,69.58901380264895L61.54931941033089,70.62565226828399L62.865746003560695,71.66085956256276L64.17721114117319,72.69783636316849L65.48311037965165,73.74023726485228L66.78273784784368,74.79229356334659L68.0752577227957,75.85901284139308L69.35967566124006,76.94644854158898L70.6347924689414,78.06210147130311L71.89914321640003,79.215500055446L73.15091840741842,80.41913807565682L74.38782752696953,81.6899392851633L75.60691359621264,83.05172920386092L76.8042345017004,84.53941275645482L77.9743320707641,86.20622139741877L79.10927649312832,88.13577327921884L80.1968830188015,90.45933856061278L81.21735471536631,93.36576765951041L82.13769945773173,97.04211883565262L82.90776006512404,101.41129644741548L83.479765722065,105.78559318052842L83.86397684708143,109.2740328297627L84.12016617821136,111.68210689705761L84.2956900725382,113.30176410459492L84.42073221994454,114.41745034826423L84.51394976649459,115.2144242411421L84.58629272114135,115.80481663983527L84.64431886922108,116.25650793590957L84.6921216724634,116.61170496296494L84.73237153671597,116.89755927947074L84.76687601690249,117.13214215672429L84.79690002687603,117.32786433769778L84.8233550047871,117.49349203177167L84.84691487836929,117.63537346678498L84.86808846820027,117.75820850194738L84.88726757131597,117.8655452914848L84.90475979198163,117.96010937629326L84.92080895725486,118.04402723870328L84.93561232505868,118.11898102857002L84.94933064068985,118.18631820876836L84.96209666068059,118.24713036749696L84.9740210369184,118.30231091225511L84.98519678396596,118.35259790181327L84.99570288301511,118.39860626730886L85.00560680055493,118.4408523790571L85.01496676880504,118.47977295835574L85.0238330845775,118.51573984383901L85.03224788224738,118.54907163013391L85.04025398211681,118.58004257370594L85.04788037340236,118.60889054054053L85.05516039278758,118.63582229144495L85.0621192058749,118.66101878108758L85.06878119332907,118.68463886385591L85.07516407088615,118.7068227320729L85.0812928185917,118.72769422652895L85.08718132832345,118.74736360001292L85.09284580394615,118.76592902754372L85.09830056674834,118.78347830964805L85.10355852920533,118.80009020007702L85.10863136984851,118.81583554031963L85.11352998878597,118.83077822167104L85.11826353973471,118.84497603694362L85.12284383474255,118.8584813121076" stroke="#009DA3" stroke-width="2"/></g></g><path class="foreground" aria-hidden="true" d="" display="none"/></g><g transform="translate(0,0)"><path class="background" aria-hidden="true" d="M0,0h120v120h-120Z"/><g><g class="mark-line role-mark layer_0_marks" role="graphics-object" aria-roledescription="line mark container"><path aria-label="VO2_m: 0.233632276542; PCrATP: 2.32223427803; group: Old" role="graphics-symbol" aria-roledescription="line mark" d="M10.012811851787824,3.888286098590843L11.4203849000619,7.871698335155748L12.817069948495538,11.430989374315441L14.206067387517772,14.672053193715268L15.589842645340447,17.659813934357388L16.970035439107114,20.438810686493348L18.34771113639525,23.041270327227778L19.723564597652608,25.491438981367892L21.09805584164534,27.808158300766923L22.471494597125044,30.00646812415685L23.844092619957685,32.098646146666525L25.215995012830277,34.094904755682684L26.587303441037356,36.00387574173262L27.958086879149597,37.832951487063994L29.328392356844688,39.588537640627L30.698250932836824,41.27623799901896L32.06768118885445,42.90099974468607L33.43669328247934,44.467219785486755L34.80529035363854,45.978834403560136L36.17347033818676,47.43938704400772L37.54122663426299,48.85208431941476L38.90854983372147,50.21984249476605L40.27542727086749,51.54532474238428L41.64184439729061,52.83097129495407L43.00778453588603,54.079027668406574L44.373228864595504,55.29156864315959L45.73815721773813,56.47051381828268L47.10254784275028,57.61764682687519L48.46637757515679,58.73462854421415L49.82962140895721,59.82301172839121L51.19225336804302,60.8842482015065L52.55424564095001,61.919702635955815L53.915568759582094,62.93065907069661L55.27619170560031,63.91832895600744L56.63608182383172,64.88385771229434L57.995204254997944,65.82833251856005L59.35352230604654,66.75278617119642L60.710997126564585,67.65820321770303L62.0675873329275,68.54552505734789L63.423249142059376,69.41565330172128L64.77793515404774,70.26945829478166L66.13159632075646,71.10777291495383L67.48417883606129,71.931409138378L68.83562600486776,72.74115191014005L70.18587621243483,73.53776782333296L71.53486501173748,74.32200689989197L72.88252053710566,75.09460623565579L74.22876695744597,75.85629387181446L75.57352122437372,76.60779191916909L76.91669613784033,77.34982150225507L78.25819285968991,78.08310437109301L79.59790650123573,78.80837139469858L80.93572189378858,79.52636267287976L82.27151301679052,80.2378375768497L83.60514190606979,80.94357505904254L84.93645645249259,81.64438772513495L86.26528839491714,82.34112280925895L87.59145177515477,83.03467577304839L88.91473994582634,83.725998451348L90.2349209790889,84.41611891988059L91.55173609502111,85.10614559622996L92.86489482494704,85.79729705263658L94.17406639768511,86.49092426638545L95.47890292920668,87.18854359514572L96.77887929140388,87.891872548055L98.07359409259044,88.60287771750119L99.36243360413295,89.32386000217379L100.64471712027813,90.05752143147616L101.9196349284217,90.80710344094075L103.18621759592048,91.57653683957817L104.44328158799132,92.3706772738596L105.68936508147877,93.19560113058218L106.92263430211132,94.05903074970622L108.14070302755269,94.97090922778612L109.34047867419108,95.94415260801361L110.5177559186252,96.99553491052097L111.66673872437136,98.146506364372L112.77924241556117,99.42321170632702L113.84361053888837,100.8538453770204L114.84351376381,102.45958022168253L115.75759524070466,104.2348864708419L116.5621030950685,106.12080449206803L117.23855723904565,107.99674618522093L117.78302473020615,109.72194129631902L118.20827054112543,111.20170717806542L118.53667695082765,112.41343050447598L118.79149507813244,113.38396244115837L118.99204897180961,114.15782251332638L119.15279325210506,114.7784004131707L119.28406767045206,115.28138698427155L119.39319512298975,115.69418362193159L119.4853836547819,116.03728903921957L119.56438698910794,116.32594778230731L119.6329556201808,116.57154379375362L119.6931346553958,116.78265565356458L119.74647306521702,116.96581935053014L119.79416155599495,117.12607445966952L119.83712880508473,117.26735317610347L119.8761083755388,117.39275924265067L119.9116874298129,117.50476934909702" stroke="#F98F00" stroke-width="2"/></g></g><path class="foreground" aria-hidden="true" d="" display="none"/></g></g><g class="mark-group role-legend" role="graphics-symbol" aria-roledescription="legend" aria-label="Symbol legend for stroke color with 2 values: Young, Old"><g transform="translate(69,5)"><path class="background" aria-hidden="true" d="M0,0h46v24h-46Z" pointer-events="none"/><g><g class="mark-group role-legend-entry"><g transform="translate(0,0)"><path class="background" aria-hidden="true" d="M0,0h0v0h0Z" pointer-events="none"/><g><g class="mark-group role-scope" role="graphics-object" aria-roledescription="group mark container"><g transform="translate(0,0)"><path class="background" aria-hidden="true" d="M0,0h46v11h-46Z" pointer-events="none" opacity="1"/><g><g class="mark-symbol role-legend-symbol" pointer-events="none"><path transform="translate(6,6)" d="M-5,0L5,0" stroke="#009DA3" stroke-width="1.5" opacity="1"/></g><g class="mark-text role-legend-label" pointer-events="none"><text text-anchor="start" transform="translate(16,9)" font-family="Arial" font-size="10px" fill="#000" opacity="1">Young</text></g></g><path class="foreground" aria-hidden="true" d="" pointer-events="none" display="none"/></g><g transform="translate(0,13)"><path class="background" aria-hidden="true" d="M0,0h46v11h-46Z" pointer-events="none" opacity="1"/><g><g class="mark-symbol role-legend-symbol" pointer-events="none"><path transform="translate(6,6)" d="M-5,0L5,0" stroke="#F98F00" stroke-width="1.5" opacity="1"/></g><g class="mark-text role-legend-label" pointer-events="none"><text text-anchor="start" transform="translate(16,9)" font-family="Arial" font-size="10px" fill="#000" opacity="1">Old</text></g></g><path class="foreground" aria-hidden="true" d="" pointer-events="none" display="none"/></g></g></g><path class="foreground" aria-hidden="true" d="" pointer-events="none" display="none"/></g></g></g><path class="foreground" aria-hidden="true" d="" pointer-events="none" display="none"/></g></g></g><path class="foreground" aria-hidden="true" d="" display="none"/></g></g></g></svg>
