<?xml version="1.0" encoding="utf-8"?>
<!DOCTYPE svg PUBLIC "-//W3C//DTD SVG 1.1//EN" "http://www.w3.org/Graphics/SVG/1.1/DTD/svg11.dtd">
<svg xmlns="http://www.w3.org/2000/svg" xmlns:xlink="http://www.w3.org/1999/xlink" version="1.1" class="marks" width="157" height="160" viewBox="0 0 157 160"><rect width="157" height="160" fill="white"/><g fill="none" stroke-miterlimit="10" transform="translate(31,5)"><g class="mark-group role-frame root" role="graphics-object" aria-roledescription="group mark container"><g transform="translate(0,0)"><path class="background" aria-hidden="true" d="M0.5,0.5h120v120h-120Z"/><g><g class="mark-group role-axis" role="graphics-symbol" aria-roledescription="axis" aria-label="X-axis titled 'VO2 (mmol/L mito/s)' for a linear scale with values from 0.0 to 2.2"><g transform="translate(0.5,120.5)"><path class="background" aria-hidden="true" d="M0,0h0v0h0Z" pointer-events="none"/><g><g class="mark-rule role-axis-tick" pointer-events="none"><line transform="translate(0,0)" x2="0" y2="3" stroke="black" stroke-width="1" opacity="1"/><line transform="translate(55,0)" x2="0" y2="3" stroke="black" stroke-width="1" opacity="1"/><line transform="translate(109,0)" x2="0" y2="3" stroke="black" stroke-width="1" opacity="1"/></g><g class="mark-text role-axis-label" pointer-events="none"><text text-anchor="start" transform="translate(0,13)" font-family="Arial" font-size="10px" fill="#000" opacity="1">0</text><text text-anchor="middle" transform="translate(54.54545454545455,13)" font-family="Arial" font-size="10px" fill="#000" opacity="1">1</text><text text-anchor="middle" transform="translate(109.0909090909091,13)" font-family="Arial" font-size="10px" fill="#000" opacity="1">2</text></g><g class="mark-rule role-axis-domain" pointer-events="none"><line transform="translate(0,0)" x2="120" y2="0" stroke="black" stroke-width="1" opacity="1"/></g><g class="mark-text role-axis-title" pointer-events="none"><text text-anchor="middle" transform="translate(60,28)" font-family="Arial" font-size="11px" font-weight="normal" fill="#000" opacity="1">VO2 (mmol/L mito/s)</text></g></g><path class="foreground" aria-hidden="true" d="" pointer-events="none" display="none"/></g></g><g class="mark-group role-axis" role="graphics-symbol" aria-roledescription="axis" aria-label="Y-axis titled 'PCr:ATP ratio' for a linear scale with values from 0.0 to 2.4"><g transform="translate(0.5,0.5)"><path class="background" aria-hidden="true" d="M0,0h0v0h0Z" pointer-events="none"/><g><g class="mark-rule role-axis-tick" pointer-events="none"><line transform="translate(0,120)" x2="-3" y2="0" stroke="black" stroke-width="1" opacity="1"/><line transform="translate(0,70)" x2="-3" y2="0" stroke="black" stroke-width="1" opacity="1"/><line transform="translate(0,20)" x2="-3" y2="0" stroke="black" stroke-width="1" opacity="1"/></g><g class="mark-text role-axis-label" pointer-events="none"><text text-anchor="end" transform="translate(-5,123)" font-family="Arial" font-size="10px" fill="#000" opacity="1">0</text><text text-anchor="end" transform="translate(-5,72.99999999999999)" font-family="Arial" font-size="10px" fill="#000" opacity="1">1</text><text text-anchor="end" transform="translate(-5,22.999999999999996)" font-family="Arial" font-size="10px" fill="#000" opacity="1">2</text></g><g class="mark-rule role-axis-domain" pointer-events="none"><line transform="translate(0,120)" x2="0" y2="-120" stroke="black" stroke-width="1" opacity="1"/></g><g class="mark-text role-axis-title" pointer-events="none"><text text-anchor="middle" transform="translate(-15,60) rotate(-90) translate(0,-2)" font-family="Arial" font-size="11px" font-weight="normal" fill="#000" opacity="1">PCr:ATP ratio</text></g></g><path class="foreground" aria-hidden="true" d="" pointer-events="none" display="none"/></g></g><g class="mark-group role-scope layer_0_pathgroup" role="graphics-object" aria-roledescription="group mark container"><g transform="translate(0,0)"><path class="background" aria-hidden="true" d="M0,0h120v120h-120Z"/><g><g class="mark-line role-mark layer_0_marks" role="graphics-object" aria-roledescription="line mark container"><path aria-label="VO2_m: 0.231755187057; PCrATP: 2.29433822405; group: Young" role="graphics-symbol" aria-roledescription="line mark" d="M12.641192021281443,5.283088797550124L14.445513555648386,9.907173756100264L16.221808652877193,13.959316231845204L17.981917172492174,17.607563587954317L19.732050711750606,20.94734021977926L21.475596486487483,24.039980429143057L23.214486574111163,26.927908441012214L24.949862210871384,29.642102799474973L26.682410849331866,32.20616424463686L28.412547192992488,34.63869563797578L30.14050799627531,36.95477270413369L31.86641523784836,39.16689581850751L33.59030670548327,41.285641898002076L35.31216055346858,43.32010799930807L37.031904691871034,45.278246006408416L38.74942660083215,47.167104518393856L40.46457723879702,48.993012059408024L42.1771704603766,50.761731489580946L43.88698587064393,52.47857498671735L45.59376458743333,54.148506532701134L47.29720640499288,55.77622946531364L48.99696621664124,57.36626112200331L50.692643500972686,58.923023425701544L52.38378181910022,60.45088585774102L54.06985127761453,61.954271020869946L55.750240091287495,63.437722955882336L57.424234808270974,64.90600131097757L59.09100521806926,66.3642022880475L60.749577582054414,67.81787062690174L62.39879654955543,69.27321361510822L64.03728931956655,70.7373041383162L65.66340524013793,72.21842435920905L67.2751445585931,73.72651434552279L68.87005095448049,75.27389389471892L70.44506731642966,76.87636431613929L71.99631522447838,78.55508268577717L73.51875692060139,80.33996039348702L75.00558196955312,82.27600742010355L76.44721540856473,84.43591744887556L77.82947774038061,86.94488696588785L79.1300574954399,90.02438425198122L80.31160835864125,94.02745277112709L81.30823899124961,99.24425526571206L82.02141717240885,105.05842955312734L82.42914311095686,109.68726888070702L82.67232157645272,112.49802403532209L82.83331200689092,114.17875132669545L82.9430860047484,115.25151773807855L83.02231553250189,115.9796632601984L83.08258482302978,116.5003762459486L83.13034091739613,116.88887899852325L83.1694037942198,117.18879027102429L83.20215905463691,117.42678752668643L83.2301818766233,117.61996581211339L83.25454671109928,117.779730754218L83.27601561600792,117.91395756001897L83.29514485784705,118.02824669503121L83.31234974470324,118.12668376298379L83.32794921368365,118.21231578043174L83.34219040265117,118.28745984857423L83.35526981397749,118.35390817670591L83.36734519825838,118.41306820083138L83.37854515840992,118.4660601856657L83.3889758114075,118.51378668492774L83.39872547361973,118.55698283839938L83.40786848716056,118.59625336923912L83.41646792822267,118.63210021659074L83.42457760132946,118.664943445654L83.43224462600344,118.6951372324758L83.43950851715952,118.72298233477375L83.44640498037029,118.74873571505464L83.45296494581518,118.77261826372855L83.45921487304831,118.79482091596412L83.46518052179474,118.81550949001158L83.47088214750872,118.83482878530234L83.47633853807204,118.85290574039168L83.4815686243709,118.86985207745785L83.48658538888175,118.88576662266799L83.49140747647597,118.90073692841885L83.49604320926582,118.91484108440008L83.50050576462213,118.92814874131153L83.504805688539,118.9407223258022L83.50895206392133,118.95261794039737L83.51295563749996,118.96388609819851L83.51682206184833,118.97457249814512L83.52056057564252,118.98471847320788L83.52417746427052,118.99436157542986L83.52767923525576,119.00353596728505L83.53107176792663,119.01227280287239L83.53436049862523,119.02060055053377L83.53755090192278,119.02854527153463L83.54064742876649,119.03613087933365L83.54365444604228,119.04337934837156L83.54657711646735,119.05031089771904L83.54941696848084,119.05694420230635L83.5521798018223,119.06329647111258L83.55486850013015,119.06938364594411L83.55748609527517,119.0752204922606L83.56003582565029,119.08082070509398L83.56251999028434,119.08619701292498" stroke="#009DA3" stroke-width="2"/></g></g><path class="foreground" aria-hidden="true" d="" display="none"/></g><g transform="translate(0,0)"><path class="background" aria-hidden="true" d="M0,0h120v120h-120Z"/><g><g class="mark-line role-mark layer_0_marks" role="graphics-object" aria-roledescription="line mark container"><path aria-label="VO2_m: 0.232783017082; PCrATP: 2.29962837829; group: Old" role="graphics-symbol" aria-roledescription="line mark" d="M12.697255477210783,5.018581085639173L14.50670255819278,9.659536595708357L16.290500878307583,13.710109136896502L18.059061689595513,17.34570044345629L19.818246116273322,20.665440854670685L21.571350965020404,23.732678783796473L23.320298965179305,26.59093834206553L25.066258128107147,29.271786578743253L26.8099616641471,31.799111563944983L28.55188218874008,34.19160720704919L30.292327865780333,36.46430818020654L32.031501200453455,38.629573096890255L33.769533231868714,40.69775005734121L35.50650465938485,42.67763599550804L37.242463757235775,44.57680764941194L38.97742941121125,46.40186411848302L40.7114038481938,48.15860538973113L42.44437308796579,49.852176828801014L44.176311438905806,51.487174905599815L45.90718254689829,53.067735094590034L47.63694204649804,54.597600005582756L49.36553729083019,56.08017703908662L51.092908319506776,57.51858523484301L52.81898811246294,58.91569378884943L54.54370221096742,60.27415696996095L56.26697000589283,61.5964362308478L57.988701633354964,62.88483607922471L59.70880114245464,64.14151014912926L61.42716274210472,65.36849267620309L63.14367074762623,66.56771400125143L64.85820085700215,67.74100406219408L66.57061671287327,68.89011984665805L68.28076732306134,70.01675510828021L69.98849020546311,71.12254808567158L71.69360668056278,72.20909457787917L73.39591803704594,73.27797032849003L75.09520808044489,74.33072256097007L76.7912357564892,75.36890309230472L78.4837330020937,76.39407477412365L80.17240383337811,77.40781694357631L81.85691512599871,78.41175600135512L83.53689389955774,79.40757607502069L85.2119203479032,80.39703922728643L86.88151777607456,81.38202220150477L88.54514509262629,82.36453217340777L90.20217920995348,83.34677254641414L91.8519059437147,84.33116305637812L93.49349293369646,85.32043567853917L95.12596883650602,86.31770269785872L96.74818130625299,87.32660626834493L98.35875705074864,88.35147147348931L99.95603487706347,89.39755597534418L101.53797461737878,90.47142056787322L103.10203048102895,91.58146150628335L104.64495097562568,92.73874518111474L106.16247933750253,93.95826343463777L107.64885827200234,95.26087288066728L109.09601485307675,96.6760445126447L110.49215028257004,98.24513274748801L111.81941126663735,100.02243471238307L113.05042695068994,102.06429769977787L114.14565949975287,104.38381802240691L115.05958131845898,106.8626124818884L115.7656953163965,109.22357813580538L116.27974984425745,111.205345733728L116.64591086306451,112.73424420617714L116.90947334824936,113.87599250632728L117.10453569872527,114.72927064192027L117.25365541091972,115.37729972652922L117.3711778852151,115.87991113443098L117.46630824496545,116.27809507079273L117.54508981206872,116.59979268877879L117.61160500007894,116.86427890406996L117.66869144677617,117.08509649194883L117.7183744652026,117.27195415417073L117.76213369035786,117.43195165166449L117.8010741420841,117.57037897806042L117.83603707824383,117.69124654116061L117.86767408437349,117.79764325464666L117.89649750475516,117.89198290091397L117.9229163159188,117.97617661563925L117.9472606645459,118.05175581594958L117.9698001728526,118.11996110841791L117.99075840829374,118.18180753438264L118.01032045720952,118.23813331804402L118.0286427652813,118.28963640038437L118.04585763863996,118.33690247675885L118.06207811727162,118.38042654726321L118.07740169167192,118.42062972649993L118.09191215074833,118.45787249855051L118.10568360741406,118.4924651509474L118.11877749754223,118.52467632272347L118.13125295375673,118.55473950120388L118.143158708417,118.58285880696945L118.15453885734382,118.6092133411945L118.16543282512849,118.63396091740428L118.1758759314162,118.6572411245888L118.18589942315492,118.67917789086252L118.19553278683024,118.69988158064416L118.20480076654589,118.71945085366741" stroke="#F98F00" stroke-width="2"/></g></g><path class="foreground" aria-hidden="true" d="" display="none"/></g></g><g class="mark-group role-legend" role="graphics-symbol" aria-roledescription="legend" aria-label="Symbol legend for stroke color with 2 values: Young, Old"><g transform="translate(69,5)"><path class="background" aria-hidden="true" d="M0,0h46v24h-46Z" pointer-events="none"/><g><g class="mark-group role-legend-entry"><g transform="translate(0,0)"><path class="background" aria-hidden="true" d="M0,0h0v0h0Z" pointer-events="none"/><g><g class="mark-group role-scope" role="graphics-object" aria-roledescription="group mark container"><g transform="translate(0,0)"><path class="background" aria-hidden="true" d="M0,0h46v11h-46Z" pointer-events="none" opacity="1"/><g><g class="mark-symbol role-legend-symbol" pointer-events="none"><path transform="translate(6,6)" d="M-5,0L5,0" stroke="#009DA3" stroke-width="1.5" opacity="1"/></g><g class="mark-text role-legend-label" pointer-events="none"><text text-anchor="start" transform="translate(16,9)" font-family="Arial" font-size="10px" fill="#000" opacity="1">Young</text></g></g><path class="foreground" aria-hidden="true" d="" pointer-events="none" display="none"/></g><g transform="translate(0,13)"><path class="background" aria-hidden="true" d="M0,0h46v11h-46Z" pointer-events="none" opacity="1"/><g><g class="mark-symbol role-legend-symbol" pointer-events="none"><path transform="translate(6,6)" d="M-5,0L5,0" stroke="#F98F00" stroke-width="1.5" opacity="1"/></g><g class="mark-text role-legend-label" pointer-events="none"><text text-anchor="start" transform="translate(16,9)" font-family="Arial" font-size="10px" fill="#000" opacity="1">Old</text></g></g><path class="foreground" aria-hidden="true" d="" pointer-events="none" display="none"/></g></g></g><path class="foreground" aria-hidden="true" d="" pointer-events="none" display="none"/></g></g></g><path class="foreground" aria-hidden="true" d="" pointer-events="none" display="none"/></g></g></g><path class="foreground" aria-hidden="true" d="" display="none"/></g></g></g></svg>
