<?xml version="1.0" encoding="utf-8"?>
<!DOCTYPE svg PUBLIC "-//W3C//DTD SVG 1.1//EN" "http://www.w3.org/Graphics/SVG/1.1/DTD/svg11.dtd">
<svg xmlns="http://www.w3.org/2000/svg" xmlns:xlink="http://www.w3.org/1999/xlink" version="1.1" class="marks" width="157" height="160" viewBox="0 0 157 160"><rect width="157" height="160" fill="white"/><g fill="none" stroke-miterlimit="10" transform="translate(31,5)"><g class="mark-group role-frame root" role="graphics-object" aria-roledescription="group mark container"><g transform="translate(0,0)"><path class="background" aria-hidden="true" d="M0.5,0.5h120v120h-120Z"/><g><g class="mark-group role-axis" role="graphics-symbol" aria-roledescription="axis" aria-label="X-axis titled 'VO2 (mmol/L mito/s)' for a linear scale with values from 0.0 to 2.2"><g transform="translate(0.5,120.5)"><path class="background" aria-hidden="true" d="M0,0h0v0h0Z" pointer-events="none"/><g><g class="mark-rule role-axis-tick" pointer-events="none"><line transform="translate(0,0)" x2="0" y2="3" stroke="black" stroke-width="1" opacity="1"/><line transform="translate(55,0)" x2="0" y2="3" stroke="black" stroke-width="1" opacity="1"/><line transform="translate(109,0)" x2="0" y2="3" stroke="black" stroke-width="1" opacity="1"/></g><g class="mark-text role-axis-label" pointer-events="none"><text text-anchor="start" transform="translate(0,13)" font-family="Arial" font-size="10px" fill="#000" opacity="1">0</text><text text-anchor="middle" transform="translate(54.54545454545455,13)" font-family="Arial" font-size="10px" fill="#000" opacity="1">1</text><text text-anchor="middle" transform="translate(109.0909090909091,13)" font-family="Arial" font-size="10px" fill="#000" opacity="1">2</text></g><g class="mark-rule role-axis-domain" pointer-events="none"><line transform="translate(0,0)" x2="120" y2="0" stroke="black" stroke-width="1" opacity="1"/></g><g class="mark-text role-axis-title" pointer-events="none"><text text-anchor="middle" transform="translate(60,28)" font-family="Arial" font-size="11px" font-weight="normal" fill="#000" opacity="1">VO2 (mmol/L mito/s)</text></g></g><path class="foreground" aria-hidden="true" d="" pointer-events="none" display="none"/></g></g><g class="mark-group role-axis" role="graphics-symbol" aria-roledescription="axis" aria-label="Y-axis titled 'PCr:ATP ratio' for a linear scale with values from 0.0 to 2.4"><g transform="translate(0.5,0.5)"><path class="background" aria-hidden="true" d="M0,0h0v0h0Z" pointer-events="none"/><g><g class="mark-rule role-axis-tick" pointer-events="none"><line transform="translate(0,120)" x2="-3" y2="0" stroke="black" stroke-width="1" opacity="1"/><line transform="translate(0,70)" x2="-3" y2="0" stroke="black" stroke-width="1" opacity="1"/><line transform="translate(0,20)" x2="-3" y2="0" stroke="black" stroke-width="1" opacity="1"/></g><g class="mark-text role-axis-label" pointer-events="none"><text text-anchor="end" transform="translate(-5,123)" font-family="Arial" font-size="10px" fill="#000" opacity="1">0</text><text text-anchor="end" transform="translate(-5,72.99999999999999)" font-family="Arial" font-size="10px" fill="#000" opacity="1">1</text><text text-anchor="end" transform="translate(-5,22.999999999999996)" font-family="Arial" font-size="10px" fill="#000" opacity="1">2</text></g><g class="mark-rule role-axis-domain" pointer-events="none"><line transform="translate(0,120)" x2="0" y2="-120" stroke="black" stroke-width="1" opacity="1"/></g><g class="mark-text role-axis-title" pointer-events="none"><text text-anchor="middle" transform="translate(-15,60) rotate(-90) translate(0,-2)" font-family="Arial" font-size="11px" font-weight="normal" fill="#000" opacity="1">PCr:ATP ratio</text></g></g><path class="foreground" aria-hidden="true" d="" pointer-events="none" display="none"/></g></g><g class="mark-group role-scope layer_0_pathgroup" role="graphics-object" aria-roledescription="group mark container"><g transform="translate(0,0)"><path class="background" aria-hidden="true" d="M0,0h120v120h-120Z"/><g><g class="mark-line role-mark layer_0_marks" role="graphics-object" aria-roledescription="line mark container"><path aria-label="VO2_m: 0.230646523393; PCrATP: 2.32808029042; group: Young" role="graphics-symbol" aria-roledescription="line mark" d="M12.580719457788705,3.595985478967534L14.361836381499666,7.158384231896697L16.12931499299554,10.422174889310538L17.88665317806169,13.441036431820192L19.636716734869808,16.254688871230066L21.38148980181169,18.893716067007627L23.122280955139026,21.38196945211562L24.859940855602122,23.7383549696394L26.595015975396286,25.978143975095847L28.327853209545623,28.113903352051736L30.058658939068824,30.156168094703805L31.78754366039576,32.11390669433307L33.514546308706095,33.99487541910999L35.239650011786026,35.80587586337944L36.96279431926863,37.55294673878695L38.68387877884751,39.24152264751563L40.40276897177308,40.87654925965323L42.11929644418356,42.46258538337777L43.833256297087615,44.0038919114591L45.54440881256038,45.504496166886824L47.25247320367941,46.968265871201744L48.95712428448831,48.3989696658739L50.65798489243413,49.80034265883768L52.3546198701694,51.17615169730304L54.04652388550251,52.53026803777382L55.733109712803206,53.866756890452976L57.41369242064474,55.18997598292923L59.087470632666694,56.50470396225674L60.75349461223703,57.816323073979675L62.410651060221866,59.13102001311524L64.0575920008156,60.45614754986875L65.69270313523465,61.80066800604014L67.31401635193113,63.175868335673144L68.91911739851386,64.59649031213873L70.50497143344248,66.08262240591644L72.06773898192834,67.662975176283L73.60240708200676,69.38102681733206L75.10226128212301,71.30704766401055L76.5579710596833,73.56273181669513L77.955969907855,76.3713280053982L79.2756796992743,80.1450636559722L80.4837038303626,85.53625985824576L81.51905751646316,93.02164624488354L82.26797673319591,101.5341368056002L82.65888681716694,108.13281994687843L82.87543636156232,111.76086955186949L83.02918094655357,113.75755006825439L83.13616058236488,114.98100848594484L83.21395636762489,115.79127525765239L83.27354687922636,116.36118451958833L83.32107872790141,116.78138658229969L83.36017587395295,117.10292074084768L83.3931199507573,117.3563451576424L83.421414995331,117.56093662303303L83.44609552469474,117.72939900186437L83.46789881839346,117.87041887122302L83.48736537426866,117.99012486321597L83.50490193636574,118.09295834987438L83.52082031544286,118.18221344952006L83.5353669264445,118.26038295501735L83.54873211627634,118.32938745745443L83.5610773937074,118.39072925580773L83.5725298553889,118.44560063062656L83.58319621748038,118.49495934614485L83.59316535292122,118.53958354451046L83.60251226094236,118.58011185888245L83.61130053960014,118.61707328930665L83.61958667115641,118.6509096120333L83.627416285194,118.68199284003973L83.63482997551864,118.71063826734334L83.64186767141535,118.73711480693086L83.64855708188331,118.76165350007253L83.65492772040986,118.78445364869796L83.66100373657662,118.80568824176756L83.66680792991968,118.82550808343056L83.67236011105672,118.84404527388178L83.67767786361206,118.86141601169184L83.68277930056298,118.877722870662L83.68767314228285,118.89305690762639L83.69237834198645,118.90749892581094L83.69690494518818,118.92112116715506L83.7012639775312,118.93398827519799L83.70546552785493,118.94615829697838L83.70951847877018,118.95768350878248L83.71343163040254,118.96861109787383L83.71721255766471,118.97898378600655L83.72086844182573,118.98884033382838L83.72440607254066,118.99821599035529L83.7278314297088,119.00714288634177L83.73115038542295,119.01565036469783L83.73436787878062,119.02376528481284L83.73748929047879,119.03151226655145L83.74051894798836,119.03891393302371L83.74346151894888,119.04599109631286L83.746320383751,119.05276294953002L83.74909990821678,119.0592472021505L83.7518032758729,119.06546023728353L83.75443392473682,119.07141722433758L83.75699560640415,119.07713222666571L83.75948957538452,119.08261832285275" stroke="#009DA3" stroke-width="2"/></g></g><path class="foreground" aria-hidden="true" d="" display="none"/></g><g transform="translate(0,0)"><path class="background" aria-hidden="true" d="M0,0h120v120h-120Z"/><g><g class="mark-line role-mark layer_0_marks" role="graphics-object" aria-roledescription="line mark container"><path aria-label="VO2_m: 0.231778268794; PCrATP: 2.33392818675; group: Old" role="graphics-symbol" aria-roledescription="line mark" d="M12.642451025111251,3.3035906626508194L14.429949511080899,6.884077987793598L16.205528224650905,10.153592439947667L17.97168349680456,13.169685127912544L19.730995230296617,15.974261085496956L21.485395792996055,18.599362964198775L23.236214212611493,21.069781427018164L24.98434669069488,23.404998099556916L26.730399038441437,25.620608134396218L28.474783823603698,27.72933113247747L30.217783527779787,29.74172175671892L31.959591464533307,31.666676642693798L33.70033856163239,33.5117975252268L35.44011170480085,35.283657936864884L37.178965223769275,36.98800177041596L38.91692971202105,38.62989764801088L40.654016989494714,40.21385129485044L42.390224021134046,41.74390270566357L44.125536893648885,43.223694188500154L45.859931688539874,44.65653228138261L47.59337606656547,46.04543568647515L49.325830006733455,47.393175324903936L51.057246717266246,48.702307333664045L52.78757265677011,49.975201952764984L54.51674812564178,51.21406677986451L56.24470625987997,52.42096983136128L57.97137404519081,53.59785660636943L59.696670199789644,54.746568286010096L61.420506625557806,55.868853857887586L63.14278645975701,56.9663866542214L64.86340361631711,58.04077625909243L66.58224185961464,59.09358079561399L68.29917365352664,60.12631874774376L70.01405895161736,61.14048091329919L71.72674398045864,62.13754065580504L73.43705816959123,63.11897172611809L75.14481356639462,64.08625699786599L76.84980088937905,65.04090421852385L78.55179025014925,65.98446325333916L80.25051950182646,66.91854736733377L81.94569988660234,67.84485461822729L83.63700415038905,68.76519538390268L85.3240648545738,69.68152019581584L87.00646279447083,70.59597453974303L88.6837213597323,71.51094320105021L90.35529158630968,72.42912318853126L92.02054001598916,73.35362113970714L93.6787325389676,74.28806950303306L95.32900567924735,75.23681066224783L96.97033426822114,76.20514997272137L98.60149461701043,77.19970140579531L100.22100322467647,78.22893271224883L101.82702714314503,79.30398285977168L103.41728027318993,80.43994198559135L104.98881708673889,81.65789142848001L106.53776395101896,82.98826475557458L108.05883310556911,84.47632914046555L109.5444999360615,86.19085718996607L110.9835311062021,88.23623245800738L112.35821068524298,90.76210624954432L113.63980945664184,93.94188330109043L114.7828227340303,97.84688802922315L115.7280438872162,102.18104544533111L116.43656099265147,106.21287779121747L116.9327008581638,109.34757124378105L117.27647594914347,111.56099892155285L117.51978787572443,113.09761056313296L117.69841284207246,114.18509116523335L117.83471625117932,114.97866687475523L117.94232520134531,115.57624696764967L118.02973183940009,116.03921744112685L118.10241601700642,116.40685391259362L118.1640480273064,116.70500761674647L118.21716076194592,116.95120401900348L118.2635618139786,117.15765788598117L118.3045716888127,117.33310247982965L118.34117765190334,117.48392597120588L118.37413367271519,117.61489748770393L118.40402463126857,117.72964315027656L118.43131263919928,117.83096528463051L118.45636802763207,117.92106156199407L118.4794900897205,118.00167844612737L118.5009259316576,118.07422030691367L118.5208765606487,118.13982903449899L118.53951521692264,118.1994417632389L118.55698477708363,118.25383499749441L118.57340759580661,118.30365724185853L118.58888814300136,118.34945427079514L118.60351794309639,118.39168855259214L118.61737423170396,118.43075463065784L118.63052586285664,118.4669909911371L118.64303298127541,118.50068970395708L118.654948145229,118.5321040999937L118.66631868917341,118.56145493800425L118.67718609974153,118.58893550235618L118.68758768251513,118.61471571778242L118.69755682776817,118.6389455759267L118.7071235454197,118.66175796954951L118.7163149799265,118.68327105598436L118.7251557851368,118.70359024159656" stroke="#F98F00" stroke-width="2"/></g></g><path class="foreground" aria-hidden="true" d="" display="none"/></g></g><g class="mark-group role-legend" role="graphics-symbol" aria-roledescription="legend" aria-label="Symbol legend for stroke color with 2 values: Young, Old"><g transform="translate(69,5)"><path class="background" aria-hidden="true" d="M0,0h46v24h-46Z" pointer-events="none"/><g><g class="mark-group role-legend-entry"><g transform="translate(0,0)"><path class="background" aria-hidden="true" d="M0,0h0v0h0Z" pointer-events="none"/><g><g class="mark-group role-scope" role="graphics-object" aria-roledescription="group mark container"><g transform="translate(0,0)"><path class="background" aria-hidden="true" d="M0,0h46v11h-46Z" pointer-events="none" opacity="1"/><g><g class="mark-symbol role-legend-symbol" pointer-events="none"><path transform="translate(6,6)" d="M-5,0L5,0" stroke="#009DA3" stroke-width="1.5" opacity="1"/></g><g class="mark-text role-legend-label" pointer-events="none"><text text-anchor="start" transform="translate(16,9)" font-family="Arial" font-size="10px" fill="#000" opacity="1">Young</text></g></g><path class="foreground" aria-hidden="true" d="" pointer-events="none" display="none"/></g><g transform="translate(0,13)"><path class="background" aria-hidden="true" d="M0,0h46v11h-46Z" pointer-events="none" opacity="1"/><g><g class="mark-symbol role-legend-symbol" pointer-events="none"><path transform="translate(6,6)" d="M-5,0L5,0" stroke="#F98F00" stroke-width="1.5" opacity="1"/></g><g class="mark-text role-legend-label" pointer-events="none"><text text-anchor="start" transform="translate(16,9)" font-family="Arial" font-size="10px" fill="#000" opacity="1">Old</text></g></g><path class="foreground" aria-hidden="true" d="" pointer-events="none" display="none"/></g></g></g><path class="foreground" aria-hidden="true" d="" pointer-events="none" display="none"/></g></g></g><path class="foreground" aria-hidden="true" d="" pointer-events="none" display="none"/></g></g></g><path class="foreground" aria-hidden="true" d="" display="none"/></g></g></g></svg>
