<?xml version="1.0" encoding="utf-8"?>
<!DOCTYPE svg PUBLIC "-//W3C//DTD SVG 1.1//EN" "http://www.w3.org/Graphics/SVG/1.1/DTD/svg11.dtd">
<svg xmlns="http://www.w3.org/2000/svg" xmlns:xlink="http://www.w3.org/1999/xlink" version="1.1" class="marks" width="156" height="160" viewBox="0 0 156 160"><rect width="156" height="160" fill="white"/><g fill="none" stroke-miterlimit="10" transform="translate(31,5)"><g class="mark-group role-frame root" role="graphics-object" aria-roledescription="group mark container"><g transform="translate(0,0)"><path class="background" aria-hidden="true" d="M0.5,0.5h120v120h-120Z"/><g><g class="mark-group role-axis" role="graphics-symbol" aria-roledescription="axis" aria-label="X-axis titled 'VO2 (mmol/L mito/s)' for a linear scale with values from 0.0 to 1.6"><g transform="translate(0.5,120.5)"><path class="background" aria-hidden="true" d="M0,0h0v0h0Z" pointer-events="none"/><g><g class="mark-rule role-axis-tick" pointer-events="none"><line transform="translate(0,0)" x2="0" y2="3" stroke="black" stroke-width="1" opacity="1"/><line transform="translate(38,0)" x2="0" y2="3" stroke="black" stroke-width="1" opacity="1"/><line transform="translate(75,0)" x2="0" y2="3" stroke="black" stroke-width="1" opacity="1"/><line transform="translate(113,0)" x2="0" y2="3" stroke="black" stroke-width="1" opacity="1"/></g><g class="mark-text role-axis-label" pointer-events="none"><text text-anchor="start" transform="translate(0,13)" font-family="Arial" font-size="10px" fill="#000" opacity="1">0.0</text><text text-anchor="middle" transform="translate(37.5,13)" font-family="Arial" font-size="10px" fill="#000" opacity="1">0.5</text><text text-anchor="middle" transform="translate(75,13)" font-family="Arial" font-size="10px" fill="#000" opacity="1">1.0</text><text text-anchor="middle" transform="translate(112.5,13)" font-family="Arial" font-size="10px" fill="#000" opacity="1">1.5</text></g><g class="mark-rule role-axis-domain" pointer-events="none"><line transform="translate(0,0)" x2="120" y2="0" stroke="black" stroke-width="1" opacity="1"/></g><g class="mark-text role-axis-title" pointer-events="none"><text text-anchor="middle" transform="translate(60,28)" font-family="Arial" font-size="11px" font-weight="normal" fill="#000" opacity="1">VO2 (mmol/L mito/s)</text></g></g><path class="foreground" aria-hidden="true" d="" pointer-events="none" display="none"/></g></g><g class="mark-group role-axis" role="graphics-symbol" aria-roledescription="axis" aria-label="Y-axis titled 'PCr:ATP ratio' for a linear scale with values from 0.0 to 2.4"><g transform="translate(0.5,0.5)"><path class="background" aria-hidden="true" d="M0,0h0v0h0Z" pointer-events="none"/><g><g class="mark-rule role-axis-tick" pointer-events="none"><line transform="translate(0,120)" x2="-3" y2="0" stroke="black" stroke-width="1" opacity="1"/><line transform="translate(0,70)" x2="-3" y2="0" stroke="black" stroke-width="1" opacity="1"/><line transform="translate(0,20)" x2="-3" y2="0" stroke="black" stroke-width="1" opacity="1"/></g><g class="mark-text role-axis-label" pointer-events="none"><text text-anchor="end" transform="translate(-5,123)" font-family="Arial" font-size="10px" fill="#000" opacity="1">0</text><text text-anchor="end" transform="translate(-5,72.99999999999999)" font-family="Arial" font-size="10px" fill="#000" opacity="1">1</text><text text-anchor="end" transform="translate(-5,22.999999999999996)" font-family="Arial" font-size="10px" fill="#000" opacity="1">2</text></g><g class="mark-rule role-axis-domain" pointer-events="none"><line transform="translate(0,120)" x2="0" y2="-120" stroke="black" stroke-width="1" opacity="1"/></g><g class="mark-text role-axis-title" pointer-events="none"><text text-anchor="middle" transform="translate(-15,60) rotate(-90) translate(0,-2)" font-family="Arial" font-size="11px" font-weight="normal" fill="#000" opacity="1">PCr:ATP ratio</text></g></g><path class="foreground" aria-hidden="true" d="" pointer-events="none" display="none"/></g></g><g class="mark-group role-scope layer_0_pathgroup" role="graphics-object" aria-roledescription="group mark container"><g transform="translate(0,0)"><path class="background" aria-hidden="true" d="M0,0h120v120h-120Z"/><g><g class="mark-line role-mark layer_0_marks" role="graphics-object" aria-roledescription="line mark container"><path aria-label="VO2_m: 0.227415693306; PCrATP: 2.31346694671; group: Young" role="graphics-symbol" aria-roledescription="line mark" d="M17.05617699798076,4.3266526643140635L19.53507642506465,8.31879976324197L21.973930035165054,11.930779915515162L24.386575383457792,15.242734390849026L26.781561911955812,18.31279215656114L29.163807701701867,21.18369822458506L31.53610113481474,23.887545129924533L33.899971173732595,26.44918577196393L36.256161619412886,28.888529689370607L38.604897524622594,31.222060179385807L40.94602245154192,33.46388082340717L43.27907483450887,35.62645292973242L45.603307556011906,37.721179002078955L47.91770101808702,39.75884676387333L50.22093600571835,41.7500454686924L52.511356705010165,43.705577994735876L54.78690696141276,45.63690383051517L57.045044374873676,47.55668541338511L59.282627005788584,49.4794958265442L61.49574616206762,51.42285702777351L63.67951436409349,53.408786145079894L65.82776500889693,55.46642508288406L67.93256374227555,57.63682649634549L69.98346760848605,59.98263904757208L71.96621264005411,62.609652966370774L73.86052871006515,65.71894285606366L75.63738335824902,69.73585351751674L77.25831307278155,75.57051317630325L78.67479609883799,84.63175091517014L79.76404746076089,96.95825021247799L80.16632784693724,112.99653477628709L80.17929016906402,107.99215686158773L80.26143381101717,114.98390551284483L80.34570147685339,116.05946690138943L80.40670330655827,116.72963713476867L80.45301585114878,117.18337544464121L80.48981373058764,117.5094011927591L80.52006038171255,117.75429973125723L80.54556253951164,117.944655442608L80.56749485210624,118.09666460067038L80.58664520112583,118.22072641205813L80.60358751162758,118.3238105702941L80.6187303550254,118.41075691145701L80.63237783740891,118.48502857765365L80.64477509030405,118.54916672135047L80.65610372100663,118.60507822401021L80.66651503338997,118.65422087334902L80.67612789949644,118.6977282770271L80.68504156318073,118.73649490018285L80.69333841963271,118.77123591392491L80.70108817120227,118.80252989756367L80.70834646047389,118.83084999706982L80.71516406674996,118.85658673299399L80.72158605736128,118.88006529818524L80.72764656438704,118.90155876579212L80.73338027351097,118.92129795125716L80.73881424263385,118.93947940570612L80.7439730733427,118.95627147742816L80.74887549924665,118.97181924146251L80.75355338110049,118.98624815055709L80.75801193906929,118.99966770989273L80.76227098871325,119.0121734796808L80.76634473611539,119.02384943460139L80.77024660036354,119.03476962052775L80.77398608596108,119.04499960991095L80.77757568652376,119.05459761692003L80.78102446530453,119.06361555621663L80.78435045387559,119.07209976846883L80.78753419836326,119.08009212119713L80.79061001769219,119.08762983701725L80.79357586655462,119.094746767991L80.79643779438435,119.1014734606136L80.79920132200036,119.10783760335495L80.80187277484625,119.1138643463449L80.80445615216848,119.119576603831L80.80695556926582,119.12499528267159L80.80937666217108,119.1301394889091L80.81172262689266,119.13502673915286L80.81399680390899,119.13967310847039L80.81620314971934,119.14409337300927L80.81834547817678,119.14830114200178L80.82042341821658,119.1523089898203L80.82244787559692,119.15612848673373L80.82440869028976,119.15977041299355L80.82631895562446,119.16324468722134L80.82817781300744,119.16656055303767L80.82998700894694,119.16972659290721L80.83174901631607,119.17275079030667L80.83346547592191,119.17564058476884L80.83513881725055,119.17840291239405L80.83677005169129,119.18104425513152L80.83836077293375,119.18357067037155L80.83991400547046,119.18598782232212L80.8414310052692,119.1883010231558L80.84290939287004,119.19051526600894L80.84435451010992,119.1926352141503L80.84576678683686,119.194665264084L80.84714745364832,119.19660954847701L80.84849650367265,119.19847196071943L80.84981643855612,119.20025616239568" stroke="#009DA3" stroke-width="2"/></g></g><path class="foreground" aria-hidden="true" d="" display="none"/></g><g transform="translate(0,0)"><path class="background" aria-hidden="true" d="M0,0h120v120h-120Z"/><g><g class="mark-line role-mark layer_0_marks" role="graphics-object" aria-roledescription="line mark container"><path aria-label="VO2_m: 0.229565907116; PCrATP: 2.31951460184; group: Old" role="graphics-symbol" aria-roledescription="line mark" d="M17.217443033729623,4.02426990788725L19.70128109274029,8.026148082986628L22.151533388546603,11.626471705672014L24.579438033126642,14.914045197690399L26.992586660330936,17.950302342113325L29.395619329819763,20.779344232673868L31.791344600040617,23.433636750850617L34.1814899729455,25.93779883578182L36.56713058679984,28.311059328425365L38.948938658613464,30.568836762311843L41.327317772580514,32.72380241819662L43.70249761178624,34.78656842417251L46.074577935794416,36.766198154400186L48.44356650770207,38.67055167085012L50.80939640505308,40.50654802495754L53.17193839460913,42.28036429632017L55.531009885356525,43.9975847659175L57.88637406688258,45.663333162087014L60.23774597376972,47.282361475251506L62.58478633807675,48.859146297288305L64.9270999361506,50.397960665540474L67.26422922149162,51.902947430426416L69.59564636469587,53.37818758157551L71.92074472652772,54.82776687407016L74.23882220755445,56.25586164010014L76.5490700731603,57.666810954349984L78.85054659500356,59.06523237554231L81.14215578339754,60.45613611353354L83.42261363350407,61.84509771076968L85.6903872948887,63.23846843930881L87.94367488691745,64.64368543253772L90.18028910160533,66.06970747732271L92.39757603475212,67.5276820184204L94.59225642674232,69.03197617893709L96.76022265531205,70.60190826583766L98.896222942039,72.26474002287388L100.99335699844573,74.06118135040562L103.04228466360715,76.05601023585916L105.02985834975684,78.35927214392042L106.93673758944544,81.16782400648306L108.73278625825147,84.83293125190973L110.36734434733887,89.87827095405561L111.74796453840271,96.58251959002013L112.72859698391066,103.7998355755371L113.27907856863887,109.17109852463759L113.60977015651265,112.2483183931581L113.83020344372765,114.03558192299833L113.98179906590418,115.15878218103794L114.09231766492816,115.91420103455394L114.17710237575136,116.45129398164383L114.2447482078496,116.85043504523254L114.30037666038318,117.15767839899935L114.34722245696527,117.40096490466794L114.38742788307505,117.59809994830276L114.42247378469341,117.76091208037323L114.45340758250337,117.89754315240815L114.4810095795361,118.01376727885511L114.50585884190949,118.11378844342455L114.52840392960756,118.20073649997673L114.54899320757139,118.27698770781866L114.56790724885587,118.34437778235593L114.58537026294891,118.40434674191873L114.60156329601351,118.45803973339639L114.6166386831426,118.5063784398021L114.63073316370833,118.55011271967032L114.64394136026452,118.58985959400414L114.65635813360446,118.62613043483832L114.66806343439931,118.65935300066499L114.67912379816815,118.68988784594175L114.68959764739662,118.7180409338408L114.6995362266604,118.74407358536158L114.70898447936462,118.76821033153638L114.71798211473327,118.79064515709405L114.72656419973863,118.8115465214491L114.73476200323252,118.83106141712742L114.74260466744323,118.84931866386047L114.75011616911378,118.86643167658632L114.75731978284696,118.88250064772653L114.76423578240532,118.89761445016073L114.7708833285219,118.9118521709741L114.77727881240511,118.92528444231145L114.78343807229878,118.93797451984237L114.7893749669509,118.94997923633086L114.79510265154671,118.96134978523465L114.80063305887296,118.97213240855214L114.8059773443807,118.9823689778396L114.81114512882048,118.9920975055533L114.81614607716466,119.00135256725078L114.82098835765534,119.01016569263064L114.82568140882734,119.0185656749623L114.83023150551024,119.02657889217916L114.83464534855146,119.03422953085641L114.83893074032541,119.04153980432845L114.84309271341492,119.04853017523192L114.84713711198172,119.0552195023902L114.85106930612555,119.06162520140568L114.85489439008596,119.06776338155431L114.85861684877453,119.07364896544763L114.86224120094205,119.07929579382089L114.86577152098987,119.08471672427484" stroke="#F98F00" stroke-width="2"/></g></g><path class="foreground" aria-hidden="true" d="" display="none"/></g></g><g class="mark-group role-legend" role="graphics-symbol" aria-roledescription="legend" aria-label="Symbol legend for stroke color with 2 values: Young, Old"><g transform="translate(69,5)"><path class="background" aria-hidden="true" d="M0,0h46v24h-46Z" pointer-events="none"/><g><g class="mark-group role-legend-entry"><g transform="translate(0,0)"><path class="background" aria-hidden="true" d="M0,0h0v0h0Z" pointer-events="none"/><g><g class="mark-group role-scope" role="graphics-object" aria-roledescription="group mark container"><g transform="translate(0,0)"><path class="background" aria-hidden="true" d="M0,0h46v11h-46Z" pointer-events="none" opacity="1"/><g><g class="mark-symbol role-legend-symbol" pointer-events="none"><path transform="translate(6,6)" d="M-5,0L5,0" stroke="#009DA3" stroke-width="1.5" opacity="1"/></g><g class="mark-text role-legend-label" pointer-events="none"><text text-anchor="start" transform="translate(16,9)" font-family="Arial" font-size="10px" fill="#000" opacity="1">Young</text></g></g><path class="foreground" aria-hidden="true" d="" pointer-events="none" display="none"/></g><g transform="translate(0,13)"><path class="background" aria-hidden="true" d="M0,0h46v11h-46Z" pointer-events="none" opacity="1"/><g><g class="mark-symbol role-legend-symbol" pointer-events="none"><path transform="translate(6,6)" d="M-5,0L5,0" stroke="#F98F00" stroke-width="1.5" opacity="1"/></g><g class="mark-text role-legend-label" pointer-events="none"><text text-anchor="start" transform="translate(16,9)" font-family="Arial" font-size="10px" fill="#000" opacity="1">Old</text></g></g><path class="foreground" aria-hidden="true" d="" pointer-events="none" display="none"/></g></g></g><path class="foreground" aria-hidden="true" d="" pointer-events="none" display="none"/></g></g></g><path class="foreground" aria-hidden="true" d="" pointer-events="none" display="none"/></g></g></g><path class="foreground" aria-hidden="true" d="" display="none"/></g></g></g></svg>
