<?xml version="1.0" encoding="utf-8"?>
<!DOCTYPE svg PUBLIC "-//W3C//DTD SVG 1.1//EN" "http://www.w3.org/Graphics/SVG/1.1/DTD/svg11.dtd">
<svg xmlns="http://www.w3.org/2000/svg" xmlns:xlink="http://www.w3.org/1999/xlink" version="1.1" class="marks" width="157" height="160" viewBox="0 0 157 160"><rect width="157" height="160" fill="white"/><g fill="none" stroke-miterlimit="10" transform="translate(31,5)"><g class="mark-group role-frame root" role="graphics-object" aria-roledescription="group mark container"><g transform="translate(0,0)"><path class="background" aria-hidden="true" d="M0.5,0.5h120v120h-120Z"/><g><g class="mark-group role-axis" role="graphics-symbol" aria-roledescription="axis" aria-label="X-axis titled 'VO2 (mmol/L mito/s)' for a linear scale with values from 0.0 to 3.0"><g transform="translate(0.5,120.5)"><path class="background" aria-hidden="true" d="M0,0h0v0h0Z" pointer-events="none"/><g><g class="mark-rule role-axis-tick" pointer-events="none"><line transform="translate(0,0)" x2="0" y2="3" stroke="black" stroke-width="1" opacity="1"/><line transform="translate(40,0)" x2="0" y2="3" stroke="black" stroke-width="1" opacity="1"/><line transform="translate(80,0)" x2="0" y2="3" stroke="black" stroke-width="1" opacity="1"/><line transform="translate(120,0)" x2="0" y2="3" stroke="black" stroke-width="1" opacity="1"/></g><g class="mark-text role-axis-label" pointer-events="none"><text text-anchor="start" transform="translate(0,13)" font-family="Arial" font-size="10px" fill="#000" opacity="1">0</text><text text-anchor="middle" transform="translate(40,13)" font-family="Arial" font-size="10px" fill="#000" opacity="1">1</text><text text-anchor="middle" transform="translate(80,13)" font-family="Arial" font-size="10px" fill="#000" opacity="1">2</text><text text-anchor="end" transform="translate(120,13)" font-family="Arial" font-size="10px" fill="#000" opacity="1">3</text></g><g class="mark-rule role-axis-domain" pointer-events="none"><line transform="translate(0,0)" x2="120" y2="0" stroke="black" stroke-width="1" opacity="1"/></g><g class="mark-text role-axis-title" pointer-events="none"><text text-anchor="middle" transform="translate(60,28)" font-family="Arial" font-size="11px" font-weight="normal" fill="#000" opacity="1">VO2 (mmol/L mito/s)</text></g></g><path class="foreground" aria-hidden="true" d="" pointer-events="none" display="none"/></g></g><g class="mark-group role-axis" role="graphics-symbol" aria-roledescription="axis" aria-label="Y-axis titled 'PCr:ATP ratio' for a linear scale with values from 0.0 to 2.4"><g transform="translate(0.5,0.5)"><path class="background" aria-hidden="true" d="M0,0h0v0h0Z" pointer-events="none"/><g><g class="mark-rule role-axis-tick" pointer-events="none"><line transform="translate(0,120)" x2="-3" y2="0" stroke="black" stroke-width="1" opacity="1"/><line transform="translate(0,70)" x2="-3" y2="0" stroke="black" stroke-width="1" opacity="1"/><line transform="translate(0,20)" x2="-3" y2="0" stroke="black" stroke-width="1" opacity="1"/></g><g class="mark-text role-axis-label" pointer-events="none"><text text-anchor="end" transform="translate(-5,123)" font-family="Arial" font-size="10px" fill="#000" opacity="1">0</text><text text-anchor="end" transform="translate(-5,72.99999999999999)" font-family="Arial" font-size="10px" fill="#000" opacity="1">1</text><text text-anchor="end" transform="translate(-5,22.999999999999996)" font-family="Arial" font-size="10px" fill="#000" opacity="1">2</text></g><g class="mark-rule role-axis-domain" pointer-events="none"><line transform="translate(0,120)" x2="0" y2="-120" stroke="black" stroke-width="1" opacity="1"/></g><g class="mark-text role-axis-title" pointer-events="none"><text text-anchor="middle" transform="translate(-15,60) rotate(-90) translate(0,-2)" font-family="Arial" font-size="11px" font-weight="normal" fill="#000" opacity="1">PCr:ATP ratio</text></g></g><path class="foreground" aria-hidden="true" d="" pointer-events="none" display="none"/></g></g><g class="mark-group role-scope layer_0_pathgroup" role="graphics-object" aria-roledescription="group mark container"><g transform="translate(0,0)"><path class="background" aria-hidden="true" d="M0,0h120v120h-120Z"/><g><g class="mark-line role-mark layer_0_marks" role="graphics-object" aria-roledescription="line mark container"><path aria-label="VO2_m: 0.237553031466; PCrATP: 2.32000919291; group: Young" role="graphics-symbol" aria-roledescription="line mark" d="M9.50212125865334,3.999540354616138L10.800720415165014,7.955578307758677L12.090879771792606,11.481453437778L13.375787893062926,14.694957855242237L14.657299508385636,17.66269175727237L15.936530043141131,20.428370178456102L17.214163568256918,23.023040490108826L18.490629185927602,25.469920479929584L19.76619780672989,27.78705300975782L21.041041882139695,29.988875580288955L22.31526943699779,32.087219946942874L23.588944909129793,34.091972497722026L24.862103376139178,36.01152802935051L26.13475890587659,37.85311253527003L27.40691099021159,39.623023219244836L28.67854344755974,41.326794509270776L29.94963737947456,42.969347229549264L31.220162262010806,44.55508270494014L32.4900824085398,46.08796787043778L33.75935498258303,47.57160920887861L35.02793283926101,49.00929860682522L36.295762761164966,50.40406399498475L37.562786196301886,51.758705400954554L38.82893790155229,53.07583104090818L40.094146691357324,54.35788132161498L41.35833383806753,55.607157427390284L42.621411791454,56.825845943255054L43.88328535884831,58.01603126026396L45.14384806663793,59.17972386547254L46.40298140452784,60.31887940535843L47.660553489154616,61.4354106041828L48.9164167038216,62.531212896837204L50.17040569355116,63.60817973688082L51.422333086868704,64.66823085703128L52.67198753252901,65.71332921106816L53.91912853294144,66.7455124823313L55.16348137142367,67.7669239568306L56.40473150809159,68.77984815708348L57.64251512007148,69.78676481695774L58.87641306440822,70.7903880248401L60.10593602221148,71.79375562366714L61.33051053389164,72.80031350743133L62.54946174459343,73.81403372062712L63.76198838811459,74.83958077190616L64.96713171136493,75.88253370087375L66.16373652584781,76.94970069128519L67.35039469428679,78.04958733219284L68.52536840992057,79.19308216347426L69.68649476520821,80.39457114216839L70.83101593808372,81.67374271663088L71.95534173020644,83.0587772893763L73.0546428422389,84.59205394249318L74.12211637785667,86.3409162951676L75.14762477163522,88.41729744471715L76.11507015623228,91.00787946474092L76.99747844816963,94.38611949480749L77.74969703418722,98.75361632756372L78.3122498000665,103.69235951939615L78.66991085741391,107.97567364924117L78.89510993248557,110.91695845231396L79.04721575647227,112.82524358476209L79.15311693330173,114.10230912135788L79.2303127245266,114.99439835584457L79.28926066270556,115.64393218847202L79.33601146575612,116.13429673154666L79.37422577217548,116.51592265371458L79.4062275879123,116.82053227170812L79.43355798925442,117.06885800139814L79.4572789411973,117.27492828755167L79.4781455949318,117.44853181082463L79.49670953293182,117.59668567356279L79.5133850990203,117.72454036066733L79.5284871072941,117.83595626238647L79.54226198810167,117.93388010348282L79.55490446706052,118.02059842656442L79.56657065856797,118.09791150962126L79.57738750956047,118.1672553880484L79.58746049355392,118.22978902925165L79.59687567484347,118.28645797855117L79.60570640814807,118.33804096851792L79.61401387130246,118.38518515059135L79.62185144491966,118.42843256804228L79.62926443556344,118.46824069672942L79.63629172788951,118.50499826661326L79.64296758407939,118.53903765027968L79.64932184567093,118.57064472690784L79.65538112212002,118.60006669165665L79.66116812726186,118.62751844510181L79.666704133155,118.65318759818315L79.67200727355333,118.67723874930444L79.67709395195018,118.69981685532179L79.68197940486439,118.72105008796024L79.68667689870794,118.74105219850503L79.69119861670002,118.75992448146701L79.6955556902668,118.77775743407066L79.69975859740204,118.79463215031092L79.7038144578194,118.81062157299081L79.70773410602672,118.82579134623636L79.71152430021581,118.84020086158777L79.71519230761419,118.85390390038671" stroke="#009DA3" stroke-width="2"/></g></g><path class="foreground" aria-hidden="true" d="" display="none"/></g><g transform="translate(0,0)"><path class="background" aria-hidden="true" d="M0,0h120v120h-120Z"/><g><g class="mark-line role-mark layer_0_marks" role="graphics-object" aria-roledescription="line mark container"><path aria-label="VO2_m: 0.238581450448; PCrATP: 2.32600666738; group: Old" role="graphics-symbol" aria-roledescription="line mark" d="M9.543258017924366,3.699666631249827L10.844894013187506,7.673825006139312L12.13976124596448,11.203349418871888L13.429973509583107,14.41265725003506L14.717012355867901,17.371173095517506L16.001861481141702,20.124201054375504L17.28516440901496,22.70375170064442L18.567344614656246,25.13364850432798L19.848685245841963,27.432310612948207L21.12937555817032,29.614417526553133L22.409541851366097,31.691943172821517L23.68927321878787,33.67485352021786L24.968626768803304,35.57157653664635L26.247641686160907,37.389333336268976L27.526340565541602,39.13439051229818L28.804737583825762,40.81223275118258L30.082838726462786,42.42770422022169L31.360644054427134,43.985116137609104L32.638149515936334,45.488329028010966L33.915347516571806,46.94082109344157L35.19222810603391,48.345740789807174L36.46877895568987,49.705953033219274L37.74498620081709,51.024074303660896L39.020834247122885,52.30250472161731L40.29630644165604,53.543452834083055L41.571384732034225,54.74895703220208L42.84605010473693,55.92090690454339L44.12028194947703,57.0610580594469L45.394059612335944,58.17104288100582L46.66736045374845,59.25238797362708L47.94016131997069,60.30652202538411L49.21243734161009,61.33478671583348L50.484162903934056,62.338443224935254L51.75531078169318,63.31868184189317L53.02585255278161,64.27662721826125L54.29575794337522,65.21334611846729L55.56499483069772,66.12985295760566L56.833530047301785,67.02711072767289L58.101327699597995,67.90604218715966L59.36835010655672,68.76752893118223L60.6345566714209,69.61241994412292L61.899904462819755,70.44153172622755L63.16434761546538,71.2556532802626L64.42783695089028,72.05555020192425L65.6903195414923,72.8419682574845L66.95173869418163,73.61563538348949L68.21203301733426,74.37726715584182L69.47113648300682,75.12756761255872L70.7289771428381,75.86723637948845L71.98547725733603,76.59696853185028L73.24055205298505,77.31746079706528L74.49410879553403,78.02941623893881L75.74604640927123,78.73354604955941L76.99625389199822,79.43057657485605L78.24460877589152,80.121255806843L79.49097616013832,80.80635749125831L80.73520704655209,81.48668768716132L81.97713543355506,82.16309671227052L83.21657655286381,82.83648579993712L84.45332389099039,83.50781887679514L85.68714522095304,84.1781384539946L86.9177799301502,84.84857568039749L88.1449315096961,85.52038169216968L89.36826201244632,86.19494656034752L90.58738742303971,86.87382664576238L91.80186249398152,87.55879483636744L93.01117525717216,88.25188837895399L94.2147231225888,88.9554788269906L95.41180077414656,89.67236269892706L96.60156648207715,90.40589549891178L97.78301181047101,91.16014878854011L98.95490757898399,91.9401718500203L100.11573503736498,92.75231516574404L101.26358353287888,93.60473837644601L102.39599749656708,94.50812405718275L103.50974978326477,95.47666664423258L104.60047122524186,96.52948458734507L105.66206266759508,97.6922838911172L106.68578491211937,98.99858654030295L107.65885688863715,100.48807798848456L108.5629215602165,102.19557993202365L109.37367572959793,104.12075482396887L110.06538944262721,106.18211265258861L110.62283445537334,108.20678062244406L111.05155629370498,110.01298411439312L111.37367991700695,111.50910709883891L111.61566662229751,112.69962530057238L111.80025969114357,113.63483788107058L111.94424115949764,114.37196525155386L112.05921085555865,114.95951180029918L112.15304506800175,115.43450633861157L112.23115248061046,115.82415264135089L112.29729062021526,116.14826994106535L112.35413633914489,116.42135609850087L112.40363158745517,116.65413086969818L112.44721712444657,116.85462312673761L112.4859784141424,117.02893065318958L112.52074878827982,117.18174736108624L112.55217725251843,117.3167342900788L112.58077796229153,117.43678180025437" stroke="#F98F00" stroke-width="2"/></g></g><path class="foreground" aria-hidden="true" d="" display="none"/></g></g><g class="mark-group role-legend" role="graphics-symbol" aria-roledescription="legend" aria-label="Symbol legend for stroke color with 2 values: Young, Old"><g transform="translate(69,5)"><path class="background" aria-hidden="true" d="M0,0h46v24h-46Z" pointer-events="none"/><g><g class="mark-group role-legend-entry"><g transform="translate(0,0)"><path class="background" aria-hidden="true" d="M0,0h0v0h0Z" pointer-events="none"/><g><g class="mark-group role-scope" role="graphics-object" aria-roledescription="group mark container"><g transform="translate(0,0)"><path class="background" aria-hidden="true" d="M0,0h46v11h-46Z" pointer-events="none" opacity="1"/><g><g class="mark-symbol role-legend-symbol" pointer-events="none"><path transform="translate(6,6)" d="M-5,0L5,0" stroke="#009DA3" stroke-width="1.5" opacity="1"/></g><g class="mark-text role-legend-label" pointer-events="none"><text text-anchor="start" transform="translate(16,9)" font-family="Arial" font-size="10px" fill="#000" opacity="1">Young</text></g></g><path class="foreground" aria-hidden="true" d="" pointer-events="none" display="none"/></g><g transform="translate(0,13)"><path class="background" aria-hidden="true" d="M0,0h46v11h-46Z" pointer-events="none" opacity="1"/><g><g class="mark-symbol role-legend-symbol" pointer-events="none"><path transform="translate(6,6)" d="M-5,0L5,0" stroke="#F98F00" stroke-width="1.5" opacity="1"/></g><g class="mark-text role-legend-label" pointer-events="none"><text text-anchor="start" transform="translate(16,9)" font-family="Arial" font-size="10px" fill="#000" opacity="1">Old</text></g></g><path class="foreground" aria-hidden="true" d="" pointer-events="none" display="none"/></g></g></g><path class="foreground" aria-hidden="true" d="" pointer-events="none" display="none"/></g></g></g><path class="foreground" aria-hidden="true" d="" pointer-events="none" display="none"/></g></g></g><path class="foreground" aria-hidden="true" d="" display="none"/></g></g></g></svg>
